<svg width="24" height="22" viewBox="0 0 24 22" fill="none" xmlns="http://www.w3.org/2000/svg">
<path d="M10.4262 1.60207C9.41139 2.61688 11.7322 3.77286 11.7322 3.86111L12.4735 3.98464C13.3206 3.46107 14.7784 2.17742 13.8324 1.23145C12.8864 0.285487 12.3087 1.96681 12.1381 2.92572C11.9058 2.14624 11.238 0.790233 10.4262 1.60207Z" fill="#95CA5E"/>
<path fill-rule="evenodd" clip-rule="evenodd" d="M3.59671 16.3239C3.40774 17.8986 4.88924 21.048 12.327 21.048C19.7647 21.048 20.9439 17.7222 20.6038 16.0593C21.7376 15.8955 23.7708 15.054 22.8336 12.998C21.662 10.4281 15.8418 2.98279 12.327 2.98279C8.81221 2.98279 -1.9778 11.732 1.66926 15.379C2.09255 15.9232 3.13059 16.2357 3.59671 16.3239ZM8.43737 12.1289C6.92564 12.1415 3.9702 12.7563 4.2423 15.1146C4.24499 15.1379 4.24768 15.1612 4.25035 15.1844C4.58645 18.1012 4.86506 20.5191 11.8766 20.5191C18.9439 20.5191 19.7754 18.327 19.7754 14.4343C19.7754 13.3761 16.8653 12.1289 8.43737 12.1289Z" fill="#FFBC59"/>
<path d="M4.24218 15.1145C3.97007 12.7562 6.92551 12.1414 8.43725 12.1288C16.8652 12.1288 19.7752 13.376 19.7752 14.4342C19.7752 18.3269 18.9438 20.5189 11.8764 20.5189C4.80907 20.5189 4.58232 18.0623 4.24218 15.1145Z" fill="#FFE2C4"/>
<circle cx="9.17194" cy="16.0031" r="0.687299" fill="#4B2717" stroke="#4B2717" stroke-width="0.104051"/>
<ellipse cx="7.65974" cy="17.5069" rx="0.739325" ry="0.364686" fill="#FFBAB1"/>
<circle cx="14.8287" cy="16.0031" r="0.687299" fill="#4B2717" stroke="#4B2717" stroke-width="0.104051"/>
<path d="M10.6797 17.0213C10.7529 17.3323 11.067 17.3841 11.162 17.3841C11.8435 17.3841 11.777 16.8805 11.8926 16.8805C12.0081 16.8805 11.8926 17.3841 12.4955 17.3841C12.9627 17.3841 13.011 17.1181 13.0444 16.9737" stroke="#4B2717" stroke-width="0.312153" stroke-linecap="round"/>
</svg>
