<svg width="79" height="77" viewBox="0 0 79 77" fill="none" xmlns="http://www.w3.org/2000/svg">
<mask id="path-1-outside-1_22_2670" maskUnits="userSpaceOnUse" x="-0.454102" y="7.15771" width="80" height="53" fill="black">
<rect fill="white" x="-0.454102" y="7.15771" width="80" height="53"/>
<path fill-rule="evenodd" clip-rule="evenodd" d="M12.6966 28.9911V34.6178C12.6506 34.6963 12.6045 34.7743 12.5584 34.8516C11.8263 36.079 10.4013 36.7866 8.89641 37.534C6.47307 38.7374 3.84266 40.0437 3.56525 43.7885C3.20552 48.6448 7.9494 51.7324 10.3663 52.6692C10.8992 52.9313 11.3126 53.6496 11.734 54.3818C12.6682 56.0051 13.6417 57.6965 16.0432 54.6365C19.3759 50.39 21.6805 50.8729 28.0206 52.2013L28.0212 52.2015C28.3105 52.2621 28.6081 52.3244 28.9146 52.3882C33.3046 53.3013 34.6663 52.7222 35.7968 52.2415C36.4757 51.9528 37.0711 51.6996 38.1888 51.8261C41.1677 52.1634 45.2146 52.5568 46.957 50.2523C48.2876 48.4926 50.5357 48.3716 53.0258 48.2375C53.7967 48.196 54.5909 48.1533 55.3881 48.0603C57.5466 47.8084 59.4057 46.7738 60.6855 46.0615C61.4053 45.6609 61.9419 45.3623 62.2453 45.3623C66.1797 45.894 66.3925 45.3695 67.5933 42.4093L67.5935 42.4088L67.5984 42.3969L67.599 42.3954C67.6659 42.2304 67.7359 42.0578 67.8098 41.8775C68.4436 40.331 69.958 38.6587 71.3573 37.1134C73.0604 35.2327 74.5932 33.54 74.1612 32.4909C73.6845 31.3331 73.8473 31.1656 74.2747 30.7259C74.5528 30.4399 74.9428 30.0387 75.3416 29.1747C75.8787 28.0109 75.497 27.7977 74.9197 27.4752C74.4096 27.1903 73.7469 26.8202 73.4305 25.6337C72.7986 23.2638 72.2653 23.2131 69.3804 22.9387C69.1863 22.9203 68.9815 22.9008 68.7654 22.8795C66.4375 22.6505 65.8974 21.7479 65.3332 20.8049C65.0664 20.359 64.7942 19.9041 64.325 19.5071C62.8212 18.7697 61.6819 18.6162 60.7082 18.7636C59.4606 15.277 56.9183 11.2269 51.7874 10.5529C51.2868 10.4876 50.8079 10.4296 50.3509 10.386H50.3436C46.3264 9.96434 43.9415 10.1948 42.5617 10.5297C42.3938 10.5702 42.2409 10.6121 42.1017 10.6546L42.0959 10.6573C41.1001 10.9647 40.8104 11.3002 40.8104 11.3002H30.9216C24.2045 11.3002 19.9373 13.313 17.2379 15.7032C17.0428 15.8759 16.8559 16.0507 16.6769 16.2267C13.2351 19.6113 12.6966 23.4962 12.6966 23.4962L12.2385 23.5638C11.9932 23.6 11.8115 23.8104 11.8115 24.0584V24.1511V28.4157V28.4565C11.8115 28.7162 12.0103 28.9326 12.2691 28.9547L12.6966 28.9911Z"/>
</mask>
<path fill-rule="evenodd" clip-rule="evenodd" d="M12.6966 28.9911V34.6178C12.6506 34.6963 12.6045 34.7743 12.5584 34.8516C11.8263 36.079 10.4013 36.7866 8.89641 37.534C6.47307 38.7374 3.84266 40.0437 3.56525 43.7885C3.20552 48.6448 7.9494 51.7324 10.3663 52.6692C10.8992 52.9313 11.3126 53.6496 11.734 54.3818C12.6682 56.0051 13.6417 57.6965 16.0432 54.6365C19.3759 50.39 21.6805 50.8729 28.0206 52.2013L28.0212 52.2015C28.3105 52.2621 28.6081 52.3244 28.9146 52.3882C33.3046 53.3013 34.6663 52.7222 35.7968 52.2415C36.4757 51.9528 37.0711 51.6996 38.1888 51.8261C41.1677 52.1634 45.2146 52.5568 46.957 50.2523C48.2876 48.4926 50.5357 48.3716 53.0258 48.2375C53.7967 48.196 54.5909 48.1533 55.3881 48.0603C57.5466 47.8084 59.4057 46.7738 60.6855 46.0615C61.4053 45.6609 61.9419 45.3623 62.2453 45.3623C66.1797 45.894 66.3925 45.3695 67.5933 42.4093L67.5935 42.4088L67.5984 42.3969L67.599 42.3954C67.6659 42.2304 67.7359 42.0578 67.8098 41.8775C68.4436 40.331 69.958 38.6587 71.3573 37.1134C73.0604 35.2327 74.5932 33.54 74.1612 32.4909C73.6845 31.3331 73.8473 31.1656 74.2747 30.7259C74.5528 30.4399 74.9428 30.0387 75.3416 29.1747C75.8787 28.0109 75.497 27.7977 74.9197 27.4752C74.4096 27.1903 73.7469 26.8202 73.4305 25.6337C72.7986 23.2638 72.2653 23.2131 69.3804 22.9387C69.1863 22.9203 68.9815 22.9008 68.7654 22.8795C66.4375 22.6505 65.8974 21.7479 65.3332 20.8049C65.0664 20.359 64.7942 19.9041 64.325 19.5071C62.8212 18.7697 61.6819 18.6162 60.7082 18.7636C59.4606 15.277 56.9183 11.2269 51.7874 10.5529C51.2868 10.4876 50.8079 10.4296 50.3509 10.386H50.3436C46.3264 9.96434 43.9415 10.1948 42.5617 10.5297C42.3938 10.5702 42.2409 10.6121 42.1017 10.6546L42.0959 10.6573C41.1001 10.9647 40.8104 11.3002 40.8104 11.3002H30.9216C24.2045 11.3002 19.9373 13.313 17.2379 15.7032C17.0428 15.8759 16.8559 16.0507 16.6769 16.2267C13.2351 19.6113 12.6966 23.4962 12.6966 23.4962L12.2385 23.5638C11.9932 23.6 11.8115 23.8104 11.8115 24.0584V24.1511V28.4157V28.4565C11.8115 28.7162 12.0103 28.9326 12.2691 28.9547L12.6966 28.9911Z" fill="#FFC116"/>
<path d="M12.6966 34.6178L15.2841 36.136L15.6966 35.4329V34.6178H12.6966ZM12.6966 28.9911H15.6966V26.2356L12.9511 26.0019L12.6966 28.9911ZM12.5584 34.8516L9.98193 33.3148L9.98192 33.3148L12.5584 34.8516ZM8.89641 37.534L10.2307 40.2209L10.2307 40.2209L8.89641 37.534ZM3.56525 43.7885L0.573452 43.5669L3.56525 43.7885ZM10.3663 52.6692L11.6903 49.9772L11.5727 49.9194L11.4505 49.872L10.3663 52.6692ZM11.734 54.3818L14.3341 52.8854L14.3341 52.8854L11.734 54.3818ZM16.0432 54.6365L13.6832 52.7843L16.0432 54.6365ZM28.0206 52.2013L28.6546 49.2691L28.6452 49.2671L28.6358 49.2651L28.0206 52.2013ZM28.0212 52.2015L27.3872 55.1337L27.3966 55.1358L27.406 55.1377L28.0212 52.2015ZM28.9146 52.3882L28.3037 55.3253L28.9146 52.3882ZM35.7968 52.2415L34.6228 49.4807L35.7968 52.2415ZM38.1888 51.8261L38.5262 48.8452L38.5262 48.8452L38.1888 51.8261ZM46.957 50.2523L44.5641 48.443L44.5641 48.443L46.957 50.2523ZM53.0258 48.2375L52.8646 45.2419H52.8646L53.0258 48.2375ZM55.3881 48.0603L55.7357 51.04H55.7357L55.3881 48.0603ZM60.6855 46.0615L59.2266 43.4401L59.2266 43.4401L60.6855 46.0615ZM62.2453 45.3623L62.6471 42.3893L62.4471 42.3623H62.2453V45.3623ZM67.5933 42.4093L70.3733 43.537L70.3803 43.5198L70.3871 43.5025L67.5933 42.4093ZM67.5935 42.4088L64.8137 41.2808L64.8066 41.2981L64.7998 41.3156L67.5935 42.4088ZM67.5984 42.3969L64.8187 41.2683L64.8185 41.2689L67.5984 42.3969ZM67.599 42.3954L70.3786 43.5239L70.3789 43.5232L67.599 42.3954ZM67.8098 41.8775L70.5857 43.0152L70.5858 43.0152L67.8098 41.8775ZM71.3573 37.1134L69.1336 35.0997L69.1336 35.0997L71.3573 37.1134ZM74.1612 32.4909L71.3872 33.6332L71.3872 33.6332L74.1612 32.4909ZM74.2747 30.7259L76.4258 32.8171V32.8171L74.2747 30.7259ZM75.3416 29.1747L78.0655 30.4319V30.4319L75.3416 29.1747ZM74.9197 27.4752L73.4567 30.0943L73.4567 30.0944L74.9197 27.4752ZM73.4305 25.6337L70.5318 26.4067L73.4305 25.6337ZM69.3804 22.9387L69.6644 19.9522H69.6644L69.3804 22.9387ZM68.7654 22.8795L68.4717 25.8651H68.4717L68.7654 22.8795ZM65.3332 20.8049L62.7588 22.3453L65.3332 20.8049ZM64.325 19.5071L66.2628 17.2169L65.9793 16.9771L65.6459 16.8135L64.325 19.5071ZM60.7082 18.7636L57.8836 19.7743L58.7155 22.0992L61.157 21.7298L60.7082 18.7636ZM51.7874 10.5529L52.1781 7.57847L52.1754 7.57812L51.7874 10.5529ZM50.3509 10.386L50.6353 7.39956L50.4934 7.38605H50.3509V10.386ZM50.3436 10.386L50.0304 13.3697L50.1866 13.386H50.3436V10.386ZM42.5617 10.5297L43.2649 13.4461L43.2693 13.4451L42.5617 10.5297ZM42.1017 10.6546L41.2262 7.78517L41.0158 7.84938L40.817 7.9436L42.1017 10.6546ZM42.0959 10.6573L42.9807 13.5239L43.1862 13.4604L43.3806 13.3683L42.0959 10.6573ZM40.8104 11.3002V14.3002H42.1834L43.0808 13.2611L40.8104 11.3002ZM17.2379 15.7032L19.2267 17.9492L19.2267 17.9492L17.2379 15.7032ZM16.6769 16.2267L18.7803 18.3657L18.7804 18.3657L16.6769 16.2267ZM12.6966 23.4962L13.1345 26.464L15.3595 26.1358L15.6682 23.9081L12.6966 23.4962ZM12.2385 23.5638L12.6764 26.5316H12.6764L12.2385 23.5638ZM12.2691 28.9547L12.5236 25.9655L12.5236 25.9655L12.2691 28.9547ZM15.6966 34.6178V28.9911H9.69665V34.6178H15.6966ZM15.1348 36.3885C15.1854 36.3037 15.2352 36.2194 15.2841 36.136L10.1092 33.0996C10.0659 33.1733 10.0236 33.2449 9.98193 33.3148L15.1348 36.3885ZM10.2307 40.2209C11.4994 39.5909 13.861 38.524 15.1348 36.3885L9.98192 33.3148C9.79155 33.6339 9.30318 33.9824 7.56207 34.847L10.2307 40.2209ZM6.55706 44.0101C6.63802 42.9172 7.01094 42.3404 7.49198 41.8836C8.10399 41.3024 8.9433 40.8602 10.2307 40.2209L7.56207 34.847C6.42617 35.4111 4.73861 36.2239 3.36024 37.5329C1.85088 38.9662 0.769894 40.915 0.573452 43.5669L6.55706 44.0101ZM11.4505 49.872C10.5739 49.5322 9.17388 48.7461 8.08371 47.6159C7.01883 46.512 6.45998 45.3206 6.55706 44.0101L0.573452 43.5669C0.310787 47.1128 1.94401 49.8933 3.76537 51.7815C5.56144 53.6434 7.74185 54.8695 9.28212 55.4665L11.4505 49.872ZM14.3341 52.8854C14.1439 52.5548 13.851 52.039 13.5119 51.5762C13.1916 51.139 12.607 50.4281 11.6903 49.9772L9.04231 55.3613C8.83031 55.257 8.7072 55.1463 8.66636 55.107C8.6255 55.0678 8.62772 55.0619 8.672 55.1223C8.71477 55.1807 8.77392 55.2693 8.85606 55.404C8.93918 55.5403 9.02493 55.689 9.13386 55.8783L14.3341 52.8854ZM13.6832 52.7843C13.4514 53.0798 13.2735 53.2704 13.1492 53.3875C13.0225 53.507 12.9828 53.5203 13.0314 53.4933C13.0859 53.463 13.2579 53.3791 13.5304 53.348C13.8182 53.3151 14.1129 53.3536 14.3754 53.4503C14.6202 53.5405 14.7709 53.6564 14.8308 53.708C14.8877 53.7569 14.8909 53.7719 14.8437 53.7104C14.7982 53.651 14.7332 53.5568 14.6419 53.4089C14.5495 53.2591 14.4551 53.0956 14.3341 52.8854L9.13386 55.8783C9.34347 56.2425 9.67957 56.8364 10.0837 57.3631C10.4725 57.8698 11.1824 58.6683 12.3013 59.0804C13.5964 59.5575 14.8842 59.3276 15.9448 58.7385C16.893 58.2118 17.6964 57.3893 18.4032 56.4886L13.6832 52.7843ZM28.6358 49.2651C25.683 48.6464 22.919 48.025 20.4978 48.3559C17.65 48.7452 15.6126 50.3259 13.6832 52.7843L18.4032 56.4886C19.8065 54.7005 20.5877 54.3994 21.3104 54.3007C22.4597 54.1436 24.018 54.4278 27.4053 55.1376L28.6358 49.2651ZM28.6552 49.2692L28.6546 49.2691L27.3866 55.1336L27.3872 55.1337L28.6552 49.2692ZM29.5255 49.4511C29.2215 49.3878 28.926 49.3259 28.6364 49.2652L27.406 55.1377C27.6949 55.1983 27.9947 55.2611 28.3037 55.3253L29.5255 49.4511ZM34.6228 49.4807C34.1354 49.688 33.864 49.8008 33.3149 49.8491C32.6803 49.905 31.5569 49.8736 29.5255 49.4511L28.3037 55.3253C30.6623 55.8159 32.4147 55.9516 33.8411 55.826C35.353 55.6929 36.3277 55.2757 36.9708 55.0022L34.6228 49.4807ZM38.5262 48.8452C36.6287 48.6304 35.4497 49.1291 34.6228 49.4807L36.9708 55.0022C37.3382 54.846 37.4161 54.8208 37.4834 54.8057C37.5042 54.801 37.5953 54.7781 37.8513 54.8071L38.5262 48.8452ZM44.5641 48.443C44.4549 48.5874 44.06 48.9229 42.7615 49.0425C41.5107 49.1577 40.0488 49.0175 38.5262 48.8452L37.8513 54.8071C39.3077 54.972 41.3588 55.1971 43.3118 55.0172C45.217 54.8417 47.7168 54.2217 49.35 52.0616L44.5641 48.443ZM52.8646 45.2419C51.696 45.3048 50.1939 45.3743 48.8104 45.7296C47.3285 46.1102 45.7547 46.8683 44.5641 48.443L49.35 52.0617C49.4899 51.8767 49.7055 51.6944 50.3028 51.541C50.9985 51.3624 51.8656 51.3043 53.1871 51.2332L52.8646 45.2419ZM55.0405 45.0805C54.3512 45.1609 53.6497 45.1996 52.8646 45.2419L53.1871 51.2332C53.9438 51.1925 54.8305 51.1457 55.7357 51.04L55.0405 45.0805ZM59.2266 43.4401C57.9028 44.1769 56.5296 44.9067 55.0405 45.0805L55.7357 51.04C58.5635 50.7101 60.9086 49.3707 62.1444 48.6829L59.2266 43.4401ZM62.2453 42.3623C61.3395 42.3623 60.5698 42.7398 60.3323 42.8529C59.9649 43.0277 59.5569 43.2563 59.2266 43.4401L62.1444 48.6829C62.3285 48.5804 62.4791 48.4967 62.6149 48.4234C62.7513 48.3498 62.8453 48.3017 62.9108 48.2705C62.942 48.2557 62.9581 48.2488 62.9618 48.2473C62.9662 48.2455 62.948 48.2532 62.9115 48.2653C62.8763 48.2768 62.8048 48.2987 62.7042 48.3186C62.6059 48.3381 62.4474 48.3623 62.2453 48.3623V42.3623ZM64.8133 41.2816C64.4891 42.081 64.3211 42.483 64.173 42.7536C64.0496 42.9789 64.0942 42.814 64.3538 42.6517C64.613 42.4896 64.7602 42.5331 64.4673 42.5433C64.1438 42.5546 63.6037 42.5186 62.6471 42.3893L61.8436 48.3353C62.8542 48.4719 63.8161 48.5697 64.6765 48.5397C65.5676 48.5086 66.5808 48.3357 67.5351 47.7389C68.4897 47.1418 69.0586 46.324 69.4358 45.635C69.7882 44.9914 70.0972 44.2177 70.3733 43.537L64.8133 41.2816ZM64.7998 41.3156L64.7996 41.3161L70.3871 43.5025L70.3873 43.502L64.7998 41.3156ZM64.8185 41.2689L64.8137 41.2808L70.3734 43.5368L70.3782 43.5249L64.8185 41.2689ZM64.8193 41.2668L64.8187 41.2683L70.378 43.5255L70.3786 43.5239L64.8193 41.2668ZM65.0339 40.7398C64.9577 40.9257 64.8858 41.103 64.819 41.2675L70.3789 43.5232C70.446 43.3577 70.5141 43.1899 70.5857 43.0152L65.0339 40.7398ZM69.1336 35.0997C67.8678 36.4975 65.912 38.5973 65.0339 40.7398L70.5858 43.0152C70.9753 42.0647 72.0481 40.82 73.5811 39.1271L69.1336 35.0997ZM71.3872 33.6332C71.1294 33.0072 71.2722 32.5239 71.293 32.4602C71.3107 32.406 71.2846 32.504 71.0869 32.792C70.6839 33.3788 70.0321 34.1074 69.1336 35.0997L73.581 39.1271C74.3856 38.2387 75.3517 37.1805 76.0329 36.1886C76.3773 35.6871 76.7599 35.0478 76.9967 34.3223C77.2366 33.5874 77.409 32.4992 76.9353 31.3487L71.3872 33.6332ZM72.1236 28.6348C72.0541 28.7064 71.1053 29.5428 70.9091 30.9145C70.7458 32.0565 71.1627 33.088 71.3872 33.6332L76.9353 31.3487C76.8406 31.1187 76.8258 31.0511 76.8327 31.0794C76.8405 31.1114 76.9041 31.3766 76.8487 31.7638C76.7853 32.207 76.6056 32.5502 76.4554 32.7617C76.3947 32.8471 76.3485 32.8974 76.3484 32.8974C76.3471 32.8989 76.3512 32.8943 76.3653 32.8796C76.3802 32.864 76.3974 32.8463 76.4258 32.8171L72.1236 28.6348ZM72.6177 27.9175C72.5032 28.1656 72.412 28.3012 72.3585 28.3729C72.3024 28.4481 72.2544 28.5003 72.1236 28.6348L76.4258 32.8171C76.817 32.4146 77.4653 31.7322 78.0655 30.4319L72.6177 27.9175ZM73.4567 30.0944C73.6519 30.2034 73.5755 30.1679 73.4755 30.091C73.3308 29.9797 72.9996 29.6878 72.7827 29.1715C72.5627 28.6477 72.5872 28.198 72.6224 27.9814C72.6522 27.7986 72.6927 27.7549 72.6177 27.9175L78.0655 30.4319C78.3809 29.7485 78.9444 28.347 78.3143 26.8474C77.997 26.0921 77.4957 25.6137 77.1338 25.3353C76.8167 25.0914 76.4762 24.9084 76.3827 24.8561L73.4567 30.0944ZM70.5318 26.4067C70.8132 27.4619 71.3008 28.315 71.9523 28.9846C72.5618 29.6111 73.2155 29.9596 73.4567 30.0943L76.3827 24.8562C76.3497 24.8377 76.3246 24.8237 76.3003 24.8099C76.2768 24.7966 76.2582 24.7859 76.2424 24.7767C76.2109 24.7581 76.1958 24.7483 76.19 24.7444C76.1849 24.741 76.1904 24.7444 76.2027 24.7544C76.2152 24.7646 76.2328 24.7801 76.2527 24.8005C76.2728 24.8212 76.2921 24.8436 76.3094 24.8668C76.3267 24.89 76.3389 24.9096 76.3467 24.9236C76.3543 24.9373 76.3554 24.9416 76.3521 24.9333C76.3488 24.9248 76.3402 24.9017 76.3292 24.8607L70.5318 26.4067ZM69.0963 25.9252C69.8596 25.9978 70.3035 26.042 70.6311 26.0986C70.9525 26.1541 70.8869 26.1808 70.7086 26.074C70.6057 26.0123 70.5037 25.9301 70.4169 25.8351C70.3348 25.7452 70.2977 25.6781 70.2942 25.6714C70.2933 25.6699 70.3186 25.7174 70.3643 25.8469C70.4099 25.976 70.4647 26.1548 70.5318 26.4067L76.3292 24.8607C76.0134 23.6763 75.4913 21.9448 73.792 20.9268C73.0407 20.4768 72.2615 20.2913 71.6518 20.186C71.0482 20.0818 70.3436 20.0168 69.6644 19.9522L69.0963 25.9252ZM68.4717 25.8651C68.6934 25.8869 68.9028 25.9068 69.0964 25.9252L69.6644 19.9522C69.4698 19.9337 69.2697 19.9146 69.059 19.8939L68.4717 25.8651ZM62.7588 22.3453C63.0166 22.7761 63.5583 23.7383 64.5887 24.5105C65.6554 25.3101 66.9522 25.7156 68.4717 25.8651L69.059 19.8939C68.2507 19.8144 68.1135 19.6542 68.1871 19.7094C68.2245 19.7374 68.214 19.7767 67.9075 19.2646L62.7588 22.3453ZM62.3872 21.7973C62.4283 21.832 62.4764 21.8732 62.7588 22.3453L67.9075 19.2646C67.6564 18.8448 67.1601 17.9762 66.2628 17.2169L62.3872 21.7973ZM61.157 21.7298C61.3954 21.6937 61.9158 21.667 63.0041 22.2007L65.6459 16.8135C63.7266 15.8723 61.9685 15.5387 60.2594 15.7973L61.157 21.7298ZM51.3967 13.5274C54.8378 13.9794 56.7691 16.6597 57.8836 19.7743L63.5328 17.7528C62.1521 13.8943 58.9988 8.47439 52.1781 7.57847L51.3967 13.5274ZM50.0664 13.3725C50.4731 13.4113 50.9127 13.4642 51.3994 13.5277L52.1754 7.57812C51.6608 7.51099 51.1427 7.44789 50.6353 7.39956L50.0664 13.3725ZM50.3436 13.386H50.3509V7.38605H50.3436V13.386ZM43.2693 13.4451C44.2072 13.2174 46.2234 12.97 50.0304 13.3697L50.6568 7.40244C46.4295 6.95867 43.6758 7.17218 41.854 7.61435L43.2693 13.4451ZM42.9771 13.524C43.0572 13.4996 43.1527 13.4732 43.2649 13.4461L41.8585 7.61328C41.635 7.66716 41.4245 7.72468 41.2262 7.78517L42.9771 13.524ZM43.3806 13.3683L43.3864 13.3656L40.817 7.9436L40.8112 7.94633L43.3806 13.3683ZM40.8104 11.3002C43.0808 13.2611 43.0797 13.2624 43.0785 13.2638C43.0781 13.2643 43.0769 13.2656 43.0761 13.2666C43.0745 13.2684 43.0729 13.2702 43.0713 13.272C43.0682 13.2757 43.065 13.2793 43.0618 13.2828C43.0556 13.29 43.0493 13.297 43.0431 13.3039C43.0306 13.3178 43.0184 13.3312 43.0063 13.3441C42.982 13.3701 42.9586 13.3942 42.936 13.4166C42.8907 13.4614 42.8491 13.4991 42.8123 13.5304C42.7384 13.5931 42.6855 13.6282 42.6625 13.6425C42.6163 13.6712 42.6983 13.6111 42.9807 13.5239L41.2111 7.79079C40.4977 8.01098 39.937 8.27226 39.4969 8.54554C39.277 8.68211 39.0894 8.82037 38.9301 8.95559C38.8506 9.02308 38.7786 9.08938 38.7136 9.15377C38.6811 9.18594 38.6504 9.21757 38.6215 9.24856C38.607 9.26405 38.593 9.27937 38.5794 9.2945C38.5726 9.30207 38.5659 9.30959 38.5593 9.31707C38.556 9.3208 38.5528 9.32453 38.5495 9.32824C38.5479 9.33009 38.5463 9.33195 38.5447 9.3338C38.5439 9.33472 38.5427 9.33611 38.5423 9.33657C38.5411 9.33795 38.5399 9.33934 40.8104 11.3002ZM30.9216 14.3002H40.8104V8.30019H30.9216V14.3002ZM19.2267 17.9492C21.3178 16.0976 24.8535 14.3002 30.9216 14.3002V8.30019C23.5556 8.30019 18.5567 10.5284 15.2491 13.4571L19.2267 17.9492ZM18.7804 18.3657C18.9226 18.2258 19.0713 18.0868 19.2267 17.9492L15.2491 13.4571C15.0143 13.665 14.7892 13.8755 14.5734 14.0877L18.7804 18.3657ZM12.6966 23.4962C15.6682 23.9081 15.6681 23.9091 15.6679 23.9102C15.6679 23.9105 15.6677 23.9116 15.6677 23.9122C15.6675 23.9136 15.6673 23.9149 15.6671 23.9161C15.6668 23.9186 15.6664 23.9208 15.6662 23.9228C15.6656 23.9268 15.6651 23.9299 15.6648 23.9322C15.6641 23.9367 15.6639 23.9378 15.6643 23.9355C15.665 23.9309 15.668 23.913 15.6737 23.8828C15.6852 23.8223 15.7076 23.7133 15.745 23.5638C15.82 23.2637 15.9536 22.8076 16.1766 22.2571C16.6242 21.1522 17.4147 19.7087 18.7803 18.3657L14.5734 14.0877C12.4973 16.1293 11.2977 18.3205 10.6156 20.0043C10.2738 20.848 10.0576 21.5746 9.92411 22.1088C9.85723 22.3763 9.81066 22.5973 9.77927 22.7625C9.76356 22.8451 9.75162 22.914 9.7428 22.9679C9.73839 22.9949 9.73476 23.0182 9.73183 23.0376C9.73036 23.0474 9.72907 23.0561 9.72795 23.0639C9.72739 23.0678 9.72687 23.0714 9.72638 23.0748C9.72614 23.0765 9.72591 23.0782 9.72569 23.0797C9.72558 23.0805 9.72542 23.0817 9.72537 23.0821C9.72521 23.0832 9.72506 23.0843 12.6966 23.4962ZM12.6764 26.5316L13.1345 26.464L12.2588 20.5283L11.8007 20.5959L12.6764 26.5316ZM14.8115 24.0584C14.8115 25.2982 13.9029 26.3507 12.6764 26.5316L11.8007 20.5959C10.0836 20.8492 8.81152 22.3227 8.81152 24.0584H14.8115ZM14.8115 24.1511V24.0584H8.81152V24.1511H14.8115ZM14.8115 28.4157V24.1511H8.81152V28.4157H14.8115ZM14.8115 28.4565V28.4157H8.81152V28.4565H14.8115ZM12.5236 25.9655C13.8174 26.0756 14.8115 27.158 14.8115 28.4565H8.81152C8.81152 30.2743 10.2033 31.7896 12.0146 31.9438L12.5236 25.9655ZM12.9511 26.0019L12.5236 25.9655L12.0146 31.9438L12.4422 31.9802L12.9511 26.0019Z" fill="white" mask="url(#path-1-outside-1_22_2670)"/>
<mask id="path-3-outside-2_22_2670" maskUnits="userSpaceOnUse" x="13.9121" y="53.3364" width="52" height="18" fill="black">
<rect fill="white" x="13.9121" y="53.3364" width="52" height="18"/>
<path fill-rule="evenodd" clip-rule="evenodd" d="M57.2028 58.0675C57.2028 57.2374 56.5833 56.4941 55.7532 56.4941H52.0983C51.7514 56.4941 51.2558 56.841 51.2558 57.4728C51.2558 58.1543 51.7266 58.4516 52.0488 58.4516H54.6258C55.047 58.4516 55.1709 58.5383 55.0842 58.7985C54.7992 59.6905 53.8452 60.1366 52.0983 60.2728C51.578 60.2976 51.1195 60.6941 51.1691 61.3755C51.2187 61.995 51.7886 62.2799 52.247 62.2552C54.9603 62.0817 57.2028 60.9543 57.2028 58.0675ZM60.7957 58.4764C60.7709 58.0428 60.7337 57.6215 60.6966 57.2003C60.6222 56.6675 60.139 56.2711 59.532 56.3454C58.9249 56.4197 58.6028 56.8905 58.6275 57.3737C58.739 58.9224 58.7514 59.8888 58.6275 61.3879C58.6028 61.8835 58.9497 62.3543 59.5691 62.4286C60.1762 62.5029 60.647 62.0693 60.6966 61.549C60.7337 61.1897 60.7585 60.8056 60.7709 60.4339H61.4895C61.9851 60.4339 62.2329 59.864 62.2329 59.4428C62.2329 58.9596 61.8736 58.4764 61.4275 58.4764H60.7957ZM58.4665 64.5348C58.8134 64.5348 58.8258 64.7206 58.8258 64.8445C58.8341 64.9193 58.8312 64.9996 58.8285 65.0781V65.0781V65.0781V65.0782V65.0783C58.8271 65.1168 58.8258 65.1548 58.8258 65.1914C58.8134 65.3649 58.739 65.4516 58.5656 65.4764C58.0205 65.5755 57.2771 65.6127 56.4966 65.6127C55.7532 65.6127 54.8859 65.5507 54.3284 65.464C54.1302 65.4268 54.0435 65.3401 54.0435 65.1791C54.0311 65.0428 54.0311 64.8941 54.0435 64.7578C54.0435 64.6711 54.0558 64.5348 54.3656 64.5348H58.4665ZM56.3974 67.4711C57.5249 67.4587 58.8134 67.3968 59.7674 67.087C60.201 66.9507 60.6718 66.5295 60.7833 66.0215C60.9196 65.3897 60.87 64.2746 60.7957 63.6056C60.7337 63.0109 60.1886 62.7136 59.8417 62.7136H53.0399C52.693 62.7136 52.1974 62.9737 52.0859 63.6056C51.9744 64.2746 51.962 65.3897 52.0983 66.0215C52.2098 66.5667 52.693 66.926 53.0523 67.0746C53.7833 67.3596 55.2452 67.4711 56.3974 67.4711ZM43.0654 61.1277C42.8547 61.0905 42.7556 60.9914 42.7308 60.8427C42.6689 60.2852 42.7185 59.6533 42.768 59.1825L42.7699 59.1709C42.7823 59.0916 42.8068 58.9347 43.0777 58.9347H48.0955C48.6034 58.9347 48.876 58.3648 48.876 57.9436C48.876 57.4356 48.5291 56.9896 48.0955 56.9896H41.7149C41.3928 56.9896 40.8848 57.3985 40.8105 57.9684C40.6866 58.8852 40.6246 60.8303 40.8229 61.7719C40.9344 62.3294 41.4176 62.6887 41.7769 62.8374C42.2724 63.0356 43.053 63.1471 43.8707 63.1967V64.5348C42.6565 64.51 41.5167 64.4604 40.7733 64.3861C40.3273 64.3241 39.745 64.6463 39.6583 65.241C39.5715 65.848 40.0671 66.2817 40.5379 66.356C42.2477 66.5914 47.8105 66.5418 49.2848 66.356C49.7185 66.2817 50.1893 65.9224 50.1645 65.2781C50.1397 64.6463 49.5326 64.3241 49.0371 64.3861C48.2937 64.4728 47.1663 64.5224 45.9521 64.5348V63.2091C46.9061 63.1595 47.9468 63.0232 48.653 62.6763C49.0247 62.4905 49.2848 62.0197 49.1362 61.487C48.9751 60.8923 48.3556 60.7312 47.8848 60.8675C47.0548 61.1029 46.0884 61.2639 45.0848 61.2639C44.1432 61.2639 43.4866 61.2144 43.0654 61.1277ZM36.8467 58.4516H34.2201C33.8237 60.2604 32.1511 61.5242 30.2803 61.9826C29.8343 62.0941 29.2024 61.9826 29.0042 61.3383C28.8431 60.8056 29.0785 60.2976 29.6237 60.1242C30.8626 59.7277 31.6927 59.2941 32.0396 58.4516H29.921C29.5122 58.4516 29.1653 58.018 29.1653 57.4728C29.1653 56.9401 29.5122 56.4941 29.921 56.4941H36.8467C37.206 56.4941 37.6148 56.9772 37.6148 57.4604C37.6148 57.8817 37.3175 58.4516 36.8467 58.4516ZM35.8679 59.2197L37.4414 60.1985C37.8255 60.4339 38.0237 61.0162 37.6396 61.5613C37.3051 62.0321 36.6856 62.0693 36.2272 61.7843L34.6785 60.8304C34.3193 60.6073 34.183 60.0003 34.5175 59.5295C34.8644 59.0339 35.521 59.0091 35.8679 59.2197ZM29.0166 64.4357C28.5458 64.3613 28.0874 63.9897 28.1369 63.3206C28.1865 62.6888 28.806 62.4038 29.252 62.4658C31.1723 62.6516 35.6201 62.6888 37.5157 62.4658C38.0113 62.4038 38.5812 62.6764 38.6432 63.3578C38.7051 64.0392 38.1971 64.3613 37.7635 64.4357C37.1564 64.5224 35.8679 64.572 34.4308 64.5843V66.864C34.4308 67.3224 33.8484 67.6074 33.3777 67.6074C32.9192 67.6074 32.3493 67.3224 32.3493 66.864V64.5967C30.9617 64.5843 29.6856 64.5348 29.0166 64.4357ZM20.6656 59.0587H21.409C21.8922 59.0587 22.1771 58.4888 22.1771 58.0675C22.1771 57.5843 21.793 57.1011 21.409 57.1011H17.7913C17.37 57.1011 17.0727 57.6711 17.0727 58.0799C17.0727 58.5011 17.37 59.0587 17.7913 59.0587H18.7081V60.0498C18.6957 62.2799 18.2125 63.333 17.2709 64.1879C16.9364 64.4976 16.7382 65.0428 17.1222 65.5383C17.4568 65.9596 18.0019 66.0959 18.4727 65.7613C19.786 64.8074 20.6656 62.8003 20.6656 60.0127V59.0587ZM22.1647 64.2994L21.7683 63.8038C21.409 63.395 20.7523 63.4569 20.393 63.7666C19.9222 64.1755 19.9099 64.7702 20.1329 65.0551L20.5293 65.5507C20.8638 65.9844 21.5453 65.91 21.9417 65.5879C22.2638 65.3277 22.4745 64.6835 22.1647 64.2994ZM22.0408 62.4038H22.7223C22.7099 63.779 22.6603 65.0799 22.5984 65.8728C22.586 66.3684 22.97 66.8268 23.5276 66.9136C24.0108 66.9879 24.5311 66.5543 24.6054 66.0587C24.7417 64.6835 24.8285 58.9472 24.6054 57.2498C24.5311 56.7295 24.0231 56.3578 23.478 56.4073C22.9577 56.4569 22.5364 56.9525 22.5984 57.4728C22.6727 58.1914 22.7099 59.2693 22.7223 60.4463H22.0408C21.6444 60.4463 21.3222 61.0162 21.3222 61.425C21.3222 61.8463 21.6072 62.4038 22.0408 62.4038ZM26.9966 66.1206C27.1329 64.7454 27.2196 58.8852 26.9966 57.1879C26.9223 56.6675 26.4143 56.3082 25.8692 56.3454C25.386 56.3826 24.9276 56.8905 24.9895 57.4109C25.1877 59.3188 25.1506 64.0516 24.9895 65.9348C24.9771 66.4304 25.3736 66.9259 25.9063 66.9755C26.4267 67.0251 26.9223 66.6162 26.9966 66.1206Z"/>
</mask>
<path fill-rule="evenodd" clip-rule="evenodd" d="M57.2028 58.0675C57.2028 57.2374 56.5833 56.4941 55.7532 56.4941H52.0983C51.7514 56.4941 51.2558 56.841 51.2558 57.4728C51.2558 58.1543 51.7266 58.4516 52.0488 58.4516H54.6258C55.047 58.4516 55.1709 58.5383 55.0842 58.7985C54.7992 59.6905 53.8452 60.1366 52.0983 60.2728C51.578 60.2976 51.1195 60.6941 51.1691 61.3755C51.2187 61.995 51.7886 62.2799 52.247 62.2552C54.9603 62.0817 57.2028 60.9543 57.2028 58.0675ZM60.7957 58.4764C60.7709 58.0428 60.7337 57.6215 60.6966 57.2003C60.6222 56.6675 60.139 56.2711 59.532 56.3454C58.9249 56.4197 58.6028 56.8905 58.6275 57.3737C58.739 58.9224 58.7514 59.8888 58.6275 61.3879C58.6028 61.8835 58.9497 62.3543 59.5691 62.4286C60.1762 62.5029 60.647 62.0693 60.6966 61.549C60.7337 61.1897 60.7585 60.8056 60.7709 60.4339H61.4895C61.9851 60.4339 62.2329 59.864 62.2329 59.4428C62.2329 58.9596 61.8736 58.4764 61.4275 58.4764H60.7957ZM58.4665 64.5348C58.8134 64.5348 58.8258 64.7206 58.8258 64.8445C58.8341 64.9193 58.8312 64.9996 58.8285 65.0781V65.0781V65.0781V65.0782V65.0783C58.8271 65.1168 58.8258 65.1548 58.8258 65.1914C58.8134 65.3649 58.739 65.4516 58.5656 65.4764C58.0205 65.5755 57.2771 65.6127 56.4966 65.6127C55.7532 65.6127 54.8859 65.5507 54.3284 65.464C54.1302 65.4268 54.0435 65.3401 54.0435 65.1791C54.0311 65.0428 54.0311 64.8941 54.0435 64.7578C54.0435 64.6711 54.0558 64.5348 54.3656 64.5348H58.4665ZM56.3974 67.4711C57.5249 67.4587 58.8134 67.3968 59.7674 67.087C60.201 66.9507 60.6718 66.5295 60.7833 66.0215C60.9196 65.3897 60.87 64.2746 60.7957 63.6056C60.7337 63.0109 60.1886 62.7136 59.8417 62.7136H53.0399C52.693 62.7136 52.1974 62.9737 52.0859 63.6056C51.9744 64.2746 51.962 65.3897 52.0983 66.0215C52.2098 66.5667 52.693 66.926 53.0523 67.0746C53.7833 67.3596 55.2452 67.4711 56.3974 67.4711ZM43.0654 61.1277C42.8547 61.0905 42.7556 60.9914 42.7308 60.8427C42.6689 60.2852 42.7185 59.6533 42.768 59.1825L42.7699 59.1709C42.7823 59.0916 42.8068 58.9347 43.0777 58.9347H48.0955C48.6034 58.9347 48.876 58.3648 48.876 57.9436C48.876 57.4356 48.5291 56.9896 48.0955 56.9896H41.7149C41.3928 56.9896 40.8848 57.3985 40.8105 57.9684C40.6866 58.8852 40.6246 60.8303 40.8229 61.7719C40.9344 62.3294 41.4176 62.6887 41.7769 62.8374C42.2724 63.0356 43.053 63.1471 43.8707 63.1967V64.5348C42.6565 64.51 41.5167 64.4604 40.7733 64.3861C40.3273 64.3241 39.745 64.6463 39.6583 65.241C39.5715 65.848 40.0671 66.2817 40.5379 66.356C42.2477 66.5914 47.8105 66.5418 49.2848 66.356C49.7185 66.2817 50.1893 65.9224 50.1645 65.2781C50.1397 64.6463 49.5326 64.3241 49.0371 64.3861C48.2937 64.4728 47.1663 64.5224 45.9521 64.5348V63.2091C46.9061 63.1595 47.9468 63.0232 48.653 62.6763C49.0247 62.4905 49.2848 62.0197 49.1362 61.487C48.9751 60.8923 48.3556 60.7312 47.8848 60.8675C47.0548 61.1029 46.0884 61.2639 45.0848 61.2639C44.1432 61.2639 43.4866 61.2144 43.0654 61.1277ZM36.8467 58.4516H34.2201C33.8237 60.2604 32.1511 61.5242 30.2803 61.9826C29.8343 62.0941 29.2024 61.9826 29.0042 61.3383C28.8431 60.8056 29.0785 60.2976 29.6237 60.1242C30.8626 59.7277 31.6927 59.2941 32.0396 58.4516H29.921C29.5122 58.4516 29.1653 58.018 29.1653 57.4728C29.1653 56.9401 29.5122 56.4941 29.921 56.4941H36.8467C37.206 56.4941 37.6148 56.9772 37.6148 57.4604C37.6148 57.8817 37.3175 58.4516 36.8467 58.4516ZM35.8679 59.2197L37.4414 60.1985C37.8255 60.4339 38.0237 61.0162 37.6396 61.5613C37.3051 62.0321 36.6856 62.0693 36.2272 61.7843L34.6785 60.8304C34.3193 60.6073 34.183 60.0003 34.5175 59.5295C34.8644 59.0339 35.521 59.0091 35.8679 59.2197ZM29.0166 64.4357C28.5458 64.3613 28.0874 63.9897 28.1369 63.3206C28.1865 62.6888 28.806 62.4038 29.252 62.4658C31.1723 62.6516 35.6201 62.6888 37.5157 62.4658C38.0113 62.4038 38.5812 62.6764 38.6432 63.3578C38.7051 64.0392 38.1971 64.3613 37.7635 64.4357C37.1564 64.5224 35.8679 64.572 34.4308 64.5843V66.864C34.4308 67.3224 33.8484 67.6074 33.3777 67.6074C32.9192 67.6074 32.3493 67.3224 32.3493 66.864V64.5967C30.9617 64.5843 29.6856 64.5348 29.0166 64.4357ZM20.6656 59.0587H21.409C21.8922 59.0587 22.1771 58.4888 22.1771 58.0675C22.1771 57.5843 21.793 57.1011 21.409 57.1011H17.7913C17.37 57.1011 17.0727 57.6711 17.0727 58.0799C17.0727 58.5011 17.37 59.0587 17.7913 59.0587H18.7081V60.0498C18.6957 62.2799 18.2125 63.333 17.2709 64.1879C16.9364 64.4976 16.7382 65.0428 17.1222 65.5383C17.4568 65.9596 18.0019 66.0959 18.4727 65.7613C19.786 64.8074 20.6656 62.8003 20.6656 60.0127V59.0587ZM22.1647 64.2994L21.7683 63.8038C21.409 63.395 20.7523 63.4569 20.393 63.7666C19.9222 64.1755 19.9099 64.7702 20.1329 65.0551L20.5293 65.5507C20.8638 65.9844 21.5453 65.91 21.9417 65.5879C22.2638 65.3277 22.4745 64.6835 22.1647 64.2994ZM22.0408 62.4038H22.7223C22.7099 63.779 22.6603 65.0799 22.5984 65.8728C22.586 66.3684 22.97 66.8268 23.5276 66.9136C24.0108 66.9879 24.5311 66.5543 24.6054 66.0587C24.7417 64.6835 24.8285 58.9472 24.6054 57.2498C24.5311 56.7295 24.0231 56.3578 23.478 56.4073C22.9577 56.4569 22.5364 56.9525 22.5984 57.4728C22.6727 58.1914 22.7099 59.2693 22.7223 60.4463H22.0408C21.6444 60.4463 21.3222 61.0162 21.3222 61.425C21.3222 61.8463 21.6072 62.4038 22.0408 62.4038ZM26.9966 66.1206C27.1329 64.7454 27.2196 58.8852 26.9966 57.1879C26.9223 56.6675 26.4143 56.3082 25.8692 56.3454C25.386 56.3826 24.9276 56.8905 24.9895 57.4109C25.1877 59.3188 25.1506 64.0516 24.9895 65.9348C24.9771 66.4304 25.3736 66.9259 25.9063 66.9755C26.4267 67.0251 26.9223 66.6162 26.9966 66.1206Z" fill="#3C3C3C"/>
<path d="M55.0842 58.7985L52.2381 57.8498L52.2322 57.8677L52.2264 57.8856L55.0842 58.7985ZM52.0983 60.2728L52.241 63.2695L52.2864 63.2673L52.3316 63.2638L52.0983 60.2728ZM51.1691 61.3755L48.177 61.5931L48.1778 61.6039L48.1787 61.6147L51.1691 61.3755ZM52.247 62.2552L52.4089 65.2508L52.4237 65.25L52.4384 65.249L52.247 62.2552ZM60.6966 57.2003L63.685 56.9366L63.6783 56.8609L63.6678 56.7857L60.6966 57.2003ZM60.7957 58.4764L57.8006 58.6475L57.9622 61.4764H60.7957V58.4764ZM59.532 56.3454L59.8966 59.3232L59.8966 59.3232L59.532 56.3454ZM58.6275 57.3737L55.6315 57.5274L55.6331 57.5583L55.6353 57.5892L58.6275 57.3737ZM58.6275 61.3879L55.6377 61.1408L55.6337 61.1894L55.6313 61.2381L58.6275 61.3879ZM59.5691 62.4286L59.9338 59.4508L59.9266 59.45L59.5691 62.4286ZM60.6966 61.549L57.7125 61.2403L57.7112 61.2524L57.7101 61.2645L60.6966 61.549ZM60.7709 60.4339V57.4339H57.8692L57.7726 60.334L60.7709 60.4339ZM58.8258 64.8445H55.8258V65.0107L55.8441 65.1759L58.8258 64.8445ZM58.8285 65.0781L55.8303 64.9722L55.8285 65.0251V65.0781H58.8285ZM58.8285 65.0783L61.8266 65.1842L61.8285 65.1312V65.0783H58.8285ZM58.8258 65.1914L61.8181 65.4052L61.8258 65.2985V65.1914H58.8258ZM58.5656 65.4764L58.1413 62.5066L58.085 62.5146L58.0289 62.5248L58.5656 65.4764ZM54.3284 65.464L53.7755 68.4126L53.8213 68.4212L53.8673 68.4284L54.3284 65.464ZM54.0435 65.1791H57.0435V65.043L57.0311 64.9074L54.0435 65.1791ZM54.0435 64.7578L57.0311 65.0294L57.0435 64.8939V64.7578H54.0435ZM59.7674 67.087L58.8679 64.225L58.8544 64.2293L58.8409 64.2336L59.7674 67.087ZM56.3974 67.4711V70.4711H56.4139L56.4304 70.4709L56.3974 67.4711ZM60.7833 66.0215L63.7135 66.6648L63.7159 66.6541L60.7833 66.0215ZM60.7957 63.6056L57.8118 63.9164L57.8129 63.9267L57.814 63.9369L60.7957 63.6056ZM52.0859 63.6056L49.1316 63.0842L49.1291 63.0983L49.1267 63.1124L52.0859 63.6056ZM52.0983 66.0215L55.0375 65.4204L55.0343 65.4047L55.0309 65.389L52.0983 66.0215ZM53.0523 67.0746L51.9053 69.8467L51.9338 69.8585L51.9627 69.8698L53.0523 67.0746ZM42.7308 60.8427L39.7492 61.174L39.7582 61.2553L39.7717 61.3359L42.7308 60.8427ZM43.0654 61.1277L43.6703 58.1893L43.6286 58.1807L43.5867 58.1733L43.0654 61.1277ZM42.768 59.1825L39.8054 58.7102L39.7929 58.7891L39.7845 58.8685L42.768 59.1825ZM42.7699 59.1709L45.7325 59.6432L45.7338 59.6345L42.7699 59.1709ZM40.8105 57.9684L43.7835 58.3701L43.7853 58.3564L40.8105 57.9684ZM40.8229 61.7719L43.7646 61.1836L43.7616 61.1687L43.7585 61.1539L40.8229 61.7719ZM41.7769 62.8374L40.6298 65.6095L40.6462 65.6162L40.6627 65.6228L41.7769 62.8374ZM43.8707 63.1967H46.8707V60.373L44.0522 60.2022L43.8707 63.1967ZM43.8707 64.5348L43.8095 67.5341L46.8707 67.5966V64.5348H43.8707ZM40.7733 64.3861L40.3606 67.3576L40.4176 67.3655L40.4748 67.3712L40.7733 64.3861ZM39.6583 65.241L36.6897 64.808L36.6884 64.8167L39.6583 65.241ZM40.5379 66.356L40.07 69.3193L40.0993 69.3239L40.1287 69.328L40.5379 66.356ZM49.2848 66.356L49.66 69.3324L49.7261 69.3241L49.7917 69.3129L49.2848 66.356ZM50.1645 65.2781L53.1623 65.1628L53.1622 65.1606L50.1645 65.2781ZM49.0371 64.3861L49.3847 67.3659L49.3969 67.3644L49.4092 67.3629L49.0371 64.3861ZM45.9521 64.5348H42.9521V67.5655L45.9827 67.5346L45.9521 64.5348ZM45.9521 63.2091L45.7965 60.2131L42.9521 60.3609V63.2091H45.9521ZM48.653 62.6763L49.9757 65.369L49.9852 65.3643L49.9946 65.3596L48.653 62.6763ZM49.1362 61.487L46.2405 62.2712L46.2435 62.2823L46.2466 62.2934L49.1362 61.487ZM47.8848 60.8675L48.7033 63.7537L48.7112 63.7515L48.719 63.7492L47.8848 60.8675ZM34.2201 58.4516V55.4516H31.8065L31.2897 57.8093L34.2201 58.4516ZM30.2803 61.9826L29.5663 59.0687L29.5527 59.0721L30.2803 61.9826ZM29.0042 61.3383L26.1326 62.2065L26.1347 62.2135L26.1369 62.2206L29.0042 61.3383ZM29.6237 60.1242L30.5333 62.9829L30.538 62.9814L29.6237 60.1242ZM32.0396 58.4516L34.8136 59.5938L36.5193 55.4516H32.0396V58.4516ZM37.4414 60.1985L35.8568 62.7459L35.8652 62.7511L35.8737 62.7563L37.4414 60.1985ZM35.8679 59.2197L37.4525 56.6724L37.4387 56.6638L37.4249 56.6554L35.8679 59.2197ZM37.6396 61.5613L40.0852 63.299L40.0921 63.2892L37.6396 61.5613ZM36.2272 61.7843L37.811 59.2365L37.8007 59.2301L36.2272 61.7843ZM34.6785 60.8304L33.0964 63.3793L33.1051 63.3846L34.6785 60.8304ZM34.5175 59.5295L36.963 61.2671L36.9691 61.2585L36.9752 61.2499L34.5175 59.5295ZM28.1369 63.3206L25.1461 63.086L25.1451 63.099L28.1369 63.3206ZM29.0166 64.4357L28.5487 67.399L28.5628 67.4012L28.5769 67.4033L29.0166 64.4357ZM29.252 62.4658L28.8393 65.4372L28.901 65.4458L28.963 65.4518L29.252 62.4658ZM37.5157 62.4658L37.8662 65.4452L37.877 65.4439L37.8878 65.4426L37.5157 62.4658ZM38.6432 63.3578L35.6555 63.6294L35.6555 63.6294L38.6432 63.3578ZM37.7635 64.4357L38.1878 67.4055L38.2292 67.3996L38.2704 67.3925L37.7635 64.4357ZM34.4308 64.5843L34.4049 61.5845L31.4308 61.6101V64.5843H34.4308ZM32.3493 64.5967H35.3493V61.6234L32.3761 61.5969L32.3493 64.5967ZM20.6656 59.0587V56.0587H17.6656V59.0587H20.6656ZM18.7081 59.0587H21.7081V56.0587H18.7081V59.0587ZM18.7081 60.0498L21.708 60.0665L21.7081 60.0582V60.0498H18.7081ZM17.2709 64.1879L15.2543 61.9667L15.2435 61.9766L15.2327 61.9866L17.2709 64.1879ZM17.1222 65.5383L14.751 67.376L14.7619 67.3901L14.7729 67.404L17.1222 65.5383ZM18.4727 65.7613L20.2103 68.2069L20.2231 68.1978L20.2358 68.1885L18.4727 65.7613ZM21.7683 63.8038L24.1109 61.9297L24.0675 61.8756L24.0218 61.8235L21.7683 63.8038ZM22.1647 64.2994L19.8221 66.1735L19.8295 66.1826L22.1647 64.2994ZM20.393 63.7666L18.4342 61.4944L18.426 61.5015L20.393 63.7666ZM20.1329 65.0551L17.7703 66.9041L17.7802 66.9167L17.7903 66.9292L20.1329 65.0551ZM20.5293 65.5507L22.9047 63.7183L22.8885 63.6973L22.8719 63.6766L20.5293 65.5507ZM21.9417 65.5879L20.0567 63.2541L20.0499 63.2595L21.9417 65.5879ZM22.7223 62.4038L25.7221 62.4308L25.7494 59.4038H22.7223V62.4038ZM22.5984 65.8728L19.6075 65.6392L19.6013 65.7184L19.5993 65.7979L22.5984 65.8728ZM23.5276 66.9136L23.0664 69.8779L23.0714 69.8787L23.5276 66.9136ZM24.6054 66.0587L27.5723 66.5037L27.5834 66.4294L27.5908 66.3545L24.6054 66.0587ZM24.6054 57.2498L27.5799 56.859L27.5777 56.8423L27.5753 56.8256L24.6054 57.2498ZM23.478 56.4073L23.2064 53.4196L23.1936 53.4208L23.478 56.4073ZM22.5984 57.4728L25.5824 57.1641L25.5801 57.1411L25.5773 57.1182L22.5984 57.4728ZM22.7223 60.4463V63.4463H25.754L25.7221 60.4147L22.7223 60.4463ZM26.9966 57.1879L29.971 56.7971L29.9688 56.7803L29.9664 56.7636L26.9966 57.1879ZM26.9966 66.1206L29.9634 66.5657L29.9746 66.4913L29.982 66.4165L26.9966 66.1206ZM25.8692 56.3454L25.6651 53.3523L25.6521 53.3532L25.6391 53.3542L25.8692 56.3454ZM24.9895 57.4109L27.9735 57.1009L27.9711 57.0785L27.9685 57.0562L24.9895 57.4109ZM24.9895 65.9348L22.0004 65.6792L21.9927 65.7693L21.9905 65.8598L24.9895 65.9348ZM25.9063 66.9755L26.1908 63.989L26.1842 63.9884L25.9063 66.9755ZM55.7532 59.4941C55.2248 59.4941 54.8001 59.246 54.5517 58.9678C54.3182 58.7064 54.2028 58.388 54.2028 58.0675H60.2028C60.2028 55.9087 58.5502 53.4941 55.7532 53.4941V59.4941ZM52.0983 59.4941H55.7532V53.4941H52.0983V59.4941ZM54.2558 57.4728C54.2558 57.9956 54.0321 58.5074 53.6584 58.8777C53.3542 59.1791 52.8343 59.4941 52.0983 59.4941V53.4941C50.1209 53.4941 48.2558 55.1579 48.2558 57.4728H54.2558ZM52.0488 55.4516C52.7379 55.4516 53.2935 55.7335 53.6631 56.1068C54.0972 56.5451 54.2558 57.0752 54.2558 57.4728H48.2558C48.2558 59.7834 50.0423 61.4516 52.0488 61.4516V55.4516ZM54.6258 55.4516H52.0488V61.4516H54.6258V55.4516ZM57.9302 59.7472C58.0171 59.4864 58.1748 58.9294 58.0817 58.2355C57.9692 57.3973 57.5276 56.6355 56.8372 56.1214C56.2646 55.6949 55.6879 55.5639 55.4058 55.5144C55.0927 55.4594 54.8114 55.4516 54.6258 55.4516V61.4516C54.6508 61.4516 54.5429 61.4546 54.3688 61.4241C54.2257 61.399 53.7536 61.3059 53.2537 60.9336C52.6361 60.4737 52.2355 59.7824 52.135 59.0336C52.0539 58.4291 52.1946 57.9805 52.2381 57.8498L57.9302 59.7472ZM52.3316 63.2638C53.3587 63.1836 54.4678 62.9964 55.4539 62.5158C56.5462 61.9834 57.5074 61.0716 57.9419 59.7114L52.2264 57.8856C52.2861 57.6989 52.3937 57.5078 52.5416 57.3481C52.681 57.1974 52.8008 57.1342 52.825 57.1224C52.8431 57.1135 52.7876 57.1429 52.6154 57.1809C52.4456 57.2184 52.202 57.2556 51.865 57.2819L52.3316 63.2638ZM54.1612 61.1579C54.1911 61.5683 54.0635 62.1384 53.6216 62.6158C53.2109 63.0595 52.6895 63.2481 52.241 63.2695L51.9556 57.2762C50.9868 57.3224 49.976 57.7216 49.2184 58.5401C48.4295 59.3923 48.0976 60.5013 48.177 61.5931L54.1612 61.1579ZM52.0851 59.2595C52.4871 59.2378 52.9061 59.3384 53.2862 59.607C53.7354 59.9245 54.1067 60.475 54.1596 61.1363L48.1787 61.6147C48.4014 64.399 50.9314 65.3306 52.4089 65.2508L52.0851 59.2595ZM54.2028 58.0675C54.2028 58.3938 54.1416 58.5431 54.1172 58.5927C54.0948 58.6385 54.0586 58.6929 53.9603 58.7654C53.7102 58.9501 53.1228 59.193 52.0556 59.2613L52.4384 65.249C54.0844 65.1438 55.9749 64.7363 57.5244 63.5922C59.2288 62.3337 60.2028 60.414 60.2028 58.0675H54.2028ZM57.7082 57.4639C57.7459 57.892 57.7789 58.2676 57.8006 58.6475L63.7908 58.3052C63.7629 57.8179 63.7215 57.3511 63.685 56.9366L57.7082 57.4639ZM59.8966 59.3232C58.9102 59.4439 57.8817 58.735 57.7254 57.6149L63.6678 56.7857C63.3628 54.6 61.3679 53.0982 59.1673 53.3676L59.8966 59.3232ZM61.6236 57.2201C61.6476 57.6889 61.5045 58.1906 61.1647 58.606C60.8052 59.0453 60.3223 59.271 59.8966 59.3232L59.1673 53.3676C56.9265 53.642 55.5297 55.5437 55.6315 57.5274L61.6236 57.2201ZM61.6173 61.635C61.7564 59.9524 61.74 58.8283 61.6198 57.1583L55.6353 57.5892C55.7381 59.0165 55.7465 59.8251 55.6377 61.1408L61.6173 61.635ZM59.9266 59.45C60.3203 59.4972 60.7827 59.7012 61.1398 60.12C61.4839 60.5237 61.6489 61.0353 61.6238 61.5377L55.6313 61.2381C55.5264 63.3361 57.0558 65.1485 59.2117 65.4072L59.9266 59.45ZM57.7101 61.2645C57.8147 60.1662 58.8036 59.3125 59.9338 59.4508L59.2045 65.4064C61.5489 65.6934 63.4793 63.9724 63.6831 61.8334L57.7101 61.2645ZM57.7726 60.334C57.7622 60.6449 57.7416 60.9588 57.7125 61.2403L63.6806 61.8576C63.7259 61.4205 63.7548 60.9663 63.7692 60.5338L57.7726 60.334ZM61.4895 57.4339H60.7709V63.4339H61.4895V57.4339ZM59.2329 59.4428C59.2329 59.1461 59.3013 58.8239 59.5144 58.4883C59.7564 58.1071 60.408 57.4339 61.4895 57.4339V63.4339C63.0665 63.4339 64.0899 62.4757 64.5797 61.7043C65.0405 60.9785 65.2329 60.1607 65.2329 59.4428H59.2329ZM61.4275 61.4764C60.5136 61.4764 59.9228 60.9859 59.6588 60.6573C59.393 60.3266 59.2329 59.9107 59.2329 59.4428H65.2329C65.2329 58.4916 64.893 57.5925 64.3362 56.8994C63.781 56.2084 62.7875 55.4764 61.4275 55.4764V61.4764ZM60.7957 61.4764H61.4275V55.4764H60.7957V61.4764ZM61.8258 64.8445C61.8258 64.8164 61.8837 63.7865 61.1762 62.8432C60.3353 61.722 59.1256 61.5348 58.4665 61.5348V67.5348C58.1543 67.5348 57.1242 67.4405 56.3762 66.4432C56.0505 66.0089 55.923 65.5781 55.8705 65.3007C55.8444 65.1625 55.8344 65.049 55.8299 64.9754C55.8256 64.9034 55.8258 64.8502 55.8258 64.8445H61.8258ZM61.8266 65.1839C61.8277 65.1522 61.8443 64.8454 61.8074 64.5132L55.8441 65.1759C55.8318 65.0647 55.8313 64.9841 55.8313 64.9586C55.8313 64.9438 55.8315 64.9358 55.8315 64.9391C55.8313 64.9437 55.8311 64.9504 55.8303 64.9722L61.8266 65.1839ZM61.8285 65.0781V65.0781H55.8285V65.0781H61.8285ZM61.8285 65.0781V65.0781H55.8285V65.0781H61.8285ZM61.8285 65.0782V65.0781H55.8285V65.0782H61.8285ZM61.8285 65.0783V65.0782H55.8285V65.0783H61.8285ZM61.8258 65.1914C61.8258 65.2005 61.8257 65.2072 61.8256 65.211C61.8256 65.2149 61.8255 65.2167 61.8255 65.2158C61.8256 65.2148 61.8256 65.2121 61.8258 65.2066C61.826 65.2007 61.8262 65.1943 61.8266 65.1842L55.8303 64.9725C55.8294 65.0004 55.8258 65.0925 55.8258 65.1914H61.8258ZM58.9899 68.4462C59.4807 68.3761 60.3083 68.1496 60.9859 67.3966C61.6476 66.6615 61.7869 65.8428 61.8181 65.4052L55.8334 64.9777C55.8523 64.7135 55.9482 64.025 56.5262 63.3828C57.1203 62.7227 57.824 62.5519 58.1413 62.5066L58.9899 68.4462ZM56.4966 68.6127C57.3254 68.6127 58.2857 68.5765 59.1022 68.428L58.0289 62.5248C57.7552 62.5746 57.2288 62.6127 56.4966 62.6127V68.6127ZM53.8673 68.4284C54.607 68.5434 55.632 68.6127 56.4966 68.6127V62.6127C55.8744 62.6127 55.1648 62.558 54.7895 62.4997L53.8673 68.4284ZM51.0435 65.1791C51.0435 65.8311 51.2404 66.7394 51.9903 67.4893C52.6482 68.1473 53.4033 68.3428 53.7755 68.4126L54.8813 62.5154C55.0553 62.548 55.6679 62.6817 56.2329 63.2467C56.8899 63.9036 57.0435 64.6881 57.0435 65.1791H51.0435ZM51.0558 64.4862C51.027 64.8032 51.027 65.1337 51.0558 65.4507L57.0311 64.9074C57.0336 64.9351 57.0342 64.9547 57.0342 64.9684C57.0342 64.9822 57.0336 65.0018 57.0311 65.0294L51.0558 64.4862ZM54.3656 61.5348C53.8874 61.5348 52.7747 61.6221 51.8927 62.5695C50.9999 63.5285 51.0435 64.6569 51.0435 64.7578H57.0435C57.0435 64.772 57.0932 65.7889 56.2841 66.658C55.4856 67.5156 54.534 67.5348 54.3656 67.5348V61.5348ZM58.4665 61.5348H54.3656V67.5348H58.4665V61.5348ZM58.8409 64.2336C58.3768 64.3844 57.5188 64.4586 56.3645 64.4713L56.4304 70.4709C57.5309 70.4588 59.25 70.4092 60.6938 69.9404L58.8409 64.2336ZM57.8531 65.3783C57.9469 64.9508 58.1534 64.6937 58.2748 64.5723C58.3938 64.4533 58.5764 64.3166 58.8679 64.225L60.6668 69.949C61.9237 69.554 63.3294 68.4147 63.7135 66.6648L57.8531 65.3783ZM57.814 63.9369C57.8408 64.1781 57.8651 64.5239 57.8686 64.8591C57.8704 65.0243 57.8668 65.1654 57.8596 65.2754C57.8517 65.3961 57.8428 65.426 57.8507 65.389L63.7159 66.6541C63.963 65.5084 63.8548 63.9713 63.7773 63.2743L57.814 63.9369ZM59.8417 65.7136C59.2649 65.7136 58.8436 65.511 58.561 65.2867C58.2124 65.0102 57.8764 64.5362 57.8118 63.9164L63.7795 63.2948C63.653 62.0803 63.0135 61.1603 62.2901 60.5864C61.6327 60.0648 60.7654 59.7136 59.8417 59.7136V65.7136ZM53.0399 65.7136H59.8417V59.7136H53.0399V65.7136ZM55.0403 64.1269C54.968 64.5365 54.7304 64.9619 54.3414 65.2711C54.0045 65.5389 53.5605 65.7136 53.0399 65.7136V59.7136C51.3776 59.7136 49.5197 60.8849 49.1316 63.0842L55.0403 64.1269ZM55.0309 65.389C55.0337 65.4021 55.0234 65.3544 55.0137 65.233C55.0047 65.1202 54.9992 64.9813 54.9992 64.8275C54.9992 64.4991 55.0239 64.2258 55.0451 64.0988L49.1267 63.1124C48.9698 64.0542 48.9306 65.5637 49.1658 66.654L55.0309 65.389ZM54.1994 64.3026C54.3358 64.3591 54.4605 64.4345 54.5852 64.5571C54.7178 64.6874 54.9453 64.9699 55.0375 65.4204L49.1592 66.6227C49.5554 68.5597 51.1021 69.5143 51.9053 69.8467L54.1994 64.3026ZM56.3974 64.4711C55.9071 64.4711 55.3605 64.4469 54.8822 64.3963C54.644 64.3712 54.4476 64.342 54.2982 64.3128C54.1343 64.2807 54.0961 64.2616 54.1419 64.2795L51.9627 69.8698C52.7175 70.164 53.5963 70.2939 54.2517 70.3631C54.975 70.4396 55.7356 70.4711 56.3974 70.4711V64.4711ZM39.7717 61.3359C39.8794 61.9825 40.1955 62.7026 40.8393 63.2728C41.4365 63.8017 42.0917 64.0022 42.544 64.082L43.5867 58.1733C43.8284 58.216 44.3288 58.3483 44.8175 58.7812C45.3529 59.2554 45.607 59.8516 45.69 60.3495L39.7717 61.3359ZM39.7845 58.8685C39.7327 59.3604 39.6487 60.2699 39.7492 61.174L45.7125 60.5114C45.7034 60.43 45.698 60.2917 45.7055 60.0935C45.7127 59.9018 45.7301 59.7002 45.7515 59.4966L39.7845 58.8685ZM39.8073 58.6986L39.8054 58.7102L45.7306 59.6548L45.7325 59.6432L39.8073 58.6986ZM43.0777 55.9347C42.342 55.9347 41.3081 56.1733 40.5364 57.0855C40.1983 57.4852 40.0223 57.8911 39.928 58.1858C39.8399 58.4608 39.8071 58.6999 39.8059 58.7073L45.7338 59.6345C45.7472 59.549 45.6818 60.2933 45.1173 60.9606C44.4287 61.7746 43.5426 61.9347 43.0777 61.9347V55.9347ZM48.0955 55.9347H43.0777V61.9347H48.0955V55.9347ZM45.876 57.9436C45.876 57.5894 45.9685 57.2466 46.1892 56.9194C46.4394 56.5485 47.0742 55.9347 48.0955 55.9347V61.9347C49.6247 61.9347 50.6498 61.036 51.1632 60.2749C51.6472 59.5574 51.876 58.719 51.876 57.9436H45.876ZM48.0955 59.9896C47.224 59.9896 46.6167 59.5364 46.3118 59.1577C46.0102 58.7833 45.876 58.3529 45.876 57.9436H51.876C51.876 56.4179 50.7599 53.9896 48.0955 53.9896V59.9896ZM41.7149 59.9896H48.0955V53.9896H41.7149V59.9896ZM43.7853 58.3564C43.7213 58.8472 43.4879 59.1934 43.2722 59.4053C43.1587 59.5168 43.0037 59.6383 42.7942 59.7435C42.6077 59.8371 42.2343 59.9896 41.7149 59.9896V53.9896C40.4662 53.9896 39.5453 54.6556 39.0673 55.1253C38.4985 55.6841 37.974 56.5196 37.8357 57.5804L43.7853 58.3564ZM43.7585 61.1539C43.7301 61.019 43.6899 60.5704 43.6958 59.8867C43.7012 59.2516 43.7432 58.6681 43.7835 58.3701L37.8375 57.5666C37.7539 58.1855 37.7029 59.033 37.696 59.835C37.6895 60.5884 37.7174 61.5832 37.8872 62.3899L43.7585 61.1539ZM42.9239 60.0654C43.0613 60.1222 43.1904 60.1999 43.3191 60.3275C43.458 60.4653 43.6773 60.7472 43.7646 61.1836L37.8811 62.3603C38.2707 64.3084 39.8118 65.271 40.6298 65.6095L42.9239 60.0654ZM44.0522 60.2022C43.7147 60.1817 43.4206 60.1504 43.1879 60.1123C42.9321 60.0704 42.8525 60.0366 42.891 60.052L40.6627 65.6228C41.6353 66.0119 42.8289 66.1391 43.6892 66.1912L44.0522 60.2022ZM46.8707 64.5348V63.1967H40.8707V64.5348H46.8707ZM40.4748 67.3712C41.3411 67.4578 42.5781 67.509 43.8095 67.5341L43.9319 61.5354C42.7349 61.511 41.6923 61.463 41.0718 61.401L40.4748 67.3712ZM42.6269 65.6739C42.5355 66.3006 42.1725 66.7677 41.7906 67.0326C41.455 67.2653 40.9649 67.4415 40.3606 67.3576L41.186 61.4146C39.3212 61.1556 37.0444 62.3755 36.6897 64.808L42.6269 65.6739ZM41.0058 63.3927C41.4478 63.4625 41.8367 63.6735 42.1322 64.0063C42.4734 64.3905 42.7241 64.9931 42.6281 65.6652L36.6884 64.8167C36.3017 67.5238 38.501 69.0715 40.07 69.3193L41.0058 63.3927ZM48.9097 63.3796C48.3805 63.4463 46.7973 63.5077 44.9893 63.514C43.1708 63.5203 41.5603 63.4685 40.9471 63.384L40.1287 69.328C41.2253 69.4789 43.2511 69.52 45.01 69.5139C46.7794 69.5078 48.7149 69.4516 49.66 69.3324L48.9097 63.3796ZM47.1667 65.3934C47.1476 64.8976 47.3396 64.3709 47.7103 63.9765C48.0321 63.634 48.4179 63.4609 48.778 63.3991L49.7917 69.3129C51.3104 69.0525 53.2592 67.6825 53.1623 65.1628L47.1667 65.3934ZM49.4092 67.3629C48.9238 67.4236 48.453 67.3068 48.0569 67.0296C47.5946 66.706 47.1952 66.1199 47.1668 65.3957L53.1622 65.1606C53.109 63.8045 52.3936 62.7414 51.4977 62.1142C50.668 61.5335 49.6459 61.2866 48.665 61.4092L49.4092 67.3629ZM45.9827 67.5346C47.2283 67.5219 48.4816 67.4712 49.3847 67.3659L48.6894 61.4063C48.1058 61.4744 47.1042 61.5228 45.9215 61.5349L45.9827 67.5346ZM42.9521 63.2091V64.5348H48.9521V63.2091H42.9521ZM47.3303 59.9837C47.3403 59.9787 47.3087 59.995 47.2201 60.021C47.1339 60.0464 47.0172 60.0743 46.8674 60.1011C46.5628 60.1555 46.197 60.1923 45.7965 60.2131L46.1077 66.205C47.0929 66.1539 48.6753 66.0078 49.9757 65.369L47.3303 59.9837ZM46.2466 62.2934C46.0042 61.4249 46.4142 60.4416 47.3113 59.9931L49.9946 65.3596C51.6351 64.5394 52.5655 62.6145 52.0258 60.6806L46.2466 62.2934ZM48.719 63.7492C48.3625 63.8524 47.928 63.8623 47.4715 63.6718C46.9306 63.4461 46.4243 62.9501 46.2405 62.2712L52.0319 60.7027C51.6869 59.4292 50.7904 58.5552 49.7818 58.1344C48.8576 57.7488 47.878 57.7463 47.0507 57.9858L48.719 63.7492ZM45.0848 64.2639C46.3995 64.2639 47.6422 64.0546 48.7033 63.7537L47.0664 57.9813C46.4673 58.1512 45.7772 58.2639 45.0848 58.2639V64.2639ZM42.4604 64.066C43.1874 64.2157 44.0899 64.2639 45.0848 64.2639V58.2639C44.663 58.2639 44.3355 58.2527 44.0878 58.2355C43.8319 58.2178 43.7053 58.1965 43.6703 58.1893L42.4604 64.066ZM34.2201 61.4516H36.8467V55.4516H34.2201V61.4516ZM30.9943 64.8964C33.532 64.2745 36.4243 62.4073 37.1506 59.0939L31.2897 57.8093C31.223 58.1136 30.7702 58.7738 29.5663 59.0688L30.9943 64.8964ZM26.1369 62.2206C26.5195 63.4643 27.411 64.3236 28.4445 64.733C29.3686 65.099 30.2929 65.0718 31.0079 64.893L29.5527 59.0721C29.8217 59.0049 30.207 58.9776 30.6541 59.1547C31.2106 59.3751 31.6871 59.8565 31.8715 60.4561L26.1369 62.2206ZM28.7141 57.2654C27.7228 57.5808 26.8556 58.2682 26.362 59.2626C25.8778 60.2379 25.857 61.2951 26.1326 62.2065L31.8758 60.4701C31.9903 60.8488 32.0067 61.3856 31.7362 61.9304C31.4563 62.4943 30.9793 62.841 30.5333 62.9829L28.7141 57.2654ZM29.2656 57.3093C29.3087 57.2046 29.3714 57.1059 29.4411 57.027C29.506 56.9535 29.5499 56.9276 29.5332 56.9385C29.5128 56.9517 29.4448 56.9921 29.3003 57.0536C29.156 57.115 28.9654 57.1849 28.7093 57.2669L30.538 62.9814C31.7818 62.5834 33.8985 61.8162 34.8136 59.5938L29.2656 57.3093ZM29.921 61.4516H32.0396V55.4516H29.921V61.4516ZM26.1653 57.4728C26.1653 58.941 27.2063 61.4516 29.921 61.4516V55.4516C30.8354 55.4516 31.4557 55.9377 31.7545 56.3205C32.057 56.7079 32.1653 57.1244 32.1653 57.4728H26.1653ZM29.921 53.4941C28.5685 53.4941 27.5737 54.2286 27.0173 54.9476C26.4533 55.6763 26.1653 56.5741 26.1653 57.4728H32.1653C32.1653 57.8388 32.0506 58.2472 31.7623 58.6198C31.4816 58.9825 30.8646 59.4941 29.921 59.4941V53.4941ZM36.8467 53.4941H29.921V59.4941H36.8467V53.4941ZM40.6148 57.4604C40.6148 56.4115 40.1945 55.5209 39.6944 54.905C39.2596 54.3694 38.2983 53.4941 36.8467 53.4941V59.4941C36.2683 59.4941 35.8354 59.3046 35.5847 59.1555C35.3269 59.0021 35.1515 58.8287 35.0365 58.6871C34.8308 58.4336 34.6148 58.0262 34.6148 57.4604H40.6148ZM36.8467 61.4516C38.4147 61.4516 39.4177 60.4901 39.8852 59.8052C40.3499 59.1243 40.6148 58.2896 40.6148 57.4604H34.6148C34.6148 57.0525 34.7311 56.7134 34.9295 56.4227C35.1305 56.1281 35.7494 55.4516 36.8467 55.4516V61.4516ZM39.026 57.6511L37.4525 56.6724L34.2833 61.7671L35.8568 62.7459L39.026 57.6511ZM40.0921 63.2892C41.4653 61.34 40.8826 58.789 39.0091 57.6407L35.8737 62.7563C35.3362 62.4269 35.0006 61.9106 34.889 61.3629C34.7663 60.761 34.9245 60.2063 35.1872 59.8335L40.0921 63.2892ZM34.6434 64.3322C36.1044 65.2404 38.6152 65.3678 40.0852 63.299L35.1941 59.8237C35.5464 59.3278 36.0829 59.0466 36.5988 58.9805C37.0731 58.9198 37.4925 59.0385 37.811 59.2365L34.6434 64.3322ZM33.1051 63.3846L34.6538 64.3386L37.8007 59.2301L36.252 58.2761L33.1051 63.3846ZM32.0719 57.7918C30.8877 59.4585 31.0524 62.1106 33.0965 63.3793L36.2606 58.2814C36.964 58.718 37.2323 59.3632 37.3021 59.8109C37.3792 60.3062 37.2711 60.8335 36.963 61.2671L32.0719 57.7918ZM37.4249 56.6554C36.5563 56.128 35.5595 56.0073 34.6995 56.1506C33.7727 56.3051 32.7599 56.8089 32.0598 57.8091L36.9752 61.2499C36.622 61.7544 36.1109 61.9981 35.6859 62.069C35.3277 62.1287 34.8327 62.1008 34.311 61.7841L37.4249 56.6554ZM25.1451 63.099C25.0624 64.2155 25.4152 65.2897 26.1517 66.1081C26.8405 66.8734 27.73 67.2697 28.5487 67.399L29.4845 61.4724C29.8324 61.5273 30.2572 61.7006 30.6115 62.0943C31.0135 62.541 31.1619 63.0948 31.1287 63.5422L25.1451 63.099ZM29.6647 59.4943C28.7057 59.3611 27.7095 59.5928 26.8982 60.1259C26.0105 60.7093 25.2526 61.7284 25.1461 63.0861L31.1277 63.5552C31.0708 64.281 30.6474 64.8417 30.1933 65.1401C29.8157 65.3883 29.3522 65.5085 28.8393 65.4372L29.6647 59.4943ZM37.1652 59.4863C35.5316 59.6785 31.3048 59.6504 29.5409 59.4797L28.963 65.4518C31.0399 65.6528 35.7087 65.699 37.8662 65.4452L37.1652 59.4863ZM41.6308 63.0862C41.5207 61.8744 40.9032 60.8206 39.9393 60.1593C39.0518 59.5503 38.0302 59.3781 37.1436 59.4889L37.8878 65.4426C37.4968 65.4915 37.008 65.4246 36.5448 65.1067C36.0053 64.7366 35.7037 64.1598 35.6555 63.6294L41.6308 63.0862ZM38.2704 67.3925C38.9503 67.276 39.8085 66.954 40.5199 66.2363C41.3177 65.4313 41.7419 64.3076 41.6308 63.0862L35.6555 63.6294C35.6347 63.4013 35.6553 63.107 35.7694 62.7891C35.8832 62.4724 36.0617 62.2111 36.2584 62.0125C36.6229 61.6448 37.0103 61.521 37.2566 61.4788L38.2704 67.3925ZM34.4566 67.5842C35.8658 67.5721 37.3514 67.525 38.1878 67.4055L37.3392 61.4658C36.9615 61.5198 35.8701 61.5718 34.4049 61.5845L34.4566 67.5842ZM37.4308 66.864V64.5843H31.4308V66.864H37.4308ZM33.3777 70.6074C34.1476 70.6074 34.9697 70.3924 35.6777 69.9472C36.3701 69.5118 37.4308 68.5096 37.4308 66.864H31.4308C31.4308 65.6768 32.2002 65.0463 32.4838 64.8679C32.7829 64.6799 33.0785 64.6074 33.3777 64.6074V70.6074ZM29.3493 66.864C29.3493 68.4779 30.37 69.4811 31.0683 69.9305C31.7732 70.384 32.5983 70.6074 33.3777 70.6074V64.6074C33.6986 64.6074 34.0095 64.6882 34.3149 64.8847C34.6137 65.0769 35.3493 65.7085 35.3493 66.864H29.3493ZM29.3493 64.5967V66.864H35.3493V64.5967H29.3493ZM28.5769 67.4033C29.4809 67.5372 30.9567 67.5844 32.3225 67.5966L32.3761 61.5969C30.9668 61.5843 29.8903 61.5324 29.4562 61.4681L28.5769 67.4033ZM21.409 56.0587H20.6656V62.0587H21.409V56.0587ZM19.1771 58.0675C19.1771 57.6866 19.281 57.349 19.4872 57.0433C19.7062 56.7188 20.3326 56.0587 21.409 56.0587V62.0587C22.9685 62.0587 23.979 61.1136 24.4612 60.3988C24.9307 59.7028 25.1771 58.8697 25.1771 58.0675H19.1771ZM21.409 60.1011C20.3561 60.1011 19.7704 59.4986 19.5886 59.2699C19.3633 58.9865 19.1771 58.5838 19.1771 58.0675H25.1771C25.1771 57.068 24.7989 56.1822 24.2855 55.5364C23.8157 54.9453 22.8459 54.1011 21.409 54.1011V60.1011ZM17.7913 60.1011H21.409V54.1011H17.7913V60.1011ZM20.0727 58.0799C20.0727 58.5049 19.9507 58.8262 19.7824 59.0827C19.6465 59.29 19.0275 60.1011 17.7913 60.1011V54.1011C16.1338 54.1011 15.1555 55.1972 14.7656 55.7917C14.3433 56.4354 14.0727 57.2461 14.0727 58.0799H20.0727ZM17.7913 56.0587C19.002 56.0587 19.6238 56.8418 19.7763 57.0725C19.9563 57.3445 20.0727 57.6708 20.0727 58.0799H14.0727C14.0727 58.9103 14.3378 59.7259 14.7717 60.382C15.1782 60.9968 16.1593 62.0587 17.7913 62.0587V56.0587ZM18.7081 56.0587H17.7913V62.0587H18.7081V56.0587ZM21.7081 60.0498V59.0587H15.7081V60.0498H21.7081ZM19.2875 66.409C20.0599 65.7078 20.7205 64.8409 21.1516 63.6754C21.5584 62.5759 21.7008 61.3707 21.708 60.0665L15.7081 60.0332C15.703 60.9591 15.5976 61.3955 15.5243 61.5937C15.4753 61.726 15.4235 61.8131 15.2543 61.9667L19.2875 66.409ZM19.4935 63.7006C19.8326 64.1382 19.9857 64.7455 19.8781 65.3335C19.7866 65.8335 19.538 66.1773 19.3091 66.3892L15.2327 61.9866C14.6693 62.5083 14.1543 63.2795 13.9761 64.2534C13.7818 65.3152 14.0278 66.4429 14.751 67.376L19.4935 63.7006ZM16.7351 63.3158C17.1401 63.028 17.7106 62.8731 18.305 62.9857C18.8605 63.091 19.248 63.3912 19.4716 63.6727L14.7729 67.404C15.9363 68.869 18.2364 69.6094 20.2103 68.2069L16.7351 63.3158ZM17.6656 60.0127C17.6656 62.3006 16.9361 63.1696 16.7095 63.3341L20.2358 68.1885C22.6358 66.4451 23.6656 63.3 23.6656 60.0127H17.6656ZM17.6656 59.0587V60.0127H23.6656V59.0587H17.6656ZM19.4257 65.6779L19.8221 66.1735L24.5073 62.4253L24.1109 61.9297L19.4257 65.6779ZM22.3519 66.0389C21.9592 66.3774 21.5189 66.5106 21.1172 66.5155C20.6794 66.5209 20.0243 66.364 19.5148 65.7842L24.0218 61.8235C23.1529 60.8348 21.9898 60.5045 21.0441 60.516C20.1344 60.5271 19.1862 60.8462 18.4342 61.4944L22.3519 66.0389ZM22.4954 63.2062C22.9915 63.8401 23.0288 64.4935 22.9718 64.8871C22.9043 65.3535 22.6759 65.7575 22.3601 66.0317L18.426 61.5015C16.9537 62.7801 16.4041 65.1583 17.7703 66.9041L22.4954 63.2062ZM22.8719 63.6766L22.4755 63.1811L17.7903 66.9292L18.1867 67.4248L22.8719 63.6766ZM20.0499 63.2595C20.3744 62.9959 20.7528 62.8604 21.159 62.8532C21.6016 62.8453 22.3579 63.0096 22.9047 63.7183L18.154 67.3831C19.0352 68.5255 20.2995 68.8694 21.2655 68.8522C22.1952 68.8357 23.1126 68.502 23.8335 67.9162L20.0499 63.2595ZM19.8295 66.1826C19.225 65.433 19.2918 64.6504 19.3629 64.3334C19.4309 64.0304 19.6055 63.6185 20.0567 63.2541L23.8267 67.9217C24.6001 67.2971 25.041 66.433 25.2174 65.6469C25.3969 64.8466 25.4142 63.5498 24.5 62.4161L19.8295 66.1826ZM22.7223 59.4038H22.0408V65.4038H22.7223V59.4038ZM25.5892 66.1065C25.6586 65.2193 25.7094 63.8435 25.7221 62.4308L19.7224 62.3768C19.7103 63.7146 19.6621 64.9406 19.6075 65.6392L25.5892 66.1065ZM23.9887 63.9492C24.7943 64.0745 25.6258 64.8123 25.5974 65.9478L19.5993 65.7979C19.5461 67.9246 21.1457 69.5791 23.0664 69.8779L23.9887 63.9492ZM21.6386 65.6137C21.7304 65.0016 22.0495 64.596 22.3369 64.3643C22.6198 64.1362 23.194 63.827 23.9837 63.9484L23.0714 69.8787C24.3443 70.0745 25.4203 69.5856 26.1027 69.0354C26.7897 68.4816 27.4061 67.6114 27.5723 66.5037L21.6386 65.6137ZM21.631 57.6406C21.7109 58.2486 21.7513 59.894 21.7402 61.7572C21.7293 63.5853 21.6726 65.2323 21.6201 65.7628L27.5908 66.3545C27.6745 65.5099 27.7293 63.6011 27.7401 61.7929C27.7507 60.0198 27.723 57.9484 27.5799 56.859L21.631 57.6406ZM23.7496 59.395C22.8743 59.4746 21.8105 58.8986 21.6356 57.6741L27.5753 56.8256C27.2517 54.5603 25.1719 53.241 23.2064 53.4197L23.7496 59.395ZM25.5773 57.1182C25.6561 57.7795 25.4197 58.3298 25.1245 58.6841C24.8321 59.0349 24.3665 59.3363 23.7624 59.3938L23.1936 53.4208C21.0886 53.6213 19.3475 55.5438 19.6194 57.8275L25.5773 57.1182ZM25.7221 60.4147C25.7096 59.2261 25.672 58.0302 25.5824 57.1641L19.6143 57.7815C19.6734 58.3526 19.7102 59.3125 19.7224 60.4779L25.7221 60.4147ZM22.0408 63.4463H22.7223V57.4463H22.0408V63.4463ZM24.3222 61.425C24.3222 61.9022 24.1741 62.2306 24.0229 62.4556C23.9322 62.5905 23.7626 62.804 23.475 63.0041C23.1777 63.211 22.6857 63.4463 22.0408 63.4463V57.4463C20.3675 57.4463 19.3983 58.5802 19.0429 59.1091C18.6315 59.7213 18.3222 60.5391 18.3222 61.425H24.3222ZM22.0408 59.4038C23.2305 59.4038 23.8586 60.1685 24.0306 60.4317C24.2182 60.7189 24.3222 61.0428 24.3222 61.425H18.3222C18.3222 62.2286 18.5688 63.0418 19.0073 63.7131C19.4302 64.3604 20.4176 65.4038 22.0408 65.4038V59.4038ZM24.0222 57.5787C24.102 58.1859 24.1425 59.8606 24.1314 61.7575C24.1205 63.6189 24.0637 65.2953 24.0112 65.8248L29.982 66.4165C30.0658 65.5708 30.1205 63.6294 30.1313 61.7926C30.1418 59.9913 30.1143 57.8871 29.971 56.7971L24.0222 57.5787ZM26.0732 59.3384C25.3115 59.3904 24.2097 58.8928 24.0268 57.6121L29.9664 56.7636C29.6348 54.4422 27.5171 53.2261 25.6651 53.3523L26.0732 59.3384ZM27.9685 57.0562C28.0553 57.7853 27.7699 58.3351 27.5103 58.6404C27.2616 58.9328 26.7996 59.2827 26.0992 59.3366L25.6391 53.3542C24.4556 53.4453 23.5227 54.0677 22.9395 54.7535C22.3454 55.4521 21.8618 56.5161 22.0106 57.7655L27.9685 57.0562ZM27.9786 66.1904C28.1514 64.1696 28.1958 59.2414 27.9735 57.1009L22.0056 57.7209C22.1796 59.3963 22.1497 63.9336 22.0004 65.6792L27.9786 66.1904ZM26.1842 63.9884C26.7877 64.0445 27.2448 64.3467 27.5239 64.6731C27.7929 64.9877 28.0027 65.4465 27.9886 66.0098L21.9905 65.8598C21.9413 67.8266 23.4208 69.7572 25.6285 69.9626L26.1842 63.9884ZM24.0298 65.6756C24.1185 65.0839 24.4297 64.6608 24.7491 64.4063C25.075 64.1466 25.5766 63.9305 26.1908 63.989L25.6219 69.962C27.7801 70.1675 29.6603 68.5864 29.9634 66.5657L24.0298 65.6756Z" fill="white" mask="url(#path-3-outside-2_22_2670)"/>
<path d="M3.56525 43.7884C3.20552 48.6447 7.9494 51.7323 10.3663 52.6691C12.0806 53.5122 12.5584 59.0767 16.0432 54.6363C19.528 50.196 21.8887 50.9267 28.9146 52.3881C35.9405 53.8495 35.2098 51.4888 38.1888 51.826C41.1677 52.1632 45.2146 52.5567 46.957 50.2522C48.6995 47.9477 52.0157 48.4536 55.3881 48.0601C58.7605 47.6667 61.4022 45.3622 62.2453 45.3622C66.4047 45.9243 66.4047 45.306 67.8098 41.8774C69.215 38.4487 74.9481 34.4018 74.1612 32.4908C73.3743 30.5798 74.3298 31.3667 75.3416 29.1746C76.3533 26.9825 74.105 28.1629 73.4305 25.6335C72.7561 23.1042 72.194 23.2166 68.7654 22.8794C65.3367 22.5422 65.7864 20.7435 64.325 19.507C58.4795 16.6404 58.1422 22.5984 51.6222 20.7435C45.1022 18.8887 46.676 22.8794 39.3691 22.8794C32.0622 22.8794 35.4908 24.6218 25.8794 25.9708C16.268 27.3198 14.4694 31.6477 12.5584 34.8515C10.6473 38.0553 4.01492 37.7181 3.56525 43.7884Z" fill="#76D04E"/>
<path d="M59.8759 40.5949L62.1554 29.9313L61.8797 24.0329C61.8797 24.0329 61.0672 11.7718 51.7879 10.5529C51.2873 10.4876 50.8084 10.4296 50.3513 10.386H50.3441C42.3272 9.54445 40.8109 11.3002 40.8109 11.3002H30.9221C14.3877 11.3002 12.6973 23.4961 12.6973 23.4961V28.9156L14.9202 40.0865L37.829 46.5311L37.9161 46.5166L59.8759 40.5949Z" fill="#AC2D00"/>
<path d="M52.2806 10.6326L44.5757 45.5152L37.9155 46.5164L37.8284 46.5309L15.1863 42.6222C13.7476 42.3738 12.6966 41.1258 12.6966 39.6659V28.9155H12.3115C12.0354 28.9155 11.8115 28.6916 11.8115 28.4155V24.0582C11.8115 23.8102 11.9932 23.5997 12.2385 23.5635L12.6966 23.4959C12.6966 23.4959 14.3871 11.3001 30.9215 11.3001H31.647C31.647 11.3001 19.4512 14.4633 18.907 24.0618V37.8538L31.647 39.6168V25.4621C31.647 25.4621 31.9517 15.9071 40.8102 11.3001C41.2528 11.0679 41.6881 10.8502 42.1017 10.6544C43.3858 10.2626 45.838 9.91434 50.3435 10.3859H50.3507C50.8078 10.4295 51.2866 10.4875 51.7872 10.5528C51.9541 10.5746 52.121 10.6036 52.2806 10.6326Z" fill="#FFBA14"/>
<path d="M62.1546 40.3206V29.9603L61.879 24.0619C61.879 24.0619 61.0664 11.8008 51.7871 10.5819C51.2865 10.5166 50.8076 10.4586 50.3506 10.415H50.3433C44.6045 10.415 38.4449 15.3195 37.9661 22.1611C37.3433 31.0753 37.7613 42.3819 37.9144 46.5221L37.9153 46.5455L59.6004 43.2873C61.0686 43.0667 62.1546 41.8053 62.1546 40.3206Z" fill="#F9A512"/>
<path d="M42.9727 41.2419L43.3136 24.2359C43.3136 24.2359 44.7356 16.3061 50.0899 16.5092C55.4442 16.7124 57.3378 22.0594 57.5409 24.9759C57.7441 27.8925 57.5409 39.9505 57.5409 39.9505L42.9727 41.2347V41.2419Z" fill="#AC2D00"/>
<path d="M11.8115 24.1509C11.8115 23.8654 12.0502 23.6379 12.3354 23.6515L37.8139 24.8671L37.6325 31.1138L12.2691 28.9544C12.0103 28.9324 11.8115 28.7159 11.8115 28.4562V24.1509Z" fill="#FFC116"/>
<path d="M62.7282 24.8032C62.8804 24.9362 62.9677 25.1284 62.9677 25.3305V29.2604C62.9677 29.647 62.6543 29.9604 62.2677 29.9604H62.1551V30.2434L37.6328 31.114L37.8142 24.8673L61.8794 24.062L62.7282 24.8032Z" fill="#F09307"/>
<path d="M21.9688 29.7861V32.5894C21.9688 33.5895 22.7075 34.4359 23.6984 34.5711L25.176 34.7726C26.3769 34.9365 27.4464 34.003 27.4464 32.791V29.7861H21.9688Z" fill="#FFC116"/>
</svg>
