<svg width="192" height="37" viewBox="0 0 192 37" fill="none" xmlns="http://www.w3.org/2000/svg">
<path d="M10.9386 20.3928L2.42291 11.053C1.67994 10.2381 2.19165 8.92498 3.29007 8.82765L13.7705 7.899L26.9307 6.73291V29.3884C26.9307 32.3324 24.5418 34.7123 21.5993 34.8086C10.6592 35.1669 1.53024 36.4881 0.61039 36.7181C-0.455749 36.9846 7.05164 25.9456 10.9386 20.3928Z" fill="#EC7A32"/>
<path d="M181.804 19.6046L189.601 11.053C190.343 10.2381 189.832 8.92498 188.733 8.82765L178.253 7.899L166.543 6.86142C165.764 6.79236 165.093 7.40645 165.093 8.18889V29.3884C165.093 32.3324 167.482 34.7123 170.424 34.8086C181.364 35.1669 190.493 36.4881 191.413 36.7181C192.426 36.9713 185.701 27.0207 181.693 21.2643C181.337 20.7525 181.383 20.0653 181.804 19.6046Z" fill="#EC7A32"/>
<path d="M18.1658 26.5396V8.55796C18.1658 5.85819 20.1803 3.58073 22.8659 3.30472C67.9392 -1.3276 138.12 1.28962 172.821 3.49815C175.616 3.67607 177.753 5.99851 177.753 8.79953V27.0812C177.753 30.1766 175.105 32.6188 172.016 32.4073C95.7739 27.1847 45.4941 29.55 24.359 31.9738C21.0935 32.3483 18.1658 29.8265 18.1658 26.5396Z" fill="url(#paint0_linear_22_8918)"/>
<path d="M71.7262 14.815C71.2864 14.9883 70.5401 14.895 70.2869 14.3486C69.967 13.6556 70.3135 13.0692 70.78 12.856C72.0993 12.2563 73.0189 11.2035 73.0189 9.2045V8.67143C73.0189 8.29828 73.432 7.87182 74.085 7.87182C74.698 7.87182 75.2578 8.20499 75.2578 8.67143V9.27113C75.2578 11.59 74.045 13.8155 71.7262 14.815ZM76.6038 12.0298L77.8431 12.9626C78.3762 13.3624 78.2163 14.162 77.8698 14.5219C77.51 14.9083 76.8037 14.9083 76.4438 14.6285L75.1511 13.6556C74.7513 13.3225 74.7513 12.5895 75.1245 12.163C75.4976 11.7366 76.204 11.7099 76.6038 12.0298ZM80.855 8.83135C81.0282 10.3639 81.0016 13.8555 80.855 15.3748C80.8017 15.9345 80.2953 16.4009 79.6423 16.321C78.9759 16.241 78.6028 15.7346 78.6294 15.2015C78.6961 14.3619 78.7227 13.1625 78.7227 11.9765H77.7099C77.2434 11.9765 76.9103 11.3768 76.9103 10.9236C76.9103 10.4839 77.2568 9.87083 77.7099 9.87083H78.6694C78.6561 9.56432 78.6428 9.27113 78.6294 9.01792C78.6028 8.49818 78.9493 7.99176 79.6023 7.9118C80.2553 7.83184 80.775 8.2583 80.855 8.83135ZM80.4818 19.3595C79.4157 19.7459 77.8032 19.8659 76.5638 19.8792C75.351 19.8792 73.8051 19.8392 72.699 19.4528C72.2992 19.3195 71.7928 18.9064 71.6729 18.32C71.5396 17.7203 71.5529 16.9607 71.6329 16.2277C71.6595 15.8812 71.9261 15.2682 72.7657 15.2948C73.5519 15.3215 73.8585 15.9611 73.8318 16.3743C73.7918 16.7208 73.7518 17.0273 73.7652 17.3471C73.7652 17.507 73.8451 17.6003 73.9917 17.627C74.778 17.7736 75.8175 17.8002 76.6571 17.8002C77.7499 17.8002 78.9759 17.6003 79.8422 17.3871C80.3619 17.2672 80.935 17.4804 81.1082 18.1601C81.2281 18.6132 80.9616 19.1862 80.4818 19.3595ZM91.3852 11.6433C90.7322 11.9631 88.7598 12.0964 87.9069 12.0964C86.9874 12.0964 85.0816 11.8965 84.5352 11.6566C84.1621 11.4834 83.6024 11.1502 83.5357 10.5771C83.4558 9.91081 83.4291 9.52434 83.5224 8.93796C83.6157 8.36491 84.2021 7.93846 84.5619 7.93846H91.2652C91.6251 7.93846 92.2648 8.36491 92.358 8.96461C92.438 9.61762 92.4247 9.99077 92.3447 10.5505C92.2514 11.1769 91.705 11.4567 91.3852 11.6433ZM90.2391 9.75089C90.2391 9.68426 90.2391 9.53766 89.9726 9.53766H85.8546C85.628 9.53766 85.6147 9.69758 85.6147 9.76422V9.88416C85.628 10.0707 85.6947 10.164 85.8546 10.1907C86.3344 10.284 87.1606 10.3506 87.9869 10.3506C88.7598 10.3506 89.4928 10.2706 89.9326 10.2173C90.1458 10.1773 90.2258 10.0707 90.2391 9.88416V9.75089ZM89.053 14.1887V14.5752H91.3719C91.9982 14.5752 92.4247 14.9483 92.4913 15.4014C92.5979 16.0811 92.5579 16.6541 92.4647 17.0806C92.358 17.587 91.8783 17.9069 91.4785 17.9069H85.4015V18.1334C85.4015 18.1867 85.4415 18.2267 85.5348 18.24C86.1744 18.3333 87.4005 18.3866 88.2801 18.3866C89.3729 18.3866 90.7322 18.3067 91.7184 18.1068C92.1315 18.0268 92.6112 18.1068 92.7445 18.5998C92.8645 19.0263 92.5046 19.3861 92.1448 19.4927C91.0787 19.8126 89.4262 19.8792 88.1868 19.8792C86.974 19.8792 85.1216 19.8392 84.322 19.5594C83.9355 19.4128 83.4158 19.0796 83.2959 18.5732C83.1626 18.0135 83.2692 17.4004 83.3092 17.1739C83.4158 16.6275 83.9222 16.4143 84.2021 16.4143H90.3724V16.1744C90.3724 16.1211 90.3191 16.0678 90.2524 16.0678H84.2021C83.8289 16.0678 83.4291 15.7479 83.4291 15.3081C83.4291 14.9217 83.789 14.5752 84.2021 14.5752H86.8141V14.1887C85.3215 14.1887 83.9489 14.1354 83.2292 14.0421C82.7228 13.9621 82.2164 13.7089 82.283 13.0026C82.3363 12.4029 83.016 12.2297 83.4824 12.2563C85.5614 12.4562 90.3457 12.5095 92.3847 12.2563C92.8778 12.2297 93.5574 12.3496 93.5841 13.0426C93.6108 13.6956 93.1043 13.9621 92.6379 14.0421C91.9849 14.1221 90.5989 14.1754 89.053 14.1887ZM104.452 10.897C104.452 10.4572 103.959 10.164 102.946 10.164C101.826 10.164 101.413 10.4439 101.413 10.8703C101.413 11.3634 102.026 11.63 102.932 11.63C103.892 11.63 104.452 11.3768 104.452 10.897ZM104.052 8.04507V8.2583H106.131C106.557 8.2583 106.957 8.64477 106.957 9.16452C106.957 9.51101 106.651 10.0174 106.211 10.0174H106.077C106.371 10.1773 106.664 10.7504 106.677 11.1369C106.744 12.5095 105.491 13.1092 104.172 13.3091V13.7489C104.811 13.7356 105.451 13.6823 106.077 13.6023C106.611 13.5357 107.21 13.6956 107.29 14.4019C107.357 15.0016 106.81 15.3215 106.344 15.4014C104.758 15.6013 101.466 15.6546 99.6274 15.4014C99.1209 15.3215 98.6145 15.0416 98.6812 14.3619C98.7478 13.6423 99.4008 13.5357 99.8806 13.6023C100.56 13.669 101.24 13.7223 101.933 13.7489V13.3491C100.547 13.2025 99.1343 12.6561 99.1876 11.1502C99.2009 10.7637 99.4674 10.2307 99.7873 10.0174H99.654C99.2409 10.0174 98.921 9.52434 98.921 9.17784C98.921 8.73806 99.2409 8.2583 99.694 8.2583H101.813V8.04507C101.813 7.63194 102.333 7.23214 102.879 7.23214C103.399 7.23214 104.052 7.55198 104.052 8.04507ZM109.836 8.83135C110.009 10.3506 109.969 13.1625 109.836 14.6418C109.809 15.2015 109.249 15.6413 108.623 15.588C108.037 15.5347 107.583 15.0016 107.61 14.4686C107.743 12.856 107.73 10.6838 107.61 9.01792C107.583 8.49818 107.917 7.97844 108.583 7.9118C109.223 7.84517 109.756 8.2583 109.836 8.83135ZM101.067 16.0145H108.756C109.129 16.0145 109.716 16.3076 109.782 16.8407C109.876 17.5337 109.862 18.3733 109.716 19.1862C109.636 19.626 109.063 19.9725 108.436 19.8659C107.837 19.7593 107.477 19.3461 107.557 18.8397L107.65 18.1068C107.65 18.0401 107.637 17.9202 107.45 17.9202H101.067C100.693 17.9202 100.267 17.507 100.267 16.9873C100.267 16.4676 100.64 16.0145 101.067 16.0145ZM114.426 10.4306C114.439 10.5905 114.519 10.6704 114.692 10.7104C115.305 10.8037 116.358 10.8703 117.171 10.8703C118.264 10.8703 119.383 10.7104 120.316 10.4439C120.796 10.3106 121.382 10.4306 121.542 10.977C121.689 11.4834 121.449 11.9365 121.022 12.1231C119.93 12.6028 118.317 12.7094 117.078 12.7228C115.838 12.7228 114.146 12.6028 113.36 12.2963C112.973 12.1364 112.453 11.7499 112.333 11.1502C112.187 10.4705 112.227 9.4577 112.307 8.87133C112.387 8.36491 112.946 7.93846 113.306 7.93846H120.423C120.809 7.93846 121.262 8.28495 121.262 8.83135C121.262 9.35109 120.916 9.76422 120.423 9.76422H114.666C114.506 9.76422 114.426 9.87083 114.426 10.0308V10.4306ZM112.16 14.9616C111.654 14.8817 111.147 14.5752 111.214 13.8289C111.281 13.0959 111.947 12.9493 112.413 12.9893C114.492 13.1892 119.277 13.2292 121.316 12.9893C121.809 12.9493 122.475 13.0692 122.515 13.8689C122.555 14.6151 122.035 14.8817 121.569 14.9616C119.983 15.1615 113.999 15.2149 112.16 14.9616ZM112.893 15.6546H120.343C120.716 15.6546 121.249 15.8679 121.369 16.6142C121.476 17.2405 121.449 18.24 121.302 19.053C121.222 19.4927 120.743 19.9592 120.023 19.8659C119.37 19.7859 119.09 19.1063 119.157 18.7065C119.21 18.3999 119.237 18.1201 119.237 17.9602C119.237 17.8402 119.223 17.6137 118.864 17.6137H112.893C112.453 17.6137 112.12 17.1072 112.12 16.6541C112.12 16.201 112.387 15.6546 112.893 15.6546ZM125.652 14.7351C125.652 15.3748 125.012 15.5747 124.399 15.548C123.826 15.5214 123.36 15.2149 123.36 14.6818C123.387 12.7761 123.4 10.8304 123.347 8.72473C123.347 8.27162 123.84 7.83184 124.453 7.83184C125.132 7.83184 125.625 8.20499 125.652 8.72473C125.745 10.857 125.719 12.9626 125.652 14.7351ZM125.639 18.2933C125.599 18.9064 124.972 19.1596 124.386 19.1329C123.626 19.0929 123.347 18.6398 123.347 18.3866C123.347 18.0135 123.347 17.667 123.333 17.4404C123.307 16.8674 123.906 16.5209 124.439 16.5209C125.146 16.5209 125.612 16.7874 125.639 17.3071C125.665 17.6137 125.652 17.9468 125.639 18.2933Z" fill="white"/>
<defs>
<linearGradient id="paint0_linear_22_8918" x1="97.9596" y1="0.734985" x2="97.9596" y2="43.3805" gradientUnits="userSpaceOnUse">
<stop stop-color="#FA9639"/>
<stop offset="1" stop-color="#E66B2E"/>
</linearGradient>
</defs>
</svg>
