<svg width="287" height="55" viewBox="0 0 287 55" fill="none" xmlns="http://www.w3.org/2000/svg">
<path d="M15.6539 30L2.87407 15.9834C1.75906 14.7605 2.527 12.7897 4.17546 12.6437L19.9039 11.25L39.6539 9.5V43.5C39.6539 47.9183 36.0688 51.4899 31.6529 51.6345C15.2346 52.1721 1.5344 54.1549 0.153942 54.5C-1.44606 54.9 9.82061 38.3333 15.6539 30Z" fill="#EC7A32"/>
<path d="M272.079 28.817L283.78 15.9834C284.895 14.7605 284.127 12.7897 282.479 12.6437L266.75 11.25L249.177 9.69286C248.007 9.58922 247 10.5108 247 11.6851V43.5C247 47.9183 250.586 51.4899 255.001 51.6345C271.42 52.1721 285.12 54.1549 286.5 54.5C288.02 54.88 277.928 39.9467 271.913 31.3078C271.379 30.5398 271.448 29.5086 272.079 28.817Z" fill="#EC7A32"/>
<path d="M26.5 39.226V12.2403C26.5 8.18861 29.5232 4.77073 33.5537 4.35651C101.197 -2.59541 206.521 1.33237 258.597 4.64681C262.792 4.91381 266 8.3992 266 12.6028V40.0389C266 44.6843 262.025 48.3494 257.39 48.0319C142.97 40.1942 67.5128 43.744 35.7944 47.3815C30.8938 47.9435 26.5 44.1588 26.5 39.226Z" fill="url(#paint0_linear_91_5056)"/>
<defs>
<linearGradient id="paint0_linear_91_5056" x1="146.25" y1="0.5" x2="146.25" y2="64.5" gradientUnits="userSpaceOnUse">
<stop stop-color="#FA9639"/>
<stop offset="1" stop-color="#E66B2E"/>
</linearGradient>
</defs>
</svg>
