<svg width="20" height="21" viewBox="0 0 20 21" fill="none" xmlns="http://www.w3.org/2000/svg">
<path fill-rule="evenodd" clip-rule="evenodd" d="M19.2307 14.5326V10.7791L19.2715 10.7791C19.4116 10.7791 19.5251 10.6655 19.5251 10.5255V9.10164C19.5251 9.02842 19.4935 8.95878 19.4383 8.91061L19.1314 8.64262L19.1309 8.63153C19.1309 8.63153 18.8365 4.18927 15.4746 3.74768C15.2932 3.72402 15.1197 3.70299 14.9542 3.68722H14.9515C13.4945 3.53426 12.6301 3.61811 12.1304 3.73967C12.0703 3.75421 12.0154 3.76927 11.9654 3.78452L11.9634 3.7855C11.6026 3.89687 11.4976 4.01842 11.4976 4.01842H7.91488C5.48124 4.01842 3.93519 4.74766 2.95721 5.61363C2.90079 5.66359 2.84626 5.71401 2.79356 5.76477C1.51111 6.99985 1.31189 8.43706 1.31189 8.43706L1.14592 8.46155C1.05705 8.47466 0.991211 8.55093 0.991211 8.64076V8.67436V10.2194V10.2342C0.991211 10.3283 1.06324 10.4067 1.157 10.4147L1.31189 10.4279V14.2955C1.31189 14.8244 1.69267 15.2766 2.21391 15.3666L10.4172 16.7827L10.4483 16.7775L10.4484 16.7795V16.7795L10.4487 16.788L18.3053 15.6075C18.8372 15.5276 19.2307 15.0706 19.2307 14.5326Z" fill="#FFC116"/>
<path d="M18.4055 14.632L19.2314 10.7685L19.1315 8.63153C19.1315 8.63153 18.8371 4.18927 15.4752 3.74768C15.2938 3.72402 15.1203 3.70299 14.9547 3.68722H14.9521C12.0475 3.38231 11.4982 4.01842 11.4982 4.01842H7.91543C1.92495 4.01842 1.3125 8.43702 1.3125 8.43702V10.4006L2.11789 14.4478L10.4178 16.7827L10.4494 16.7774L18.4055 14.632Z" fill="#AC2D00"/>
<path d="M15.6533 3.77668L12.8618 16.4148L10.4488 16.7775L10.4172 16.7828L2.21391 15.3666C1.69267 15.2766 1.31189 14.8245 1.31189 14.2955V10.4006H1.17236C1.07232 10.4006 0.991211 10.3195 0.991211 10.2195V8.64081C0.991211 8.55097 1.05705 8.47471 1.14592 8.4616L1.31189 8.43711C1.31189 8.43711 1.92435 4.0185 7.91483 4.0185H8.17769C8.17769 4.0185 3.75908 5.16456 3.56194 8.64214V13.639L8.17769 14.2778V9.14945C8.17769 9.14945 8.28809 5.68764 11.4976 4.0185C11.6579 3.93439 11.8156 3.85553 11.9654 3.78456C12.4307 3.64262 13.3191 3.51645 14.9515 3.68731H14.9541C15.1197 3.70308 15.2932 3.72411 15.4746 3.74776C15.535 3.75565 15.5955 3.76616 15.6533 3.77668Z" fill="#FFD571"/>
<path d="M19.2313 14.5326V10.7791L19.1314 8.64207C19.1314 8.64207 18.837 4.19981 15.4751 3.75821C15.2937 3.73455 15.1202 3.71353 14.9546 3.69775H14.952C12.8728 3.69775 10.6412 5.47466 10.4677 7.95339C10.2421 11.183 10.3935 15.2794 10.449 16.7795L10.4493 16.788L18.3059 15.6075C18.8378 15.5276 19.2313 15.0705 19.2313 14.5326Z" fill="#FFC258"/>
<path d="M12.2812 14.8664L12.4048 8.7051C12.4048 8.7051 12.92 5.83209 14.8599 5.90569C16.7997 5.97929 17.4858 7.91653 17.5594 8.97321C17.633 10.0299 17.5594 14.3986 17.5594 14.3986L12.2812 14.8638V14.8664Z" fill="#AC2D00"/>
<path d="M0.991211 8.67438C0.991211 8.57094 1.07768 8.4885 1.181 8.49343L10.412 8.93386L10.3462 11.197L1.157 10.4147C1.06324 10.4067 0.991211 10.3283 0.991211 10.2342V8.67438Z" fill="#FFDB77"/>
<path d="M19.4378 8.91064C19.493 8.9588 19.5246 9.02844 19.5246 9.10166V10.5255C19.5246 10.6656 19.4111 10.7791 19.271 10.7791H19.2302V10.8816L10.3457 11.197L10.4114 8.93386L19.1303 8.64209L19.4378 8.91064Z" fill="#FFB23E"/>
<path d="M4.6709 10.7158V11.7315C4.6709 12.0938 4.93855 12.4004 5.29756 12.4494L5.8329 12.5225C6.26799 12.5818 6.65546 12.2436 6.65546 11.8045V10.7158H4.6709Z" fill="#FFDB77"/>
</svg>
