<svg width="77" height="77" viewBox="0 0 77 77" fill="none" xmlns="http://www.w3.org/2000/svg">
<g filter="url(#filter0_d_91_5061)">
<mask id="path-1-outside-1_91_5061" maskUnits="userSpaceOnUse" x="6.67041" y="51.8202" width="64" height="19" fill="black">
<rect fill="white" x="6.67041" y="51.8202" width="64" height="19"/>
<path fill-rule="evenodd" clip-rule="evenodd" d="M45.5192 58.5582C45.5192 56.7835 47.0911 55.8201 48.9545 55.8201C49.9559 55.8201 50.894 56.1117 51.5278 56.6568H53.4546C53.556 56.3145 53.8729 56.0356 54.342 55.9723C54.9631 55.8962 55.4575 56.3018 55.5335 56.8469C55.6983 58.3047 55.673 59.1667 55.5335 60.6118C55.4828 61.1442 55.0011 61.5879 54.38 61.5118C53.8349 61.4484 53.48 61.0808 53.4166 60.6625H51.2743C50.6658 61.0808 49.8419 61.2963 48.9545 61.2963C47.0911 61.2963 45.5192 60.3329 45.5192 58.5582ZM52.3771 58.3301C52.3898 58.4061 52.3898 58.4822 52.3898 58.5582C52.3898 58.7103 52.3771 58.8498 52.3518 58.9892H53.4926V58.3301H52.3771ZM47.6362 58.5709C47.6362 59.1287 48.1052 59.5343 48.9418 59.5343C49.7911 59.5343 50.2729 59.1033 50.2729 58.5709C50.2729 58.0131 49.7911 57.5822 48.9418 57.5822C48.1052 57.5822 47.6362 57.9878 47.6362 58.5709ZM48.739 65.2387V65.4668C48.777 65.5809 48.8277 65.619 48.9672 65.657C49.4996 65.7711 50.5517 65.8345 51.4771 65.8345C52.5166 65.8345 53.7715 65.6823 54.6462 65.4795C55.2166 65.3528 55.6096 65.5429 55.7237 65.9739C55.8378 66.3795 55.5842 66.7598 55.1532 66.9119C54.1391 67.2796 52.3137 67.3429 51.1348 67.3556C49.9813 67.3556 48.4728 67.2922 47.7122 66.988C47.3446 66.8359 46.8502 66.4176 46.7362 65.8598C46.6094 65.264 46.6981 64.7316 46.7488 64.4654C46.8376 63.9584 47.2052 63.7175 47.4714 63.7175H53.4673V63.4513C53.4546 63.3499 53.3786 63.3119 53.2011 63.3119H47.4967C47.2432 63.3119 46.8629 63.071 46.8629 62.5386C46.8629 62.1076 47.1798 61.7907 47.4714 61.7907H54.5321C54.887 61.7907 55.4068 62.1583 55.5082 62.9189C55.5842 63.5147 55.5462 64.0471 55.4575 64.4781C55.3307 65.0739 54.9124 65.2387 54.5321 65.2387H48.739ZM61.836 56.7582C62.6853 56.7582 63.3191 57.354 63.3191 58.3174V58.8371C63.3191 62.678 60.9359 65.1879 58.1978 65.733C57.7669 65.8218 57.057 65.5556 57.019 64.833C56.9809 64.1992 57.4626 63.8189 57.8936 63.6795C59.7824 63.0456 61.2148 61.7019 61.2148 59.2047C61.2148 58.8244 61.1768 58.761 60.6697 58.761H57.919C57.6021 58.761 57.1077 58.4314 57.1077 57.7596C57.1077 57.1131 57.6274 56.7582 57.9697 56.7582H61.836ZM66.691 56.8342C66.9319 58.5709 66.8304 64.5668 66.691 65.9739C66.6149 66.4809 66.0825 66.8992 65.5375 66.8485C64.9163 66.7852 64.5487 66.2908 64.574 65.7837C64.7388 63.8569 64.7642 59.0146 64.574 57.0624C64.498 56.53 64.9924 56.0229 65.4994 55.9722C66.0825 55.9089 66.6149 56.3018 66.691 56.8342ZM34.7726 60.9414C34.6585 61.4738 34.5825 63.7935 34.7473 64.4654C34.8867 65.0231 35.3684 65.3527 35.7107 65.5175C36.1924 65.7203 37.0417 65.9358 38.0938 65.9358C38.9431 65.9358 39.9572 65.7837 40.591 65.4668C40.8699 65.3527 41.3136 64.833 41.1995 64.3006C41.0474 63.5654 40.1727 63.4386 39.7798 63.6161C39.5262 63.7428 38.9051 63.9076 38.1445 63.9076C37.7262 63.9076 37.4727 63.8823 37.1558 63.8189C36.8642 63.7682 36.7374 63.6287 36.7248 63.4133C36.7184 63.1788 36.7184 62.9444 36.7184 62.7289V62.7287C36.7184 62.5132 36.7184 62.3167 36.7121 62.1583H39.6403C40.1981 62.1583 40.4896 61.6005 40.5657 61.2202C40.7051 60.4343 40.7051 58.292 40.6164 57.6455C40.515 57.0497 39.9699 56.7582 39.6023 56.7582H35.6219C35.1909 56.7582 34.8867 57.3159 34.8867 57.7469C34.8867 58.1779 35.1402 58.7484 35.6219 58.7484H38.322C38.6135 58.7484 38.6262 58.9131 38.6262 59.0146C38.6456 59.4014 38.6428 59.6923 38.6404 59.9436V59.9437V59.9439C38.6396 60.0219 38.6389 60.0961 38.6389 60.1681H35.4952C35.1529 60.1681 34.8613 60.523 34.7726 60.9414ZM43.9376 65.9739C44.077 64.5668 44.1785 58.5709 43.9376 56.8342C43.8615 56.3018 43.3291 55.9089 42.746 55.9722C42.239 56.0229 41.7446 56.53 41.8207 57.0624C42.0108 59.0146 41.9854 63.8569 41.8207 65.7837C41.7953 66.2908 42.1629 66.7852 42.7841 66.8485C43.3291 66.8992 43.8615 66.4809 43.9376 65.9739ZM26.0996 63.933C25.9601 62.3611 26.0362 58.4568 26.1503 57.6709C26.239 57.2018 26.6193 56.7582 27.1263 56.7582H28.8883C29.3574 56.7708 29.7123 57.2145 29.7123 57.7343C29.7123 58.1652 29.4208 58.761 28.8883 58.7484H28.47C28.1912 58.7484 28.1785 58.9131 28.1785 59.0146C28.1278 60.2061 28.1404 62.8301 28.2926 63.7428C28.3364 63.7351 28.3781 63.7279 28.4175 63.7211C28.5714 63.6945 28.6883 63.6743 28.7489 63.6541C29.2813 63.4893 29.9025 63.7428 30.0419 64.3133C30.1813 64.8964 29.8137 65.2767 29.4334 65.4668C28.7743 65.7964 27.0756 65.9358 26.239 65.9358C24.984 65.9358 24.1474 65.733 23.653 65.5175C23.3361 65.3527 22.8164 65.0231 22.7023 64.44C22.4995 63.3625 22.5755 58.5455 22.7023 57.6709C22.791 57.2018 23.184 56.7582 23.7037 56.7582H25.0981C25.5798 56.7708 25.9474 57.2145 25.9474 57.7343C25.9474 58.1652 25.6305 58.761 25.0981 58.7484H24.946C24.7305 58.7484 24.7178 58.9131 24.7178 59.0019C24.6545 60.0667 24.6037 62.2724 24.6925 63.4386C24.7052 63.6668 24.8066 63.7809 25.0221 63.8316C25.2502 63.8823 25.5671 63.933 26.0996 63.933ZM32.9575 61.8034H32.3997C32.3743 63.6034 32.3236 65.302 32.2603 65.9739C32.1842 66.4809 31.6518 66.8992 31.1067 66.8485C30.4856 66.7852 30.118 66.2908 30.1433 65.7837C30.3081 63.8569 30.3335 59.0146 30.1433 57.0624C30.0672 56.53 30.5616 56.0229 31.0687 55.9722C31.6518 55.9089 32.1842 56.3018 32.2603 56.8342C32.3363 57.4427 32.387 58.5455 32.3997 59.8005H32.9575C33.4011 59.8005 33.7814 60.2949 33.7814 60.7892C33.7814 61.2202 33.4772 61.8034 32.9575 61.8034ZM17.8806 60.8653C17.4116 60.9413 16.7398 60.9921 16.0553 60.9921C15.3073 60.9921 14.6101 60.9287 14.1538 60.8399C14.0144 60.8146 13.9129 60.7258 13.9003 60.5484C13.8876 60.371 13.8749 60.1809 13.8623 59.9908L13.8622 59.9906H16.8539C17.3609 59.9906 17.6398 59.4075 17.6398 58.9765C17.6398 58.4821 17.2215 57.9878 16.8539 57.9878H13.9637C13.9707 57.9421 13.9777 57.8984 13.9844 57.8564C14.0021 57.7467 14.0179 57.6484 14.027 57.5568C14.0777 57.0751 13.7482 56.5173 13.0763 56.4286C12.4932 56.3525 11.9735 56.7582 11.8974 57.2906C11.7833 58.2286 11.6946 60.447 11.8974 61.5245C12.0115 62.0442 12.4171 62.4372 12.8988 62.6146C13.3552 62.7921 14.1284 62.9315 14.9904 62.9822V64.3513C13.7482 64.3259 12.5819 64.2752 11.8214 64.1992C11.365 64.1358 10.7692 64.4654 10.6805 65.0738C10.5917 65.695 11.0988 66.1386 11.5805 66.2147C13.3298 66.4556 19.0215 66.4049 20.53 66.2147C20.9737 66.1386 21.4554 65.771 21.43 65.1119C21.4047 64.4654 20.7835 64.1358 20.2765 64.1992C19.5159 64.2879 18.3623 64.3386 17.1201 64.3513V62.9822C17.9694 62.9189 18.7553 62.7921 19.199 62.6146C19.6807 62.4372 20.099 62.0442 20.2131 61.5245C20.4159 60.447 20.3272 58.2286 20.2131 57.2906C20.137 56.7582 19.6553 56.3525 19.0215 56.4286C18.299 56.5173 18.0201 57.0877 18.0835 57.5694C18.1722 58.2033 18.2863 59.4329 18.2102 60.485C18.1976 60.7005 18.0961 60.8273 17.8806 60.8653Z"/>
</mask>
<path fill-rule="evenodd" clip-rule="evenodd" d="M45.5192 58.5582C45.5192 56.7835 47.0911 55.8201 48.9545 55.8201C49.9559 55.8201 50.894 56.1117 51.5278 56.6568H53.4546C53.556 56.3145 53.8729 56.0356 54.342 55.9723C54.9631 55.8962 55.4575 56.3018 55.5335 56.8469C55.6983 58.3047 55.673 59.1667 55.5335 60.6118C55.4828 61.1442 55.0011 61.5879 54.38 61.5118C53.8349 61.4484 53.48 61.0808 53.4166 60.6625H51.2743C50.6658 61.0808 49.8419 61.2963 48.9545 61.2963C47.0911 61.2963 45.5192 60.3329 45.5192 58.5582ZM52.3771 58.3301C52.3898 58.4061 52.3898 58.4822 52.3898 58.5582C52.3898 58.7103 52.3771 58.8498 52.3518 58.9892H53.4926V58.3301H52.3771ZM47.6362 58.5709C47.6362 59.1287 48.1052 59.5343 48.9418 59.5343C49.7911 59.5343 50.2729 59.1033 50.2729 58.5709C50.2729 58.0131 49.7911 57.5822 48.9418 57.5822C48.1052 57.5822 47.6362 57.9878 47.6362 58.5709ZM48.739 65.2387V65.4668C48.777 65.5809 48.8277 65.619 48.9672 65.657C49.4996 65.7711 50.5517 65.8345 51.4771 65.8345C52.5166 65.8345 53.7715 65.6823 54.6462 65.4795C55.2166 65.3528 55.6096 65.5429 55.7237 65.9739C55.8378 66.3795 55.5842 66.7598 55.1532 66.9119C54.1391 67.2796 52.3137 67.3429 51.1348 67.3556C49.9813 67.3556 48.4728 67.2922 47.7122 66.988C47.3446 66.8359 46.8502 66.4176 46.7362 65.8598C46.6094 65.264 46.6981 64.7316 46.7488 64.4654C46.8376 63.9584 47.2052 63.7175 47.4714 63.7175H53.4673V63.4513C53.4546 63.3499 53.3786 63.3119 53.2011 63.3119H47.4967C47.2432 63.3119 46.8629 63.071 46.8629 62.5386C46.8629 62.1076 47.1798 61.7907 47.4714 61.7907H54.5321C54.887 61.7907 55.4068 62.1583 55.5082 62.9189C55.5842 63.5147 55.5462 64.0471 55.4575 64.4781C55.3307 65.0739 54.9124 65.2387 54.5321 65.2387H48.739ZM61.836 56.7582C62.6853 56.7582 63.3191 57.354 63.3191 58.3174V58.8371C63.3191 62.678 60.9359 65.1879 58.1978 65.733C57.7669 65.8218 57.057 65.5556 57.019 64.833C56.9809 64.1992 57.4626 63.8189 57.8936 63.6795C59.7824 63.0456 61.2148 61.7019 61.2148 59.2047C61.2148 58.8244 61.1768 58.761 60.6697 58.761H57.919C57.6021 58.761 57.1077 58.4314 57.1077 57.7596C57.1077 57.1131 57.6274 56.7582 57.9697 56.7582H61.836ZM66.691 56.8342C66.9319 58.5709 66.8304 64.5668 66.691 65.9739C66.6149 66.4809 66.0825 66.8992 65.5375 66.8485C64.9163 66.7852 64.5487 66.2908 64.574 65.7837C64.7388 63.8569 64.7642 59.0146 64.574 57.0624C64.498 56.53 64.9924 56.0229 65.4994 55.9722C66.0825 55.9089 66.6149 56.3018 66.691 56.8342ZM34.7726 60.9414C34.6585 61.4738 34.5825 63.7935 34.7473 64.4654C34.8867 65.0231 35.3684 65.3527 35.7107 65.5175C36.1924 65.7203 37.0417 65.9358 38.0938 65.9358C38.9431 65.9358 39.9572 65.7837 40.591 65.4668C40.8699 65.3527 41.3136 64.833 41.1995 64.3006C41.0474 63.5654 40.1727 63.4386 39.7798 63.6161C39.5262 63.7428 38.9051 63.9076 38.1445 63.9076C37.7262 63.9076 37.4727 63.8823 37.1558 63.8189C36.8642 63.7682 36.7374 63.6287 36.7248 63.4133C36.7184 63.1788 36.7184 62.9444 36.7184 62.7289V62.7287C36.7184 62.5132 36.7184 62.3167 36.7121 62.1583H39.6403C40.1981 62.1583 40.4896 61.6005 40.5657 61.2202C40.7051 60.4343 40.7051 58.292 40.6164 57.6455C40.515 57.0497 39.9699 56.7582 39.6023 56.7582H35.6219C35.1909 56.7582 34.8867 57.3159 34.8867 57.7469C34.8867 58.1779 35.1402 58.7484 35.6219 58.7484H38.322C38.6135 58.7484 38.6262 58.9131 38.6262 59.0146C38.6456 59.4014 38.6428 59.6923 38.6404 59.9436V59.9437V59.9439C38.6396 60.0219 38.6389 60.0961 38.6389 60.1681H35.4952C35.1529 60.1681 34.8613 60.523 34.7726 60.9414ZM43.9376 65.9739C44.077 64.5668 44.1785 58.5709 43.9376 56.8342C43.8615 56.3018 43.3291 55.9089 42.746 55.9722C42.239 56.0229 41.7446 56.53 41.8207 57.0624C42.0108 59.0146 41.9854 63.8569 41.8207 65.7837C41.7953 66.2908 42.1629 66.7852 42.7841 66.8485C43.3291 66.8992 43.8615 66.4809 43.9376 65.9739ZM26.0996 63.933C25.9601 62.3611 26.0362 58.4568 26.1503 57.6709C26.239 57.2018 26.6193 56.7582 27.1263 56.7582H28.8883C29.3574 56.7708 29.7123 57.2145 29.7123 57.7343C29.7123 58.1652 29.4208 58.761 28.8883 58.7484H28.47C28.1912 58.7484 28.1785 58.9131 28.1785 59.0146C28.1278 60.2061 28.1404 62.8301 28.2926 63.7428C28.3364 63.7351 28.3781 63.7279 28.4175 63.7211C28.5714 63.6945 28.6883 63.6743 28.7489 63.6541C29.2813 63.4893 29.9025 63.7428 30.0419 64.3133C30.1813 64.8964 29.8137 65.2767 29.4334 65.4668C28.7743 65.7964 27.0756 65.9358 26.239 65.9358C24.984 65.9358 24.1474 65.733 23.653 65.5175C23.3361 65.3527 22.8164 65.0231 22.7023 64.44C22.4995 63.3625 22.5755 58.5455 22.7023 57.6709C22.791 57.2018 23.184 56.7582 23.7037 56.7582H25.0981C25.5798 56.7708 25.9474 57.2145 25.9474 57.7343C25.9474 58.1652 25.6305 58.761 25.0981 58.7484H24.946C24.7305 58.7484 24.7178 58.9131 24.7178 59.0019C24.6545 60.0667 24.6037 62.2724 24.6925 63.4386C24.7052 63.6668 24.8066 63.7809 25.0221 63.8316C25.2502 63.8823 25.5671 63.933 26.0996 63.933ZM32.9575 61.8034H32.3997C32.3743 63.6034 32.3236 65.302 32.2603 65.9739C32.1842 66.4809 31.6518 66.8992 31.1067 66.8485C30.4856 66.7852 30.118 66.2908 30.1433 65.7837C30.3081 63.8569 30.3335 59.0146 30.1433 57.0624C30.0672 56.53 30.5616 56.0229 31.0687 55.9722C31.6518 55.9089 32.1842 56.3018 32.2603 56.8342C32.3363 57.4427 32.387 58.5455 32.3997 59.8005H32.9575C33.4011 59.8005 33.7814 60.2949 33.7814 60.7892C33.7814 61.2202 33.4772 61.8034 32.9575 61.8034ZM17.8806 60.8653C17.4116 60.9413 16.7398 60.9921 16.0553 60.9921C15.3073 60.9921 14.6101 60.9287 14.1538 60.8399C14.0144 60.8146 13.9129 60.7258 13.9003 60.5484C13.8876 60.371 13.8749 60.1809 13.8623 59.9908L13.8622 59.9906H16.8539C17.3609 59.9906 17.6398 59.4075 17.6398 58.9765C17.6398 58.4821 17.2215 57.9878 16.8539 57.9878H13.9637C13.9707 57.9421 13.9777 57.8984 13.9844 57.8564C14.0021 57.7467 14.0179 57.6484 14.027 57.5568C14.0777 57.0751 13.7482 56.5173 13.0763 56.4286C12.4932 56.3525 11.9735 56.7582 11.8974 57.2906C11.7833 58.2286 11.6946 60.447 11.8974 61.5245C12.0115 62.0442 12.4171 62.4372 12.8988 62.6146C13.3552 62.7921 14.1284 62.9315 14.9904 62.9822V64.3513C13.7482 64.3259 12.5819 64.2752 11.8214 64.1992C11.365 64.1358 10.7692 64.4654 10.6805 65.0738C10.5917 65.695 11.0988 66.1386 11.5805 66.2147C13.3298 66.4556 19.0215 66.4049 20.53 66.2147C20.9737 66.1386 21.4554 65.771 21.43 65.1119C21.4047 64.4654 20.7835 64.1358 20.2765 64.1992C19.5159 64.2879 18.3623 64.3386 17.1201 64.3513V62.9822C17.9694 62.9189 18.7553 62.7921 19.199 62.6146C19.6807 62.4372 20.099 62.0442 20.2131 61.5245C20.4159 60.447 20.3272 58.2286 20.2131 57.2906C20.137 56.7582 19.6553 56.3525 19.0215 56.4286C18.299 56.5173 18.0201 57.0877 18.0835 57.5694C18.1722 58.2033 18.2863 59.4329 18.2102 60.485C18.1976 60.7005 18.0961 60.8273 17.8806 60.8653Z" fill="#3C3C3C"/>
<path d="M51.5278 56.6568L49.4614 59.0595L50.3525 59.8259H51.5278V56.6568ZM53.4546 56.6568V59.8259H55.8209L56.4931 57.5571L53.4546 56.6568ZM54.342 55.9723L53.9568 52.8267L53.9372 52.8291L53.9176 52.8317L54.342 55.9723ZM55.5335 56.8469L58.6826 56.491L58.6779 56.4499L58.6722 56.409L55.5335 56.8469ZM55.5335 60.6118L52.3791 60.3074L52.3787 60.3113L55.5335 60.6118ZM54.38 61.5118L54.7652 58.3662L54.7556 58.3651L54.746 58.3639L54.38 61.5118ZM53.4166 60.6625L56.5499 60.1878L56.1417 57.4934H53.4166V60.6625ZM51.2743 60.6625V57.4934H50.29L49.4789 58.051L51.2743 60.6625ZM52.3771 58.3301V55.161H48.6361L49.2512 58.851L52.3771 58.3301ZM52.3518 58.9892L49.2338 58.4223L48.5545 62.1583H52.3518V58.9892ZM53.4926 58.9892V62.1583H56.6617V58.9892H53.4926ZM53.4926 58.3301H56.6617V55.161H53.4926V58.3301ZM48.739 65.4668H45.5699V65.9811L45.7326 66.469L48.739 65.4668ZM48.739 65.2387V62.0696H45.5699V65.2387H48.739ZM48.9672 65.657L48.1334 68.7144L48.2177 68.7374L48.3032 68.7557L48.9672 65.657ZM54.6462 65.4795L53.9587 62.3859L53.9445 62.3891L53.9303 62.3923L54.6462 65.4795ZM55.7237 65.9739L52.6601 66.7848L52.6663 66.8084L52.673 66.8319L55.7237 65.9739ZM55.1532 66.9119L54.0985 63.9235L54.0858 63.928L54.0732 63.9326L55.1532 66.9119ZM51.1348 67.3556V70.5247H51.1519L51.1689 70.5245L51.1348 67.3556ZM47.7122 66.988L46.5005 69.9163L46.5179 69.9235L46.5353 69.9304L47.7122 66.988ZM46.7362 65.8598L49.841 65.2247L49.8385 65.2125L49.8359 65.2003L46.7362 65.8598ZM46.7488 64.4654L49.8619 65.0584L49.8664 65.0351L49.8705 65.0117L46.7488 64.4654ZM53.4673 63.7175V66.8866H56.6364V63.7175H53.4673ZM53.4673 63.4513H56.6364V63.254L56.6119 63.0582L53.4673 63.4513ZM55.5082 62.9189L58.6518 62.5176L58.6506 62.5088L58.6495 62.5L55.5082 62.9189ZM55.4575 64.4781L58.5572 65.1376L58.5593 65.1274L58.5615 65.1171L55.4575 64.4781ZM58.1978 65.733L57.5791 62.6249L57.5689 62.6269L57.5588 62.629L58.1978 65.733ZM57.019 64.833L60.1837 64.6664L60.183 64.6548L60.1823 64.6432L57.019 64.833ZM57.8936 63.6795L58.8691 66.6947L58.8855 66.6894L58.9018 66.6839L57.8936 63.6795ZM66.691 65.9739L69.825 66.444L69.8368 66.3654L69.8446 66.2864L66.691 65.9739ZM66.691 56.8342L69.8301 56.3989L69.8282 56.3861L66.691 56.8342ZM65.5375 66.8485L65.2157 70.0013L65.2298 70.0027L65.2439 70.004L65.5375 66.8485ZM64.574 65.7837L61.4165 65.5137L61.4117 65.5695L61.4089 65.6255L64.574 65.7837ZM64.574 57.0624L67.7282 56.7552L67.7213 56.6845L67.7113 56.6142L64.574 57.0624ZM65.4994 55.9722L65.8148 59.1256L65.8283 59.1242L65.8419 59.1228L65.4994 55.9722ZM34.7473 64.4654L31.6694 65.2203L31.6728 65.234L34.7473 64.4654ZM34.7726 60.9414L37.8714 61.6054L37.8727 61.599L34.7726 60.9414ZM35.7107 65.5175L34.3359 68.3729L34.4075 68.4074L34.4809 68.4383L35.7107 65.5175ZM40.591 65.4668L39.3911 62.5337L39.2806 62.5789L39.1738 62.6323L40.591 65.4668ZM41.1995 64.3006L38.0962 64.9427L38.0984 64.9536L38.1008 64.9646L41.1995 64.3006ZM39.7798 63.6161L38.4754 60.7279L38.4184 60.7536L38.3625 60.7816L39.7798 63.6161ZM37.1558 63.8189L37.7773 60.7113L37.7381 60.7035L37.6988 60.6967L37.1558 63.8189ZM36.7248 63.4133L33.5568 63.4989L33.5582 63.5491L33.5611 63.5993L36.7248 63.4133ZM36.7121 62.1583V58.9892H33.4137L33.5455 62.285L36.7121 62.1583ZM40.5657 61.2202L43.6732 61.8418L43.68 61.8079L43.6861 61.7739L40.5657 61.2202ZM40.6164 57.6455L43.7561 57.2146L43.7491 57.164L43.7406 57.1137L40.6164 57.6455ZM38.6262 59.0146H35.4571V59.0937L35.4611 59.1728L38.6262 59.0146ZM38.6404 59.9436L35.4714 59.9131L35.4713 59.9283V59.9436H38.6404ZM38.6404 59.9439L41.8093 59.9743L41.8094 59.9591V59.9439H38.6404ZM38.6389 60.1681V63.3372H41.808V60.1681H38.6389ZM43.9376 56.8342L47.0767 56.3989L47.0748 56.386L43.9376 56.8342ZM43.9376 65.9739L47.0716 66.444L47.0834 66.3654L47.0912 66.2864L43.9376 65.9739ZM42.746 55.9722L43.0614 59.1256L43.0749 59.1242L43.0885 59.1228L42.746 55.9722ZM41.8207 57.0624L44.9748 56.7552L44.9679 56.6845L44.9579 56.6142L41.8207 57.0624ZM41.8207 65.7837L38.6631 65.5137L38.6583 65.5695L38.6555 65.6255L41.8207 65.7837ZM42.7841 66.8485L42.4623 70.0013L42.4764 70.0027L42.4905 70.004L42.7841 66.8485ZM26.1503 57.6709L23.0364 57.0818L23.0238 57.1484L23.014 57.2156L26.1503 57.6709ZM26.0996 63.933V67.1021H29.5622L29.2562 63.653L26.0996 63.933ZM28.8883 56.7582L28.974 53.5902L28.9312 53.5891H28.8883V56.7582ZM28.8883 58.7484L28.9638 55.5802L28.9261 55.5793H28.8883V58.7484ZM28.1785 59.0146L31.3447 59.1493L31.3476 59.082V59.0146H28.1785ZM28.2926 63.7428L25.1666 64.2638L25.6926 67.4197L28.8433 66.8637L28.2926 63.7428ZM28.4175 63.7211L27.8779 60.5983L27.8779 60.5983L28.4175 63.7211ZM28.7489 63.6541L27.8119 60.6267L27.7792 60.6368L27.7468 60.6476L28.7489 63.6541ZM30.0419 64.3133L33.1241 63.5762L33.1222 63.5685L33.1203 63.5608L30.0419 64.3133ZM29.4334 65.4668L30.8507 68.3013L30.8507 68.3013L29.4334 65.4668ZM23.653 65.5175L22.191 68.3292L22.2872 68.3793L22.3867 68.4226L23.653 65.5175ZM22.7023 64.44L19.5879 65.0263L19.59 65.0374L19.5922 65.0485L22.7023 64.44ZM22.7023 57.6709L19.5884 57.0818L19.5758 57.1488L19.566 57.2163L22.7023 57.6709ZM25.0981 56.7582L25.1815 53.5902L25.1398 53.5891H25.0981V56.7582ZM25.0981 58.7484L25.1736 55.5802L25.1358 55.5793H25.0981V58.7484ZM24.7178 59.0019L27.8813 59.1902L27.8869 59.0961V59.0019H24.7178ZM24.6925 63.4386L27.8567 63.2628L27.8549 63.2305L27.8524 63.1982L24.6925 63.4386ZM25.0221 63.8316L24.2962 66.9164L24.3154 66.9209L24.3346 66.9252L25.0221 63.8316ZM32.3997 61.8034V58.6343H29.2749L29.2309 61.7587L32.3997 61.8034ZM32.2603 65.9739L35.3943 66.444L35.4072 66.358L35.4153 66.2715L32.2603 65.9739ZM31.1067 66.8485L30.785 70.0013L30.7991 70.0027L30.8132 70.004L31.1067 66.8485ZM30.1433 65.7837L26.9857 65.5137L26.981 65.5695L26.9782 65.6255L30.1433 65.7837ZM30.1433 57.0624L33.2975 56.7552L33.2906 56.6845L33.2805 56.6142L30.1433 57.0624ZM31.0687 55.9722L31.384 59.1256L31.3976 59.1242L31.4111 59.1228L31.0687 55.9722ZM32.2603 56.8342L35.4049 56.4412L35.4014 56.4136L35.3975 56.3861L32.2603 56.8342ZM32.3997 59.8005L29.2308 59.8325L29.2625 62.9696H32.3997V59.8005ZM17.8806 60.8653L18.3879 63.9935L18.4097 63.99L18.4314 63.9862L17.8806 60.8653ZM14.1538 60.8399L14.7587 57.7291L14.7397 57.7254L14.7207 57.722L14.1538 60.8399ZM13.9003 60.5484L10.7392 60.7742L10.7392 60.7742L13.9003 60.5484ZM13.8623 59.9908L17.0243 59.78L17.0242 59.7789L13.8623 59.9908ZM13.8622 59.9906V56.8215H10.4737L10.7003 60.2025L13.8622 59.9906ZM13.9637 57.9878L10.8314 57.5059L10.2697 61.1568H13.9637V57.9878ZM13.9844 57.8564L17.1134 58.3592L17.1134 58.3592L13.9844 57.8564ZM14.027 57.5568L10.8754 57.225L10.8745 57.2332L10.8737 57.2414L14.027 57.5568ZM13.0763 56.4286L13.4913 53.2868L13.4862 53.2861L13.0763 56.4286ZM11.8974 57.2906L8.76018 56.8424L8.7555 56.8751L8.75151 56.9079L11.8974 57.2906ZM11.8974 61.5245L8.78302 62.1107L8.79182 62.1575L8.80203 62.2039L11.8974 61.5245ZM12.8988 62.6146L14.0475 59.661L14.021 59.6507L13.9944 59.6409L12.8988 62.6146ZM14.9904 62.9822H18.1595V59.9941L15.1765 59.8186L14.9904 62.9822ZM14.9904 64.3513L14.9258 67.5197L18.1595 67.5857V64.3513H14.9904ZM11.8214 64.1992L11.3854 67.3381L11.4456 67.3465L11.506 67.3525L11.8214 64.1992ZM10.6805 65.0738L7.54456 64.6165L7.54325 64.6257L10.6805 65.0738ZM11.5805 66.2147L11.0862 69.345L11.1172 69.3499L11.1483 69.3542L11.5805 66.2147ZM20.53 66.2147L20.9263 69.3589L20.9961 69.3501L21.0655 69.3382L20.53 66.2147ZM21.43 65.1119L24.5968 64.9901L24.5967 64.9877L21.43 65.1119ZM20.2765 64.1992L20.6437 67.3469L20.6566 67.3454L20.6696 67.3438L20.2765 64.1992ZM17.1201 64.3513H13.951V67.5529L17.1524 67.5202L17.1201 64.3513ZM17.1201 62.9822L16.8842 59.8219L13.951 60.0408V62.9822H17.1201ZM19.199 62.6146L18.1034 59.6409L18.0625 59.656L18.022 59.6722L19.199 62.6146ZM20.2131 61.5245L23.3085 62.2039L23.3187 62.1575L23.3275 62.1107L20.2131 61.5245ZM20.2131 57.2906L23.359 56.9079L23.355 56.8751L23.3503 56.8424L20.2131 57.2906ZM19.0215 56.4286L18.6439 53.282L18.6352 53.2831L19.0215 56.4286ZM18.0835 57.5694L14.9415 57.9829L14.9432 57.9959L14.945 58.0088L18.0835 57.5694ZM18.2102 60.485L15.0494 60.2565L15.0479 60.2777L15.0466 60.2989L18.2102 60.485ZM48.9545 52.6511C47.5212 52.6511 45.9522 53.0158 44.6542 53.9753C43.2655 55.0019 42.3501 56.6105 42.3501 58.5582H48.6883C48.6883 58.5958 48.6764 58.7074 48.6065 58.8421C48.5392 58.9717 48.4587 59.0448 48.4219 59.072C48.3912 59.0948 48.4104 59.072 48.5096 59.0434C48.6077 59.0152 48.7574 58.9892 48.9545 58.9892V52.6511ZM53.5942 54.254C52.2433 53.0923 50.503 52.6511 48.9545 52.6511V58.9892C49.1539 58.9892 49.3093 59.019 49.4096 59.0512C49.5128 59.0844 49.515 59.1056 49.4614 59.0595L53.5942 54.254ZM53.4546 53.4877H51.5278V59.8259H53.4546V53.4877ZM53.9176 52.8317C52.385 53.0388 50.919 54.0593 50.4161 55.7565L56.4931 57.5571C56.1931 58.5698 55.3608 59.0325 54.7663 59.1128L53.9176 52.8317ZM58.6722 56.409C58.3525 54.1178 56.2611 52.5445 53.9568 52.8267L54.7271 59.1178C53.665 59.2479 52.5624 58.4859 52.3949 57.2849L58.6722 56.409ZM58.688 60.9162C58.8427 59.3129 58.8782 58.222 58.6826 56.491L52.3845 57.2029C52.5184 58.3874 52.5033 59.0205 52.3791 60.3074L58.688 60.9162ZM53.9948 64.6574C56.4511 64.9582 58.4748 63.1546 58.6883 60.9123L52.3787 60.3113C52.4909 59.1339 53.5511 58.2176 54.7652 58.3662L53.9948 64.6574ZM50.2833 61.1372C50.5785 63.0861 52.1707 64.4454 54.014 64.6597L54.746 58.3639C55.4991 58.4515 56.3814 59.0755 56.5499 60.1878L50.2833 61.1372ZM51.2743 63.8316H53.4166V57.4934H51.2743V63.8316ZM48.9545 64.4654C50.3081 64.4654 51.8052 64.1433 53.0697 63.274L49.4789 58.051C49.5124 58.028 49.4929 58.0497 49.3924 58.0769C49.2938 58.1035 49.1461 58.1272 48.9545 58.1272V64.4654ZM42.3501 58.5582C42.3501 60.506 43.2655 62.1145 44.6542 63.1412C45.9522 64.1006 47.5212 64.4654 48.9545 64.4654V58.1272C48.7574 58.1272 48.6077 58.1013 48.5096 58.073C48.4104 58.0444 48.3912 58.0217 48.4219 58.0444C48.4587 58.0716 48.5392 58.1448 48.6065 58.2744C48.6764 58.4091 48.6883 58.5207 48.6883 58.5582H42.3501ZM55.5589 58.5582C55.5589 58.5239 55.5659 58.1861 55.5031 57.8091L49.2512 58.851C49.2297 58.7223 49.2238 58.6232 49.2219 58.5762C49.2203 58.5373 49.2207 58.5093 49.2207 58.5582H55.5589ZM55.4697 59.5561C55.53 59.2244 55.5589 58.8951 55.5589 58.5582H49.2207C49.2207 58.5454 49.2213 58.5245 49.2237 58.4979C49.226 58.471 49.2296 58.4452 49.2338 58.4223L55.4697 59.5561ZM53.4926 55.8201H52.3518V62.1583H53.4926V55.8201ZM50.3236 58.3301V58.9892H56.6617V58.3301H50.3236ZM52.3771 61.4991H53.4926V55.161H52.3771V61.4991ZM48.9418 56.3652C48.9997 56.3652 49.4236 56.3766 49.911 56.7525C50.4722 57.1855 50.8053 57.8741 50.8053 58.5709H44.4671C44.4671 59.8255 45.0347 60.9958 46.0396 61.771C46.9706 62.4892 48.0473 62.7034 48.9418 62.7034V56.3652ZM47.1038 58.5709C47.1038 57.7993 47.4841 57.1323 47.9936 56.7404C48.4543 56.386 48.8567 56.3652 48.9418 56.3652V62.7034C49.8763 62.7034 50.9442 62.4671 51.8581 61.7642C52.8208 61.0236 53.4419 59.8749 53.4419 58.5709H47.1038ZM48.9418 60.7512C48.8582 60.7512 48.4422 60.7308 47.9718 60.3623C47.4454 59.9501 47.1038 59.2839 47.1038 58.5709H53.4419C53.4419 57.3002 52.8594 56.1396 51.8799 55.3724C50.9563 54.649 49.8748 54.4131 48.9418 54.4131V60.7512ZM50.8053 58.5709C50.8053 59.2103 50.5081 59.8981 49.9332 60.3498C49.4361 60.7403 48.9981 60.7512 48.9418 60.7512V54.4131C48.0489 54.4131 46.9581 54.6268 46.0173 55.366C44.9987 56.1663 44.4671 57.3484 44.4671 58.5709H50.8053ZM51.9081 65.4668V65.2387H45.5699V65.4668H51.9081ZM49.801 62.5996C49.8148 62.6033 50.3146 62.7227 50.8219 63.1377C51.4261 63.6321 51.6625 64.2158 51.7455 64.4647L45.7326 66.469C45.8535 66.8319 46.1343 67.4917 46.8083 68.0432C47.3852 68.5152 47.9801 68.6726 48.1334 68.7144L49.801 62.5996ZM51.4771 62.6654C51.0806 62.6654 50.6578 62.6516 50.2886 62.6266C50.1047 62.6142 49.9473 62.5999 49.822 62.5852C49.6879 62.5695 49.6301 62.558 49.6312 62.5582L48.3032 68.7557C49.1834 68.9444 50.5191 69.0035 51.4771 69.0035V62.6654ZM53.9303 62.3923C53.2896 62.5409 52.2748 62.6654 51.4771 62.6654V69.0035C52.7583 69.0035 54.2534 68.8238 55.3621 68.5667L53.9303 62.3923ZM58.7872 65.163C58.5103 64.1168 57.8016 63.1603 56.6935 62.6445C55.6836 62.1744 54.6815 62.2253 53.9587 62.3859L55.3337 68.5731C55.1813 68.607 54.6609 68.6896 54.0186 68.3906C53.2782 68.0459 52.8229 67.4 52.6601 66.7848L58.7872 65.163ZM56.208 69.9004C57.7594 69.3528 59.4605 67.5554 58.7744 65.1159L52.673 66.8319C52.4775 66.1371 52.6069 65.4161 52.9555 64.8584C53.2816 64.3366 53.7295 64.0537 54.0985 63.9235L56.208 69.9004ZM51.1689 70.5245C51.788 70.5179 52.6315 70.4977 53.4798 70.4241C54.2632 70.3561 55.3177 70.2232 56.2333 69.8913L54.0732 63.9326C54.0741 63.9323 54.0665 63.935 54.0493 63.9402C54.0322 63.9452 54.0082 63.9519 53.9765 63.9597C53.912 63.9757 53.8269 63.9938 53.7197 64.0125C53.5022 64.0503 53.2366 64.0832 52.9319 64.1097C52.3193 64.1628 51.6606 64.1807 51.1008 64.1867L51.1689 70.5245ZM46.5353 69.9304C47.376 70.2667 48.3402 70.3852 49.0002 70.4429C49.7447 70.508 50.5116 70.5247 51.1348 70.5247V64.1865C50.6046 64.1865 50.0404 64.1715 49.5521 64.1288C49.3091 64.1076 49.1166 64.0822 48.9758 64.0564C48.8181 64.0276 48.808 64.0131 48.8892 64.0456L46.5353 69.9304ZM43.6314 66.4949C44.0191 68.3906 45.4902 69.4982 46.5005 69.9163L48.9239 64.0597C49.1716 64.1622 49.3206 64.2818 49.4258 64.3923C49.5376 64.5099 49.7498 64.7792 49.841 65.2247L43.6314 66.4949ZM43.6357 63.8724C43.5651 64.243 43.3741 65.2863 43.6365 66.5193L49.8359 65.2003C49.8431 65.2342 49.8389 65.2388 49.8406 65.2056C49.8423 65.1741 49.8472 65.1357 49.8619 65.0584L43.6357 63.8724ZM47.4714 60.5484C45.4614 60.5484 43.9444 62.1062 43.6272 63.9191L49.8705 65.0117C49.7307 65.8105 48.949 66.8866 47.4714 66.8866V60.5484ZM53.4673 60.5484H47.4714V66.8866H53.4673V60.5484ZM50.2982 63.4513V63.7175H56.6364V63.4513H50.2982ZM53.2011 66.4809C53.1925 66.4809 52.6057 66.5035 51.9372 66.1569C51.5353 65.9485 51.1163 65.6144 50.7949 65.1242C50.4837 64.6493 50.3649 64.1821 50.3227 63.8444L56.6119 63.0582C56.4933 62.1093 55.9396 61.0927 54.8548 60.5302C54.1008 60.1392 53.3872 60.1428 53.2011 60.1428V66.4809ZM47.4967 66.4809H53.2011V60.1428H47.4967V66.4809ZM43.6938 62.5386C43.6938 64.8213 45.493 66.4809 47.4967 66.4809V60.1428C48.9934 60.1428 50.032 61.3208 50.032 62.5386H43.6938ZM47.4714 58.6216C45.0265 58.6216 43.6938 60.7896 43.6938 62.5386H50.032C50.032 63.1089 49.8207 63.655 49.4498 64.0818C49.1182 64.4634 48.4552 64.9598 47.4714 64.9598V58.6216ZM54.5321 58.6216H47.4714V64.9598H54.5321V58.6216ZM58.6495 62.5C58.3891 60.5477 56.8332 58.6216 54.5321 58.6216V64.9598C53.6931 64.9598 53.1445 64.5806 52.8743 64.3105C52.5452 63.9813 52.4035 63.6126 52.3669 63.3377L58.6495 62.5ZM58.5615 65.1171C58.7168 64.3625 58.7744 63.4783 58.6518 62.5176L52.3646 63.3202C52.3941 63.5511 52.3756 63.7317 52.3535 63.839L58.5615 65.1171ZM54.5321 68.4077C55.1469 68.4077 56.0362 68.278 56.8873 67.6918C57.8069 67.0585 58.3476 66.1225 58.5572 65.1376L52.3578 63.8186C52.4406 63.4295 52.7088 62.8737 53.2924 62.4718C53.8076 62.117 54.2976 62.0696 54.5321 62.0696V68.4077ZM48.739 68.4077H54.5321V62.0696H48.739V68.4077ZM66.4882 58.3174C66.4882 57.1234 66.0816 55.8971 65.1568 54.9556C64.2345 54.0168 63.0185 53.5891 61.836 53.5891V59.9273C61.5027 59.9273 61.0283 59.7974 60.6353 59.3973C60.2397 58.9946 60.15 58.5479 60.15 58.3174H66.4882ZM66.4882 58.8371V58.3174H60.15V58.8371H66.4882ZM58.8166 68.8411C63.1102 67.9864 66.4882 64.1141 66.4882 58.8371H60.15C60.15 61.2419 58.7617 62.3895 57.5791 62.6249L58.8166 68.8411ZM53.8542 64.9996C53.9342 66.5188 54.7824 67.6578 55.7961 68.2837C56.6853 68.8328 57.7904 69.0525 58.8369 68.837L57.5588 62.629C58.1743 62.5023 58.709 62.6333 59.126 62.8908C59.6674 63.2251 60.1417 63.8698 60.1837 64.6664L53.8542 64.9996ZM56.9181 60.6642C55.7982 61.0266 53.6943 62.3351 53.8556 65.0228L60.1823 64.6432C60.2187 65.2499 59.9807 65.8012 59.6544 66.1702C59.3786 66.482 59.0839 66.6252 58.8691 66.6947L56.9181 60.6642ZM58.0457 59.2047C58.0457 59.8057 57.8902 60.0356 57.8083 60.1358C57.6926 60.2774 57.4353 60.4905 56.8854 60.675L58.9018 66.6839C60.2407 66.2346 61.644 65.4589 62.7167 64.1459C63.8232 62.7915 64.3839 61.101 64.3839 59.2047H58.0457ZM60.6697 61.9301C60.7745 61.9301 60.66 61.9366 60.472 61.9068C60.2948 61.8786 59.6651 61.764 59.0529 61.2317C58.3722 60.6397 58.1577 59.9294 58.0895 59.5765C58.0361 59.3004 58.0457 59.0924 58.0457 59.2047H64.3839C64.3839 59.1268 64.3888 58.7683 64.3124 58.3734C64.2212 57.9016 63.9655 57.1042 63.2119 56.4489C62.5269 55.8532 61.7926 55.6989 61.4656 55.647C61.1279 55.5934 60.8185 55.5919 60.6697 55.5919V61.9301ZM57.919 61.9301H60.6697V55.5919H57.919V61.9301ZM53.9386 57.7596C53.9386 60.1239 55.7946 61.9301 57.919 61.9301V55.5919C58.7432 55.5919 59.323 55.9527 59.6568 56.293C60.0732 56.7175 60.2768 57.2634 60.2768 57.7596H53.9386ZM57.9697 53.5891C55.9328 53.5891 53.9386 55.3078 53.9386 57.7596H60.2768C60.2768 58.3471 60.0205 58.8951 59.6304 59.278C59.3223 59.5804 58.7734 59.9273 57.9697 59.9273V53.5891ZM61.836 53.5891H57.9697V59.9273H61.836V53.5891ZM69.8446 66.2864C69.9306 65.4189 69.99 63.4319 70.0026 61.5489C70.0149 59.7125 69.988 57.5376 69.83 56.3989L63.552 57.2696C63.6349 57.8675 63.6776 59.5589 63.6646 61.5064C63.6519 63.4073 63.5908 65.1218 63.5374 65.6613L69.8446 66.2864ZM65.2439 70.004C67.4028 70.2048 69.4907 68.6727 69.825 66.444L63.557 65.5038C63.6599 64.8175 64.0311 64.3591 64.3615 64.1057C64.7 63.8461 65.2087 63.6352 65.831 63.6931L65.2439 70.004ZM61.4089 65.6255C61.3002 67.7997 62.8997 69.7649 65.2157 70.0013L65.8592 63.6958C66.933 63.8054 67.7972 64.7818 67.7392 65.942L61.4089 65.6255ZM61.4199 57.3696C61.5883 59.0985 61.5678 63.7448 61.4165 65.5137L67.7316 66.0538C67.9099 63.969 67.9401 58.9306 67.7282 56.7552L61.4199 57.3696ZM65.1841 52.8189C64.0345 52.9338 63.0815 53.5203 62.4495 54.2313C61.8075 54.9535 61.2372 56.1134 61.4368 57.5106L67.7113 56.6142C67.8348 57.479 67.4737 58.1192 67.1867 58.4421C66.9096 58.7538 66.4573 59.0613 65.8148 59.1256L65.1841 52.8189ZM69.8282 56.3861C69.4851 53.9841 67.2543 52.5937 65.157 52.8217L65.8419 59.1228C64.9107 59.224 63.7448 58.6195 63.5538 57.2824L69.8282 56.3861ZM37.8251 63.7104C37.8538 63.8273 37.8551 63.8788 37.8482 63.8132C37.8432 63.7653 37.8369 63.6836 37.8316 63.5652C37.8211 63.3285 37.8184 63.0272 37.824 62.7061C37.8295 62.3872 37.8426 62.0802 37.8591 61.8372C37.8674 61.7154 37.8756 61.6238 37.8822 61.5632C37.8911 61.4826 37.891 61.5138 37.8713 61.6054L31.6739 60.2773C31.5425 60.8902 31.4988 61.9042 31.4867 62.5961C31.4796 63.0054 31.4817 63.4434 31.4997 63.8472C31.5145 64.1804 31.5476 64.7239 31.6694 65.2203L37.8251 63.7104ZM37.0854 62.6622C37.1141 62.676 37.2143 62.7253 37.343 62.8483C37.4829 62.9821 37.7128 63.2611 37.8217 63.6968L31.6728 65.234C32.1623 67.1922 33.7356 68.0839 34.3359 68.3729L37.0854 62.6622ZM38.0938 62.7668C37.782 62.7668 37.5109 62.7346 37.2981 62.6929C37.1924 62.6721 37.1063 62.6501 37.0418 62.6309C37.0099 62.6214 36.985 62.6131 36.9671 62.6068C36.9489 62.6003 36.9402 62.5967 36.9404 62.5968L34.4809 68.4383C35.3739 68.8143 36.6439 69.1049 38.0938 69.1049V62.7668ZM39.1738 62.6323C39.2184 62.61 39.2159 62.6164 39.1481 62.6366C39.0849 62.6555 38.9921 62.6782 38.8712 62.6995C38.6234 62.7434 38.3426 62.7668 38.0938 62.7668V69.1049C39.1593 69.1049 40.7407 68.9351 42.0083 68.3013L39.1738 62.6323ZM38.1008 64.9646C37.9318 64.1762 38.2077 63.5974 38.3541 63.3628C38.4395 63.226 38.5427 63.1007 38.6681 62.9847C38.7707 62.8898 39.0056 62.6914 39.3911 62.5337L41.791 68.4C42.7207 68.0196 43.3626 67.3089 43.7312 66.7184C44.1406 66.0623 44.5813 64.9573 44.2983 63.6366L38.1008 64.9646ZM41.0841 66.5043C40.6918 66.6815 40.3667 66.7116 40.1819 66.7136C39.9748 66.716 39.7537 66.6853 39.5235 66.6039C39.0259 66.4279 38.2958 65.9078 38.0962 64.9427L44.3029 63.6585C43.9511 61.9582 42.7076 61.007 41.6364 60.6283C40.7166 60.303 39.5395 60.2473 38.4754 60.7279L41.0841 66.5043ZM38.1445 67.0767C39.2474 67.0767 40.3867 66.8557 41.197 66.4506L38.3625 60.7816C38.4353 60.7452 38.4898 60.7229 38.5181 60.7118C38.5486 60.7 38.5675 60.6939 38.5732 60.6921C38.5834 60.6889 38.5668 60.6946 38.5241 60.7032C38.4365 60.7209 38.3017 60.7385 38.1445 60.7385V67.0767ZM36.5343 66.9264C37.0844 67.0365 37.5488 67.0767 38.1445 67.0767V60.7385C37.9985 60.7385 37.9324 60.734 37.9019 60.7312C37.8787 60.7291 37.8486 60.7256 37.7773 60.7113L36.5343 66.9264ZM33.5611 63.5993C33.6036 64.3214 33.8741 65.2148 34.6207 65.9444C35.3074 66.6155 36.0977 66.8515 36.6128 66.9411L37.6988 60.6967C37.9222 60.7355 38.5034 60.8765 39.0507 61.4114C39.6578 62.0047 39.8586 62.7206 39.8884 63.2272L33.5611 63.5993ZM33.5493 62.7289C33.5493 62.9381 33.5492 63.2148 33.5568 63.4989L39.8927 63.3276C39.8877 63.1428 39.8875 62.9506 39.8875 62.7289H33.5493ZM33.5493 62.7287V62.7289H39.8875V62.7287H33.5493ZM33.5455 62.285C33.5488 62.3662 33.5493 62.4914 33.5493 62.7287H39.8875C39.8875 62.5351 39.8881 62.2673 39.8786 62.0316L33.5455 62.285ZM39.6403 58.9892H36.7121V65.3274H39.6403V58.9892ZM37.4582 60.5987C37.4997 60.391 37.5893 60.122 37.8253 59.8319C38.1045 59.4888 38.7247 58.9892 39.6403 58.9892V65.3274C41.1137 65.3274 42.1586 64.5489 42.7419 63.8318C43.2822 63.1678 43.5556 62.4298 43.6732 61.8418L37.4582 60.5987ZM37.4768 58.0764C37.4757 58.0689 37.4886 58.1892 37.4983 58.4736C37.5068 58.7264 37.5105 59.0338 37.5077 59.3525C37.5048 59.6719 37.4957 59.9817 37.4809 60.2417C37.4736 60.3713 37.4654 60.4777 37.4574 60.5599C37.4488 60.6482 37.4432 60.6789 37.4453 60.6666L43.6861 61.7739C43.8073 61.0904 43.8393 60.1164 43.8456 59.4087C43.8519 58.6932 43.835 57.7896 43.7561 57.2146L37.4768 58.0764ZM39.6023 59.9273C39.0355 59.9273 38.6028 59.7368 38.2979 59.5063C37.9359 59.2326 37.5942 58.7761 37.4923 58.1773L43.7406 57.1137C43.3317 54.7115 41.2086 53.5891 39.6023 53.5891V59.9273ZM35.6219 59.9273H39.6023V53.5891H35.6219V59.9273ZM38.0558 57.7469C38.0558 58.1909 37.9273 58.5546 37.7229 58.8588C37.5413 59.1289 36.877 59.9273 35.6219 59.9273V53.5891C33.9358 53.5891 32.9039 54.6664 32.4625 55.3231C31.9982 56.0139 31.7176 56.872 31.7176 57.7469H38.0558ZM35.6219 55.5793C36.8173 55.5793 37.5122 56.334 37.7562 56.7219C37.9803 57.0782 38.0558 57.4239 38.0558 57.7469H31.7176C31.7176 58.5009 31.9198 59.3474 32.3912 60.0966C32.8823 60.8775 33.9449 61.9174 35.6219 61.9174V55.5793ZM38.322 55.5793H35.6219V61.9174H38.322V55.5793ZM41.7953 59.0146C41.7953 58.9549 41.8438 57.9278 41.1366 56.9661C40.2825 55.8045 39.042 55.5793 38.322 55.5793V61.9174C37.8936 61.9174 36.8051 61.7746 36.0303 60.7208C35.6987 60.2698 35.5649 59.8248 35.5082 59.5318C35.4546 59.2546 35.4571 59.0376 35.4571 59.0146H41.7953ZM41.8093 59.974C41.8118 59.7142 41.8157 59.3435 41.7913 58.8563L35.4611 59.1728C35.4754 59.4592 35.4737 59.6704 35.4714 59.9131L41.8093 59.974ZM41.8094 59.9437V59.9436H35.4713V59.9437H41.8094ZM41.8094 59.9439V59.9437H35.4713V59.9439H41.8094ZM41.808 60.1681C41.808 60.114 41.8085 60.0554 41.8093 59.9743L35.4714 59.9134C35.4707 59.9883 35.4698 60.0781 35.4698 60.1681H41.808ZM35.4952 63.3372H38.6389V56.999H35.4952V63.3372ZM37.8727 61.599C37.8155 61.8688 37.6824 62.1974 37.3957 62.5164C37.1147 62.829 36.4765 63.3372 35.4952 63.3372V56.999C34.1715 56.999 33.2164 57.6847 32.6819 58.2793C32.1417 58.8803 31.8185 59.5957 31.6725 60.2838L37.8727 61.599ZM40.7986 57.2696C40.8815 57.8675 40.9242 59.5589 40.9112 61.5064C40.8985 63.4073 40.8374 65.1218 40.784 65.6614L47.0912 66.2864C47.1772 65.4189 47.2366 63.4319 47.2492 61.5489C47.2615 59.7125 47.2346 57.5376 47.0766 56.3989L40.7986 57.2696ZM43.0885 59.1228C42.1573 59.224 40.9914 58.6195 40.8004 57.2824L47.0748 56.386C46.7317 53.9842 44.501 52.5937 42.4036 52.8217L43.0885 59.1228ZM44.9579 56.6142C45.0814 57.479 44.7203 58.1192 44.4333 58.4421C44.1562 58.7538 43.7039 59.0613 43.0614 59.1256L42.4307 52.8189C41.2811 52.9338 40.3281 53.5203 39.6961 54.2313C39.0541 54.9535 38.4838 56.1134 38.6834 57.5106L44.9579 56.6142ZM44.9782 66.0538C45.1565 63.969 45.1867 58.9306 44.9748 56.7552L38.6665 57.3696C38.8349 59.0985 38.8144 63.7448 38.6631 65.5137L44.9782 66.0538ZM43.1058 63.6958C44.1796 63.8054 45.0438 64.7818 44.9858 65.942L38.6555 65.6255C38.5468 67.7997 40.1462 69.7649 42.4623 70.0013L43.1058 63.6958ZM40.8036 65.5037C40.9065 64.8175 41.2777 64.3591 41.6081 64.1057C41.9466 63.8461 42.4553 63.6352 43.0776 63.6931L42.4905 70.004C44.6494 70.2048 46.7373 68.6727 47.0716 66.444L40.8036 65.5037ZM23.014 57.2156C22.921 57.8568 22.8761 59.2546 22.861 60.4677C22.8451 61.7428 22.8577 63.2528 22.9429 64.213L29.2562 63.653C29.202 63.0413 29.1829 61.8132 29.1987 60.5467C29.2063 59.9358 29.2215 59.3567 29.2409 58.8925C29.2507 58.6599 29.261 58.4667 29.2712 58.3186C29.2827 58.1512 29.29 58.1016 29.2865 58.1261L23.014 57.2156ZM27.1263 53.5891C24.6129 53.5891 23.3077 55.648 23.0364 57.0818L29.2641 58.26C29.1948 58.6261 29.0209 58.9809 28.7223 59.2795C28.4031 59.5987 27.8516 59.9273 27.1263 59.9273V53.5891ZM28.8883 53.5891H27.1263V59.9273H28.8883V53.5891ZM32.8814 57.7343C32.8814 55.9813 31.6051 53.6614 28.974 53.5902L28.8027 59.9261C28.0067 59.9046 27.3936 59.5087 27.0381 59.0806C26.6939 58.6661 26.5432 58.1832 26.5432 57.7343H32.8814ZM28.8129 61.9165C30.4429 61.9554 31.5501 61.0132 32.1048 60.2126C32.6253 59.4616 32.8814 58.5705 32.8814 57.7343H26.5432C26.5432 57.329 26.6536 56.9513 26.8951 56.6027C27.171 56.2046 27.8662 55.554 28.9638 55.5802L28.8129 61.9165ZM28.47 61.9174H28.8883V55.5793H28.47V61.9174ZM31.3476 59.0146C31.3476 59.0384 31.3497 59.2458 31.3001 59.5117C31.2481 59.79 31.1242 60.224 30.8087 60.671C30.0526 61.7421 28.9555 61.9174 28.47 61.9174V55.5793C27.7057 55.5793 26.4628 55.837 25.6306 57.0159C24.9627 57.9621 25.0094 58.9575 25.0094 59.0146H31.3476ZM31.4185 63.2218C31.4186 63.2225 31.418 63.2185 31.4167 63.2095C31.4154 63.2005 31.4137 63.1879 31.4117 63.1713C31.4077 63.1377 31.4029 63.0932 31.3977 63.0371C31.3873 62.9236 31.3771 62.7811 31.3677 62.6111C31.3488 62.2705 31.3355 61.8622 31.3281 61.4286C31.313 60.5532 31.3227 59.6651 31.3447 59.1493L25.0123 58.8798C24.9835 59.5556 24.9742 60.5753 24.9908 61.5379C25.0061 62.4249 25.0459 63.5398 25.1666 64.2638L31.4185 63.2218ZM27.8779 60.5983C27.8392 60.605 27.7921 60.6131 27.7418 60.622L28.8433 66.8637C28.8807 66.8571 28.9171 66.8508 28.957 66.8439L27.8779 60.5983ZM27.7468 60.6476C27.8068 60.6276 27.8561 60.6135 27.8892 60.6044C27.9231 60.5952 27.9501 60.5886 27.9674 60.5845C28 60.5768 28.0185 60.5734 28.0132 60.5744C28.0096 60.5751 27.9978 60.5773 27.9724 60.5818C27.947 60.5863 27.918 60.5913 27.8779 60.5983L28.957 66.8439C28.9594 66.8435 29.3997 66.7777 29.7511 66.6606L27.7468 60.6476ZM33.1203 63.5608C32.4477 60.8092 29.6595 60.0548 27.8119 60.6267L29.686 66.6815C29.2011 66.8316 28.6674 66.8015 28.1788 66.5685C27.6517 66.3172 27.143 65.8003 26.9635 65.0658L33.1203 63.5608ZM30.8507 68.3013C31.3914 68.031 32.0907 67.5489 32.6062 66.7388C33.1772 65.8415 33.3984 64.7234 33.1241 63.5762L26.9597 65.0503C26.8248 64.4863 26.9319 63.8498 27.2589 63.336C27.5304 62.9094 27.8558 62.7125 28.0162 62.6323L30.8507 68.3013ZM26.239 69.1049C26.7943 69.1049 27.5589 69.0612 28.2938 68.9698C28.8857 68.8962 29.9787 68.7373 30.8507 68.3013L28.0162 62.6323C28.1933 62.5438 28.2565 62.5474 28.0805 62.5868C27.9454 62.6171 27.752 62.6502 27.5117 62.6801C27.0234 62.7408 26.5203 62.7668 26.239 62.7668V69.1049ZM22.3867 68.4226C23.377 68.8543 24.6675 69.1049 26.239 69.1049V62.7668C25.3006 62.7668 24.9178 62.6118 24.9193 62.6124L22.3867 68.4226ZM19.5922 65.0485C20.0142 67.2055 21.8197 68.1361 22.191 68.3292L25.1151 62.7059C25.0749 62.685 25.1649 62.7238 25.2926 62.846C25.4347 62.982 25.7099 63.3074 25.8124 63.8315L19.5922 65.0485ZM19.566 57.2163C19.465 57.9134 19.4188 59.5733 19.4097 60.9586C19.4048 61.7079 19.4103 62.481 19.4314 63.1505C19.4499 63.7385 19.485 64.4798 19.5879 65.0263L25.8167 63.8538C25.8181 63.8615 25.7867 63.5966 25.7664 62.9511C25.7487 62.3871 25.7431 61.6991 25.7477 61.0002C25.7523 60.3032 25.7668 59.6177 25.7872 59.0627C25.7975 58.7846 25.8088 58.5502 25.8203 58.3695C25.8333 58.1645 25.8422 58.1007 25.8386 58.1254L19.566 57.2163ZM23.7037 53.5891C21.2452 53.5891 19.8752 55.5659 19.5884 57.0818L25.8161 58.26C25.7415 58.6547 25.5522 59.0174 25.2511 59.3103C24.9295 59.6231 24.3937 59.9273 23.7037 59.9273V53.5891ZM25.0981 53.5891H23.7037V59.9273H25.0981V53.5891ZM29.1165 57.7343C29.1165 55.884 27.743 53.6576 25.1815 53.5902L25.0148 59.9262C23.4167 59.8841 22.7784 58.545 22.7784 57.7343H29.1165ZM25.0227 61.9165C26.6288 61.9548 27.7297 61.0388 28.2889 60.2668C28.8194 59.5344 29.1165 58.6292 29.1165 57.7343H22.7784C22.7784 57.2703 22.917 56.8784 23.156 56.5485C23.4236 56.1791 24.0999 55.5546 25.1736 55.5802L25.0227 61.9165ZM24.946 61.9174H25.0981V55.5793H24.946V61.9174ZM27.8869 59.0019C27.8869 59.0454 27.8868 59.2152 27.8509 59.435C27.8155 59.6524 27.73 60.0194 27.4975 60.4231C27.2472 60.8579 26.8559 61.2803 26.3135 61.5703C25.7909 61.8497 25.2946 61.9174 24.946 61.9174V55.5793C23.8717 55.5793 22.6791 56.0893 22.0047 57.2606C21.5213 58.1003 21.5487 58.9179 21.5487 59.0019H27.8869ZM27.8524 63.1982C27.78 62.2457 27.8208 60.2075 27.8813 59.1902L21.5543 58.8136C21.4881 59.9259 21.4275 62.2991 21.5325 63.679L27.8524 63.1982ZM25.7479 60.7467C26.0272 60.8124 26.6599 61.0186 27.1959 61.6492C27.7369 62.2857 27.8395 62.9537 27.8567 63.2628L21.5283 63.6144C21.5581 64.1517 21.7177 64.9908 22.3666 65.7541C23.0103 66.5114 23.8014 66.8 24.2962 66.9164L25.7479 60.7467ZM26.0996 60.7639C25.9347 60.7639 25.8379 60.7561 25.7904 60.7509C25.7488 60.7464 25.7283 60.7421 25.7095 60.7379L24.3346 66.9252C24.7913 67.0267 25.3388 67.1021 26.0996 67.1021V60.7639ZM32.3997 64.9724H32.9575V58.6343H32.3997V64.9724ZM35.4153 66.2715C35.4929 65.449 35.5436 63.616 35.5685 61.848L29.2309 61.7587C29.2051 63.5908 29.1543 65.1551 29.1052 65.6762L35.4153 66.2715ZM30.8132 70.004C32.972 70.2048 35.06 68.6727 35.3943 66.444L29.1262 65.5038C29.2292 64.8175 29.6004 64.3591 29.9308 64.1057C30.2693 63.8461 30.778 63.6352 31.4002 63.6931L30.8132 70.004ZM26.9782 65.6255C26.8695 67.7997 28.4689 69.7649 30.785 70.0013L31.4284 63.6958C32.5022 63.8054 33.3664 64.7818 33.3084 65.942L26.9782 65.6255ZM26.9891 57.3696C27.1575 59.0985 27.137 63.7448 26.9857 65.5137L33.3009 66.0538C33.4792 63.969 33.5094 58.9306 33.2975 56.7552L26.9891 57.3696ZM30.7533 52.8189C29.6037 52.9338 28.6507 53.5203 28.0187 54.2313C27.3767 54.9535 26.8065 56.1135 27.0061 57.5106L33.2805 56.6142C33.4041 57.4789 33.043 58.1192 32.7559 58.4421C32.4789 58.7538 32.0266 59.0613 31.384 59.1256L30.7533 52.8189ZM35.3975 56.3861C35.0544 53.9841 32.8236 52.5937 30.7262 52.8217L31.4111 59.1228C30.48 59.224 29.314 58.6195 29.123 57.2824L35.3975 56.3861ZM35.5686 59.7685C35.5558 58.4953 35.5047 57.2402 35.4049 56.4412L29.1156 57.2273C29.1679 57.6452 29.2183 58.5958 29.2308 59.8325L35.5686 59.7685ZM32.9575 56.6314H32.3997V62.9696H32.9575V56.6314ZM36.9505 60.7892C36.9505 59.7651 36.573 58.8224 35.996 58.1119C35.4305 57.4153 34.3953 56.6314 32.9575 56.6314V62.9696C31.9633 62.9696 31.3401 62.4328 31.0756 62.1071C30.7997 61.7673 30.6123 61.319 30.6123 60.7892H36.9505ZM32.9575 64.9724C34.5391 64.9724 35.6094 64.0555 36.1528 63.2863C36.6709 62.5528 36.9505 61.6608 36.9505 60.7892H30.6123C30.6123 60.3487 30.7398 59.9637 30.9759 59.6296C31.2372 59.2596 31.8955 58.6343 32.9575 58.6343V64.9724ZM16.0553 64.1611C16.8674 64.1611 17.714 64.1028 18.3879 63.9935L17.3734 57.7371C17.1092 57.7799 16.6122 57.823 16.0553 57.823V64.1611ZM13.5489 63.9508C14.2561 64.0883 15.1646 64.1611 16.0553 64.1611V57.823C15.4501 57.823 14.9642 57.7691 14.7587 57.7291L13.5489 63.9508ZM10.7392 60.7742C10.787 61.4432 11.0342 62.2401 11.6627 62.9135C12.2763 63.571 13.0135 63.8536 13.5869 63.9579L14.7207 57.722C15.1547 57.8009 15.7714 58.0265 16.2963 58.5889C16.8361 59.1672 17.0262 59.831 17.0613 60.3226L10.7392 60.7742ZM10.7002 60.2016C10.7128 60.39 10.7259 60.5879 10.7392 60.7742L17.0613 60.3226C17.0493 60.154 17.0371 59.9717 17.0243 59.78L10.7002 60.2016ZM10.7003 60.2025L10.7003 60.2026L17.0242 59.7789L17.0242 59.7787L10.7003 60.2025ZM16.8539 56.8215H13.8622V63.1597H16.8539V56.8215ZM14.4707 58.9765C14.4707 58.596 14.5701 58.2324 14.8001 57.8873C15.0541 57.5063 15.731 56.8215 16.8539 56.8215V63.1597C18.4838 63.1597 19.5536 62.1834 20.0738 61.4031C20.5701 60.6587 20.8089 59.788 20.8089 58.9765H14.4707ZM16.8539 61.1568C16.2399 61.1568 15.7795 60.9557 15.5118 60.7965C15.2364 60.6327 15.0484 60.447 14.9245 60.2944C14.7022 60.0206 14.4707 59.5821 14.4707 58.9765H20.8089C20.8089 57.8765 20.3682 56.9437 19.8449 56.2991C19.3904 55.7394 18.3813 54.8187 16.8539 54.8187V61.1568ZM13.9637 61.1568H16.8539V54.8187H13.9637V61.1568ZM10.8555 57.3536C10.849 57.3944 10.8403 57.4482 10.8314 57.5059L17.0959 58.4696C17.1011 58.4361 17.1064 58.4025 17.1134 58.3592L10.8555 57.3536ZM10.8737 57.2414C10.8756 57.2219 10.8767 57.2176 10.8734 57.2398C10.8719 57.2502 10.8698 57.264 10.8667 57.2836C10.8635 57.3037 10.8601 57.3252 10.8555 57.3536L17.1134 58.3592C17.1272 58.2731 17.16 58.0761 17.1804 57.8721L10.8737 57.2414ZM12.6614 59.5704C11.5272 59.4206 10.7574 58.346 10.8754 57.225L17.1787 57.8885C17.3981 55.8041 15.9691 53.614 13.4913 53.2868L12.6614 59.5704ZM15.0346 57.7387C14.8582 58.9738 13.7537 59.7129 12.6664 59.571L13.4862 53.2861C11.2327 52.9922 9.08873 54.5426 8.76018 56.8424L15.0346 57.7387ZM15.0118 60.9382C14.9731 60.7329 14.9366 60.1799 14.9474 59.3988C14.9574 58.669 15.0038 57.9984 15.0433 57.6732L8.75151 56.9079C8.67698 57.5208 8.62193 58.4284 8.60979 59.3116C8.59834 60.1436 8.61886 61.2386 8.78302 62.1107L15.0118 60.9382ZM13.9944 59.6409C14.3292 59.7643 14.8333 60.1184 14.9928 60.845L8.80203 62.2039C9.1897 63.97 10.5051 65.11 11.8033 65.5883L13.9944 59.6409ZM15.1765 59.8186C14.8551 59.7997 14.5694 59.7651 14.3448 59.7254C14.0983 59.6818 14.0117 59.6471 14.0475 59.661L11.7502 65.5682C12.6526 65.9192 13.8031 66.087 14.8043 66.1459L15.1765 59.8186ZM18.1595 64.3513V62.9822H11.8214V64.3513H18.1595ZM11.506 67.3525C12.3965 67.4416 13.6654 67.494 14.9258 67.5197L15.0551 61.1829C13.831 61.1579 12.7674 61.1089 12.1367 61.0458L11.506 67.3525ZM13.8164 65.5312C13.7184 66.2031 13.3294 66.7042 12.9189 66.9888C12.5574 67.2395 12.0311 67.4278 11.3854 67.3381L12.2573 61.0602C10.3022 60.7887 7.91642 62.0666 7.54457 64.6165L13.8164 65.5312ZM12.0748 63.0844C12.5495 63.1594 12.9683 63.3865 13.2862 63.7444C13.6524 64.1567 13.9206 64.8019 13.8177 65.522L7.54325 64.6257C7.13761 67.4651 9.44438 69.0858 11.0862 69.345L12.0748 63.0844ZM20.1337 63.0705C19.5992 63.1379 17.9851 63.2009 16.1346 63.2073C14.273 63.2137 12.6321 63.1605 12.0127 63.0752L11.1483 69.3542C12.2782 69.5097 14.3579 69.5516 16.1565 69.5454C17.9663 69.5391 19.9524 69.4817 20.9263 69.3589L20.1337 63.0705ZM18.2633 65.2337C18.2427 64.6992 18.4492 64.1345 18.8464 63.7118C19.192 63.3441 19.6069 63.1576 19.9945 63.0912L21.0655 69.3382C22.6553 69.0657 24.6983 67.6304 24.5968 64.9901L18.2633 65.2337ZM20.6696 67.3438C20.1486 67.4089 19.6421 67.2834 19.2165 66.9855C18.721 66.6386 18.2938 66.0116 18.2634 65.236L24.5967 64.9877C24.5409 63.5657 23.7905 62.4506 22.8512 61.7931C21.982 61.1846 20.9114 60.9261 19.8834 61.0546L20.6696 67.3438ZM17.1524 67.5202C18.4279 67.5072 19.7144 67.4553 20.6437 67.3469L19.9092 61.0514C19.3174 61.1205 18.2968 61.17 17.0877 61.1824L17.1524 67.5202ZM13.951 62.9822V64.3513H20.2891V62.9822H13.951ZM18.022 59.6722C18.0788 59.6495 18.0881 59.6508 18.0282 59.666C17.9743 59.6796 17.8899 59.6981 17.7727 59.7183C17.5363 59.7591 17.2314 59.796 16.8842 59.8219L17.3559 66.1425C18.2427 66.0764 19.4482 65.9282 20.376 65.557L18.022 59.6722ZM17.1177 60.845C17.2856 60.08 17.8124 59.7482 18.1034 59.6409L20.2946 65.5883C21.549 65.1261 22.9124 64.0083 23.3085 62.2039L17.1177 60.845ZM17.0672 57.6732C17.1067 57.9984 17.1531 58.669 17.1631 59.3988C17.1739 60.1799 17.1374 60.7329 17.0987 60.9382L23.3275 62.1107C23.4916 61.2386 23.5122 60.1436 23.5007 59.3116C23.4886 58.4284 23.4335 57.5208 23.359 56.9079L17.0672 57.6732ZM19.3991 59.5751C18.9332 59.631 18.3838 59.5143 17.9128 59.1574C17.4557 58.8112 17.1558 58.2987 17.0759 57.7387L23.3503 56.8424C23.0253 54.5675 20.9503 53.0053 18.6439 53.2821L19.3991 59.5751ZM21.2255 57.156C21.2891 57.6397 21.1912 58.1949 20.8404 58.6882C20.4448 59.2445 19.8739 59.5168 19.4078 59.574L18.6352 53.2831C17.4466 53.4291 16.3749 54.031 15.6751 55.0151C15.0201 55.9362 14.8144 57.0175 14.9415 57.9829L21.2255 57.156ZM21.3711 60.7135C21.4699 59.3465 21.3255 57.8697 21.2219 57.1301L14.945 58.0088C15.0189 58.5368 15.1027 59.5192 15.0494 60.2565L21.3711 60.7135ZM18.4314 63.9862C19.0543 63.8762 19.8816 63.5642 20.5361 62.7941C21.173 62.045 21.3416 61.2188 21.3738 60.6711L15.0466 60.2989C15.0662 59.9666 15.1778 59.3117 15.7068 58.6892C16.2537 58.0459 16.9224 57.8163 17.3299 57.7444L18.4314 63.9862Z" fill="white" mask="url(#path-1-outside-1_91_5061)"/>
<path d="M45.2932 7.7954C34.8702 6.15873 35.4229 15.584 37.0022 20.5012C30.8648 22.0086 25.54 25.6627 23.112 31.5918C20.5548 37.836 22.3582 48.6045 34.7409 50.6504C47.1237 52.6962 55.4147 46.5587 55.5224 36.7602C55.6085 28.9214 48.7388 24.0186 45.2932 22.547C47.2673 22.9418 51.5814 22.6547 53.0458 18.3476C54.5102 14.0406 50.7129 12.9638 48.6311 12.9638C50.3539 10.2719 47.2313 7.7954 45.2932 7.7954Z" fill="url(#paint0_linear_91_5061)"/>
<path d="M34.5528 10.9584C33.6489 13.5434 33.8161 16.5279 34.3145 18.9704C28.5587 20.8924 23.52 24.7417 21.0591 30.7511C19.5693 34.3889 19.352 39.2778 21.3013 43.6064C23.3056 48.057 27.5055 51.7034 34.3793 52.8391C40.9822 53.93 46.7711 52.8824 50.9933 49.9738C55.2623 47.0329 57.6794 42.3536 57.7406 36.7846C57.7914 32.1656 55.7823 28.4664 53.3856 25.7869C52.7176 25.0401 52.0117 24.3631 51.2979 23.7567C52.9091 22.8675 54.359 21.3767 55.1461 19.0617C55.6141 17.6854 55.7309 16.3593 55.4144 15.1344C55.093 13.8906 54.3772 12.9558 53.5399 12.2971C52.8628 11.7645 52.0993 11.4029 51.3459 11.1638C51.3398 11.019 51.3273 10.8742 51.3082 10.7298C51.1597 9.60731 50.6412 8.66229 50.0294 7.93831C48.9235 6.62961 47.1679 5.65288 45.4896 5.58126C42.6484 5.15684 40.2559 5.43129 38.3463 6.43514C36.3661 7.47607 35.1835 9.15458 34.5528 10.9584Z" fill="url(#paint1_linear_91_5061)" stroke="#FDFDFD" stroke-width="4.43672" stroke-linecap="round"/>
<path d="M35.9136 20.5011C38.5708 20.6934 42.6706 21.4443 46.4658 23.0698M55.4029 31.484C54.1216 27.4633 50.4625 24.7816 46.4658 23.0698M46.4658 23.0698C48.0809 23.9467 50.6652 25.6695 50.6652 34.0683" stroke="#3B831C" stroke-width="2.53527" stroke-linecap="round"/>
<path d="M26.7989 32.4515C24.7721 35.9527 25.2637 46.5181 36.8729 47.4395" stroke="#FF953D" stroke-width="2.53527" stroke-linecap="round"/>
<path d="M38.8159 13.5357C38.8767 12.0289 40.2677 9.31661 45.3453 10.5221" stroke="#FF953D" stroke-width="2.53527" stroke-linecap="round"/>
</g>
<defs>
<filter id="filter0_d_91_5061" x="-1.21875" y="-2" width="84" height="84" filterUnits="userSpaceOnUse" color-interpolation-filters="sRGB">
<feFlood flood-opacity="0" result="BackgroundImageFix"/>
<feColorMatrix in="SourceAlpha" type="matrix" values="0 0 0 0 0 0 0 0 0 0 0 0 0 0 0 0 0 0 127 0" result="hardAlpha"/>
<feOffset dx="2" dy="2"/>
<feGaussianBlur stdDeviation="2"/>
<feComposite in2="hardAlpha" operator="out"/>
<feColorMatrix type="matrix" values="0 0 0 0 0 0 0 0 0 0 0 0 0 0 0 0 0 0 0.2 0"/>
<feBlend mode="normal" in2="BackgroundImageFix" result="effect1_dropShadow_91_5061"/>
<feBlend mode="normal" in="SourceGraphic" in2="effect1_dropShadow_91_5061" result="shape"/>
</filter>
<linearGradient id="paint0_linear_91_5061" x1="38.4541" y1="8.6948" x2="38.4541" y2="51.0433" gradientUnits="userSpaceOnUse">
<stop stop-color="#F38713"/>
<stop offset="1" stop-color="#F46E1B"/>
</linearGradient>
<linearGradient id="paint1_linear_91_5061" x1="38.4541" y1="8.6948" x2="38.4541" y2="51.0433" gradientUnits="userSpaceOnUse">
<stop stop-color="#F38713"/>
<stop offset="1" stop-color="#F46E1B"/>
</linearGradient>
</defs>
</svg>
