<svg width="360" height="800" viewBox="0 0 360 800" fill="none" xmlns="http://www.w3.org/2000/svg">
<g clip-path="url(#clip0_115_4364)">
<rect width="360" height="800" fill="url(#paint0_linear_115_4364)"/>
<path fill-rule="evenodd" clip-rule="evenodd" d="M95.4865 644.07C102.563 636.491 118.853 619.471 127.399 612.02C129.543 610.151 131.323 608.48 132.897 607.004C139.162 601.124 142.145 598.324 151.779 598.324C154.234 598.324 156.519 598.233 158.645 598.148C166.955 597.818 172.836 597.584 176.981 603.255C180.776 608.448 191.78 621.889 206.192 628.445C210.809 626.159 215.517 624.658 219.966 624.658C240.109 624.658 261.676 649.359 266.565 661.71H223.466V661.71H125.222C110.918 659.811 84.9448 653.625 95.4865 644.07Z" fill="#74BE71"/>
<path d="M118.421 648.5C118.421 648.5 21.569 640.992 0 648.5V823H360V648.5C286.065 637.911 237.604 660.924 118.421 648.5Z" fill="url(#paint1_linear_115_4364)"/>
<mask id="mask0_115_4364" style="mask-type:alpha" maskUnits="userSpaceOnUse" x="93" y="598" width="174" height="64">
<path fill-rule="evenodd" clip-rule="evenodd" d="M95.4865 644.07C102.563 636.491 118.853 619.471 127.399 612.02C129.543 610.151 131.323 608.48 132.897 607.004C139.162 601.124 142.145 598.324 151.779 598.324C154.234 598.324 156.519 598.233 158.645 598.148C166.955 597.818 172.836 597.584 176.981 603.255C180.776 608.448 191.78 621.889 206.192 628.445C210.809 626.159 215.517 624.658 219.966 624.658C240.109 624.658 261.676 649.359 266.565 661.71H223.466V661.71H125.222C110.918 659.811 84.9448 653.625 95.4865 644.07Z" fill="#74BE71"/>
</mask>
<g mask="url(#mask0_115_4364)">
<path d="M198.347 624.102C197.964 623.735 198.125 623.755 198.612 624.108L222.131 624.635C212.589 624.635 206.811 631.19 205.739 634.223C204.145 628.925 200.019 625.127 198.612 624.108L198.347 624.102Z" fill="#56A75A"/>
</g>
<mask id="mask1_115_4364" style="mask-type:alpha" maskUnits="userSpaceOnUse" x="93" y="597" width="131" height="65">
<path d="M127.399 612.02C118.853 619.471 102.563 636.491 95.4865 644.07C84.9448 653.625 110.918 659.811 125.222 661.71H223.466V632.126C200.947 633.009 182.584 610.839 176.981 603.255C170.995 595.154 163.808 598.909 151.779 598.324C139.74 597.738 138.083 602.707 127.399 612.02Z" fill="#74BE71"/>
</mask>
<g mask="url(#mask1_115_4364)">
<path d="M134.844 613.466C126.885 616.035 123.085 612.53 123.416 610.506L140.34 594.179L173.909 598.619L193.102 610.506C192.538 612.596 187.448 615.366 178.26 613.25C167.865 610.856 169.408 621.089 166.89 622.253C162.553 624.257 161.165 616.28 155.242 616.28C147.079 616.28 146.013 623.246 143.314 622.239C138.61 620.483 141.672 611.262 134.844 613.466Z" fill="#51934C"/>
<path d="M156.533 608.306C153.155 608.343 150.853 607.561 149.329 606.51C147.123 604.99 148.968 602.464 151.647 602.434L161.391 602.325C164.542 602.29 166.251 605.321 163.447 606.76C161.735 607.638 159.466 608.273 156.533 608.306Z" fill="#4DA0EE"/>
<path d="M146.213 603.688C146.865 605.276 149.744 608.453 156.05 608.453C162.355 608.453 166.171 605.276 167.292 603.688" stroke="#488643" stroke-width="2" stroke-linecap="round"/>
<path d="M129.186 622.537C124.76 627.174 115.085 637.744 111.797 642.93" stroke="#56A75A" stroke-linecap="round"/>
<path d="M133.529 629.371C130.11 632.868 125.22 640.832 123.726 644.851" stroke="#56A75A" stroke-linecap="round"/>
<path d="M174.908 623.473C178.852 626.55 185.384 633.126 187.464 636.876" stroke="#56A75A" stroke-linecap="round"/>
<path d="M173.667 635.85C176.08 638.256 178.131 642.192 180.367 646.067" stroke="#56A75A" stroke-linecap="round"/>
<path d="M143.603 628.144C141.344 630.695 139.542 634.751 137.55 638.758" stroke="#56A75A" stroke-linecap="round"/>
<path d="M184.314 620.749C188.832 624.437 197.841 633.539 200.009 637.239" stroke="#56A75A" stroke-linecap="round"/>
</g>
<path d="M235.074 632.951C239.756 635.044 246.875 642.692 248.955 646.442" stroke="#56A75A" stroke-linecap="round"/>
<path d="M230.188 632.298C232.128 633.832 234.547 638.252 235.074 640.252" stroke="#56A75A" stroke-linecap="round"/>
<rect x="112" y="787" width="135" height="5" rx="2.5" fill="#1A1A1C"/>
<path fill-rule="evenodd" clip-rule="evenodd" d="M300.924 108.155H315.316H331.235H343.449C345.282 108.155 346.768 106.669 346.768 104.836C346.768 103.003 345.282 101.517 343.449 101.517H340.084C340.322 100.7 340.449 99.8354 340.449 98.9413C340.449 93.8527 336.324 89.7276 331.235 89.7276C329.931 89.7276 328.69 89.9987 327.565 90.4876C325.706 85.5292 320.923 82 315.316 82C308.116 82 302.275 87.8183 302.238 95.0095C301.814 94.9242 301.374 94.8794 300.924 94.8794C297.258 94.8794 294.286 97.8512 294.286 101.517H292.311C290.478 101.517 288.992 103.003 288.992 104.836C288.992 106.669 290.478 108.155 292.311 108.155H300.924Z" fill="#FEFFFB"/>
<path fill-rule="evenodd" clip-rule="evenodd" d="M63.9269 146.013H78.3187H94.2381H106.452C108.285 146.013 109.771 144.527 109.771 142.694C109.771 140.861 108.285 139.375 106.452 139.375H103.087C103.324 138.558 103.452 137.694 103.452 136.799C103.452 131.711 99.3267 127.586 94.2381 127.586C92.9337 127.586 91.6926 127.857 90.568 128.346C88.7092 123.387 83.9261 119.858 78.3187 119.858C71.1189 119.858 65.278 125.676 65.2414 132.868C64.8165 132.782 64.3769 132.738 63.9269 132.738C60.2609 132.738 57.2891 135.709 57.2891 139.375H55.314C53.481 139.375 51.9951 140.861 51.9951 142.694C51.9951 144.527 53.481 146.013 55.314 146.013H63.9269Z" fill="#FEFFFB"/>
<path fill-rule="evenodd" clip-rule="evenodd" d="M273.588 130.611C273.576 130.612 273.564 130.612 273.552 130.612C273.54 130.612 273.528 130.612 273.516 130.611H263.082C263.072 130.612 263.062 130.612 263.052 130.612C263.042 130.612 263.033 130.612 263.023 130.611H256.769C255.432 130.611 254.348 129.527 254.348 128.19C254.348 126.853 255.432 125.769 256.769 125.769H258.21C258.21 123.094 260.378 120.926 263.052 120.926C263.381 120.926 263.701 120.959 264.011 121.021C264.038 115.775 268.299 111.53 273.552 111.53C277.643 111.53 281.132 114.105 282.488 117.722C283.309 117.366 284.214 117.168 285.166 117.168C288.878 117.168 291.888 120.177 291.888 123.89C291.888 124.542 291.795 125.173 291.621 125.769H294.076C295.413 125.769 296.497 126.853 296.497 128.19C296.497 129.527 295.413 130.611 294.076 130.611H285.178C285.174 130.611 285.17 130.611 285.166 130.611C285.162 130.611 285.157 130.611 285.153 130.611H273.588Z" fill="#FEFFFB"/>
<path fill-rule="evenodd" clip-rule="evenodd" d="M36.5919 168.47C36.5799 168.47 36.5679 168.47 36.5558 168.47C36.5438 168.47 36.5318 168.47 36.5198 168.47H26.0861C26.0762 168.47 26.0663 168.47 26.0563 168.47C26.0464 168.47 26.0365 168.47 26.0265 168.47H19.7729C18.4356 168.47 17.3516 167.386 17.3516 166.048C17.3516 164.711 18.4356 163.627 19.7729 163.627H21.2137C21.2138 160.953 23.3819 158.785 26.0563 158.785C26.3846 158.785 26.7053 158.817 27.0153 158.879C27.042 153.633 31.3032 149.388 36.5558 149.388C40.6467 149.388 44.1362 151.963 45.4923 155.58C46.3127 155.224 47.2181 155.026 48.1698 155.026C51.8821 155.026 54.8916 158.035 54.8916 161.748C54.8916 162.4 54.7987 163.031 54.6254 163.627H57.0801C58.4173 163.627 59.5014 164.711 59.5014 166.048C59.5014 167.386 58.4173 168.47 57.0801 168.47H48.1823C48.1781 168.47 48.1739 168.47 48.1698 168.47C48.1656 168.47 48.1614 168.47 48.1572 168.47H36.5919Z" fill="#FEFFFB"/>
<path d="M-9.64973 308.372C12.0468 345.022 39.9245 363.027 68.9303 391.681C82.496 405.083 74.0422 432.809 58.0944 440.279C48.8975 444.586 34.3683 443.619 31.4092 432.092C27.889 418.379 34.1942 406.014 44.1202 397.075C89.0971 356.571 152.988 402.145 198.616 416.493C214.081 421.355 230.161 425.017 246.384 425.98C255.985 426.55 265.727 426.347 275.315 425.597C283.207 424.979 291.248 424.894 298.974 423.043C307.226 421.066 315.028 418.355 320.303 411.235C334.493 392.084 316.275 380.069 297.965 385.941C289.349 388.705 282.085 394.278 277.508 402.188C271.841 411.98 268.701 426.123 269.502 437.345C270.06 445.157 272.237 454.742 277.31 460.97C288.531 474.745 303.938 477.091 320.884 478.259C343.647 479.827 359.304 461.737 382.768 474.389" stroke="url(#paint2_linear_115_4364)" stroke-opacity="0.5" stroke-width="5" stroke-linecap="round"/>
<path d="M230.4 323.174V329.114C230.4 329.774 230.28 330.974 230.16 332.654C230.04 333.614 229.44 334.154 228.48 334.154C226.32 334.214 224.52 334.214 222.96 334.094C222.06 334.094 221.28 333.734 220.68 333.134C220.08 332.534 219.72 331.814 219.72 330.974C219.66 328.034 219.66 324.314 219.72 319.814C219.72 319.154 219.78 317.594 219.84 315.194C219.9 312.794 219.96 311.114 220.02 310.214C220.02 307.646 223.767 306.096 226.02 305.774C226.44 305.714 226.86 305.714 227.34 305.714C228.06 305.774 228.6 305.834 228.96 305.954C229.8 306.314 230.22 306.914 230.22 307.814C230.22 309.494 230.34 311.654 230.64 314.174C230.7 314.654 231.06 314.954 231.78 315.014C234.66 315.254 236.28 315.374 236.64 315.434C237.48 315.674 238.02 316.334 238.14 317.534C238.32 319.334 238.02 320.954 237.18 322.334C236.94 322.754 236.22 323.054 235.14 323.174H230.4ZM193.095 325.425C192.228 325.474 191.461 326.094 191.526 326.96C191.551 327.287 191.608 327.626 191.7 327.974C191.94 328.934 192.3 329.354 192.9 329.294C193.98 329.234 196.62 329.354 200.82 329.654C204.141 329.939 206.449 330.073 207.745 330.087C208.22 330.093 208.653 330.403 208.759 330.867C209.016 331.987 209.079 332.751 208.98 333.194C207.968 338.258 197.188 336.097 194.34 335.774C189.84 335.294 187.08 334.994 186.12 334.814C184.44 334.574 183.36 334.274 183 333.974C181.938 333.089 181.388 327.959 181.14 326.474C180.9 325.094 181.32 323.654 182.28 322.214C183.24 320.774 184.44 320.054 185.94 319.994C187.38 319.934 190.2 319.874 194.28 319.754C198.36 319.694 200.82 319.634 201.78 319.574C202.15 319.098 202.08 319.087 202.08 318.554C201.96 317.954 201.84 317.474 201.78 317.174C201.66 316.874 201.48 316.574 201.24 316.214C201 315.854 200.64 315.614 200.16 315.494C199.68 315.374 199.08 315.314 198.3 315.314C193.02 315.314 188.76 315.434 185.58 315.614C184.08 315.734 183.06 315.554 182.46 314.954C181.86 314.354 181.74 313.334 182.04 311.894C182.275 310.488 184.147 308.662 185.46 308.474C186.78 308.354 188.58 308.234 190.98 308.114C193.38 307.994 194.94 307.874 195.78 307.814C196.14 307.814 197.04 307.694 198.54 307.514C200.04 307.394 201.18 307.274 202.02 307.274C203.88 307.274 206.16 307.514 208.86 307.874C209.7 308.054 210.3 308.354 210.54 308.774C210.78 309.254 210.9 309.974 210.96 310.934C210.96 311.414 211.02 312.314 211.14 313.634C211.26 315.014 211.32 315.974 211.32 316.454C211.32 316.934 211.26 317.654 211.26 318.614C211.2 319.574 211.08 320.414 210.9 321.194C210.48 323.054 209.76 324.194 208.8 324.554C207.78 324.974 205.98 325.154 203.46 325.034C202.62 325.034 200.64 325.094 197.58 325.214C195.66 325.289 194.164 325.365 193.095 325.425Z" fill="#FA8339"/>
<path d="M230.4 256.46V262.4C230.4 263.06 230.28 264.26 230.16 265.94C230.04 266.9 229.44 267.44 228.48 267.44C226.32 267.5 224.52 267.5 222.96 267.38C222.06 267.38 221.28 267.02 220.68 266.42C220.08 265.82 219.72 265.1 219.72 264.26C219.66 261.32 219.66 257.6 219.72 253.1C219.72 252.44 219.78 250.88 219.84 248.48C219.9 246.08 219.96 244.4 220.02 243.5C220.02 240.932 223.767 239.382 226.02 239.06C226.44 239 226.86 239 227.34 239C228.06 239.06 228.6 239.12 228.96 239.24C229.8 239.6 230.22 240.2 230.22 241.1C230.22 242.78 230.34 244.94 230.64 247.46C230.7 247.94 231.06 248.24 231.78 248.3C234.66 248.54 236.28 248.66 236.64 248.72C237.48 248.96 238.02 249.62 238.14 250.82C238.32 252.62 238.02 254.24 237.18 255.62C236.94 256.04 236.22 256.34 235.14 256.46H230.4ZM193.095 258.711C192.228 258.76 191.461 259.38 191.526 260.246C191.551 260.573 191.608 260.912 191.7 261.26C191.94 262.22 192.3 262.64 192.9 262.58C193.98 262.52 196.62 262.64 200.82 262.94C204.141 263.225 206.449 263.359 207.745 263.373C208.22 263.379 208.653 263.689 208.759 264.153C209.016 265.273 209.079 266.038 208.98 266.48C207.968 271.544 197.188 269.384 194.34 269.06C189.84 268.58 187.08 268.28 186.12 268.1C184.44 267.86 183.36 267.56 183 267.26C181.938 266.375 181.388 261.245 181.14 259.76C180.9 258.38 181.32 256.94 182.28 255.5C183.24 254.06 184.44 253.34 185.94 253.28C187.38 253.22 190.2 253.16 194.28 253.04C198.36 252.98 200.82 252.92 201.78 252.86C202.15 252.385 202.08 252.374 202.08 251.84C201.96 251.24 201.84 250.76 201.78 250.46C201.66 250.16 201.48 249.86 201.24 249.5C201 249.14 200.64 248.9 200.16 248.78C199.68 248.66 199.08 248.6 198.3 248.6C193.02 248.6 188.76 248.72 185.58 248.9C184.08 249.02 183.06 248.84 182.46 248.24C181.86 247.64 181.74 246.62 182.04 245.18C182.275 243.774 184.147 241.948 185.46 241.76C186.78 241.64 188.58 241.52 190.98 241.4C193.38 241.28 194.94 241.16 195.78 241.1C196.14 241.1 197.04 240.98 198.54 240.8C200.04 240.68 201.18 240.56 202.02 240.56C203.88 240.56 206.16 240.8 208.86 241.16C209.7 241.34 210.3 241.64 210.54 242.06C210.78 242.54 210.9 243.26 210.96 244.22C210.96 244.7 211.02 245.6 211.14 246.92C211.26 248.3 211.32 249.26 211.32 249.74C211.32 250.22 211.26 250.94 211.26 251.9C211.2 252.86 211.08 253.7 210.9 254.48C210.48 256.34 209.76 257.48 208.8 257.84C207.78 258.26 205.98 258.44 203.46 258.32C202.62 258.32 200.64 258.38 197.58 258.5C195.66 258.575 194.164 258.651 193.095 258.711Z" fill="#FA8339"/>
<path fill-rule="evenodd" clip-rule="evenodd" d="M205.91 340.574C208.19 340.574 210.95 340.814 214.07 341.174C217.19 341.534 219.83 342.014 221.99 342.614C225.831 343.747 228.29 346.325 228.29 350.354C228.29 355.783 222.534 359.382 217.97 361.094C214.571 362.51 210.185 362.465 206.365 362.426C205.757 362.42 205.163 362.414 204.59 362.414C202.03 362.414 199.403 361.928 196.91 361.394C194.625 360.937 192.094 359.813 190.49 358.094C187.666 355.375 187.213 350.886 189.29 347.474C191.51 343.754 196.13 341.474 203.09 340.754C203.99 340.634 204.95 340.574 205.91 340.574ZM217.25 353.354C217.97 352.574 218.33 351.614 218.33 350.414C218.33 348.734 217.37 347.714 215.57 347.294C213.59 346.934 209.69 346.694 203.87 346.694H203.81C200.261 346.694 198.627 352.86 202.67 353.534C205.65 354.347 214.855 356.147 217.25 353.354Z" fill="#FA8339"/>
<path fill-rule="evenodd" clip-rule="evenodd" d="M205.91 273.86C208.19 273.86 210.95 274.1 214.07 274.46C217.19 274.82 219.83 275.3 221.99 275.9C225.831 277.033 228.29 279.612 228.29 283.64C228.29 289.069 222.534 292.668 217.97 294.38C214.571 295.796 210.185 295.751 206.365 295.712C205.757 295.706 205.163 295.7 204.59 295.7C202.03 295.7 199.403 295.214 196.91 294.68C194.625 294.223 192.094 293.099 190.49 291.38C187.666 288.661 187.213 284.172 189.29 280.76C191.51 277.04 196.13 274.76 203.09 274.04C203.99 273.92 204.95 273.86 205.91 273.86ZM217.25 286.64C217.97 285.86 218.33 284.9 218.33 283.7C218.33 282.02 217.37 281 215.57 280.58C213.59 280.22 209.69 279.98 203.87 279.98H203.81C200.261 279.98 198.627 286.146 202.67 286.82C205.65 287.633 214.855 289.433 217.25 286.64Z" fill="#FA8339"/>
<path d="M176.58 353.774C176.7 354.554 176.7 355.274 176.7 355.934C176.7 356.594 176.52 357.194 176.28 357.734C175.8 358.634 175.32 359.174 174.72 359.294C174 359.474 173.16 359.654 172.08 359.774C160.522 361.7 148.105 360.134 136.44 360.134C135.36 360.194 133.74 360.254 131.58 360.314C129.42 360.374 127.8 360.374 126.72 360.374C122.284 360.596 122.241 355.85 123.3 352.754C123.54 352.034 124.02 351.674 124.74 351.614L129.54 351.134C133.837 351.134 138.423 351.038 143.254 350.931C143.895 350.917 144.24 350.036 144.24 349.394V349.394C144.12 348.674 144.06 347.654 144.06 346.334C144 345.014 143.94 344.054 143.94 343.574C143.94 342.671 144.237 342.134 145.2 342.134C147.384 342.352 149.61 342.134 151.8 342.134C153.06 342.194 153.9 342.494 154.38 343.094C154.86 343.694 155.22 344.834 155.52 346.514C155.639 347.347 155.548 348.232 155.247 349.187C155.022 349.904 155.521 350.697 156.273 350.682C161.829 350.573 165.528 350.463 167.28 350.354C169.62 350.294 171.48 350.294 172.8 350.414C176.229 350.414 176.186 351.412 176.58 353.774ZM155.52 314.174C156.085 314.598 156.54 315.441 156.54 316.154C156.48 318.914 156.84 321.374 157.56 323.534C157.86 324.614 158.52 325.214 159.48 325.454C162.24 326.234 165.78 327.254 169.98 328.574C170.7 328.814 171.18 329.114 171.48 329.474C172.218 330.582 170.851 333.67 170.52 334.994C170.16 336.434 169.44 337.394 168.48 337.994C162.727 341.378 157.693 337.294 154 333.074C152.363 330.796 148.864 330.092 145.8 331.454C142.431 333.039 139.22 334.894 135.9 336.554C135.42 336.794 134.76 337.034 133.98 337.214C129.797 338.409 129.671 336.051 128.7 332.894C127.74 329.954 128.64 327.734 131.46 326.294C138.42 322.814 142.02 321.014 142.32 320.894C143.04 320.534 143.58 320.054 143.82 319.454C144.06 318.854 144.24 318.134 144.3 317.174C144.3 311.943 151.957 312.214 155.52 314.174Z" fill="#FA8339"/>
<path d="M176.58 287.06C176.7 287.84 176.7 288.56 176.7 289.22C176.7 289.88 176.52 290.48 176.28 291.02C175.8 291.92 175.32 292.46 174.72 292.58C174 292.76 173.16 292.94 172.08 293.06C160.522 294.986 148.105 293.42 136.44 293.42C135.36 293.48 133.74 293.54 131.58 293.6C129.42 293.66 127.8 293.66 126.72 293.66C122.284 293.882 122.241 289.136 123.3 286.04C123.54 285.32 124.02 284.96 124.74 284.9L129.54 284.42C133.837 284.42 138.423 284.324 143.254 284.218C143.895 284.203 144.24 283.322 144.24 282.68V282.68C144.12 281.96 144.06 280.94 144.06 279.62C144 278.3 143.94 277.34 143.94 276.86C143.94 275.957 144.237 275.42 145.2 275.42C147.384 275.638 149.61 275.42 151.8 275.42C153.06 275.48 153.9 275.78 154.38 276.38C154.86 276.98 155.22 278.12 155.52 279.8C155.639 280.633 155.548 281.518 155.247 282.474C155.022 283.19 155.521 283.983 156.273 283.968C161.829 283.859 165.528 283.749 167.28 283.64C169.62 283.58 171.48 283.58 172.8 283.7C176.229 283.7 176.186 284.698 176.58 287.06ZM155.52 247.46C156.085 247.884 156.54 248.727 156.54 249.44C156.48 252.2 156.84 254.66 157.56 256.82C157.86 257.9 158.52 258.5 159.48 258.74C162.24 259.52 165.78 260.54 169.98 261.86C170.7 262.1 171.18 262.4 171.48 262.76C172.218 263.868 170.851 266.956 170.52 268.28C170.16 269.72 169.44 270.68 168.48 271.28C162.727 274.664 157.693 270.58 154 266.36C152.363 264.083 148.864 263.378 145.8 264.74C142.431 266.325 139.22 268.18 135.9 269.84C135.42 270.08 134.76 270.32 133.98 270.5C129.797 271.695 129.671 269.338 128.7 266.18C127.74 263.24 128.64 261.02 131.46 259.58C138.42 256.1 142.02 254.3 142.32 254.18C143.04 253.82 143.58 253.34 143.82 252.74C144.06 252.14 144.24 251.42 144.3 250.46C144.3 245.229 151.957 245.5 155.52 247.46Z" fill="#FA8339"/>
</g>
<defs>
<linearGradient id="paint0_linear_115_4364" x1="180" y1="0" x2="180" y2="1000" gradientUnits="userSpaceOnUse">
<stop stop-color="#BFEDFF"/>
<stop offset="1" stop-color="#FFE9C7"/>
</linearGradient>
<linearGradient id="paint1_linear_115_4364" x1="180" y1="643" x2="180" y2="870.292" gradientUnits="userSpaceOnUse">
<stop stop-color="#49BAFF"/>
<stop offset="1" stop-color="#FFFBC5"/>
</linearGradient>
<linearGradient id="paint2_linear_115_4364" x1="-23.309" y1="365.693" x2="385.457" y2="463.101" gradientUnits="userSpaceOnUse">
<stop stop-color="#74BE71"/>
<stop offset="1" stop-color="#FF7018"/>
</linearGradient>
<clipPath id="clip0_115_4364">
<rect width="360" height="800" fill="white"/>
</clipPath>
</defs>
</svg>
