<svg width="360" height="800" viewBox="0 0 360 800" fill="none" xmlns="http://www.w3.org/2000/svg">
<g clip-path="url(#clip0_127_1466)">
<rect width="360" height="800" fill="url(#paint0_linear_127_1466)"/>
<rect y="507.612" width="360" height="376" fill="url(#paint1_linear_127_1466)"/>
<path fill-rule="evenodd" clip-rule="evenodd" d="M179.273 643.435V356.421C181.203 356.168 182.823 356.035 184.104 356.035C200.921 356.035 274.086 378.455 335.626 397.313C345.667 400.39 355.399 403.372 364.526 406.147V551.986L223.019 628.221L218.665 630.567L205.987 637.396C197.673 641.875 188.426 643.888 179.273 643.435Z" fill="url(#paint2_linear_127_1466)"/>
<path fill-rule="evenodd" clip-rule="evenodd" d="M-1 552.071V406.9C9.20903 403.846 20.1215 400.551 31.3581 397.159C89.4844 379.611 156.286 359.444 179.274 356.425V643.556C171.801 643.186 164.39 641.172 157.602 637.515L-1 552.071Z" fill="url(#paint3_linear_127_1466)"/>
<path d="M299.558 498.608C299.558 496.333 300.844 494.254 302.88 493.238L343.237 473.111C347.226 471.122 351.915 474.023 351.915 478.48V486.231C351.915 488.506 350.628 490.585 348.592 491.6L308.235 511.727C304.246 513.717 299.558 510.815 299.558 506.358V498.608Z" fill="#BE8C56"/>
<path d="M271.9 536.711C271.9 534.395 273.233 532.286 275.324 531.292L288.871 524.853C292.852 522.96 297.446 525.864 297.446 530.272V533.669C297.446 535.985 296.114 538.094 294.022 539.088L280.476 545.528C276.494 547.42 271.9 544.517 271.9 540.109V536.711Z" fill="#BE8C56"/>
<path d="M243.228 568.745C243.228 566.423 244.568 564.31 246.667 563.319L265.618 554.375C269.598 552.496 274.179 555.4 274.179 559.801V563.216C274.179 565.538 272.839 567.651 270.74 568.642L251.789 577.586C247.809 579.464 243.228 576.561 243.228 572.16V568.745Z" fill="#BE8C56"/>
<path d="M193.267 543.778C193.267 541.833 194.395 540.065 196.158 539.245L206.855 534.266C208.844 533.341 211.121 534.793 211.121 536.986V538.2C211.121 540.534 209.768 542.656 207.653 543.64L197.533 548.349C195.544 549.275 193.267 547.823 193.267 545.63V543.778Z" fill="#BE8C56"/>
<path d="M199.553 614.73C199.553 612.451 200.845 610.368 202.887 609.355L221.011 600.366C224.999 598.388 229.677 601.289 229.677 605.741V609.031C229.677 611.31 228.385 613.393 226.343 614.406L208.219 623.395C204.23 625.373 199.553 622.472 199.553 618.02V614.73Z" fill="#BE8C56"/>
<path d="M321.706 561.274C321.706 560.162 322.328 559.142 323.317 558.633L347.583 546.133C349.56 545.114 351.914 546.55 351.914 548.774C351.914 549.887 351.293 550.906 350.304 551.416L326.038 563.916C324.06 564.934 321.706 563.499 321.706 561.274Z" fill="#BE8C56"/>
<path d="M193.267 559.831C193.267 558.704 193.902 557.672 194.909 557.165L219.148 544.958C221.133 543.958 223.476 545.401 223.476 547.624C223.476 548.751 222.84 549.782 221.833 550.29L197.595 562.497C195.61 563.497 193.267 562.054 193.267 559.831Z" fill="#BE8C56"/>
<path d="M164.632 559.718C164.632 557.397 163.292 555.283 161.193 554.292L142.242 545.348C138.262 543.47 133.681 546.373 133.681 550.774V554.189C133.681 556.511 135.021 558.624 137.12 559.615L156.071 568.559C160.051 570.438 164.632 567.534 164.632 563.133V559.718Z" fill="#CE9963"/>
<path d="M105.854 504.606C105.854 502.284 104.515 500.171 102.415 499.18L83.4641 490.236C79.4841 488.358 74.9032 491.261 74.9032 495.662V499.077C74.9032 501.399 76.2427 503.512 78.3424 504.503L97.2931 513.447C101.273 515.326 105.854 512.422 105.854 508.021V504.606Z" fill="#CE9963"/>
<path d="M33.2065 531.082C33.2065 528.882 32.0021 526.858 30.0681 525.808L9.58111 514.692C6.91583 513.246 3.67342 515.175 3.67342 518.208V524.6C3.67342 526.8 4.87786 528.824 6.81188 529.874L27.2989 540.99C29.9641 542.436 33.2065 540.507 33.2065 537.474V531.082Z" fill="#CE9963"/>
<path d="M182.11 268.767C162.666 268.767 52.2603 304.245 -2.52824 320L-3.40234 420.304L180.125 504.49L363.652 425.922L364.526 320C313.144 305.096 201.974 268.767 182.11 268.767Z" fill="url(#paint4_linear_127_1466)" stroke="#C8DE62"/>
<path fill-rule="evenodd" clip-rule="evenodd" d="M-0.217191 451.717L-0.726562 416.514C64.5108 446.866 145.273 484.105 170.011 494.369C172.989 495.605 176.039 495.963 179.073 495.595V495.61C179.14 495.601 179.207 495.593 179.273 495.584V510.074C178.701 509.712 178.094 509.398 177.444 509.141V509.126C171.795 507.717 168.249 514.776 164 520.5C154.176 533.734 149.987 536.339 141.805 519.129C141.572 518.638 141.342 518.155 141.115 517.682C136.053 507.16 129.74 516.475 123.471 525.723C123.309 525.963 123.147 526.203 122.984 526.443C118.64 532.869 114.377 539.175 108.532 536.033C101.895 534.448 101.298 522.51 100.64 512.755C100.546 511.372 100.452 509.981 100.345 508.601C99.8545 502.325 98.3936 497.131 91.9114 495.595C87.8132 494.624 84.2403 496.976 80.4997 502C78.3237 504.923 73.7122 510.101 70.4997 513.141C65.4088 517.958 64.1745 511.807 62.4997 503.46C60.4692 493.341 60.7386 478.442 49.7558 477.505C41.1164 476.204 39.8451 480.661 37.6668 483.949C35.1646 487.726 32.8542 491.214 28.6685 488.269C26.6538 487.487 27.6859 482.311 25.6931 477.505C25.266 476.474 24.8686 475.516 24.5135 474.699C20.5928 465.686 17.2347 457.221 -0.217191 451.717Z" fill="#C08D58"/>
<path d="M365 416.932L184.938 491.278C182.981 492.086 180.994 492.631 179 492.873V492.858C175.864 493.238 172.713 492.868 169.636 491.591C144.047 480.968 60.0344 442.551 -7.41358 411.153" stroke="#89E485" stroke-width="1.5"/>
<path fill-rule="evenodd" clip-rule="evenodd" d="M-7 449.306V412C60.4119 443.272 143.866 481.64 169.429 492.215C172.506 493.488 175.658 493.857 178.793 493.478V493.493C178.862 493.485 178.931 493.476 179 493.467V510.115C178.409 509.743 177.781 509.419 177.11 509.154V509.139C171.272 507.686 168.648 511.211 164.257 517.109C154.108 530.741 148.74 535.462 140.283 517.725C140.042 517.22 139.805 516.721 139.57 516.235C134.339 505.394 127.815 514.991 121.338 524.52C121.17 524.767 121.002 525.014 120.835 525.261C116.346 531.881 111.94 538.379 105.901 535.142C100.414 532.202 101.377 523.506 100.696 513.456C100.6 512.03 100.503 510.598 100.391 509.176C99.8849 502.709 97.3834 496.59 90.6851 495.008C86.4503 494.008 81.5583 496.405 77.6931 501.581C75.4445 504.593 72.8804 508.026 69.5609 511.158C64.3003 516.122 63.0249 509.784 61.2943 501.184C59.1961 490.758 52.392 476.042 45.0801 476.042C40.5918 476.495 38.7187 479.319 36.4677 482.707C33.8822 486.599 31.4947 490.192 27.1695 487.158C25.0877 486.353 22.3595 479.792 20.3003 474.839C19.859 473.778 19.4483 472.79 19.0814 471.949C15.03 462.663 11.0337 454.977 -7 449.306Z" fill="#6AD166"/>
<path fill-rule="evenodd" clip-rule="evenodd" d="M179.273 510.243V496.074C181.2 495.818 183.119 495.28 185.012 494.494L365.273 419.633L363.91 451.279C363.611 452.139 363.265 453.204 362.87 454.416C359.931 463.447 355.78 479.836 347.69 481.042C343.363 481.687 338.839 477.633 335.652 474.777C335.035 474.224 334.468 473.716 333.963 473.296C330.157 470.132 326.909 470.492 323.995 474.777C320.33 480.168 318.901 485.992 317.869 492.891C316.542 501.763 313.716 509.248 307.026 513.336C300.784 517.149 297.857 508.893 293.802 500.974C292.743 498.907 291.983 496.315 291.236 493.769C289.393 487.484 287.863 480.062 280.378 483.772C275.336 485.802 270.158 499.152 267.01 507.519C265.867 510.555 264.848 513.264 263.95 515.108C252.837 533.881 240.793 523.106 231.856 508.563C217.007 488.013 209.847 524.587 198.43 526.584C193.127 527.512 189.292 522.141 186.419 518.151C184.495 515.479 181.926 511.929 179.273 510.243Z" fill="#C08D58"/>
<path fill-rule="evenodd" clip-rule="evenodd" d="M179 510.1V493.502C180.926 493.247 182.846 492.708 184.738 491.922L365 417.061V449.39C364.702 450.249 364.355 451.314 363.96 452.526C361.021 461.557 355.427 478.745 347.337 479.951C343.01 480.596 338.486 476.543 335.299 473.686C334.682 473.134 334.115 472.626 333.61 472.205C329.804 469.041 325.707 468.134 322.794 472.42C319.129 477.81 317.7 483.635 316.668 490.534C315.34 499.405 314.065 507.933 307.374 512.021C301.133 515.834 297.363 509.041 293.307 501.122C292.248 499.055 291.489 496.463 290.742 493.917C288.899 487.632 285.982 479.479 278.497 483.188C273.455 485.218 269.374 496.064 266.226 504.431C265.083 507.467 264.064 510.177 263.166 512.021C254.281 530.257 242.08 526.212 233.143 511.67C222.458 494.284 212.707 507.327 204.714 518.703C202.057 522.484 199.544 526.061 196.563 526.061C191.249 525.336 188.372 521.342 185.499 517.351C183.575 514.68 181.652 511.786 179 510.1Z" fill="#58B155"/>
<g filter="url(#filter0_f_127_1466)">
<path d="M28.355 560.813C-35.3168 541.462 -7.20967 529.543 -1.59158 527.67V525.075C-84.4766 534.028 13.9851 591.807 25.8962 595.38C31.408 597.034 39.1354 598.701 45.5185 601.801C47.9219 602.969 47.0095 606.05 44.4587 606.845C27.245 612.209 75.1973 630.955 95.9011 630.955C131.218 630.955 134.7 655.892 157.582 661.861C180.464 667.83 199.863 664.845 215.781 652.803C231.698 640.761 275.969 630.955 296.861 626.544C317.753 622.132 336.158 606.647 327.204 597.195C318.25 587.744 379.403 576.022 394.637 555.422C409.871 534.823 384.235 520.441 371.751 521.065C359.266 521.689 362.387 534.798 371.751 535.423C381.114 536.047 368.267 558.216 350.788 564.458C333.309 570.701 268.389 590.676 290.237 591.3C312.086 591.925 267.48 600.967 233.771 610.955C200.062 620.943 207.553 632.179 176.341 632.803C145.13 633.427 155.742 609.706 104.554 600.967C53.3672 592.228 100.299 582.678 28.355 560.813Z" fill="#3FECFF" fill-opacity="0.5"/>
</g>
<g filter="url(#filter1_f_127_1466)">
<path d="M28.3549 555.539C-35.3169 536.188 -7.20981 524.269 -1.59172 522.396V519.801C-84.4768 528.755 8.59547 583.116 20.5067 586.689C25.5259 588.195 29.3903 587.934 33.4416 589.372C35.9594 590.267 34.9893 593.394 32.5506 594.486C17.8262 601.077 75.2868 625.681 95.901 625.681C131.218 625.681 134.7 650.618 157.582 656.587C180.463 662.556 199.863 659.572 215.781 647.529C231.698 635.487 275.969 625.681 296.861 621.27C317.753 616.858 336.157 601.373 327.204 591.922C318.25 582.471 379.403 570.749 394.637 550.149C409.871 529.549 384.235 515.167 371.751 515.792C359.266 516.416 362.387 529.525 371.751 530.149C381.114 530.773 368.266 552.942 350.788 559.184C333.309 565.427 268.389 585.402 290.237 586.027C312.085 586.651 267.479 595.693 233.771 605.681C200.062 615.669 207.553 626.905 176.341 627.529C145.13 628.154 155.742 604.433 104.554 595.693C53.3671 586.954 100.298 577.405 28.3549 555.539Z" fill="white" fill-opacity="0.5"/>
</g>
<path d="M28.355 548.831C-35.3168 529.48 -7.2097 517.561 -1.59161 515.688V513.093C-84.4767 522.047 -1.59158 577.908 25.8962 583.399C31.5477 584.528 39.2269 586.451 45.5739 589.727C47.9481 590.953 47.0095 594.068 44.4586 594.863C27.245 600.227 75.1973 618.973 95.9011 618.973C131.218 618.973 134.7 643.91 157.582 649.879C180.464 655.848 199.863 652.864 215.781 640.821C231.698 628.779 275.969 618.973 296.861 614.562C317.753 610.15 336.158 594.665 327.204 585.214C318.25 575.763 379.403 564.041 394.637 543.441C409.871 522.841 384.235 508.459 371.751 509.084C359.266 509.708 362.387 522.817 371.751 523.441C381.114 524.065 368.267 546.234 350.788 552.476C333.309 558.719 268.389 578.694 290.237 579.319C312.086 579.943 267.48 588.985 233.771 598.973C200.062 608.961 207.553 620.197 176.341 620.821C145.13 621.446 155.742 597.725 104.554 588.985C53.3672 580.246 100.299 570.697 28.355 548.831Z" fill="#EAFCFE"/>
<path d="M317.484 585.054C323.74 583.909 330.706 601.041 288.703 608.419C236.199 617.641 306.088 583.607 317.484 585.054Z" fill="#34C1F3"/>
<path d="M176.426 647.813C170.201 647.528 165.88 646.7 162.973 645.744C160.209 644.836 161.106 642.697 164.012 642.83L187.248 643.895C191.11 644.072 191.567 647.139 187.722 647.543C184.58 647.873 180.82 648.015 176.426 647.813Z" fill="#1F9EEB"/>
<path d="M57.5416 602.653C43.9487 597.887 55.2614 594.194 62.6168 592.944C83.8009 592.944 132.347 615.01 103.661 613.245C74.9739 611.48 74.5327 608.611 57.5416 602.653Z" fill="#34C1F3"/>
<path fill-rule="evenodd" clip-rule="evenodd" d="M207.644 406.462C208.988 404.203 210.48 401.055 209.515 400.09C210.248 400.368 211.608 401.743 211.183 405.019C212.422 403.856 215.733 402.122 219.07 404.488C217.493 405.177 214.753 406.903 214.893 408.835C223.629 412.303 229.021 417.068 229.021 422.326C229.021 432.932 207.078 441.53 180.011 441.53C152.943 441.53 131 432.932 131 422.326C131 411.719 152.943 403.121 180.011 403.121C190.261 403.121 199.777 404.354 207.644 406.462Z" fill="#65AA50" fill-opacity="0.3"/>
<path d="M176.22 357.465C173.934 359.751 179.163 362.356 179.163 362.555L180.833 362.833C182.742 361.654 186.027 358.761 183.895 356.63C181.764 354.498 180.462 358.287 180.078 360.447C179.554 358.691 178.049 355.635 176.22 357.465Z" fill="#95CA5E"/>
<path d="M181.305 425.539C172.466 425.539 167.779 426.666 166.54 427.229L166.953 421.685L193.127 420.535L194.667 428.338C193.583 427.482 190.143 425.539 181.305 425.539Z" fill="#FFBC59"/>
<path d="M158.981 412.522C160.051 401.06 163.92 398.116 166.924 397.571C172.22 396.169 183.617 393.408 191.313 396.41C197.549 398.843 200.53 405.67 200.377 409.485C201.293 409.719 203.432 416.494 198.544 416.727C194.633 416.914 194.674 412.756 195.183 410.653C184.949 411.043 164.603 412.242 165.091 413.924C165.702 416.027 164.175 422.802 160.051 419.764C156.751 417.335 157.963 413.924 158.981 412.522Z" fill="#F6F3EE"/>
<ellipse cx="180.561" cy="409.683" rx="24.6334" ry="4.69189" transform="rotate(-0.140618 180.561 409.683)" fill="#E09D56"/>
<path fill-rule="evenodd" clip-rule="evenodd" d="M160.832 390.637C160.406 394.185 163.744 401.282 180.504 401.282C197.263 401.282 199.92 393.788 199.154 390.041C201.708 389.672 206.29 387.776 204.178 383.143C201.538 377.352 188.424 360.576 180.504 360.576C172.584 360.576 148.271 380.29 156.489 388.508C157.443 389.734 159.782 390.438 160.832 390.637ZM171.74 381.185C168.333 381.213 161.674 382.598 162.287 387.912C162.293 387.965 162.299 388.017 162.305 388.069C163.062 394.642 163.69 400.09 179.489 400.09C195.414 400.09 197.287 395.151 197.287 386.379C197.287 383.995 190.73 381.185 171.74 381.185Z" fill="#FFBC59"/>
<path d="M162.287 387.912C161.674 382.598 168.333 381.213 171.739 381.185C190.73 381.185 197.287 383.995 197.287 386.379C197.287 395.151 195.413 400.09 179.489 400.09C163.564 400.09 163.053 394.555 162.287 387.912Z" fill="#FFE2C4"/>
<circle cx="173.395" cy="389.914" r="1.54867" fill="#4B2717" stroke="#4B2717" stroke-width="0.234455"/>
<ellipse cx="169.988" cy="393.303" rx="1.6659" ry="0.821737" fill="#FFBAB1"/>
<ellipse cx="189.193" cy="393.303" rx="1.6659" ry="0.821737" fill="#FFBAB1"/>
<circle cx="186.141" cy="389.914" r="1.54867" fill="#4B2717" stroke="#4B2717" stroke-width="0.234455"/>
<path d="M176.792 392.208C176.957 392.909 177.665 393.026 177.879 393.026C179.415 393.026 179.265 391.891 179.525 391.891C179.786 391.891 179.525 393.026 180.884 393.026C181.937 393.026 182.046 392.427 182.121 392.101" stroke="#4B2717" stroke-width="0.703366" stroke-linecap="round"/>
<mask id="mask0_127_1466" style="mask-type:alpha" maskUnits="userSpaceOnUse" x="158" y="395" width="43" height="19">
<path d="M158.981 412.522C160.051 401.06 163.92 398.116 166.924 397.571C172.22 396.169 183.617 393.408 191.313 396.41C197.549 398.843 200.53 405.67 200.377 409.485L195.183 410.653C184.949 411.043 164.603 412.242 165.091 413.924L158.981 412.522Z" fill="#F6F3EE"/>
</mask>
<g mask="url(#mask0_127_1466)">
<path d="M194.125 405.851L190.287 405.449C190.988 398.581 195.606 396.043 196.643 396.043L198.697 397.17C196.729 397.509 194.945 401.724 194.125 405.851Z" fill="#FFBC59"/>
<path d="M166.073 406.243L169.996 405.828C169.294 398.96 165.384 397.183 164.347 397.183L162.623 397.839C164.678 397.839 165.253 402.115 166.073 406.243Z" fill="#FFBC59"/>
</g>
<path d="M165.099 377.995C165.93 376.333 169.145 372.07 175.357 368.311" stroke="#FC8A65" stroke-width="0.934463" stroke-linecap="round"/>
<path d="M179.192 366.969C179.065 370.133 179.001 376.864 179.768 378.474M183.315 366.969C186.894 369.941 194.13 376.538 194.437 379.145" stroke="#FC8A65" stroke-width="0.934463" stroke-linecap="round" stroke-linejoin="round"/>
<path d="M161.111 385.64C162.023 384.562 164.328 382.297 166.254 381.859" stroke="#FC8A65" stroke-width="0.934463" stroke-linecap="round" stroke-linejoin="round"/>
<path d="M199.33 387.45C198.506 386.304 196.388 383.863 194.502 383.274" stroke="#FC8A65" stroke-width="0.934463" stroke-linecap="round" stroke-linejoin="round"/>
<path fill-rule="evenodd" clip-rule="evenodd" d="M202.258 411.786C198.127 413.303 189.927 414.349 180.484 414.372C172.128 414.393 164.743 413.608 160.286 412.39C161.677 410.455 165.078 408.272 172.081 408.346C175.656 408.384 178.452 408.439 180.785 408.485C186.095 408.59 189.011 408.647 193.273 408.346C197.722 408.031 201.324 409.737 202.258 411.786Z" fill="#FA8339" fill-opacity="0.3"/>
<path fill-rule="evenodd" clip-rule="evenodd" d="M168.994 407.284C168.7 406.733 168.661 405.93 170.085 405.617C171.809 405.238 172.731 405.737 172.667 406.511C174.546 406.863 176.125 408.301 176.561 410.285C177.143 412.933 175.468 415.552 172.819 416.134C170.171 416.716 167.552 415.041 166.97 412.393C166.527 410.378 167.39 408.381 168.994 407.284Z" fill="#FFC44F"/>
<path d="M169.123 401.586C168.199 401.759 170.056 405.832 170.072 405.903L170.301 405.853C170.217 404.373 169.862 401.447 169.123 401.586Z" fill="#774928"/>
<path d="M170.282 405.865C170.285 405.744 169.756 403.063 171.808 402.342C172.198 402.953 172.438 404.513 170.282 405.865Z" fill="#56A75A"/>
<path fill-rule="evenodd" clip-rule="evenodd" d="M175.233 409.661C175.07 409.129 175.213 408.43 176.67 408.448C178.436 408.469 179.222 409.083 178.986 409.736C180.737 410.417 181.952 411.972 181.931 413.766C181.902 416.161 179.68 418.076 176.969 418.044C174.257 418.011 172.082 416.043 172.111 413.648C172.133 411.826 173.424 410.282 175.233 409.661Z" fill="#FA8339"/>
<path d="M176.64 404.787C175.7 404.75 176.594 408.627 176.593 408.691L176.828 408.694C177.078 407.404 177.392 404.817 176.64 404.787Z" fill="#774928"/>
<path d="M176.806 408.7C176.837 408.597 176.925 406.185 179.086 405.977C179.329 406.581 179.212 407.971 176.806 408.7Z" fill="#56A75A"/>
<path fill-rule="evenodd" clip-rule="evenodd" d="M180.619 407.249C180.455 406.717 180.598 406.018 182.056 406.036C183.821 406.057 184.607 406.671 184.371 407.324C186.122 408.005 187.337 409.56 187.316 411.354C187.287 413.749 185.066 415.664 182.354 415.632C179.643 415.599 177.468 413.631 177.496 411.236C177.518 409.414 178.809 407.87 180.619 407.249Z" fill="#FFC44F"/>
<path d="M182.026 402.375C181.086 402.337 181.98 406.214 181.979 406.279L182.214 406.282C182.464 404.992 182.777 402.404 182.026 402.375Z" fill="#774928"/>
<path d="M182.193 406.288C182.223 406.185 182.311 403.773 184.472 403.565C184.715 404.169 184.598 405.559 182.193 406.288Z" fill="#56A75A"/>
<path fill-rule="evenodd" clip-rule="evenodd" d="M187.519 408.074C187.404 407.461 187.608 406.683 189.06 406.813C190.819 406.97 191.548 407.723 191.255 408.442C192.94 409.343 194.013 411.189 193.832 413.213C193.591 415.914 191.205 417.907 188.504 417.666C185.804 417.424 183.81 415.039 184.051 412.338C184.235 410.283 185.659 408.638 187.519 408.074Z" fill="#FA8339"/>
<path d="M189.355 402.679C188.421 402.566 188.967 407.009 188.961 407.082L189.195 407.103C189.559 405.666 190.101 402.769 189.355 402.679Z" fill="#774928"/>
<path d="M189.173 407.108C189.213 406.994 189.515 404.278 191.689 404.208C191.877 404.908 191.637 406.468 189.173 407.108Z" fill="#56A75A"/>
<path d="M160.804 410.068C157.143 408.305 158.487 405.831 159.617 404.814C163.074 402.434 165.577 404.5 166.396 405.831C167.074 407.356 165.379 412.271 160.804 410.068Z" fill="#FFE2C4"/>
<path d="M199.825 409.892C203.263 408.237 202 405.913 200.939 404.958C197.692 402.722 195.341 404.663 194.572 405.913C193.935 407.345 195.527 411.961 199.825 409.892Z" fill="#FFE2C4"/>
<path fill-rule="evenodd" clip-rule="evenodd" d="M205.161 409.871C204.487 412.348 193.738 414.342 180.572 414.374C167.306 414.407 156.484 412.436 155.948 409.935C156.065 415.443 159.979 427.474 180.934 427.474C199.292 427.474 204.773 416.163 205.161 409.871ZM205.179 409.459C205.181 409.393 205.182 409.329 205.183 409.265L205.123 409.266C205.148 409.329 205.167 409.394 205.179 409.459Z" fill="#D39860"/>
<path fill-rule="evenodd" clip-rule="evenodd" d="M196.819 420.303C195.414 421.473 193.758 422.586 191.862 423.464L191.702 423.119C193.288 422.385 194.703 421.483 195.941 420.522C194 420.991 192.079 421.357 190.191 421.635C188.836 422.736 187.255 423.778 185.46 424.609L185.301 424.265C186.846 423.549 188.23 422.674 189.445 421.74C187.63 421.986 185.847 422.151 184.11 422.247C183.61 422.558 183.079 422.849 182.517 423.11L182.357 422.765C182.68 422.616 182.992 422.456 183.294 422.288C181.96 422.346 180.656 422.365 179.386 422.35C179.596 422.462 179.811 422.57 180.032 422.673L179.872 423.017C179.425 422.81 178.999 422.581 178.596 422.336C176.654 422.292 174.798 422.17 173.051 421.993C174.276 422.938 175.673 423.824 177.235 424.548L177.076 424.892C175.28 424.061 173.7 423.019 172.344 421.917C170.322 421.691 168.456 421.392 166.78 421.056C168.07 422.083 169.56 423.051 171.242 423.829L171.082 424.174C169.12 423.265 167.415 422.105 165.979 420.89C163.583 420.376 161.623 419.793 160.218 419.263L160.353 418.907C161.607 419.381 163.313 419.898 165.383 420.369C163.926 419.054 162.78 417.708 161.963 416.574C161.315 416.384 160.733 416.194 160.221 416.009L160.35 415.651C160.732 415.789 161.153 415.93 161.612 416.072C161.262 415.553 160.99 415.093 160.799 414.721L161.137 414.548C161.368 414.997 161.722 415.581 162.195 416.246C163.811 416.715 165.826 417.184 168.162 417.574C167.534 416.732 167.075 415.99 166.792 415.44L167.13 415.266C167.439 415.867 167.968 416.708 168.707 417.662C170.416 417.933 172.286 418.16 174.288 418.315C174.015 417.926 173.808 417.583 173.67 417.315L174.008 417.141C174.168 417.452 174.428 417.872 174.783 418.351C178.794 418.634 183.316 418.625 188.122 418.1C188.609 417.47 188.957 416.914 189.162 416.516L189.5 416.69C189.318 417.043 189.031 417.51 188.641 418.042C190.379 417.839 192.153 417.569 193.951 417.22C194.627 416.332 195.114 415.55 195.406 414.983L195.744 415.157C195.481 415.667 195.067 416.343 194.507 417.11C196.561 416.695 198.646 416.176 200.747 415.539C201.221 414.873 201.576 414.288 201.807 413.838L202.145 414.011C201.954 414.382 201.684 414.841 201.335 415.358C201.529 415.297 201.723 415.235 201.918 415.172L202.035 415.534C201.683 415.648 201.332 415.758 200.981 415.865C200.147 417.021 198.973 418.397 197.475 419.737C198.163 419.55 198.853 419.35 199.545 419.137L199.657 419.499C198.708 419.793 197.762 420.06 196.819 420.303ZM196.641 419.956C194.655 420.464 192.686 420.862 190.751 421.165C192.164 419.946 193.306 418.68 194.165 417.566C196.208 417.165 198.282 416.664 200.373 416.047C199.467 417.243 198.217 418.634 196.641 419.956ZM190.032 421.274C188.236 421.535 186.47 421.716 184.747 421.828C186.288 420.76 187.487 419.52 188.323 418.46C190.048 418.268 191.809 418.01 193.596 417.675C192.687 418.808 191.495 420.075 190.032 421.274ZM183.991 421.873C185.613 420.848 186.887 419.605 187.788 418.518C183.232 418.992 178.937 419.007 175.094 418.753C175.918 419.779 177.132 420.987 178.707 421.959C180.407 421.995 182.174 421.972 183.991 421.873ZM171.813 421.473C169.739 421.223 167.838 420.898 166.152 420.539C164.642 419.251 163.44 417.905 162.561 416.745C164.201 417.199 166.204 417.645 168.5 418.014C169.349 419.095 170.457 420.306 171.813 421.473ZM177.979 421.94C176.055 421.879 174.22 421.742 172.498 421.552C171.099 420.404 169.948 419.195 169.056 418.101C170.756 418.359 172.608 418.574 174.584 418.718C175.344 419.714 176.484 420.92 177.979 421.94Z" fill="#DEA56F"/>
<path d="M166.962 427.922C168.984 425.835 174.28 422.914 179.288 427.922H166.962Z" fill="#90DF70"/>
<path d="M178.125 428.28C180.671 425.653 187.338 421.975 193.643 428.28H178.125Z" fill="#90DF70"/>
<path d="M199.04 419.375C205.075 421.656 199.384 429.864 194.294 427.994C192.204 427.226 193.158 424.88 194.598 422.609C195.806 420.704 197.188 418.675 199.04 419.375Z" fill="#A7825F"/>
<path d="M161.882 418.581C165.941 417.046 170.47 425.788 166.628 427.2C161.537 429.07 155.847 420.862 161.882 418.581Z" fill="#A7825F"/>
<path fill-rule="evenodd" clip-rule="evenodd" d="M300.924 108.155H315.316H331.235H343.449C345.282 108.155 346.768 106.669 346.768 104.836C346.768 103.003 345.282 101.517 343.449 101.517H340.084C340.322 100.7 340.449 99.8354 340.449 98.9413C340.449 93.8527 336.324 89.7276 331.235 89.7276C329.931 89.7276 328.69 89.9987 327.565 90.4876C325.706 85.5292 320.923 82 315.316 82C308.116 82 302.275 87.8183 302.238 95.0095C301.814 94.9242 301.374 94.8794 300.924 94.8794C297.258 94.8794 294.286 97.8512 294.286 101.517H292.311C290.478 101.517 288.992 103.003 288.992 104.836C288.992 106.669 290.478 108.155 292.311 108.155H300.924Z" fill="#FEFFFB"/>
<path fill-rule="evenodd" clip-rule="evenodd" d="M63.9269 146.013H78.3187H94.2381H106.452C108.285 146.013 109.771 144.527 109.771 142.694C109.771 140.861 108.285 139.375 106.452 139.375H103.087C103.324 138.558 103.452 137.694 103.452 136.799C103.452 131.711 99.3267 127.586 94.2381 127.586C92.9337 127.586 91.6926 127.857 90.568 128.346C88.7092 123.387 83.9261 119.858 78.3187 119.858C71.1189 119.858 65.278 125.676 65.2414 132.868C64.8165 132.782 64.3769 132.738 63.9269 132.738C60.2609 132.738 57.2891 135.709 57.2891 139.375H55.314C53.481 139.375 51.9951 140.861 51.9951 142.694C51.9951 144.527 53.481 146.013 55.314 146.013H63.9269Z" fill="#FEFFFB"/>
<path fill-rule="evenodd" clip-rule="evenodd" d="M273.588 130.611C273.576 130.612 273.564 130.612 273.552 130.612C273.54 130.612 273.528 130.612 273.516 130.611H263.083C263.073 130.612 263.063 130.612 263.053 130.612C263.043 130.612 263.033 130.612 263.023 130.611H256.769C255.432 130.611 254.348 129.527 254.348 128.19C254.348 126.853 255.432 125.769 256.769 125.769H258.21C258.21 123.094 260.378 120.926 263.053 120.926C263.381 120.926 263.702 120.959 264.012 121.021C264.039 115.775 268.3 111.53 273.552 111.53C277.643 111.53 281.133 114.105 282.489 117.722C283.309 117.366 284.215 117.168 285.166 117.168C288.879 117.168 291.888 120.177 291.888 123.89C291.888 124.542 291.795 125.173 291.622 125.769H294.077C295.414 125.769 296.498 126.853 296.498 128.19C296.498 129.527 295.414 130.611 294.077 130.611H285.179C285.175 130.611 285.171 130.611 285.166 130.611C285.162 130.611 285.158 130.611 285.154 130.611H273.588Z" fill="#FEFFFB"/>
</g>
<defs>
<filter id="filter0_f_127_1466" x="-49.4819" y="506.046" width="463.815" height="173.796" filterUnits="userSpaceOnUse" color-interpolation-filters="sRGB">
<feFlood flood-opacity="0" result="BackgroundImageFix"/>
<feBlend mode="normal" in="SourceGraphic" in2="BackgroundImageFix" result="shape"/>
<feGaussianBlur stdDeviation="7.5" result="effect1_foregroundBlur_127_1466"/>
</filter>
<filter id="filter1_f_127_1466" x="-50.6235" y="500.772" width="464.957" height="173.796" filterUnits="userSpaceOnUse" color-interpolation-filters="sRGB">
<feFlood flood-opacity="0" result="BackgroundImageFix"/>
<feBlend mode="normal" in="SourceGraphic" in2="BackgroundImageFix" result="shape"/>
<feGaussianBlur stdDeviation="7.5" result="effect1_foregroundBlur_127_1466"/>
</filter>
<linearGradient id="paint0_linear_127_1466" x1="180" y1="21.7325" x2="180" y2="400" gradientUnits="userSpaceOnUse">
<stop stop-color="#BFEDFF"/>
<stop offset="1" stop-color="white"/>
</linearGradient>
<linearGradient id="paint1_linear_127_1466" x1="180" y1="654.612" x2="180" y2="883.612" gradientUnits="userSpaceOnUse">
<stop stop-color="#49BAFF"/>
<stop offset="1" stop-color="#267AAD"/>
</linearGradient>
<linearGradient id="paint2_linear_127_1466" x1="268.348" y1="570.223" x2="287.567" y2="616.155" gradientUnits="userSpaceOnUse">
<stop stop-color="#CA9863"/>
<stop offset="1" stop-color="#A27545"/>
</linearGradient>
<linearGradient id="paint3_linear_127_1466" x1="94.9429" y1="569.735" x2="75.1485" y2="612.22" gradientUnits="userSpaceOnUse">
<stop stop-color="#DCA770"/>
<stop offset="1" stop-color="#9F754A"/>
</linearGradient>
<linearGradient id="paint4_linear_127_1466" x1="36.8068" y1="251" x2="316.681" y2="436.851" gradientUnits="userSpaceOnUse">
<stop stop-color="#9CE27E"/>
<stop offset="1" stop-color="#A4FB7E"/>
</linearGradient>
<clipPath id="clip0_127_1466">
<rect width="360" height="800" fill="white"/>
</clipPath>
</defs>
</svg>
