<svg width="360" height="800" viewBox="0 0 360 800" fill="none" xmlns="http://www.w3.org/2000/svg">
<g clip-path="url(#clip0_133_1228)">
<rect width="360" height="800" fill="url(#paint0_linear_133_1228)"/>
<rect y="574.612" width="360" height="376" fill="url(#paint1_linear_133_1228)"/>
<path fill-rule="evenodd" clip-rule="evenodd" d="M300.924 108.155H315.316H331.235H343.449C345.282 108.155 346.768 106.669 346.768 104.836C346.768 103.003 345.282 101.517 343.449 101.517H340.084C340.322 100.7 340.449 99.8354 340.449 98.9413C340.449 93.8527 336.324 89.7276 331.235 89.7276C329.931 89.7276 328.69 89.9987 327.565 90.4876C325.706 85.5292 320.923 82 315.316 82C308.116 82 302.275 87.8183 302.238 95.0095C301.814 94.9242 301.374 94.8794 300.924 94.8794C297.258 94.8794 294.286 97.8512 294.286 101.517H292.311C290.478 101.517 288.992 103.003 288.992 104.836C288.992 106.669 290.478 108.155 292.311 108.155H300.924Z" fill="#FEFFFB"/>
<path fill-rule="evenodd" clip-rule="evenodd" d="M63.9269 146.013H78.3187H94.2381H106.452C108.285 146.013 109.771 144.527 109.771 142.694C109.771 140.861 108.285 139.375 106.452 139.375H103.087C103.324 138.558 103.452 137.694 103.452 136.799C103.452 131.711 99.3267 127.586 94.2381 127.586C92.9337 127.586 91.6926 127.857 90.568 128.346C88.7092 123.387 83.9261 119.858 78.3187 119.858C71.1189 119.858 65.278 125.676 65.2414 132.868C64.8165 132.782 64.3769 132.738 63.9269 132.738C60.2609 132.738 57.2891 135.709 57.2891 139.375H55.314C53.481 139.375 51.9951 140.861 51.9951 142.694C51.9951 144.527 53.481 146.013 55.314 146.013H63.9269Z" fill="#FEFFFB"/>
<path fill-rule="evenodd" clip-rule="evenodd" d="M273.588 130.611C273.576 130.612 273.564 130.612 273.552 130.612C273.54 130.612 273.528 130.612 273.516 130.611H263.083C263.073 130.612 263.063 130.612 263.053 130.612C263.043 130.612 263.033 130.612 263.023 130.611H256.769C255.432 130.611 254.348 129.527 254.348 128.19C254.348 126.853 255.432 125.769 256.769 125.769H258.21C258.21 123.094 260.378 120.926 263.053 120.926C263.381 120.926 263.702 120.959 264.012 121.021C264.039 115.775 268.3 111.53 273.552 111.53C277.643 111.53 281.133 114.105 282.489 117.722C283.309 117.366 284.215 117.168 285.166 117.168C288.879 117.168 291.888 120.177 291.888 123.89C291.888 124.542 291.795 125.173 291.622 125.769H294.077C295.414 125.769 296.498 126.853 296.498 128.19C296.498 129.527 295.414 130.611 294.077 130.611H285.179C285.175 130.611 285.171 130.611 285.166 130.611C285.162 130.611 285.158 130.611 285.154 130.611H273.588Z" fill="#FEFFFB"/>
<path d="M-9.5882 175.877C12.1083 212.527 39.986 230.532 68.9918 259.186C82.5575 272.587 74.1037 300.314 58.1559 307.783C48.959 312.091 34.4298 311.123 31.4707 299.597C27.9505 285.884 34.2557 273.518 44.1817 264.58C89.1587 224.076 153.05 269.65 198.678 283.997C214.142 288.86 230.223 292.522 246.445 293.485C256.046 294.054 265.788 293.852 275.376 293.101C283.269 292.484 291.309 292.399 299.036 290.548C307.287 288.571 315.089 285.86 320.365 278.74C334.554 259.588 316.337 247.574 298.027 253.446C289.41 256.21 282.147 261.783 277.569 269.693C271.903 279.485 268.763 293.627 269.564 304.85C270.122 312.662 272.298 322.247 277.372 328.475C288.593 342.25 303.999 344.596 320.945 345.764C343.709 347.332 359.366 329.241 382.829 341.894" stroke="url(#paint2_linear_133_1228)" stroke-opacity="0.5" stroke-width="5" stroke-linecap="round"/>
<path d="M230.462 179.251V185.191C230.462 185.851 230.342 187.051 230.222 188.731C230.102 189.691 229.502 190.231 228.542 190.231C226.382 190.291 224.582 190.291 223.022 190.171C222.122 190.171 221.342 189.811 220.742 189.211C220.142 188.611 219.782 187.891 219.782 187.051C219.722 184.111 219.722 180.391 219.782 175.891C219.782 175.231 219.842 173.671 219.902 171.271C219.962 168.871 220.022 167.191 220.082 166.291C220.082 163.723 223.828 162.173 226.082 161.851C226.502 161.791 226.922 161.791 227.402 161.791C228.122 161.851 228.662 161.911 229.022 162.031C229.862 162.391 230.282 162.991 230.282 163.891C230.282 165.571 230.402 167.731 230.702 170.251C230.762 170.731 231.122 171.031 231.842 171.091C234.722 171.331 236.342 171.451 236.702 171.511C237.542 171.751 238.082 172.411 238.202 173.611C238.382 175.411 238.082 177.031 237.242 178.411C237.002 178.831 236.282 179.131 235.202 179.251H230.462ZM193.156 181.503C192.289 181.552 191.523 182.172 191.588 183.038C191.612 183.364 191.669 183.703 191.762 184.051C192.002 185.011 192.362 185.431 192.962 185.371C194.042 185.311 196.682 185.431 200.882 185.731C204.203 186.016 206.511 186.151 207.806 186.165C208.282 186.17 208.714 186.481 208.821 186.944C209.077 188.064 209.14 188.829 209.042 189.271C208.029 194.335 197.25 192.175 194.402 191.851C189.902 191.371 187.142 191.071 186.182 190.891C184.502 190.651 183.422 190.351 183.062 190.051C182 189.166 181.449 184.036 181.202 182.551C180.962 181.171 181.382 179.731 182.342 178.291C183.302 176.851 184.502 176.131 186.002 176.071C187.442 176.011 190.262 175.951 194.342 175.831C198.422 175.771 200.882 175.711 201.842 175.651C202.212 175.176 202.142 175.165 202.142 174.631C202.022 174.031 201.902 173.551 201.842 173.251C201.722 172.951 201.542 172.651 201.302 172.291C201.062 171.931 200.702 171.691 200.222 171.571C199.742 171.451 199.142 171.391 198.362 171.391C193.082 171.391 188.822 171.511 185.642 171.691C184.142 171.811 183.122 171.631 182.522 171.031C181.922 170.431 181.802 169.411 182.102 167.971C182.336 166.566 184.208 164.739 185.522 164.551C186.842 164.431 188.642 164.311 191.042 164.191C193.442 164.071 195.002 163.951 195.842 163.891C196.202 163.891 197.102 163.771 198.602 163.591C200.102 163.471 201.242 163.351 202.082 163.351C203.942 163.351 206.222 163.591 208.922 163.951C209.762 164.131 210.362 164.431 210.602 164.851C210.842 165.331 210.962 166.051 211.022 167.011C211.022 167.491 211.082 168.391 211.202 169.711C211.322 171.091 211.382 172.051 211.382 172.531C211.382 173.011 211.322 173.731 211.322 174.691C211.262 175.651 211.142 176.491 210.962 177.271C210.542 179.131 209.822 180.271 208.862 180.631C207.842 181.051 206.042 181.231 203.522 181.111C202.682 181.111 200.702 181.171 197.642 181.291C195.721 181.367 194.226 181.442 193.156 181.503Z" fill="#FA8339"/>
<path d="M230.462 112.538V118.478C230.462 119.138 230.342 120.338 230.222 122.018C230.102 122.978 229.502 123.518 228.542 123.518C226.382 123.578 224.582 123.578 223.022 123.458C222.122 123.458 221.342 123.098 220.742 122.498C220.142 121.898 219.782 121.178 219.782 120.338C219.722 117.398 219.722 113.678 219.782 109.178C219.782 108.518 219.842 106.958 219.902 104.558C219.962 102.158 220.022 100.478 220.082 99.5775C220.082 97.0095 223.828 95.4595 226.082 95.1375C226.502 95.0775 226.922 95.0775 227.402 95.0775C228.122 95.1375 228.662 95.1975 229.022 95.3175C229.862 95.6775 230.282 96.2775 230.282 97.1775C230.282 98.8575 230.402 101.018 230.702 103.538C230.762 104.018 231.122 104.318 231.842 104.378C234.722 104.618 236.342 104.738 236.702 104.798C237.542 105.038 238.082 105.698 238.202 106.898C238.382 108.698 238.082 110.318 237.242 111.698C237.002 112.118 236.282 112.418 235.202 112.538H230.462ZM193.156 114.789C192.289 114.838 191.523 115.458 191.588 116.324C191.612 116.65 191.669 116.989 191.762 117.338C192.002 118.298 192.362 118.718 192.962 118.658C194.042 118.598 196.682 118.718 200.882 119.018C204.203 119.302 206.511 119.437 207.806 119.451C208.282 119.456 208.714 119.767 208.821 120.23C209.077 121.35 209.14 122.115 209.042 122.558C208.029 127.621 197.25 125.461 194.402 125.138C189.902 124.658 187.142 124.358 186.182 124.178C184.502 123.938 183.422 123.638 183.062 123.338C182 122.452 181.449 117.322 181.202 115.838C180.962 114.458 181.382 113.018 182.342 111.578C183.302 110.138 184.502 109.418 186.002 109.358C187.442 109.298 190.262 109.238 194.342 109.118C198.422 109.058 200.882 108.998 201.842 108.938C202.212 108.462 202.142 108.451 202.142 107.918C202.022 107.318 201.902 106.838 201.842 106.538C201.722 106.238 201.542 105.938 201.302 105.578C201.062 105.218 200.702 104.978 200.222 104.858C199.742 104.738 199.142 104.678 198.362 104.678C193.082 104.678 188.822 104.798 185.642 104.978C184.142 105.098 183.122 104.918 182.522 104.318C181.922 103.718 181.802 102.698 182.102 101.258C182.336 99.8517 184.208 98.0252 185.522 97.8375C186.842 97.7175 188.642 97.5975 191.042 97.4775C193.442 97.3575 195.002 97.2375 195.842 97.1775C196.202 97.1775 197.102 97.0575 198.602 96.8775C200.102 96.7575 201.242 96.6375 202.082 96.6375C203.942 96.6375 206.222 96.8775 208.922 97.2375C209.762 97.4175 210.362 97.7175 210.602 98.1375C210.842 98.6175 210.962 99.3375 211.022 100.298C211.022 100.778 211.082 101.678 211.202 102.998C211.322 104.378 211.382 105.338 211.382 105.818C211.382 106.298 211.322 107.018 211.322 107.978C211.262 108.938 211.142 109.778 210.962 110.558C210.542 112.418 209.822 113.558 208.862 113.918C207.842 114.338 206.042 114.518 203.522 114.398C202.682 114.398 200.702 114.458 197.642 114.578C195.721 114.653 194.226 114.728 193.156 114.789Z" fill="#FA8339"/>
<path fill-rule="evenodd" clip-rule="evenodd" d="M205.972 196.651C208.252 196.651 211.012 196.891 214.132 197.251C217.252 197.611 219.892 198.091 222.052 198.691C225.893 199.825 228.352 202.403 228.352 206.431C228.352 211.86 222.596 215.46 218.032 217.171C214.633 218.587 210.247 218.543 206.427 218.504C205.819 218.497 205.225 218.491 204.652 218.491C202.092 218.491 199.465 218.006 196.972 217.471C194.687 217.014 192.156 215.89 190.552 214.171C187.728 211.452 187.275 206.964 189.352 203.551C191.572 199.831 196.192 197.551 203.152 196.831C204.052 196.711 205.012 196.651 205.972 196.651ZM217.312 209.431C218.032 208.651 218.392 207.691 218.392 206.491C218.392 204.811 217.432 203.791 215.632 203.371C213.652 203.011 209.752 202.771 203.932 202.771H203.872C200.324 202.771 198.689 208.937 202.732 209.611C205.712 210.424 214.917 212.225 217.312 209.431Z" fill="#FA8339"/>
<path fill-rule="evenodd" clip-rule="evenodd" d="M205.972 129.937C208.252 129.937 211.012 130.177 214.132 130.537C217.252 130.897 219.892 131.377 222.052 131.977C225.893 133.111 228.352 135.689 228.352 139.717C228.352 145.146 222.596 148.746 218.032 150.457C214.633 151.873 210.247 151.829 206.427 151.79C205.819 151.783 205.225 151.777 204.652 151.777C202.092 151.777 199.465 151.292 196.972 150.757C194.687 150.3 192.156 149.177 190.552 147.457C187.728 144.738 187.275 140.25 189.352 136.837C191.572 133.117 196.192 130.837 203.152 130.117C204.052 129.997 205.012 129.937 205.972 129.937ZM217.312 142.717C218.032 141.937 218.392 140.977 218.392 139.777C218.392 138.097 217.432 137.077 215.632 136.657C213.652 136.297 209.752 136.057 203.932 136.057H203.872C200.324 136.057 198.689 142.224 202.732 142.897C205.712 143.71 214.917 145.511 217.312 142.717Z" fill="#FA8339"/>
<path d="M176.642 209.851C176.762 210.631 176.762 211.351 176.762 212.011C176.762 212.671 176.582 213.271 176.342 213.811C175.862 214.711 175.382 215.251 174.782 215.371C174.062 215.551 173.222 215.731 172.142 215.851C160.584 217.778 148.167 216.211 136.502 216.211C135.422 216.271 133.802 216.331 131.642 216.391C129.482 216.451 127.862 216.451 126.782 216.451C122.346 216.673 122.303 211.928 123.362 208.831C123.602 208.111 124.082 207.751 124.802 207.691L129.602 207.211C133.899 207.211 138.485 207.115 143.316 207.009C143.957 206.995 144.302 206.113 144.302 205.471V205.471C144.182 204.751 144.122 203.731 144.122 202.411C144.062 201.091 144.002 200.131 144.002 199.651C144.002 198.748 144.299 198.211 145.262 198.211C147.446 198.43 149.672 198.211 151.862 198.211C153.122 198.271 153.962 198.571 154.442 199.171C154.922 199.771 155.282 200.911 155.582 202.591C155.701 203.424 155.61 204.31 155.309 205.265C155.084 205.982 155.583 206.775 156.335 206.76C161.891 206.65 165.59 206.541 167.342 206.431C169.682 206.371 171.542 206.371 172.862 206.491C176.291 206.491 176.248 207.49 176.642 209.851ZM155.582 170.251C156.147 170.675 156.602 171.518 156.602 172.231C156.542 174.991 156.902 177.451 157.622 179.611C157.922 180.691 158.582 181.291 159.542 181.531C162.302 182.311 165.842 183.331 170.042 184.651C170.762 184.891 171.242 185.191 171.542 185.551C172.28 186.659 170.913 189.748 170.582 191.071C170.222 192.511 169.502 193.471 168.542 194.071C162.789 197.455 157.755 193.372 154.062 189.151C152.425 186.874 148.926 186.17 145.862 187.531C142.493 189.117 139.282 190.971 135.962 192.631C135.482 192.871 134.822 193.111 134.042 193.291C129.859 194.487 129.733 192.129 128.762 188.971C127.802 186.031 128.702 183.811 131.522 182.371C138.482 178.891 142.082 177.091 142.382 176.971C143.102 176.611 143.642 176.131 143.882 175.531C144.122 174.931 144.302 174.211 144.362 173.251C144.362 168.02 152.019 168.292 155.582 170.251Z" fill="#FA8339"/>
<path d="M176.642 143.138C176.762 143.918 176.762 144.638 176.762 145.298C176.762 145.958 176.582 146.558 176.342 147.098C175.862 147.998 175.382 148.538 174.782 148.658C174.062 148.838 173.222 149.018 172.142 149.138C160.584 151.064 148.167 149.498 136.502 149.498C135.422 149.558 133.802 149.618 131.642 149.678C129.482 149.738 127.862 149.738 126.782 149.738C122.346 149.959 122.303 145.214 123.362 142.118C123.602 141.398 124.082 141.038 124.802 140.978L129.602 140.498C133.899 140.498 138.485 140.401 143.316 140.295C143.957 140.281 144.302 139.399 144.302 138.758V138.758C144.182 138.038 144.122 137.018 144.122 135.698C144.062 134.378 144.002 133.418 144.002 132.938C144.002 132.034 144.299 131.498 145.262 131.498C147.446 131.716 149.672 131.498 151.862 131.498C153.122 131.558 153.962 131.858 154.442 132.458C154.922 133.058 155.282 134.198 155.582 135.878C155.701 136.711 155.61 137.596 155.309 138.551C155.084 139.268 155.583 140.061 156.335 140.046C161.891 139.936 165.59 139.827 167.342 139.718C169.682 139.658 171.542 139.658 172.862 139.778C176.291 139.778 176.248 140.776 176.642 143.138ZM155.582 103.538C156.147 103.961 156.602 104.805 156.602 105.518C156.542 108.278 156.902 110.738 157.622 112.898C157.922 113.978 158.582 114.578 159.542 114.818C162.302 115.598 165.842 116.618 170.042 117.938C170.762 118.178 171.242 118.478 171.542 118.838C172.28 119.945 170.913 123.034 170.582 124.358C170.222 125.798 169.502 126.758 168.542 127.358C162.789 130.741 157.755 126.658 154.062 122.438C152.425 120.16 148.926 119.456 145.862 120.818C142.493 122.403 139.282 124.258 135.962 125.918C135.482 126.158 134.822 126.398 134.042 126.578C129.859 127.773 129.733 125.415 128.762 122.258C127.802 119.318 128.702 117.098 131.522 115.658C138.482 112.178 142.082 110.378 142.382 110.258C143.102 109.898 143.642 109.418 143.882 108.818C144.122 108.218 144.302 107.498 144.362 106.538C144.362 101.306 152.019 101.578 155.582 103.538Z" fill="#FA8339"/>
<path fill-rule="evenodd" clip-rule="evenodd" d="M179.141 740.938V453.924C181.07 453.671 182.691 453.538 183.972 453.538C200.789 453.538 273.954 475.958 335.494 494.816C345.535 497.893 355.267 500.875 364.394 503.65V649.489L222.887 725.724L218.533 728.07L205.855 734.899C197.541 739.378 188.294 741.391 179.141 740.938Z" fill="url(#paint3_linear_133_1228)"/>
<path fill-rule="evenodd" clip-rule="evenodd" d="M-1.13232 649.574V504.403C9.07671 501.349 19.9891 498.054 31.2258 494.662C89.352 477.114 156.154 456.947 179.141 453.928V741.059C171.668 740.689 164.258 738.675 157.47 735.018L-1.13232 649.574Z" fill="url(#paint4_linear_133_1228)"/>
<path d="M299.425 596.111C299.425 593.836 300.712 591.756 302.747 590.741L343.104 570.614C347.093 568.625 351.782 571.526 351.782 575.983V583.734C351.782 586.008 350.496 588.088 348.46 589.103L308.103 609.23C304.114 611.219 299.425 608.318 299.425 603.861V596.111Z" fill="#BE8C56"/>
<path d="M271.768 634.214C271.768 631.898 273.1 629.789 275.192 628.795L288.738 622.356C292.72 620.463 297.314 623.366 297.314 627.775V631.172C297.314 633.488 295.981 635.597 293.89 636.591L280.343 643.031C276.362 644.923 271.768 642.02 271.768 637.612V634.214Z" fill="#BE8C56"/>
<path d="M243.096 666.248C243.096 663.926 244.435 661.813 246.535 660.822L265.486 651.878C269.466 649.999 274.046 652.903 274.046 657.304V660.719C274.046 663.041 272.707 665.154 270.607 666.145L251.657 675.089C247.677 676.967 243.096 674.064 243.096 669.663V666.248Z" fill="#BE8C56"/>
<path d="M193.135 641.281C193.135 639.336 194.262 637.568 196.025 636.748L206.723 631.769C208.712 630.844 210.989 632.296 210.989 634.489V635.703C210.989 638.037 209.636 640.158 207.52 641.143L197.401 645.852C195.412 646.778 193.135 645.326 193.135 643.132V641.281Z" fill="#BE8C56"/>
<path d="M199.42 712.233C199.42 709.954 200.712 707.871 202.754 706.858L220.879 697.869C224.867 695.891 229.545 698.792 229.545 703.244V706.534C229.545 708.813 228.253 710.896 226.211 711.909L208.086 720.898C204.098 722.876 199.42 719.975 199.42 715.523V712.233Z" fill="#BE8C56"/>
<path d="M321.574 658.777C321.574 657.665 322.195 656.645 323.184 656.136L347.45 643.636C349.428 642.618 351.782 644.053 351.782 646.277V646.277C351.782 647.39 351.161 648.409 350.172 648.919L325.905 661.419C323.928 662.437 321.574 661.002 321.574 658.777V658.777Z" fill="#BE8C56"/>
<path d="M193.135 657.334C193.135 656.207 193.77 655.175 194.777 654.668L219.015 642.461C221.001 641.461 223.343 642.904 223.343 645.127V645.127C223.343 646.254 222.708 647.286 221.701 647.793L197.462 660C195.477 661 193.135 659.557 193.135 657.334V657.334Z" fill="#BE8C56"/>
<path d="M164.5 657.221C164.5 654.899 163.16 652.786 161.06 651.795L142.11 642.851C138.13 640.973 133.549 643.876 133.549 648.277V651.692C133.549 654.014 134.888 656.127 136.988 657.118L155.939 666.062C159.919 667.941 164.5 665.037 164.5 660.636V657.221Z" fill="#CE9963"/>
<path d="M105.722 602.109C105.722 599.787 104.382 597.674 102.283 596.683L83.3318 587.739C79.3518 585.861 74.7709 588.764 74.7709 593.165V596.58C74.7709 598.902 76.1104 601.015 78.21 602.006L97.1608 610.95C101.141 612.829 105.722 609.925 105.722 605.524V602.109Z" fill="#CE9963"/>
<path d="M33.0742 628.585C33.0742 626.385 31.8698 624.361 29.9358 623.311L9.44879 612.195C6.78351 610.749 3.54109 612.678 3.54109 615.711V622.103C3.54109 624.303 4.74553 626.327 6.67955 627.377L27.1665 638.493C29.8318 639.939 33.0742 638.01 33.0742 634.977V628.585Z" fill="#CE9963"/>
<path d="M181.977 365.871C162.533 365.871 52.128 401.348 -2.66056 417.104L-3.53467 517.407L179.992 601.593L363.519 523.025L364.394 417.104C313.012 402.2 201.842 365.871 181.977 365.871Z" fill="url(#paint5_linear_133_1228)" stroke="#96E375"/>
<path fill-rule="evenodd" clip-rule="evenodd" d="M-0.349515 549.22L-0.858887 514.017C64.3784 544.368 145.141 581.608 169.879 591.872C172.857 593.108 175.907 593.466 178.941 593.098V593.112C179.008 593.104 179.074 593.096 179.141 593.087V607.577C178.569 607.215 177.962 606.901 177.312 606.644V606.629C171.662 605.219 168.117 612.278 163.867 618.003C154.044 631.237 149.855 633.842 141.673 616.631C141.44 616.141 141.21 615.658 140.983 615.185C135.921 604.663 129.608 613.978 123.339 623.226C123.177 623.466 123.014 623.706 122.852 623.946C118.508 630.371 114.245 636.678 108.4 633.536C101.763 631.951 101.166 620.013 100.507 610.258C100.414 608.875 100.32 607.484 100.212 606.104C99.7221 599.828 98.2613 594.634 91.7791 593.098C87.6809 592.127 84.108 594.479 80.3674 599.503C78.1914 602.426 73.5798 607.604 70.3674 610.644C65.2765 615.461 64.0422 609.309 62.3674 600.963C60.3369 590.843 60.6063 575.945 49.6235 575.008C40.9841 573.707 39.7127 578.164 37.5344 581.452C35.0323 585.229 32.7218 588.717 28.5361 585.772C26.5215 584.99 27.5536 579.814 25.5608 575.008C25.1337 573.977 24.7363 573.019 24.3811 572.202C20.4605 563.189 17.1024 554.724 -0.349515 549.22Z" fill="#C08D58"/>
<path d="M364.867 514.435L184.806 588.781C182.848 589.589 180.861 590.134 178.868 590.376V590.361C175.732 590.741 172.581 590.371 169.503 589.094C143.915 578.471 59.902 540.054 -7.54591 508.656" stroke="#89E485" stroke-width="1.5"/>
<path fill-rule="evenodd" clip-rule="evenodd" d="M-7.13232 546.809V509.503C60.2796 540.775 143.734 579.143 169.297 589.718C172.374 590.991 175.525 591.36 178.661 590.981V590.996C178.73 590.988 178.799 590.979 178.868 590.97V607.618C178.277 607.246 177.649 606.922 176.977 606.657V606.642C171.14 605.189 168.515 608.714 164.124 614.612C153.976 628.244 148.608 632.965 140.151 615.228C139.91 614.723 139.672 614.224 139.438 613.738C134.207 602.897 127.683 612.494 121.206 622.023C121.038 622.27 120.87 622.517 120.702 622.764C116.213 629.384 111.808 635.882 105.769 632.645C100.282 629.705 101.244 621.009 100.564 610.958C100.467 609.533 100.37 608.101 100.259 606.679C99.7526 600.212 97.2511 594.093 90.5528 592.511C86.318 591.511 81.426 593.908 77.5608 599.084C75.3122 602.095 72.7481 605.529 69.4286 608.661C64.168 613.625 62.8926 607.287 61.1619 598.687C59.0638 588.261 52.2596 573.545 44.9477 573.545C40.4595 573.998 38.5863 576.822 36.3354 580.21C33.7499 584.102 31.3624 587.695 27.0372 584.661C24.9554 583.856 22.2272 577.294 20.168 572.342C19.7266 571.281 19.316 570.293 18.949 569.452C14.8977 560.166 10.9013 552.48 -7.13232 546.809Z" fill="#6AD166"/>
<path fill-rule="evenodd" clip-rule="evenodd" d="M179.141 607.746V593.577C181.067 593.321 182.987 592.782 184.879 591.997L365.141 517.136L363.777 548.782C363.479 549.642 363.132 550.707 362.738 551.919C359.798 560.95 355.647 577.339 347.558 578.545C343.23 579.19 338.707 575.136 335.52 572.28C334.903 571.727 334.336 571.219 333.831 570.799C330.025 567.635 326.776 567.995 323.863 572.28C320.198 577.67 318.769 583.495 317.737 590.394C316.409 599.266 313.584 606.751 306.893 610.839C300.652 614.652 297.725 606.396 293.669 598.477C292.61 596.409 291.85 593.818 291.104 591.272C289.261 584.987 287.731 577.565 280.246 581.275C275.203 583.305 270.026 596.654 266.878 605.021C265.735 608.058 264.716 610.767 263.817 612.611C252.705 631.384 240.661 620.609 231.723 606.066C216.875 585.516 209.715 622.09 198.298 624.087C192.995 625.015 189.16 619.644 186.286 615.654C184.363 612.982 181.793 609.432 179.141 607.746Z" fill="#C08D58"/>
<path fill-rule="evenodd" clip-rule="evenodd" d="M178.868 607.603V591.005C180.794 590.749 182.714 590.211 184.606 589.425L364.868 514.564V546.892C364.569 547.752 364.223 548.817 363.828 550.029C360.889 559.06 355.294 576.248 347.205 577.454C342.877 578.099 338.354 574.046 335.167 571.189C334.55 570.636 333.983 570.129 333.477 569.708C329.672 566.544 325.575 565.637 322.661 569.923C318.996 575.313 317.567 581.138 316.535 588.037C315.208 596.908 313.932 605.436 307.242 609.524C301.001 613.337 297.231 606.544 293.175 598.625C292.116 596.557 291.356 593.966 290.61 591.42C288.767 585.135 285.85 576.981 278.365 580.691C273.322 582.721 269.242 593.567 266.093 601.934C264.951 604.97 263.931 607.68 263.033 609.524C254.149 627.76 241.948 623.715 233.011 609.173C222.326 591.787 212.575 604.83 204.581 616.206C201.925 619.987 199.412 623.564 196.431 623.564C191.116 622.839 188.24 618.845 185.366 614.854C183.443 612.183 181.52 609.289 178.868 607.603Z" fill="#58B155"/>
<g filter="url(#filter0_f_133_1228)">
<path d="M29.4166 658.425C-34.2553 639.073 -6.14815 627.154 -0.53006 625.282V622.686C-83.4151 631.64 15.0466 689.419 26.9578 692.992C32.4695 694.645 40.197 696.313 46.5801 699.413C48.9834 700.58 48.071 703.661 45.5202 704.456C28.3065 709.82 76.2588 728.566 96.9627 728.566C132.28 728.566 135.762 753.503 158.643 759.472C181.525 765.441 200.925 762.457 216.842 750.415C232.76 738.372 277.031 728.566 297.922 724.155C318.814 719.744 337.219 704.258 328.265 694.807C319.312 685.356 380.464 673.634 395.699 653.034C410.933 632.434 385.297 618.053 372.812 618.677C360.328 619.301 363.449 632.41 372.812 633.034C382.176 633.658 369.328 655.827 351.85 662.07C334.371 668.312 269.451 688.288 291.299 688.912C313.147 689.536 268.541 698.579 234.832 708.566C201.124 718.554 208.615 729.79 177.403 730.415C146.191 731.039 156.803 707.318 105.616 698.579C54.4287 689.839 101.36 680.29 29.4166 658.425Z" fill="#3FECFF" fill-opacity="0.5"/>
</g>
<g filter="url(#filter1_f_133_1228)">
<path d="M29.4164 653.151C-34.2554 633.8 -6.14828 621.881 -0.530193 620.008V617.413C-83.4152 626.366 9.657 680.728 21.5682 684.301C26.5875 685.807 30.4519 685.545 34.5031 686.984C37.0209 687.878 36.0508 691.005 33.6122 692.097C18.8877 698.688 76.3483 723.293 96.9625 723.293C132.28 723.293 135.762 748.23 158.643 754.199C181.525 760.168 200.925 757.183 216.842 745.141C232.76 733.099 277.03 723.293 297.922 718.881C318.814 714.47 337.219 698.984 328.265 689.533C319.312 680.082 380.464 668.36 395.698 647.76C410.933 627.161 385.297 612.779 372.812 613.403C360.327 614.027 363.449 627.136 372.812 627.76C382.176 628.385 369.328 650.554 351.849 656.796C334.371 663.038 269.45 683.014 291.299 683.638C313.147 684.262 268.541 693.305 234.832 703.293C201.124 713.281 208.615 724.517 177.403 725.141C146.191 725.765 156.803 702.044 105.616 693.305C54.4286 684.566 101.36 675.016 29.4164 653.151Z" fill="white" fill-opacity="0.5"/>
</g>
<path d="M29.4165 646.443C-34.2553 627.092 -6.14818 615.173 -0.530087 613.3V610.705C-83.4151 619.658 -0.53006 675.519 26.9577 681.01C32.6092 682.139 40.2884 684.063 46.6354 687.339C49.0096 688.565 48.071 691.679 45.5202 692.474C28.3065 697.839 76.2588 716.585 96.9626 716.585C132.28 716.585 135.762 741.522 158.643 747.491C181.525 753.46 200.925 750.475 216.842 738.433C232.76 726.391 277.031 716.585 297.922 712.173C318.814 707.762 337.219 692.276 328.265 682.825C319.312 673.374 380.464 661.652 395.699 641.052C410.933 620.453 385.297 606.071 372.812 606.695C360.328 607.319 363.449 620.428 372.812 621.052C382.176 621.677 369.328 643.846 351.85 650.088C334.371 656.33 269.451 676.306 291.299 676.93C313.147 677.554 268.541 686.597 234.832 696.585C201.124 706.573 208.615 717.809 177.403 718.433C146.191 719.057 156.803 695.336 105.616 686.597C54.4287 677.858 101.36 668.308 29.4165 646.443Z" fill="#EAFCFE"/>
<path d="M318.545 682.665C324.801 681.52 331.768 698.653 289.765 706.031C237.261 715.253 307.149 681.219 318.545 682.665Z" fill="#34C1F3"/>
<path d="M177.487 745.425C171.263 745.14 166.941 744.312 164.034 743.356C161.271 742.447 162.167 740.308 165.073 740.442L188.309 741.506C192.171 741.683 192.629 744.751 188.784 745.155C185.641 745.485 181.882 745.626 177.487 745.425Z" fill="#1F9EEB"/>
<path d="M58.6031 700.265C45.0103 695.498 56.3229 691.806 63.6783 690.555C84.8625 690.555 133.409 712.622 104.722 710.857C76.0355 709.091 75.5942 706.223 58.6031 700.265Z" fill="#34C1F3"/>
<path fill-rule="evenodd" clip-rule="evenodd" d="M208.706 504.074C210.05 501.814 211.542 498.666 210.577 497.701C211.31 497.979 212.67 499.355 212.245 502.631C213.484 501.468 216.795 499.734 220.132 502.1C218.555 502.788 215.815 504.515 215.955 506.447C224.691 509.915 230.083 514.679 230.083 519.937C230.083 530.544 208.14 539.142 181.073 539.142C154.005 539.142 132.062 530.544 132.062 519.937C132.062 509.331 154.005 500.732 181.073 500.732C191.323 500.732 200.839 501.966 208.706 504.074Z" fill="#65AA50" fill-opacity="0.3"/>
<path d="M177.282 455.076C174.996 457.363 180.225 459.968 180.225 460.167L181.895 460.445C183.804 459.265 187.089 456.373 184.957 454.241C182.826 452.11 181.524 455.898 181.14 458.059C180.616 456.302 179.111 453.247 177.282 455.076Z" fill="#95CA5E"/>
<path d="M182.367 523.15C173.528 523.15 168.841 524.277 167.602 524.841L168.015 519.296L194.189 518.147L195.729 525.95C194.645 525.094 191.205 523.15 182.367 523.15Z" fill="#FFBC59"/>
<path d="M160.043 510.134C161.113 498.672 164.982 495.728 167.986 495.183C173.282 493.781 184.679 491.02 192.375 494.022C198.611 496.454 201.592 503.281 201.439 507.097C202.355 507.331 204.494 514.106 199.606 514.339C195.695 514.526 195.736 510.368 196.245 508.265C186.011 508.655 165.665 509.854 166.153 511.536C166.764 513.638 165.237 520.413 161.113 517.376C157.813 514.947 159.025 511.536 160.043 510.134Z" fill="#F6F3EE"/>
<ellipse cx="181.623" cy="507.294" rx="24.6334" ry="4.69189" transform="rotate(-0.140618 181.623 507.294)" fill="#E09D56"/>
<path fill-rule="evenodd" clip-rule="evenodd" d="M161.894 488.249C161.468 491.797 164.806 498.893 181.566 498.893C198.325 498.893 200.982 491.399 200.216 487.652C202.77 487.283 207.352 485.387 205.24 480.755C202.6 474.964 189.486 458.188 181.566 458.188C173.646 458.188 149.333 477.902 157.551 486.12C158.505 487.346 160.844 488.05 161.894 488.249ZM172.802 478.796C169.395 478.824 162.736 480.21 163.349 485.524C163.355 485.576 163.361 485.629 163.367 485.681C164.124 492.253 164.752 497.701 180.551 497.701C196.476 497.701 198.349 492.762 198.349 483.991C198.349 481.606 191.792 478.796 172.802 478.796Z" fill="#FFBC59"/>
<path d="M163.349 485.524C162.736 480.21 169.395 478.825 172.801 478.796C191.792 478.796 198.349 481.606 198.349 483.991C198.349 492.762 196.475 497.701 180.551 497.701C164.626 497.701 164.115 492.166 163.349 485.524Z" fill="#FFE2C4"/>
<circle cx="174.457" cy="487.526" r="1.54867" fill="#4B2717" stroke="#4B2717" stroke-width="0.234455"/>
<ellipse cx="171.05" cy="490.914" rx="1.6659" ry="0.821737" fill="#FFBAB1"/>
<ellipse cx="190.255" cy="490.914" rx="1.6659" ry="0.821737" fill="#FFBAB1"/>
<circle cx="187.203" cy="487.526" r="1.54867" fill="#4B2717" stroke="#4B2717" stroke-width="0.234455"/>
<path d="M177.854 489.82C178.019 490.521 178.727 490.637 178.941 490.637C180.477 490.637 180.327 489.503 180.587 489.503C180.848 489.503 180.587 490.637 181.946 490.637C182.999 490.637 183.108 490.038 183.183 489.713" stroke="#4B2717" stroke-width="0.703366" stroke-linecap="round"/>
<mask id="mask0_133_1228" style="mask-type:alpha" maskUnits="userSpaceOnUse" x="160" y="492" width="42" height="20">
<path d="M160.043 510.134C161.113 498.672 164.982 495.728 167.986 495.183C173.282 493.781 184.679 491.02 192.375 494.022C198.611 496.454 201.592 503.281 201.439 507.097L196.245 508.265C186.011 508.655 165.665 509.854 166.153 511.536L160.043 510.134Z" fill="#F6F3EE"/>
</mask>
<g mask="url(#mask0_133_1228)">
<path d="M195.187 503.463L191.349 503.061C192.05 496.193 196.668 493.655 197.705 493.655L199.759 494.782C197.791 495.121 196.007 499.335 195.187 503.463Z" fill="#FFBC59"/>
<path d="M167.135 503.854L171.058 503.439C170.356 496.571 166.446 494.794 165.409 494.794L163.685 495.451C165.74 495.451 166.315 499.727 167.135 503.854Z" fill="#FFBC59"/>
</g>
<path d="M166.161 475.607C166.992 473.945 170.207 469.681 176.42 465.923" stroke="#FC8A65" stroke-width="0.934463" stroke-linecap="round"/>
<path d="M180.254 464.581C180.127 467.745 180.063 474.475 180.83 476.086M184.377 464.581C187.956 467.553 195.192 474.149 195.499 476.757" stroke="#FC8A65" stroke-width="0.934463" stroke-linecap="round" stroke-linejoin="round"/>
<path d="M162.173 483.252C163.085 482.174 165.39 479.909 167.316 479.471" stroke="#FC8A65" stroke-width="0.934463" stroke-linecap="round" stroke-linejoin="round"/>
<path d="M200.392 485.062C199.568 483.915 197.45 481.475 195.564 480.885" stroke="#FC8A65" stroke-width="0.934463" stroke-linecap="round" stroke-linejoin="round"/>
<path fill-rule="evenodd" clip-rule="evenodd" d="M203.32 509.398C199.189 510.914 190.989 511.961 181.546 511.984C173.19 512.004 165.805 511.219 161.348 510.002C162.739 508.066 166.14 505.883 173.143 505.957C176.718 505.995 179.514 506.05 181.847 506.096C187.157 506.201 190.073 506.259 194.335 505.957C198.784 505.643 202.386 507.349 203.32 509.398Z" fill="#FA8339" fill-opacity="0.3"/>
<path fill-rule="evenodd" clip-rule="evenodd" d="M170.056 504.895C169.762 504.345 169.723 503.542 171.147 503.229C172.871 502.85 173.793 503.348 173.729 504.123C175.608 504.475 177.187 505.912 177.623 507.897C178.205 510.545 176.53 513.164 173.881 513.746C171.233 514.328 168.614 512.653 168.032 510.004C167.589 507.99 168.452 505.992 170.056 504.895Z" fill="#FFC44F"/>
<path d="M170.185 499.197C169.261 499.37 171.118 503.443 171.134 503.515L171.363 503.464C171.279 501.984 170.924 499.059 170.185 499.197Z" fill="#774928"/>
<path d="M171.344 503.477C171.347 503.356 170.818 500.675 172.87 499.954C173.26 500.565 173.5 502.125 171.344 503.477Z" fill="#56A75A"/>
<path fill-rule="evenodd" clip-rule="evenodd" d="M176.295 507.273C176.132 506.74 176.275 506.042 177.732 506.059C179.498 506.08 180.284 506.695 180.048 507.348C181.799 508.028 183.014 509.583 182.993 511.377C182.964 513.773 180.742 515.688 178.031 515.655C175.319 515.623 173.144 513.655 173.173 511.259C173.195 509.438 174.486 507.894 176.295 507.273Z" fill="#FA8339"/>
<path d="M177.702 502.398C176.762 502.361 177.656 506.238 177.655 506.303L177.89 506.306C178.14 505.016 178.454 502.428 177.702 502.398Z" fill="#774928"/>
<path d="M177.868 506.312C177.899 506.208 177.987 503.796 180.148 503.589C180.391 504.193 180.274 505.583 177.868 506.312Z" fill="#56A75A"/>
<path fill-rule="evenodd" clip-rule="evenodd" d="M181.681 504.861C181.517 504.328 181.66 503.63 183.118 503.647C184.883 503.668 185.669 504.282 185.433 504.936C187.184 505.616 188.399 507.171 188.378 508.965C188.349 511.36 186.128 513.276 183.416 513.243C180.705 513.211 178.53 511.243 178.558 508.847C178.58 507.026 179.871 505.481 181.681 504.861Z" fill="#FFC44F"/>
<path d="M183.088 499.986C182.148 499.949 183.042 503.826 183.041 503.891L183.276 503.893C183.526 502.603 183.839 500.016 183.088 499.986Z" fill="#774928"/>
<path d="M183.255 503.899C183.285 503.796 183.373 501.384 185.534 501.176C185.777 501.78 185.66 503.171 183.255 503.899Z" fill="#56A75A"/>
<path fill-rule="evenodd" clip-rule="evenodd" d="M188.581 505.686C188.466 505.073 188.67 504.295 190.122 504.425C191.881 504.582 192.61 505.335 192.317 506.054C194.002 506.955 195.075 508.801 194.894 510.824C194.653 513.525 192.267 515.519 189.566 515.277C186.866 515.036 184.872 512.65 185.114 509.949C185.297 507.895 186.721 506.25 188.581 505.686Z" fill="#FA8339"/>
<path d="M190.417 500.291C189.483 500.178 190.029 504.62 190.023 504.694L190.257 504.715C190.621 503.278 191.163 500.381 190.417 500.291Z" fill="#774928"/>
<path d="M190.235 504.72C190.275 504.606 190.577 501.89 192.751 501.819C192.939 502.519 192.699 504.079 190.235 504.72Z" fill="#56A75A"/>
<path d="M161.866 507.68C158.205 505.917 159.55 503.443 160.679 502.426C164.136 500.045 166.639 502.112 167.458 503.443C168.136 504.968 166.441 509.883 161.866 507.68Z" fill="#FFE2C4"/>
<path d="M200.887 507.504C204.325 505.848 203.062 503.524 202.001 502.569C198.754 500.333 196.403 502.274 195.634 503.524C194.997 504.957 196.589 509.573 200.887 507.504Z" fill="#FFE2C4"/>
<path fill-rule="evenodd" clip-rule="evenodd" d="M206.223 507.483C205.549 509.96 194.8 511.954 181.634 511.986C168.368 512.019 157.546 510.048 157.01 507.547C157.127 513.054 161.041 525.086 181.996 525.086C200.354 525.086 205.835 513.775 206.223 507.483ZM206.241 507.07C206.243 507.005 206.244 506.941 206.245 506.877L206.185 506.877C206.21 506.941 206.229 507.006 206.241 507.07Z" fill="#D39860"/>
<path fill-rule="evenodd" clip-rule="evenodd" d="M197.881 517.914C196.476 519.085 194.82 520.198 192.924 521.075L192.764 520.731C194.35 519.997 195.765 519.095 197.003 518.133C195.062 518.603 193.141 518.969 191.253 519.246C189.898 520.348 188.317 521.39 186.522 522.221L186.363 521.876C187.908 521.161 189.292 520.286 190.507 519.352C188.692 519.598 186.909 519.762 185.172 519.859C184.672 520.17 184.141 520.461 183.579 520.721L183.419 520.377C183.742 520.227 184.054 520.068 184.356 519.899C183.022 519.958 181.718 519.977 180.448 519.962C180.658 520.074 180.873 520.182 181.094 520.284L180.934 520.629C180.487 520.422 180.061 520.193 179.658 519.948C177.716 519.904 175.86 519.782 174.113 519.604C175.338 520.55 176.735 521.436 178.297 522.159L178.138 522.504C176.342 521.673 174.762 520.631 173.406 519.529C171.384 519.303 169.518 519.004 167.842 518.668C169.132 519.695 170.622 520.662 172.304 521.441L172.144 521.786C170.182 520.877 168.477 519.717 167.041 518.502C164.645 517.987 162.685 517.405 161.28 516.874L161.415 516.519C162.669 516.993 164.375 517.51 166.445 517.981C164.988 516.666 163.843 515.32 163.025 514.186C162.377 513.996 161.795 513.805 161.283 513.62L161.412 513.263C161.794 513.401 162.215 513.542 162.674 513.684C162.324 513.165 162.052 512.705 161.861 512.333L162.199 512.159C162.43 512.609 162.784 513.193 163.257 513.858C164.873 514.327 166.888 514.795 169.224 515.185C168.596 514.343 168.137 513.602 167.854 513.052L168.192 512.878C168.501 513.479 169.03 514.32 169.769 515.274C171.478 515.544 173.348 515.771 175.35 515.926C175.077 515.538 174.87 515.195 174.732 514.927L175.07 514.753C175.23 515.064 175.49 515.484 175.845 515.963C179.856 516.246 184.378 516.237 189.184 515.712C189.671 515.081 190.019 514.525 190.224 514.128L190.562 514.302C190.38 514.654 190.093 515.122 189.703 515.653C191.441 515.451 193.215 515.181 195.013 514.832C195.689 513.944 196.176 513.162 196.468 512.595L196.806 512.769C196.543 513.279 196.129 513.954 195.569 514.722C197.623 514.306 199.708 513.788 201.809 513.151C202.283 512.484 202.638 511.899 202.869 511.449L203.207 511.623C203.016 511.994 202.746 512.452 202.397 512.97C202.591 512.909 202.785 512.847 202.98 512.784L203.097 513.145C202.745 513.259 202.394 513.37 202.043 513.477C201.209 514.633 200.035 516.009 198.537 517.348C199.225 517.162 199.915 516.962 200.607 516.748L200.719 517.111C199.77 517.405 198.824 517.672 197.881 517.914ZM197.703 517.568C195.717 518.076 193.748 518.474 191.813 518.777C193.226 517.557 194.368 516.292 195.227 515.177C197.27 514.777 199.344 514.276 201.435 513.659C200.529 514.855 199.279 516.246 197.703 517.568ZM191.094 518.886C189.298 519.147 187.532 519.327 185.809 519.44C187.35 518.371 188.549 517.132 189.385 516.072C191.11 515.88 192.871 515.621 194.658 515.286C193.749 516.419 192.557 517.686 191.094 518.886ZM185.053 519.485C186.675 518.46 187.949 517.217 188.85 516.13C184.294 516.604 179.999 516.619 176.156 516.365C176.98 517.39 178.194 518.599 179.769 519.571C181.469 519.607 183.236 519.583 185.053 519.485ZM172.875 519.085C170.801 518.835 168.9 518.51 167.214 518.151C165.704 516.863 164.502 515.517 163.623 514.357C165.263 514.811 167.266 515.257 169.562 515.626C170.411 516.707 171.519 517.917 172.875 519.085ZM179.041 519.551C177.117 519.49 175.282 519.354 173.56 519.164C172.161 518.016 171.01 516.807 170.118 515.712C171.818 515.971 173.67 516.185 175.646 516.329C176.406 517.326 177.546 518.531 179.041 519.551Z" fill="#DEA56F"/>
<path d="M168.023 525.533C170.045 523.447 175.341 520.525 180.349 525.533H168.023Z" fill="#90DF70"/>
<path d="M179.188 525.892C181.733 523.264 188.4 519.586 194.705 525.892H179.188Z" fill="#90DF70"/>
<path d="M200.102 516.987C206.137 519.268 200.446 527.476 195.356 525.605C193.266 524.837 194.22 522.492 195.66 520.22C196.868 518.315 198.25 516.287 200.102 516.987Z" fill="#A7825F"/>
<path d="M162.944 516.192C167.003 514.658 171.532 523.399 167.69 524.811C162.599 526.682 156.909 518.473 162.944 516.192Z" fill="#A7825F"/>
<path fill-rule="evenodd" clip-rule="evenodd" d="M104.519 383.356C111.604 375.83 127.916 358.928 136.474 351.529C138.621 349.672 140.403 348.013 141.978 346.547C148.252 340.708 151.239 337.927 160.886 337.927C163.344 337.927 165.632 337.837 167.761 337.753C176.082 337.425 181.971 337.192 186.121 342.824C189.616 347.568 199.22 359.243 211.97 366.151C214.083 367.296 216.606 367.182 218.842 366.298C222.329 364.919 225.819 364.079 229.163 364.079C244.643 364.079 259.817 373.955 268.783 386.219C272.102 390.76 268.546 396.301 262.891 396.301L232.668 398.136L183.67 401.612L134.293 398.136C119.97 396.25 93.9629 392.845 104.519 383.356Z" fill="#80D65B"/>
<mask id="mask1_133_1228" style="mask-type:alpha" maskUnits="userSpaceOnUse" x="102" y="337" width="167" height="65">
<path fill-rule="evenodd" clip-rule="evenodd" d="M104.522 383.89C111.617 376.276 127.951 359.176 136.521 351.691C138.671 349.813 140.456 348.135 142.033 346.651C148.315 340.744 151.307 337.931 160.967 337.931C163.428 337.931 165.719 337.84 167.851 337.755C176.183 337.422 182.08 337.187 186.236 342.885C189.584 347.475 198.527 358.48 210.471 365.544C213.58 367.383 217.366 367.145 220.782 365.97C223.678 364.973 226.558 364.388 229.337 364.388C242.955 364.388 257.221 375.668 266.574 386.821C272.015 393.309 266.886 401.611 258.419 401.611H232.847L134.337 401.612C119.995 399.704 93.9518 393.489 104.522 383.89Z" fill="#74BE71"/>
</mask>
<g mask="url(#mask1_133_1228)">
<path d="M207.275 363.869C206.892 363.516 207.053 363.535 207.54 363.874L231.062 364.382C221.519 364.382 215.74 370.692 214.668 373.612C213.074 368.512 208.948 364.856 207.54 363.874L207.275 363.869Z" fill="#6CA756"/>
</g>
<mask id="mask2_133_1228" style="mask-type:alpha" maskUnits="userSpaceOnUse" x="102" y="337" width="131" height="65">
<path d="M136.314 351.733C127.796 359.212 111.56 376.297 104.507 383.905C94.0004 393.496 119.887 399.706 134.144 401.612H232.062V371.915C209.618 372.802 191.316 350.547 185.731 342.934C179.766 334.802 172.602 338.572 160.613 337.984C148.614 337.396 146.962 342.384 136.314 351.733Z" fill="#74BE71"/>
</mask>
<g mask="url(#mask2_133_1228)">
<path d="M143.394 353.308C135.515 355.932 131.753 352.352 132.082 350.285L148.834 333.612L182.063 338.146L201.062 350.285C200.504 352.42 195.466 355.248 186.371 353.087C176.08 350.642 177.608 361.093 175.115 362.282C170.822 364.329 169.448 356.182 163.585 356.182C155.504 356.182 154.45 363.296 151.778 362.267C147.121 360.474 150.153 351.057 143.394 353.308Z" fill="#61AE41"/>
<path d="M164.854 348.502C161.472 348.54 159.175 347.736 157.659 346.661C155.477 345.111 157.342 342.586 160.019 342.556L169.683 342.448C172.823 342.412 174.556 345.442 171.78 346.91C170.072 347.814 167.8 348.469 164.854 348.502Z" fill="#9CCFFF"/>
<path d="M155.062 343.612C155.711 345.278 158.58 348.612 164.862 348.612C171.144 348.612 174.946 345.278 176.062 343.612" stroke="#488643" stroke-width="2" stroke-linecap="round"/>
<path d="M138.062 362.612C133.735 367.159 124.277 377.526 121.062 382.612" stroke="#54953D" stroke-linecap="round"/>
<path d="M143.062 369.612C139.574 373.226 134.587 381.457 133.062 385.612" stroke="#54953D" stroke-linecap="round"/>
<path d="M184.176 363.12C187.978 366.183 194.281 372.721 196.293 376.445" stroke="#54953D" stroke-linecap="round"/>
<path d="M182.153 375.409C184.521 377.788 186.533 381.68 188.728 385.512" stroke="#54953D" stroke-linecap="round"/>
<path d="M151.881 367.918C149.664 370.441 147.896 374.451 145.941 378.413" stroke="#54953D" stroke-linecap="round"/>
<path d="M192.261 360.878C196.893 364.551 206.118 373.629 208.329 377.329" stroke="#54953D" stroke-linecap="round"/>
</g>
<path d="M244.197 372.409C248.976 374.411 256.208 381.805 258.309 385.442" stroke="#54953D" stroke-linecap="round"/>
<path d="M239.091 372.022C241.169 373.491 243.791 377.686 244.374 379.578" stroke="#54953D" stroke-linecap="round"/>
<path d="M271.463 388.612C276.962 392.48 277.391 402.207 276.919 406.588L269.062 407.612C271.201 406.383 270.317 394.774 269.608 389.123L271.463 388.612Z" fill="#825A3F"/>
<path d="M275.367 403.934C277.794 404.114 278.657 406.367 278.784 407.471L266.736 407.708C268.929 405.509 268.611 403.953 268.288 403.407C269.682 403.511 270.991 405.359 271.471 406.27C272.505 406.347 272.243 404.179 271.983 403.085C273.197 403.175 274.395 405.413 274.842 406.521C275.786 406.591 275.586 404.825 275.367 403.934Z" fill="#7CCD5A"/>
<path fill-rule="evenodd" clip-rule="evenodd" d="M276.896 399.969C276.639 399.949 276.369 399.939 276.101 399.945C275.279 399.964 274.627 400.129 274.268 400.435C273.977 400.684 273.522 400.668 273.253 400.397C272.984 400.127 273.002 399.706 273.293 399.456C274.047 398.812 275.147 398.635 276.065 398.614C276.28 398.609 276.495 398.612 276.705 398.622C276.782 399.075 276.845 399.526 276.896 399.969ZM276.37 397.018C275.983 396.968 275.541 396.935 275.101 396.945C274.279 396.964 273.627 397.129 273.268 397.435C272.977 397.684 272.522 397.668 272.253 397.397C271.984 397.127 272.002 396.706 272.293 396.456C273.047 395.812 274.147 395.635 275.065 395.614C275.374 395.607 275.681 395.617 275.974 395.639C276.124 396.095 276.255 396.556 276.37 397.018ZM275.352 394.016C274.969 393.967 274.534 393.935 274.101 393.945C273.279 393.964 272.627 394.129 272.268 394.435C271.977 394.684 271.522 394.668 271.253 394.397C270.984 394.127 271.002 393.706 271.293 393.456C272.047 392.812 273.147 392.635 274.065 392.614C274.258 392.609 274.45 392.612 274.639 392.619C274.902 393.071 275.139 393.538 275.352 394.016Z" fill="#A9734E"/>
<path d="M264.698 400.064C267.277 398.904 269.71 391.365 269.219 389.99C270.949 388.297 275.863 390.957 278.104 392.498C277.632 390.899 282.546 392.59 285.062 393.635C281.823 387.395 275.902 385.756 273.347 385.717C273.63 383.208 277.894 381.536 279.991 381.013C279.802 380.292 278.104 380.138 277.278 380.151C277.278 379.336 278.431 378.662 279.008 378.426C272.278 375.761 268.656 380.269 267.686 382.856C259.132 378.497 254.372 382.555 253.062 385.129C254.131 383.749 256.888 384.397 258.133 384.894C256.624 385.019 256.587 386.253 256.757 386.854C260.028 385.16 264.227 386.749 265.917 387.756C261.325 387.975 259.575 394.432 259.273 397.633L261.396 397.281C259.949 398.096 260.584 401.174 261.082 402.612C262.308 401.953 263.349 399.933 263.716 399.005L264.698 400.064Z" fill="#278A3C"/>
<path fill-rule="evenodd" clip-rule="evenodd" d="M277.834 386.707C277.553 386.586 277.275 386.478 277.004 386.381C276.655 386.595 276.337 386.912 276.102 387.368C276.022 387.523 276.083 387.714 276.236 387.794C276.39 387.874 276.579 387.814 276.659 387.659C276.943 387.106 277.38 386.83 277.834 386.707ZM280.636 388.317C280.405 388.146 280.174 387.986 279.942 387.835C279.42 388.023 278.916 388.39 278.582 389.041C278.502 389.196 278.562 389.386 278.716 389.467C278.87 389.547 279.059 389.486 279.138 389.331C279.438 388.75 279.906 388.474 280.385 388.361C280.469 388.342 280.553 388.327 280.636 388.317ZM268.896 394.405C269.016 394.059 269.125 393.717 269.223 393.384C269.178 393.29 269.127 393.196 269.069 393.105C268.729 392.559 268.172 392.07 267.315 391.942C267.143 391.917 266.984 392.036 266.959 392.209C266.933 392.381 267.052 392.542 267.223 392.567C267.866 392.663 268.277 393.021 268.538 393.44C268.739 393.762 268.848 394.118 268.896 394.405ZM267.935 396.748C268.059 396.49 268.18 396.226 268.295 395.958C268.259 395.888 268.219 395.818 268.176 395.749C267.836 395.203 267.278 394.715 266.422 394.587C266.25 394.561 266.091 394.681 266.066 394.853C266.04 395.026 266.158 395.186 266.33 395.212C266.973 395.308 267.384 395.665 267.645 396.085C267.78 396.301 267.873 396.532 267.935 396.748ZM272.29 378.305C271.761 378.559 271.283 378.869 270.854 379.214C270.692 379.678 270.653 380.221 270.851 380.819C270.906 380.985 271.083 381.074 271.247 381.019C271.412 380.964 271.5 380.785 271.446 380.619C271.24 379.998 271.371 379.467 271.624 379.043C271.811 378.729 272.064 378.478 272.29 378.305ZM274.043 377.734C274.034 377.749 274.026 377.763 274.017 377.777C273.687 378.33 273.507 379.052 273.781 379.88C273.836 380.045 274.013 380.135 274.178 380.079C274.342 380.024 274.431 379.845 274.376 379.68C274.17 379.058 274.301 378.528 274.554 378.103C274.662 377.922 274.792 377.762 274.926 377.626C274.621 377.645 274.327 377.682 274.043 377.734Z" fill="#3FC05A"/>
<path d="M281.263 376.612C290.887 382.923 291.639 398.794 290.811 405.941L277.062 407.612C280.805 405.607 279.258 386.666 278.017 377.447L281.263 376.612Z" fill="#825A3F"/>
<path d="M287.835 402.95C291.274 403.199 292.524 405.915 292.719 407.242L275.663 407.37C278.738 404.758 278.268 402.885 277.805 402.225C279.779 402.368 281.657 404.604 282.349 405.705C283.814 405.811 283.414 403.204 283.032 401.887C284.751 402.011 286.477 404.714 287.125 406.05C288.462 406.146 288.156 404.024 287.835 402.95Z" fill="#7CCD5A"/>
<path fill-rule="evenodd" clip-rule="evenodd" d="M289.873 396.732C289.341 396.65 288.726 396.596 288.113 396.612C287.018 396.64 286.148 396.887 285.67 397.347C285.282 397.721 284.675 397.696 284.316 397.29C283.957 396.885 283.982 396.253 284.37 395.879C285.376 394.912 286.842 394.647 288.066 394.615C288.613 394.601 289.156 394.632 289.658 394.69C289.745 395.378 289.816 396.06 289.873 396.732ZM288.99 390.751C288.432 390.659 287.772 390.595 287.113 390.612C286.018 390.64 285.148 390.887 284.67 391.347C284.282 391.721 283.675 391.696 283.316 391.29C282.957 390.885 282.982 390.253 283.37 389.879C284.376 388.912 285.842 388.647 287.066 388.615C287.548 388.602 288.028 388.626 288.479 388.67C288.669 389.359 288.839 390.054 288.99 390.751ZM287.57 385.864C286.929 385.718 286.019 385.588 285.113 385.612C284.018 385.64 283.148 385.887 282.67 386.347C282.282 386.721 281.675 386.696 281.316 386.29C280.957 385.885 280.982 385.253 281.37 384.879C282.376 383.912 283.842 383.647 285.066 383.615C285.609 383.601 286.147 383.632 286.647 383.688C286.984 384.394 287.291 385.121 287.57 385.864Z" fill="#A9734E"/>
<path d="M271.607 395.535C275.717 393.679 279.594 381.617 278.813 379.417C281.569 376.708 289.401 380.964 292.972 383.43C292.221 380.872 300.052 383.577 304.062 385.249C298.899 375.265 289.464 372.643 285.391 372.58C285.842 368.566 292.638 365.891 295.98 365.054C295.679 363.9 292.972 363.654 291.657 363.675C291.657 362.37 293.494 361.292 294.413 360.915C283.687 356.651 277.915 363.863 276.369 368.002C262.736 361.028 255.15 367.521 253.062 371.639C254.766 369.431 259.16 370.469 261.144 371.263C258.738 371.464 258.68 373.437 258.951 374.399C264.164 371.69 270.856 374.232 273.55 375.842C266.232 376.193 263.442 386.525 262.961 391.647L266.345 391.082C264.039 392.387 265.05 397.312 265.843 399.612C267.798 398.558 269.456 395.326 270.041 393.842L271.607 395.535Z" fill="#2EA747"/>
<path fill-rule="evenodd" clip-rule="evenodd" d="M291.895 374.051C291.461 373.876 291.034 373.719 290.616 373.578C290.138 373.917 289.707 374.388 289.377 375.027C289.248 375.278 289.345 375.586 289.595 375.716C289.845 375.846 290.152 375.748 290.282 375.498C290.681 374.723 291.267 374.284 291.895 374.051ZM296.568 376.589C296.195 376.327 295.82 376.08 295.445 375.849C294.66 376.17 293.913 376.753 293.407 377.735C293.277 377.986 293.375 378.295 293.625 378.424C293.874 378.554 294.182 378.456 294.311 378.206C294.797 377.264 295.559 376.818 296.337 376.635C296.414 376.617 296.491 376.602 296.568 376.589ZM277.6 386.097C277.78 385.574 277.945 385.059 278.092 384.558C278.047 384.476 277.999 384.395 277.949 384.314C277.396 383.431 276.49 382.64 275.098 382.433C274.819 382.392 274.56 382.585 274.519 382.864C274.478 383.143 274.67 383.403 274.948 383.445C275.993 383.6 276.661 384.178 277.086 384.858C277.34 385.264 277.504 385.703 277.6 386.097ZM276.021 389.951C276.215 389.552 276.401 389.144 276.579 388.732C276.553 388.686 276.526 388.641 276.498 388.596C275.945 387.712 275.039 386.922 273.646 386.715C273.368 386.673 273.109 386.866 273.068 387.146C273.027 387.425 273.219 387.685 273.497 387.726C274.542 387.882 275.21 388.46 275.635 389.14C275.799 389.403 275.926 389.681 276.021 389.951ZM282.501 360.995C281.873 361.328 281.292 361.708 280.757 362.121C280.576 362.803 280.563 363.58 280.844 364.424C280.933 364.692 281.221 364.837 281.488 364.747C281.755 364.658 281.899 364.368 281.81 364.1C281.476 363.094 281.688 362.235 282.101 361.547C282.221 361.347 282.357 361.162 282.501 360.995ZM285.808 359.831C285.394 360.675 285.214 361.722 285.605 362.903C285.694 363.171 285.983 363.316 286.25 363.226C286.517 363.137 286.661 362.847 286.572 362.579C286.238 361.573 286.45 360.714 286.862 360.026C286.941 359.895 287.026 359.771 287.116 359.654C286.666 359.691 286.23 359.751 285.808 359.831Z" fill="#3FC05A"/>
<rect x="57.062" y="393.612" width="56" height="27" fill="#DEB769"/>
<rect x="67.062" y="401.612" width="12" height="12" fill="#D0A958"/>
<rect x="92.062" y="401.612" width="12" height="12" fill="#D0A958"/>
<mask id="mask3_133_1228" style="mask-type:alpha" maskUnits="userSpaceOnUse" x="67" y="401" width="13" height="13">
<rect x="67.062" y="401.612" width="12" height="12" fill="#D6A235"/>
</mask>
<g mask="url(#mask3_133_1228)">
<path d="M71.062 400.612V414.612" stroke="#B37F1B" stroke-width="1.1206"/>
<path d="M75.062 400.612V414.612" stroke="#B37F1B" stroke-width="1.1206"/>
<path d="M71.062 400.612V414.612" stroke="#B37F1B" stroke-width="1.1206"/>
<path d="M75.062 400.612V414.612" stroke="#B37F1B" stroke-width="1.1206"/>
<path d="M80.062 404.612L66.062 404.612" stroke="#B37F1B" stroke-width="1.1206"/>
<path d="M80.062 409.612L66.062 409.612" stroke="#B37F1B" stroke-width="1.1206"/>
<path d="M80.062 404.612L66.062 404.612" stroke="#B37F1B" stroke-width="1.1206"/>
<path d="M80.062 409.612L66.062 409.612" stroke="#B37F1B" stroke-width="1.1206"/>
</g>
<mask id="mask4_133_1228" style="mask-type:alpha" maskUnits="userSpaceOnUse" x="92" y="401" width="13" height="13">
<rect x="92.062" y="401.612" width="12" height="12" fill="#D6A235"/>
</mask>
<g mask="url(#mask4_133_1228)">
<path d="M96.062 400.612V414.612" stroke="#B37F1B" stroke-width="1.1206"/>
<path d="M100.062 400.612V414.612" stroke="#B37F1B" stroke-width="1.1206"/>
<path d="M96.062 400.612V414.612" stroke="#B37F1B" stroke-width="1.1206"/>
<path d="M100.062 400.612V414.612" stroke="#B37F1B" stroke-width="1.1206"/>
<path d="M105.062 404.612L91.062 404.612" stroke="#B37F1B" stroke-width="1.1206"/>
<path d="M105.062 409.612L91.062 409.612" stroke="#B37F1B" stroke-width="1.1206"/>
<path d="M105.062 404.612L91.062 404.612" stroke="#B37F1B" stroke-width="1.1206"/>
<path d="M105.062 409.612L91.062 409.612" stroke="#B37F1B" stroke-width="1.1206"/>
</g>
<rect x="60.062" y="396.612" width="24" height="3" rx="1.5" transform="rotate(90 60.062 396.612)" fill="#8C551F"/>
<rect x="59.062" y="418.612" width="7" height="3" rx="1.5" transform="rotate(90 59.062 418.612)" fill="#774513"/>
<rect x="86.062" y="396.612" width="24" height="3" rx="1.5" transform="rotate(90 86.062 396.612)" fill="#8C551F"/>
<rect x="86.062" y="418.612" width="7" height="3" rx="1.5" transform="rotate(90 86.062 418.612)" fill="#774513"/>
<rect x="113.062" y="396.612" width="24" height="3" rx="1.5" transform="rotate(90 113.062 396.612)" fill="#8C551F"/>
<rect x="114.062" y="418.612" width="7" height="3" rx="1.5" transform="rotate(90 114.062 418.612)" fill="#774513"/>
<path d="M56.062 398.612C59.1185 381.888 76.2477 377.643 84.4303 377.612C109.112 377.612 114.454 391.612 114.04 398.612H56.062Z" fill="#B19253"/>
<mask id="mask5_133_1228" style="mask-type:alpha" maskUnits="userSpaceOnUse" x="61" y="375" width="50" height="27">
<path d="M77.3908 376.85C72.0935 379.802 61.6145 388.888 62.0768 401.612M90.8748 375.612C98.291 379.231 111.929 388.659 109.849 401.612M87.3111 375.612C92.0947 379.421 102.278 388.431 100.891 401.612M83.9402 376.278C79.285 378.024 69.6086 385.535 68.1446 401.612M86.0591 376.278C82.367 379.865 75.4645 389.954 77.3908 401.612M84.518 375.612C87.5359 380.151 93.0322 391.707 90.8748 401.612" stroke="black" stroke-width="0.689647"/>
</mask>
<g mask="url(#mask5_133_1228)">
<path d="M56.062 398.612C59.1185 381.888 76.2477 377.643 84.4303 377.612C109.112 377.612 114.454 391.612 114.04 398.612H56.062Z" fill="#D2AB5D"/>
</g>
<rect x="55.062" y="418.612" width="59" height="3" rx="1.5" fill="#5A4A25"/>
<path fill-rule="evenodd" clip-rule="evenodd" d="M48.6022 413.66C49.2807 414.256 50.1345 414.612 51.062 414.612C53.2712 414.612 55.062 412.597 55.062 410.112C55.062 407.626 53.2712 405.612 51.062 405.612C50.5327 405.612 50.0274 405.727 49.565 405.937C48.8834 404.551 47.5702 403.612 46.062 403.612C45.2401 403.612 44.476 403.89 43.8406 404.369C43.2525 402.768 41.5592 401.612 39.562 401.612C37.0767 401.612 35.062 403.402 35.062 405.612C35.062 405.668 35.0633 405.724 35.0659 405.78C32.7554 406.313 31.062 408.051 31.062 410.112C31.062 412.597 33.5244 414.612 36.562 414.612C37.5737 414.612 38.5216 414.388 39.336 413.998C40.1067 415.3 41.7175 416.242 43.6257 416.341C45.9227 416.46 47.9262 415.319 48.6022 413.66Z" fill="#65A84C"/>
<rect x="32.062" y="409.612" width="41" height="24" rx="2.16013" fill="#79777A"/>
<rect x="32.062" y="430.612" width="44" height="4" rx="2" fill="#79777A" fill-opacity="0.2"/>
<path d="M47.0679 415.838C46.9115 413.719 49.9212 413.519 51.4455 413.683C54.8851 413.683 55.823 413.055 56.0575 415.524C56.292 417.992 47.2633 418.486 47.0679 415.838Z" fill="#5D5D5D"/>
<path d="M61.0679 427.838C60.9115 425.719 63.9212 425.519 65.4455 425.683C68.8851 425.683 69.823 425.055 70.0575 427.524C70.292 429.992 61.2633 430.486 61.0679 427.838Z" fill="#5D5D5D"/>
<path d="M41.0679 427.838C40.9115 425.719 43.9212 425.519 45.4455 425.683C48.8851 425.683 49.823 425.055 50.0575 427.524C50.292 429.992 41.2633 430.486 41.0679 427.838Z" fill="#5D5D5D"/>
<path d="M58.3204 419.359C58.7876 416.812 60.6175 417.6 61.474 418.312C64.0436 421.035 57.4249 425.057 56.3347 423.088C55.2445 421.119 57.7363 422.543 58.3204 419.359Z" fill="#6F6C70"/>
<path d="M66.4415 418.023C64.1741 416.776 65.5057 415.291 66.4549 414.704C69.8588 413.129 71.5613 420.671 69.345 421.083C67.1288 421.494 69.2758 419.582 66.4415 418.023Z" fill="#898989"/>
<path d="M38.3857 426.629C40.3186 428.349 38.6875 429.499 37.6304 429.86C33.9576 430.637 33.9837 422.911 36.2375 423.003C38.4914 423.096 35.9695 424.48 38.3857 426.629Z" fill="#898989"/>
<path d="M39.9481 418.237C42.5319 418.045 42.2375 420.013 41.7674 421.021C39.7897 424.193 34.2068 418.81 35.8331 417.259C37.4595 415.707 36.7184 418.476 39.9481 418.237Z" fill="#6F6C70"/>
<path d="M320.656 370.771C338.33 369.584 341.531 375.332 340.922 378.354C340.922 385.938 343.248 390.389 346.736 393.522C350.225 396.654 349.56 427.154 350.058 434.243C350.557 441.332 299.227 437.54 294.741 438.035C290.256 438.529 292.914 428.637 292.25 420.724C291.585 412.811 296.07 411.657 295.738 401.765C295.406 391.873 299.725 389.73 303.878 385.608C308.031 381.487 298.562 372.254 320.656 370.771Z" fill="#A7A7A7"/>
<path d="M322.611 368.732C319.94 368.461 318.898 368.732 317.108 368.732C305.037 369.667 306.664 400.82 306.136 406.254C305.607 411.689 304.973 431.022 304.339 434.366C303.705 437.71 301.062 439.278 301.062 439.905C301.062 440.532 321 441.368 322.943 439.278C324.885 437.188 322.611 420.477 321 410.526C319.39 400.575 322.611 393.543 327.308 391.155C332.005 388.767 331.5 379.613 331.736 374.57C331.869 371.729 333.638 372.606 332.869 371.45C332.293 370.583 326.91 369.168 322.611 368.732Z" fill="#5DCFFF"/>
<path d="M327.308 374.612C327.877 377.158 328.673 382.718 327.308 384.583C325.602 386.914 319.958 388.597 318.645 397.144C317.333 405.691 318.645 411.259 318.645 416.698C318.645 422.137 321.008 424.597 319.827 428.612" stroke="#7DD8FF" stroke-width="0.828256" stroke-linecap="round"/>
<path d="M312.062 386.612C311.153 388.342 309.412 393.31 309.724 399.342C310.114 406.881 309.724 413.432 309.724 419.488C309.724 425.544 307.127 426.409 308.426 430.612" stroke="#7DD8FF" stroke-width="0.828256" stroke-linecap="round"/>
<path d="M317.395 373.612C317.898 375.305 318.603 379.377 317.395 382.12C315.885 385.548 315.062 385.548 315.062 389.612" stroke="#7DD8FF" stroke-width="0.828256" stroke-linecap="round"/>
<path d="M283.064 439.271C280.05 435.429 289.972 434.121 295.309 433.947C313.067 433.251 349.818 433.175 354.758 438.436C360.933 445.013 354.758 446.996 335.5 452.425C316.242 457.853 283.064 455.661 280.552 450.963C278.04 446.266 285.89 446.579 288.192 445.535C290.495 444.491 286.832 444.073 283.064 439.271Z" fill="#5DCFFF"/>
<path d="M293.062 436.612C290.264 436.797 285.651 437.856 289.582 440.612" stroke="#7DD8FF" stroke-width="0.828256" stroke-linecap="round"/>
<path d="M313.062 453.612C320.296 452.925 336.153 450.909 341.709 448.334C348.653 445.117 354.978 442.027 350.637 440.612" stroke="#7DD8FF" stroke-width="0.828256" stroke-linecap="round"/>
<path d="M338.062 392.612C338.643 394.038 339.979 398.581 340.677 405.334C341.374 412.088 340.968 425.666 340.677 431.612" stroke="#7E7E7E" stroke-width="0.828256" stroke-linecap="round"/>
<path d="M335.062 384.612C335.062 387.796 331.329 396.996 328.762 398.53C325.641 400.393 325.728 401.95 326.545 407.612" stroke="#7E7E7E" stroke-width="0.828256" stroke-linecap="round"/>
<path d="M299.868 401.612C299.868 404.795 300.851 412.431 298.394 413.964C295.408 415.827 295.862 423.952 296.644 429.612" stroke="#7E7E7E" stroke-width="0.828256" stroke-linecap="round"/>
<path d="M304.075 433.396C303.963 434.374 304.569 435.67 305.486 435.99C305.345 436.284 305.24 436.886 305.409 437.158C305.761 437.723 306.683 437.261 307.151 437.096C307.275 437.052 308.299 436.507 308.374 436.632C308.546 436.921 308.896 437.071 309.202 437.109C309.63 437.162 310.046 437.17 310.472 437.096C310.764 437.045 311.103 436.882 311.398 436.882C311.423 436.882 311.559 437.293 311.67 437.35C312.973 438.013 314.237 437.317 315.136 436.374C315.256 436.248 315.554 435.728 315.688 435.928C316.006 436.403 316.418 436.72 316.937 436.935C317.659 437.234 318.372 436.85 319.069 436.73C319.438 436.667 319.862 436.779 320.233 436.788C320.807 436.802 321.395 436.812 321.966 436.739C322.979 436.609 323.402 435.933 323.448 434.934C323.462 434.647 323.444 434.6 323.682 434.725C324.348 435.074 325.888 434.487 326.044 433.668C326.264 432.514 324.452 431.539 323.61 431.386C322.863 431.25 322.169 431.641 321.469 431.854C321.185 431.94 320.993 432.045 320.777 431.818C320.101 431.109 318.608 431.232 317.871 431.756C317.578 431.965 317.282 432.207 317.047 432.487C316.998 432.546 316.896 432.745 316.801 432.745C316.605 432.745 316.128 432.166 315.994 432.059C315.297 431.499 314.649 430.882 313.764 430.704C312.864 430.523 311.549 430.599 310.706 431.012C310.564 431.081 309.208 432.111 309.155 432.015C309.057 431.834 308.682 431.708 308.518 431.622C307.699 431.197 306.914 430.945 305.995 430.936C305.523 430.931 305.144 430.902 304.793 431.27C304.204 431.888 304.172 432.557 304.075 433.396Z" fill="#7DD8FF"/>
<path d="M347.735 450.616C341.944 450.463 340.888 454.088 341.084 455.92L343.619 457.612C348.499 457.612 348.396 452.948 347.735 450.616Z" fill="#69A658"/>
<path fill-rule="evenodd" clip-rule="evenodd" d="M343.012 456.638C343.045 456.466 343.062 456.29 343.062 456.112C343.062 454.179 341.047 452.612 338.562 452.612C336.284 452.612 334.401 453.928 334.103 455.637C333.926 455.62 333.745 455.612 333.562 455.612C331.077 455.612 329.062 457.179 329.062 459.112C329.062 460.531 330.148 461.753 331.709 462.302C331.298 462.83 331.062 463.449 331.062 464.112C331.062 466.045 333.077 467.612 335.562 467.612C336.976 467.612 338.237 467.105 339.062 466.312C339.887 467.105 341.148 467.612 342.562 467.612C345.047 467.612 347.062 466.045 347.062 464.112C347.062 463.591 346.916 463.098 346.655 462.654C347.521 462.016 348.062 461.113 348.062 460.112C348.062 458.179 346.047 456.612 343.562 456.612C343.376 456.612 343.192 456.62 343.012 456.638ZM339.112 459.586C338.932 459.603 338.748 459.612 338.562 459.612C338.379 459.612 338.198 459.603 338.021 459.587C337.937 460.07 337.726 460.521 337.415 460.921C338.059 461.148 338.622 461.489 339.062 461.911C339.188 461.79 339.324 461.676 339.47 461.569C339.208 461.125 339.062 460.632 339.062 460.112C339.062 459.933 339.079 459.757 339.112 459.586Z" fill="#ED5E44"/>
<path d="M337.251 459.6C337.573 459.423 337.832 459.159 338.069 458.885C338.229 458.67 338.56 458.114 338.6 457.612C338.684 457.937 338.928 458.19 339.1 458.478C339.263 458.75 339.455 459.019 339.677 459.25C339.835 459.415 340.057 459.525 340.265 459.617C340.713 459.816 341.187 459.962 341.662 460.084C341.766 460.111 341.947 460.151 342.059 460.174C342.111 460.184 341.446 460.299 341.346 460.324C340.926 460.426 340.539 460.542 340.194 460.805C339.87 461.052 339.652 461.462 339.474 461.816C339.265 462.232 339.133 462.73 339.126 463.192C339.124 463.323 339.134 463.716 339.126 463.585C339.121 463.508 339.082 463.425 339.059 463.352C338.948 462.998 338.817 462.659 338.673 462.318C338.591 462.123 338.538 461.942 338.416 461.765C338.264 461.543 338.078 461.353 337.882 461.168C337.504 460.812 337.015 460.553 336.501 460.446C336.026 460.347 335.552 460.357 335.07 460.379C334.971 460.384 335.849 460.27 336.113 460.175C336.513 460.032 336.88 459.803 337.251 459.6Z" fill="#FBDD6B"/>
<path d="M335.062 460.673C337.26 460.242 339.012 462.152 339.062 464.612" stroke="#E05941" stroke-width="0.41853" stroke-linecap="round"/>
<path d="M339.123 464.612C338.692 462.414 340.602 460.662 343.062 460.612" stroke="#E05941" stroke-width="0.41853" stroke-linecap="round"/>
<path d="M335.595 447.618C327.321 447.42 325.813 452.082 326.093 454.437L329.715 456.612C336.687 456.612 336.54 450.616 335.595 447.618Z" fill="#69A658"/>
<path fill-rule="evenodd" clip-rule="evenodd" d="M329.015 455.68C329.046 455.494 329.062 455.304 329.062 455.112C329.062 452.626 326.376 450.612 323.062 450.612C319.944 450.612 317.381 452.396 317.09 454.677C316.756 454.634 316.412 454.612 316.062 454.612C312.748 454.612 310.062 456.626 310.062 459.112C310.062 460.911 311.47 462.464 313.505 463.184C312.606 463.971 312.062 464.994 312.062 466.112C312.062 468.597 314.748 470.612 318.062 470.612C320.149 470.612 321.987 469.812 323.062 468.6C324.137 469.812 325.975 470.612 328.062 470.612C331.376 470.612 334.062 468.597 334.062 466.112C334.062 465.31 333.782 464.557 333.292 463.905C334.958 463.105 336.062 461.705 336.062 460.112C336.062 457.626 333.376 455.612 330.062 455.612C329.705 455.612 329.355 455.635 329.015 455.68ZM324.109 459.543C323.769 459.588 323.419 459.612 323.062 459.612C322.712 459.612 322.368 459.589 322.034 459.546C321.913 460.494 321.4 461.355 320.619 462.039C321.613 462.391 322.458 462.942 323.062 463.623C323.524 463.102 324.128 462.657 324.832 462.319C324.342 461.667 324.062 460.914 324.062 460.112C324.062 459.919 324.078 459.729 324.109 459.543Z" fill="#FF6B4F"/>
<path d="M321.188 460.263C321.65 460.027 322.019 459.675 322.357 459.309C322.586 459.023 323.058 458.282 323.117 457.612C323.236 458.045 323.585 458.383 323.83 458.766C324.063 459.13 324.338 459.488 324.655 459.796C324.881 460.015 325.198 460.162 325.495 460.286C326.135 460.551 326.811 460.746 327.49 460.908C327.639 460.944 327.898 460.998 328.058 461.028C328.131 461.042 327.182 461.195 327.04 461.228C326.439 461.364 325.887 461.518 325.393 461.869C324.93 462.199 324.619 462.745 324.364 463.218C324.066 463.772 323.878 464.436 323.868 465.052C323.865 465.227 323.879 465.751 323.868 465.577C323.861 465.473 323.805 465.363 323.772 465.265C323.614 464.794 323.427 464.342 323.221 463.886C323.103 463.626 323.028 463.386 322.854 463.149C322.636 462.854 322.37 462.601 322.09 462.354C321.55 461.879 320.852 461.534 320.118 461.391C319.439 461.259 318.762 461.272 318.073 461.302C317.932 461.308 319.186 461.156 319.563 461.03C320.134 460.839 320.66 460.533 321.188 460.263Z" fill="#FBDD6B"/>
<path d="M318.062 461.688C321.359 461.149 323.987 463.537 324.062 466.612" stroke="#E05941" stroke-width="0.583435" stroke-linecap="round"/>
<path d="M324.138 466.612C323.6 463.314 325.987 460.687 329.062 460.612" stroke="#E05941" stroke-width="0.583435" stroke-linecap="round"/>
<path d="M117.735 451.616C111.944 451.463 110.888 455.088 111.084 456.92L113.619 458.612C118.499 458.612 118.396 453.948 117.735 451.616Z" fill="#69A658"/>
<path fill-rule="evenodd" clip-rule="evenodd" d="M113.012 457.638C113.045 457.466 113.062 457.29 113.062 457.112C113.062 455.179 111.047 453.612 108.562 453.612C106.284 453.612 104.401 454.928 104.103 456.637C103.926 456.62 103.745 456.612 103.562 456.612C101.077 456.612 99.062 458.179 99.062 460.112C99.062 461.531 100.148 462.753 101.709 463.302C101.298 463.83 101.062 464.449 101.062 465.112C101.062 467.045 103.077 468.612 105.562 468.612C106.976 468.612 108.237 468.105 109.062 467.312C109.887 468.105 111.148 468.612 112.562 468.612C115.047 468.612 117.062 467.045 117.062 465.112C117.062 464.591 116.916 464.098 116.655 463.654C117.521 463.016 118.062 462.113 118.062 461.112C118.062 459.179 116.047 457.612 113.562 457.612C113.376 457.612 113.192 457.62 113.012 457.638ZM109.112 460.586C108.932 460.603 108.748 460.612 108.562 460.612C108.379 460.612 108.198 460.603 108.021 460.587C107.937 461.07 107.726 461.521 107.415 461.921C108.059 462.148 108.622 462.489 109.062 462.911C109.188 462.79 109.324 462.676 109.47 462.569C109.208 462.125 109.062 461.632 109.062 461.112C109.062 460.933 109.079 460.757 109.112 460.586Z" fill="#ED5E44"/>
<path d="M107.251 460.6C107.573 460.423 107.832 460.159 108.069 459.885C108.229 459.67 108.56 459.114 108.6 458.612C108.684 458.937 108.928 459.19 109.1 459.478C109.263 459.75 109.455 460.019 109.677 460.25C109.835 460.415 110.057 460.525 110.265 460.617C110.713 460.816 111.187 460.962 111.662 461.084C111.766 461.111 111.947 461.151 112.059 461.174C112.111 461.184 111.446 461.299 111.346 461.324C110.926 461.426 110.539 461.542 110.194 461.805C109.87 462.052 109.652 462.462 109.474 462.816C109.265 463.232 109.133 463.73 109.126 464.192C109.124 464.323 109.134 464.716 109.126 464.585C109.121 464.508 109.082 464.425 109.059 464.352C108.948 463.998 108.817 463.659 108.673 463.318C108.591 463.123 108.538 462.942 108.416 462.765C108.264 462.543 108.078 462.353 107.882 462.168C107.504 461.812 107.015 461.553 106.501 461.446C106.026 461.347 105.552 461.357 105.07 461.379C104.971 461.384 105.849 461.27 106.113 461.175C106.513 461.032 106.88 460.803 107.251 460.6Z" fill="#FBDD6B"/>
<path d="M105.062 461.673C107.26 461.242 109.012 463.152 109.062 465.612" stroke="#E05941" stroke-width="0.41853" stroke-linecap="round"/>
<path d="M109.123 465.612C108.692 463.414 110.602 461.662 113.062 461.612" stroke="#E05941" stroke-width="0.41853" stroke-linecap="round"/>
<path d="M105.595 448.618C97.3213 448.42 95.8129 453.082 96.0928 455.437L99.715 457.612C106.687 457.612 106.54 451.616 105.595 448.618Z" fill="#69A658"/>
<path fill-rule="evenodd" clip-rule="evenodd" d="M99.0146 456.68C99.0459 456.494 99.062 456.304 99.062 456.112C99.062 453.626 96.3757 451.612 93.062 451.612C89.9436 451.612 87.3809 453.396 87.0896 455.677C86.7557 455.634 86.4124 455.612 86.062 455.612C82.7483 455.612 80.062 457.626 80.062 460.112C80.062 461.911 81.4703 463.464 83.5054 464.184C82.6056 464.971 82.062 465.994 82.062 467.112C82.062 469.597 84.7483 471.612 88.062 471.612C90.149 471.612 91.9871 470.812 93.062 469.6C94.1369 470.812 95.975 471.612 98.062 471.612C101.376 471.612 104.062 469.597 104.062 467.112C104.062 466.31 103.782 465.557 103.292 464.905C104.958 464.105 106.062 462.705 106.062 461.112C106.062 458.626 103.376 456.612 100.062 456.612C99.7047 456.612 99.3547 456.635 99.0146 456.68ZM94.1094 460.543C93.7693 460.588 93.4193 460.612 93.062 460.612C92.7117 460.612 92.3683 460.589 92.0344 460.546C91.9134 461.494 91.4005 462.355 90.6186 463.039C91.6132 463.391 92.4581 463.942 93.062 464.623C93.5244 464.102 94.1281 463.657 94.832 463.319C94.3417 462.667 94.062 461.914 94.062 461.112C94.062 460.919 94.0781 460.729 94.1094 460.543Z" fill="#FF6B4F"/>
<path d="M91.1885 461.263C91.6495 461.027 92.0195 460.675 92.357 460.309C92.586 460.023 93.0585 459.282 93.1166 458.612C93.2357 459.045 93.5846 459.383 93.8303 459.766C94.0634 460.13 94.3378 460.488 94.6545 460.796C94.8811 461.015 95.198 461.162 95.4955 461.286C96.1354 461.551 96.8114 461.746 97.4904 461.908C97.6395 461.944 97.8982 461.998 98.058 462.028C98.1313 462.042 97.1817 462.195 97.0397 462.228C96.4388 462.364 95.8868 462.518 95.3932 462.869C94.9304 463.199 94.6187 463.745 94.3645 464.218C94.0665 464.772 93.8779 465.436 93.8678 466.052C93.865 466.227 93.8791 466.751 93.8678 466.577C93.8611 466.473 93.8048 466.363 93.7718 466.265C93.6135 465.794 93.4268 465.342 93.2209 464.886C93.1035 464.626 93.0276 464.386 92.8537 464.149C92.636 463.854 92.3705 463.601 92.0899 463.354C91.5502 462.879 90.8519 462.534 90.118 462.391C89.4386 462.259 88.762 462.272 88.073 462.302C87.9322 462.308 89.1861 462.156 89.5629 462.03C90.1344 461.839 90.6597 461.533 91.1885 461.263Z" fill="#FBDD6B"/>
<path d="M88.062 462.688C91.3591 462.149 93.987 464.537 94.062 467.612" stroke="#E05941" stroke-width="0.583435" stroke-linecap="round"/>
<path d="M94.1382 467.612C93.5996 464.314 95.9872 461.687 99.062 461.612" stroke="#E05941" stroke-width="0.583435" stroke-linecap="round"/>
<path d="M137.205 436.589C136.027 433.816 142.699 429.728 146.183 428.03C148.831 428.271 155.2 428.461 159.484 427.288C164.839 425.822 169.392 423.695 170.06 426.972C170.727 430.249 164.062 433.257 163.11 434.113C162.158 434.97 164.272 438.572 165.128 443.549C165.983 448.527 149.302 447.989 145.141 446.673C141.812 445.621 142.762 439.889 143.653 437.154C141.995 438.121 138.383 439.362 137.205 436.589Z" fill="#A7A7A7"/>
<mask id="mask6_133_1228" style="mask-type:alpha" maskUnits="userSpaceOnUse" x="137" y="424" width="33" height="22">
<path d="M137.158 435.256C136.021 432.617 142.503 428.71 145.886 427.086C148.456 427.311 154.636 427.479 158.796 426.354C163.995 424.948 168.418 422.913 169.06 426.033C169.701 429.154 163.227 432.031 162.302 432.849C161.376 433.667 163.421 437.093 164.242 441.833C165.063 446.573 148.876 446.092 144.84 444.846C141.612 443.85 142.545 438.388 143.415 435.782C141.803 436.706 138.296 437.895 137.158 435.256Z" fill="#A7A7A7"/>
</mask>
<g mask="url(#mask6_133_1228)">
<path d="M146.062 433.612C145.636 433.721 144.747 434.079 143.062 439.612" stroke="#696969" stroke-linecap="round"/>
<path d="M161.086 432.232C161.495 432.394 162.331 432.862 163.293 438.562" stroke="#696969" stroke-linecap="round"/>
<path d="M162.062 425.612L144.062 427.445C145.408 429.657 148.476 430.843 152.887 430.574C156.877 430.33 160.666 427.374 162.062 425.612Z" fill="#696969"/>
</g>
<path d="M151.669 394.74C142.609 395.075 140.631 403.434 140.775 407.572L163.904 406.899C163.601 402.707 160.73 394.405 151.669 394.74Z" fill="#A7A7A7"/>
<path d="M138.743 414.383C138.781 413.042 139.711 412.007 140.172 411.657L165.635 410.938L165.97 413.085C168.987 412.614 170.331 414.481 169.942 417.23C169.72 418.797 167.915 420.088 166.455 420.139C166.802 422.36 161.604 429.591 152.44 429.837C144.677 430.046 140.883 424.944 139.935 422.008C138.471 422.035 135.434 421.392 134.999 418.608C134.564 415.825 137.314 414.631 138.743 414.383Z" fill="#A7A7A7"/>
<path d="M136.479 409.065C136.446 406.08 140.27 405.764 142.187 405.979L163.908 405.347C165.239 405.112 168.041 405.254 168.609 407.7C169.177 410.147 167.18 410.93 166.11 411.016L142.324 411.808C140.39 412.138 136.512 412.05 136.479 409.065Z" fill="#C1C1C1"/>
<ellipse cx="148.062" cy="417.612" rx="1" ry="2" fill="#6D6D6D"/>
<ellipse cx="157.062" cy="417.612" rx="1" ry="2" fill="#6D6D6D"/>
<path d="M148.062 421.612C148.386 422.273 149.626 423.789 152.988 423.595C155 423.478 156.484 422.528 157.062 421.612" stroke="#6D6D6D" stroke-width="1.13293" stroke-linecap="round"/>
<circle cx="143.062" cy="419.612" r="1" fill="#6D6D6D"/>
<ellipse cx="0.5" cy="1" rx="0.5" ry="1" transform="matrix(-1 0 0 1 162.062 418.612)" fill="#6D6D6D"/>
<ellipse cx="0.5" cy="1" rx="0.5" ry="1" transform="matrix(-1 0 0 1 161.062 400.612)" fill="#6D6D6D"/>
<circle cx="144.562" cy="421.112" r="0.5" fill="#6D6D6D"/>
<circle cx="0.5" cy="0.5" r="0.5" transform="matrix(-1 0 0 1 160.062 420.612)" fill="#6D6D6D"/>
<circle cx="0.5" cy="0.5" r="0.5" transform="matrix(-1 0 0 1 159.062 402.612)" fill="#6D6D6D"/>
<ellipse cx="143.562" cy="422.612" rx="0.5" ry="1" fill="#6D6D6D"/>
<ellipse cx="1" cy="0.5" rx="1" ry="0.5" transform="matrix(-1 0 0 1 163.062 420.612)" fill="#6D6D6D"/>
<ellipse cx="1" cy="0.5" rx="1" ry="0.5" transform="matrix(-1 0 0 1 162.062 403.612)" fill="#6D6D6D"/>
<path d="M143.984 441.968C140.747 442.205 139.58 444.916 139.401 446.242L155.457 446.428C152.553 443.806 152.989 441.936 153.423 441.277C151.565 441.413 149.805 443.643 149.158 444.74C147.779 444.841 148.146 442.236 148.502 440.921C146.883 441.039 145.268 443.736 144.663 445.069C143.404 445.161 143.686 443.04 143.984 441.968Z" fill="#7CCD5A"/>
<path d="M156.984 442.968C153.747 443.205 152.58 445.916 152.401 447.242L168.457 447.428C165.553 444.806 165.989 442.936 166.423 442.277C164.565 442.413 162.805 444.643 162.158 445.74C160.779 445.841 161.146 443.236 161.502 441.921C159.883 442.039 158.268 444.736 157.663 446.069C156.404 446.161 156.686 444.04 156.984 442.968Z" fill="#7CCD5A"/>
<ellipse cx="217.364" cy="420.523" rx="11.6921" ry="1.5" fill="#926552" fill-opacity="0.1"/>
<ellipse cx="229.346" cy="414.97" rx="11.6921" ry="1.5" fill="#926552" fill-opacity="0.1"/>
<path fill-rule="evenodd" clip-rule="evenodd" d="M225.882 394.026C225.471 392.684 225.831 390.924 229.503 390.968C233.951 391.021 235.93 392.568 235.336 394.214C239.747 395.929 242.808 399.845 242.753 404.365C242.681 410.399 237.085 415.224 230.254 415.142C223.423 415.06 217.945 410.102 218.017 404.068C218.072 399.479 221.323 395.589 225.882 394.026Z" fill="#FFC44F"/>
<path d="M229.426 381.746C227.059 381.652 229.31 391.418 229.308 391.582L229.9 391.589C230.531 388.339 231.32 381.821 229.426 381.746Z" fill="#774928"/>
<path d="M229.847 391.604C229.924 391.343 230.145 385.267 235.59 384.744C236.201 386.266 235.907 389.768 229.847 391.604Z" fill="#56A75A"/>
<path fill-rule="evenodd" clip-rule="evenodd" d="M212.316 400.102C211.904 398.76 212.265 397 215.936 397.044C220.384 397.097 222.364 398.645 221.769 400.29C226.18 402.005 229.241 405.921 229.187 410.441C229.114 416.475 223.518 421.3 216.688 421.218C209.857 421.136 204.378 416.178 204.451 410.144C204.506 405.555 207.757 401.665 212.316 400.102Z" fill="#FA8339"/>
<path d="M215.86 387.822C213.494 387.728 215.744 397.495 215.742 397.658L216.334 397.665C216.965 394.416 217.754 387.897 215.86 387.822Z" fill="#774928"/>
<path d="M216.279 397.681C216.356 397.42 216.577 391.344 222.022 390.821C222.633 392.343 222.339 395.845 216.279 397.681Z" fill="#56A75A"/>
<ellipse cx="208.538" cy="407.204" rx="0.673096" ry="1.34613" fill="#E1722C"/>
<ellipse cx="0.673096" cy="1.34613" rx="0.673096" ry="1.34613" transform="matrix(-1 0 0 1 239.4 399.345)" fill="#F3B436"/>
<ellipse cx="206.907" cy="410.483" rx="0.673096" ry="1.34613" fill="#E1722C"/>
<ellipse cx="0.673096" cy="1.34613" rx="0.673096" ry="1.34613" transform="matrix(-1 0 0 1 241.031 402.624)" fill="#F3B436"/>
<ellipse cx="208.742" cy="413.175" rx="0.673096" ry="1.34613" fill="#E1722C"/>
<ellipse cx="0.673096" cy="1.34613" rx="0.673096" ry="1.34613" transform="matrix(-1 0 0 1 239.196 405.316)" fill="#F3B436"/>
</g>
<defs>
<filter id="filter0_f_133_1228" x="-48.4204" y="603.657" width="463.815" height="173.796" filterUnits="userSpaceOnUse" color-interpolation-filters="sRGB">
<feFlood flood-opacity="0" result="BackgroundImageFix"/>
<feBlend mode="normal" in="SourceGraphic" in2="BackgroundImageFix" result="shape"/>
<feGaussianBlur stdDeviation="7.5" result="effect1_foregroundBlur_133_1228"/>
</filter>
<filter id="filter1_f_133_1228" x="-49.562" y="598.384" width="464.957" height="173.796" filterUnits="userSpaceOnUse" color-interpolation-filters="sRGB">
<feFlood flood-opacity="0" result="BackgroundImageFix"/>
<feBlend mode="normal" in="SourceGraphic" in2="BackgroundImageFix" result="shape"/>
<feGaussianBlur stdDeviation="7.5" result="effect1_foregroundBlur_133_1228"/>
</filter>
<linearGradient id="paint0_linear_133_1228" x1="180" y1="21.7325" x2="180" y2="400" gradientUnits="userSpaceOnUse">
<stop stop-color="#BFEDFF"/>
<stop offset="1" stop-color="white"/>
</linearGradient>
<linearGradient id="paint1_linear_133_1228" x1="180" y1="721.612" x2="180" y2="950.612" gradientUnits="userSpaceOnUse">
<stop stop-color="#49BAFF"/>
<stop offset="1" stop-color="#267AAD"/>
</linearGradient>
<linearGradient id="paint2_linear_133_1228" x1="-23.2475" y1="233.197" x2="385.519" y2="330.606" gradientUnits="userSpaceOnUse">
<stop stop-color="#74BE71"/>
<stop offset="1" stop-color="#FF7018"/>
</linearGradient>
<linearGradient id="paint3_linear_133_1228" x1="268.215" y1="667.726" x2="287.435" y2="713.658" gradientUnits="userSpaceOnUse">
<stop stop-color="#CA9863"/>
<stop offset="1" stop-color="#A27545"/>
</linearGradient>
<linearGradient id="paint4_linear_133_1228" x1="94.8106" y1="667.238" x2="75.0162" y2="709.723" gradientUnits="userSpaceOnUse">
<stop stop-color="#DCA770"/>
<stop offset="1" stop-color="#9F754A"/>
</linearGradient>
<linearGradient id="paint5_linear_133_1228" x1="36.6745" y1="348.104" x2="316.548" y2="533.955" gradientUnits="userSpaceOnUse">
<stop stop-color="#9CE27E"/>
<stop offset="1" stop-color="#A4FB7E"/>
</linearGradient>
<clipPath id="clip0_133_1228">
<rect width="360" height="800" fill="white"/>
</clipPath>
</defs>
</svg>
