<svg width="360" height="800" viewBox="0 0 360 800" fill="none" xmlns="http://www.w3.org/2000/svg">
<g clip-path="url(#clip0_72_3348)">
<rect width="360" height="800" fill="url(#paint0_linear_72_3348)"/>
<g opacity="0.5">
<path fill-rule="evenodd" clip-rule="evenodd" d="M95.487 644.07C102.563 636.491 118.853 619.471 127.4 612.02C129.544 610.151 131.324 608.48 132.897 607.004C139.162 601.124 142.146 598.324 151.78 598.324C154.235 598.324 156.52 598.233 158.645 598.148C166.955 597.818 172.837 597.584 176.981 603.255C180.776 608.448 191.78 621.889 206.193 628.445C210.809 626.159 215.517 624.658 219.966 624.658C240.109 624.658 261.676 649.359 266.565 661.71H223.466V661.71H125.222C110.918 659.811 84.9453 653.625 95.487 644.07Z" fill="#74BE71"/>
<mask id="mask0_72_3348" style="mask-type:alpha" maskUnits="userSpaceOnUse" x="93" y="598" width="174" height="64">
<path fill-rule="evenodd" clip-rule="evenodd" d="M95.487 644.07C102.563 636.491 118.853 619.471 127.4 612.02C129.544 610.151 131.324 608.48 132.897 607.004C139.162 601.124 142.146 598.324 151.78 598.324C154.235 598.324 156.52 598.233 158.645 598.148C166.955 597.818 172.837 597.584 176.981 603.255C180.776 608.448 191.78 621.889 206.193 628.445C210.809 626.159 215.517 624.658 219.966 624.658C240.109 624.658 261.676 649.359 266.565 661.71H223.466V661.71H125.222C110.918 659.811 84.9453 653.625 95.487 644.07Z" fill="#74BE71"/>
</mask>
<g mask="url(#mask0_72_3348)">
<path d="M198.347 624.102C197.964 623.735 198.125 623.754 198.613 624.107L222.131 624.635C212.59 624.635 206.812 631.19 205.739 634.223C204.146 628.925 200.02 625.127 198.613 624.107L198.347 624.102Z" fill="#56A75A"/>
</g>
<path d="M118.421 648.5C118.421 648.5 21.569 640.992 0 648.5V823H360V648.5C286.065 637.911 237.604 660.924 118.421 648.5Z" fill="url(#paint1_linear_72_3348)"/>
<mask id="mask1_72_3348" style="mask-type:alpha" maskUnits="userSpaceOnUse" x="93" y="597" width="131" height="65">
<path d="M127.4 612.02C118.853 619.471 102.563 636.491 95.487 644.07C84.9453 653.625 110.918 659.811 125.222 661.71H223.466V632.126C200.947 633.009 182.584 610.839 176.981 603.255C170.996 595.154 163.808 598.909 151.78 598.324C139.741 597.738 138.083 602.707 127.4 612.02Z" fill="#74BE71"/>
</mask>
<g mask="url(#mask1_72_3348)">
<path d="M134.845 613.466C126.885 616.035 123.085 612.53 123.417 610.506L140.341 594.18L173.91 598.619L193.103 610.506C192.539 612.597 187.449 615.366 178.261 613.25C167.865 610.856 169.409 621.089 166.891 622.253C162.553 624.258 161.165 616.28 155.242 616.28C147.079 616.28 146.014 623.246 143.315 622.239C138.61 620.483 141.673 611.262 134.845 613.466Z" fill="#51934C"/>
<path d="M156.533 608.306C153.155 608.343 150.853 607.561 149.329 606.511C147.123 604.99 148.968 602.464 151.647 602.434L161.391 602.326C164.542 602.29 166.251 605.322 163.448 606.76C161.735 607.639 159.467 608.273 156.533 608.306Z" fill="#4DA0EE"/>
<path d="M146.213 603.688C146.865 605.277 149.745 608.454 156.05 608.454C162.355 608.454 166.172 605.277 167.292 603.688" stroke="#488643" stroke-width="2" stroke-linecap="round"/>
<path d="M129.187 622.537C124.761 627.174 115.086 637.744 111.798 642.93" stroke="#56A75A" stroke-linecap="round"/>
<path d="M133.53 629.371C130.111 632.868 125.221 640.832 123.726 644.851" stroke="#56A75A" stroke-linecap="round"/>
<path d="M174.908 623.473C178.852 626.55 185.385 633.126 187.465 636.876" stroke="#56A75A" stroke-linecap="round"/>
<path d="M173.668 635.85C176.081 638.256 178.131 642.192 180.368 646.067" stroke="#56A75A" stroke-linecap="round"/>
<path d="M143.604 628.144C141.344 630.695 139.542 634.751 137.55 638.758" stroke="#56A75A" stroke-linecap="round"/>
<path d="M184.315 620.749C188.832 624.437 197.841 633.539 200.009 637.239" stroke="#56A75A" stroke-linecap="round"/>
</g>
<path d="M235.075 632.951C239.757 635.044 246.876 642.692 248.955 646.442" stroke="#56A75A" stroke-linecap="round"/>
<path d="M230.189 632.298C232.129 633.832 234.548 638.252 235.075 640.252" stroke="#56A75A" stroke-linecap="round"/>
</g>
<rect x="112" y="787" width="135" height="5" rx="2.5" fill="#1A1A1C"/>
</g>
<defs>
<linearGradient id="paint0_linear_72_3348" x1="180" y1="-54.6497" x2="180" y2="800" gradientUnits="userSpaceOnUse">
<stop stop-color="#E0F3FF"/>
<stop offset="1" stop-color="#FFE9C7"/>
</linearGradient>
<linearGradient id="paint1_linear_72_3348" x1="180" y1="643" x2="180" y2="870.292" gradientUnits="userSpaceOnUse">
<stop stop-color="#49BAFF"/>
<stop offset="1" stop-color="#FFFBC5"/>
</linearGradient>
<clipPath id="clip0_72_3348">
<rect width="360" height="800" fill="white"/>
</clipPath>
</defs>
</svg>
