<svg width="88" height="32" viewBox="0 0 88 32" fill="none" xmlns="http://www.w3.org/2000/svg">
<rect x="9.78125" y="4" width="78" height="24" rx="12" fill="black" fill-opacity="0.5"/>
<rect x="0.78125" width="32" height="32" rx="16" fill="white"/>
<path d="M15.2074 6.60207C14.1926 7.61688 16.5135 8.77286 16.5135 8.86111L17.2547 8.98464C18.1018 8.46107 19.5596 7.17742 18.6137 6.23145C17.6677 5.28549 17.09 6.96681 16.9194 7.92572C16.687 7.14624 16.0193 5.79023 15.2074 6.60207Z" fill="#95CA5E"/>
<path fill-rule="evenodd" clip-rule="evenodd" d="M8.37796 21.3239C8.18899 22.8986 9.67049 26.048 17.1082 26.048C24.546 26.048 25.7251 22.7222 25.385 21.0593C26.5188 20.8955 28.5521 20.054 27.6148 17.998C26.4432 15.4281 20.623 7.98279 17.1082 7.98279C13.5935 7.98279 2.80345 16.732 6.45051 20.379C6.8738 20.9232 7.91184 21.2357 8.37796 21.3239ZM13.2186 17.1289C11.7069 17.1415 8.75145 17.7563 9.02355 20.1146C9.02624 20.1379 9.02893 20.1612 9.0316 20.1844C9.3677 23.1012 9.64631 25.5191 16.6578 25.5191C23.7252 25.5191 24.5566 23.327 24.5566 19.4343C24.5566 18.3761 21.6466 17.1289 13.2186 17.1289Z" fill="#FFBC59"/>
<path d="M9.02343 20.1145C8.75132 17.7562 11.7068 17.1414 13.2185 17.1288C21.6464 17.1288 24.5565 18.376 24.5565 19.4342C24.5565 23.3269 23.725 25.5189 16.6577 25.5189C9.59032 25.5189 9.36357 23.0623 9.02343 20.1145Z" fill="#FFE2C4"/>
<circle cx="13.9532" cy="21.0031" r="0.687299" fill="#4B2717" stroke="#4B2717" stroke-width="0.104051"/>
<ellipse cx="12.441" cy="22.5069" rx="0.739325" ry="0.364686" fill="#FFBAB1"/>
<circle cx="19.6099" cy="21.0031" r="0.687299" fill="#4B2717" stroke="#4B2717" stroke-width="0.104051"/>
<path d="M15.4609 22.0213C15.5341 22.3323 15.8483 22.3841 15.9432 22.3841C16.6247 22.3841 16.5583 21.8805 16.6738 21.8805C16.7894 21.8805 16.6738 22.3841 17.2768 22.3841C17.744 22.3841 17.7923 22.1181 17.8256 21.9737" stroke="#4B2717" stroke-width="0.312153" stroke-linecap="round"/>
</svg>
