<svg width="361" height="800" viewBox="0 0 361 800" fill="none" xmlns="http://www.w3.org/2000/svg">
<rect width="360" height="800" transform="translate(0.265625)" fill="url(#paint0_linear_133_1569)"/>
<path fill-rule="evenodd" clip-rule="evenodd" d="M301.19 108.155H315.581H331.501H343.714C345.547 108.155 347.033 106.669 347.033 104.836C347.033 103.003 345.547 101.517 343.714 101.517H340.35C340.587 100.7 340.714 99.8354 340.714 98.9413C340.714 93.8527 336.589 89.7276 331.501 89.7276C330.196 89.7276 328.955 89.9987 327.831 90.4876C325.972 85.5292 321.189 82 315.581 82C308.382 82 302.541 87.8183 302.504 95.0095C302.079 94.9242 301.64 94.8794 301.19 94.8794C297.524 94.8794 294.552 97.8512 294.552 101.517H292.577C290.744 101.517 289.258 103.003 289.258 104.836C289.258 106.669 290.744 108.155 292.577 108.155H301.19Z" fill="#FEFFFB"/>
<path fill-rule="evenodd" clip-rule="evenodd" d="M64.1925 146.013H78.5843H94.5037H106.717C108.55 146.013 110.036 144.527 110.036 142.694C110.036 140.861 108.55 139.375 106.717 139.375H103.353C103.59 138.558 103.717 137.694 103.717 136.799C103.717 131.711 99.5923 127.586 94.5037 127.586C93.1993 127.586 91.9582 127.857 90.8337 128.346C88.9749 123.387 84.1917 119.858 78.5843 119.858C71.3845 119.858 65.5436 125.676 65.507 132.868C65.0821 132.782 64.6425 132.738 64.1925 132.738C60.5265 132.738 57.5547 135.709 57.5547 139.375H55.5797C53.7467 139.375 52.2607 140.861 52.2607 142.694C52.2607 144.527 53.7467 146.013 55.5797 146.013H64.1925Z" fill="#FEFFFB"/>
<path fill-rule="evenodd" clip-rule="evenodd" d="M273.855 130.611C273.843 130.612 273.831 130.612 273.819 130.612C273.806 130.612 273.794 130.612 273.782 130.611H263.349C263.339 130.612 263.329 130.612 263.319 130.612C263.309 130.612 263.299 130.612 263.289 130.611H257.036C255.698 130.611 254.614 129.527 254.614 128.19C254.614 126.853 255.698 125.769 257.036 125.769H258.476C258.476 123.094 260.645 120.926 263.319 120.926C263.647 120.926 263.968 120.959 264.278 121.021C264.305 115.775 268.566 111.53 273.819 111.53C277.909 111.53 281.399 114.105 282.755 117.722C283.575 117.366 284.481 117.168 285.432 117.168C289.145 117.168 292.154 120.177 292.154 123.89C292.154 124.542 292.061 125.173 291.888 125.769H294.343C295.68 125.769 296.764 126.853 296.764 128.19C296.764 129.527 295.68 130.611 294.343 130.611H285.445C285.441 130.611 285.437 130.611 285.432 130.611C285.428 130.611 285.424 130.611 285.42 130.611H273.855Z" fill="#FEFFFB"/>
<defs>
<linearGradient id="paint0_linear_133_1569" x1="180" y1="21.7325" x2="180" y2="400" gradientUnits="userSpaceOnUse">
<stop stop-color="#BFEDFF"/>
<stop offset="1" stop-color="white"/>
</linearGradient>
</defs>
</svg>
