<svg width="43" height="53" viewBox="0 0 43 53" fill="none" xmlns="http://www.w3.org/2000/svg">
<path d="M28.2932 4.7954C17.8702 3.15873 18.4229 12.584 20.0022 17.5012C13.8648 19.0086 8.54003 22.6627 6.11196 28.5918C3.55485 34.836 5.35823 45.6045 17.7409 47.6504C30.1237 49.6962 38.4147 43.5587 38.5224 33.7602C38.6085 25.9214 31.7388 21.0186 28.2932 19.547C30.2673 19.9418 34.5814 19.6547 36.0458 15.3476C37.5102 11.0406 33.7129 9.96385 31.6311 9.96385C33.3539 7.27195 30.2313 4.7954 28.2932 4.7954Z" fill="url(#paint0_linear_91_5069)"/>
<path d="M17.5528 7.95838C16.6489 10.5434 16.8161 13.5279 17.3145 15.9704C11.5587 17.8924 6.52001 21.7417 4.05907 27.7511C2.56933 31.3889 2.35196 36.2778 4.3013 40.6064C6.30558 45.057 10.5055 48.7034 17.3793 49.8391C23.9822 50.93 29.7711 49.8824 33.9933 46.9738C38.2623 44.0329 40.6794 39.3536 40.7406 33.7846C40.7914 29.1656 38.7823 25.4664 36.3856 22.7869C35.7176 22.0401 35.0117 21.3631 34.2979 20.7567C35.9091 19.8675 37.359 18.3767 38.1461 16.0617C38.6141 14.6854 38.7309 13.3593 38.4144 12.1344C38.093 10.8906 37.3772 9.9558 36.5399 9.29711C35.8628 8.76445 35.0993 8.4029 34.3459 8.16384C34.3398 8.01897 34.3273 7.87422 34.3082 7.72983C34.1597 6.60731 33.6412 5.66229 33.0294 4.93831C31.9235 3.62961 30.1679 2.65288 28.4896 2.58126C25.6484 2.15684 23.2559 2.43129 21.3463 3.43514C19.3661 4.47607 18.1835 6.15458 17.5528 7.95838Z" fill="url(#paint1_linear_91_5069)" stroke="#FDFDFD" stroke-width="4.43672" stroke-linecap="round"/>
<path d="M18.9136 17.5011C21.5708 17.6934 25.6706 18.4443 29.4658 20.0698M38.4029 28.484C37.1216 24.4633 33.4625 21.7816 29.4658 20.0698M29.4658 20.0698C31.0809 20.9467 33.6652 22.6695 33.6652 31.0683" stroke="#3B831C" stroke-width="2.53527" stroke-linecap="round"/>
<path d="M9.79887 29.4515C7.77206 32.9527 8.26373 43.5181 19.8729 44.4395" stroke="#FF953D" stroke-width="2.53527" stroke-linecap="round"/>
<path d="M21.8159 10.5357C21.8767 9.0289 23.2677 6.31661 28.3453 7.52209" stroke="#FF953D" stroke-width="2.53527" stroke-linecap="round"/>
<defs>
<linearGradient id="paint0_linear_91_5069" x1="21.4541" y1="5.6948" x2="21.4541" y2="48.0433" gradientUnits="userSpaceOnUse">
<stop stop-color="#F38713"/>
<stop offset="1" stop-color="#F46E1B"/>
</linearGradient>
<linearGradient id="paint1_linear_91_5069" x1="21.4541" y1="5.6948" x2="21.4541" y2="48.0433" gradientUnits="userSpaceOnUse">
<stop stop-color="#F38713"/>
<stop offset="1" stop-color="#F46E1B"/>
</linearGradient>
</defs>
</svg>
