<svg width="361" height="801" viewBox="0 0 361 801" fill="none" xmlns="http://www.w3.org/2000/svg">
<g clip-path="url(#clip0_72_7223)">
<rect width="360" height="800" transform="translate(0.75 0.5)" fill="url(#paint0_linear_72_7223)"/>
<g opacity="0.3">
<path fill-rule="evenodd" clip-rule="evenodd" d="M173.93 807.167V520.153C175.859 519.9 177.48 519.768 178.76 519.768C195.577 519.768 268.742 542.188 330.283 561.046C340.324 564.123 350.055 567.105 359.182 569.879V715.719L217.676 791.953L213.321 794.299L200.644 801.129C192.33 805.608 183.082 807.621 173.93 807.167Z" fill="url(#paint1_linear_72_7223)"/>
<path fill-rule="evenodd" clip-rule="evenodd" d="M-6.34473 715.803V570.632C3.8643 567.578 14.7767 564.284 26.0134 560.891C84.1396 543.343 150.941 523.176 173.929 520.157V807.288C166.456 806.918 159.046 804.904 152.257 801.247L-6.34473 715.803Z" fill="url(#paint2_linear_72_7223)"/>
<path d="M294.213 662.34C294.213 660.065 295.499 657.986 297.535 656.971L337.892 636.844C341.881 634.854 346.57 637.755 346.57 642.213V649.963C346.57 652.238 345.283 654.317 343.248 655.332L302.891 675.459C298.902 677.449 294.213 674.548 294.213 670.09V662.34Z" fill="#BE8C56"/>
<path d="M266.556 700.443C266.556 698.128 267.888 696.019 269.98 695.024L283.526 688.585C287.508 686.693 292.102 689.596 292.102 694.004V697.402C292.102 699.718 290.77 701.827 288.678 702.821L275.131 709.26C271.15 711.152 266.556 708.249 266.556 703.841V700.443Z" fill="#BE8C56"/>
<path d="M237.884 732.477C237.884 730.156 239.223 728.042 241.323 727.051L260.274 718.107C264.254 716.229 268.835 719.132 268.835 723.533V726.948C268.835 729.27 267.495 731.384 265.395 732.374L246.445 741.318C242.465 743.197 237.884 740.293 237.884 735.892V732.477Z" fill="#BE8C56"/>
<path d="M187.923 707.51C187.923 705.566 189.05 703.798 190.813 702.977L201.511 697.999C203.5 697.073 205.777 698.525 205.777 700.719V701.933C205.777 704.266 204.424 706.388 202.308 707.372L192.189 712.082C190.2 713.007 187.923 711.555 187.923 709.362V707.51Z" fill="#BE8C56"/>
<path d="M194.209 778.463C194.209 776.183 195.501 774.101 197.543 773.088L215.667 764.098C219.656 762.12 224.333 765.022 224.333 769.474V772.763C224.333 775.043 223.042 777.125 220.999 778.138L202.875 787.128C198.887 789.106 194.209 786.204 194.209 781.752V778.463Z" fill="#BE8C56"/>
<path d="M316.361 725.007C316.361 723.894 316.983 722.875 317.972 722.366L342.238 709.866C344.215 708.847 346.57 710.283 346.57 712.507V712.507C346.57 713.619 345.948 714.639 344.959 715.148L320.693 727.648C318.716 728.667 316.361 727.231 316.361 725.007V725.007Z" fill="#BE8C56"/>
<path d="M187.923 723.564C187.923 722.436 188.558 721.405 189.565 720.898L213.804 708.69C215.789 707.69 218.131 709.133 218.131 711.356V711.356C218.131 712.484 217.496 713.515 216.489 714.022L192.251 726.23C190.265 727.229 187.923 725.786 187.923 723.564V723.564Z" fill="#BE8C56"/>
<path d="M159.287 723.45C159.287 721.129 157.948 719.015 155.848 718.024L136.897 709.08C132.917 707.202 128.336 710.105 128.336 714.506V717.922C128.336 720.243 129.676 722.357 131.775 723.348L150.726 732.292C154.706 734.17 159.287 731.267 159.287 726.866V723.45Z" fill="#CE9963"/>
<path d="M100.51 668.339C100.51 666.017 99.1703 663.904 97.0706 662.913L78.1199 653.969C74.1399 652.09 69.559 654.994 69.559 659.395V662.81C69.559 665.131 70.8985 667.245 72.9981 668.236L91.9489 677.18C95.9289 679.058 100.51 676.155 100.51 671.754V668.339Z" fill="#CE9963"/>
<path d="M27.8623 694.814C27.8623 692.614 26.6579 690.59 24.7238 689.541L4.23687 678.424C1.57159 676.978 -1.67082 678.908 -1.67082 681.94V688.332C-1.67082 690.533 -0.46638 692.557 1.46764 693.606L21.9546 704.723C24.6199 706.169 27.8623 704.239 27.8623 701.207V694.814Z" fill="#CE9963"/>
<path d="M176.766 414.732C157.322 414.732 46.9166 450.21 -7.87199 465.965L-8.74609 584.036L174.781 668.222L358.308 589.654L359.182 465.965C307.8 451.062 196.63 414.732 176.766 414.732Z" fill="url(#paint3_linear_72_7223)" stroke="#C8DE62"/>
<path fill-rule="evenodd" clip-rule="evenodd" d="M-5.56094 615.449L-6.07031 580.246C59.167 610.598 139.929 647.838 164.668 658.101C167.645 659.337 170.695 659.695 173.73 659.327V659.342C173.796 659.334 173.863 659.325 173.93 659.316V673.806C173.358 673.445 172.75 673.13 172.1 672.873V672.859C166.451 671.449 162.905 678.508 158.656 684.232C148.832 697.466 144.643 700.071 136.462 682.861C136.228 682.37 135.999 681.887 135.771 681.415C130.71 670.892 124.396 680.207 118.128 689.456C117.965 689.695 117.803 689.935 117.641 690.175C113.297 696.601 109.033 702.907 103.189 699.766C96.5511 698.18 95.9545 686.242 95.2959 676.487C95.2025 675.104 95.1086 673.714 95.0008 672.333C94.5107 666.057 93.0499 660.863 86.5676 659.327C82.4695 658.356 78.8965 660.708 75.156 665.732C72.98 668.655 68.3684 673.833 65.1559 676.873C60.0651 681.69 58.8308 675.539 57.156 667.192C55.1255 657.073 55.3948 642.174 44.412 641.237C35.7726 639.936 34.5013 644.393 32.323 647.681C29.8209 651.458 27.5104 654.946 23.3247 652.001C21.3101 651.219 22.3421 646.043 20.3494 641.237C19.9222 640.206 19.5248 639.248 19.1697 638.432C15.249 629.418 11.891 620.953 -5.56094 615.449Z" fill="#C08D58"/>
<path d="M359.656 580.664L179.594 655.01C177.636 655.818 175.649 656.364 173.656 656.605V656.59C170.52 656.971 167.369 656.6 164.292 655.323C138.703 644.701 54.6901 606.284 -12.7578 574.886" stroke="#8ECE2C" stroke-width="1.5"/>
<path fill-rule="evenodd" clip-rule="evenodd" d="M-12.3447 613.039V575.732C55.0672 607.004 138.522 645.373 164.084 655.948C167.161 657.22 170.313 657.589 173.449 657.21V657.225C173.518 657.217 173.586 657.208 173.655 657.199V673.847C173.064 673.475 172.437 673.151 171.765 672.886V672.871C165.927 671.419 163.303 674.944 158.912 680.842C148.763 694.473 143.395 699.194 134.938 681.457C134.697 680.952 134.46 680.454 134.225 679.967C128.994 669.126 122.471 678.723 115.993 688.252C115.825 688.499 115.658 688.746 115.49 688.994C111.001 695.614 106.596 702.111 100.556 698.875C95.0692 695.934 96.0321 687.239 95.3515 677.188C95.255 675.763 95.158 674.33 95.0467 672.908C94.5402 666.441 92.0387 660.323 85.3404 658.74C81.1056 657.74 76.2136 660.138 72.3484 665.314C70.0998 668.325 67.5357 671.759 64.2162 674.891C58.9556 679.854 57.6802 673.516 55.9495 664.917C53.8514 654.491 47.0472 639.775 39.7353 639.775C35.2471 640.227 33.3739 643.052 31.123 646.44C28.5375 650.331 26.15 653.925 21.8248 650.89C19.743 650.085 17.0148 643.524 14.9556 638.572C14.5142 637.51 14.1036 636.523 13.7366 635.682C9.68526 626.395 5.68893 618.71 -12.3447 613.039Z" fill="#9FD240"/>
<mask id="mask0_72_7223" style="mask-type:alpha" maskUnits="userSpaceOnUse" x="-13" y="575" width="187" height="125">
<path fill-rule="evenodd" clip-rule="evenodd" d="M-12.3447 613.039V575.732C55.0672 607.004 138.522 645.373 164.084 655.948C167.161 657.22 170.313 657.589 173.449 657.21V657.225C173.518 657.217 173.586 657.208 173.655 657.199V673.847C173.064 673.475 172.437 673.151 171.765 672.886V672.871C165.927 671.419 163.303 674.944 158.912 680.842C148.763 694.473 143.395 699.194 134.938 681.457C134.697 680.952 134.46 680.454 134.225 679.967C128.994 669.126 122.471 678.723 115.993 688.252C115.825 688.499 115.658 688.746 115.49 688.994C111.001 695.614 106.596 702.111 100.556 698.875C95.0692 695.934 94.7975 686.295 94.1169 676.245C93.6112 668.776 92.104 659.271 83.3812 657.21C79.1464 656.21 76.2136 660.138 72.3484 665.314C70.0998 668.325 67.5357 671.759 64.2162 674.891C58.9556 679.854 57.6802 673.516 55.9495 664.917C53.8514 654.491 47.0472 639.775 39.7353 639.775C35.2471 640.227 33.3739 643.052 31.123 646.44C28.5375 650.331 26.15 653.925 21.8248 650.89C19.743 650.085 17.0148 643.524 14.9556 638.572C14.5142 637.51 14.1036 636.523 13.7366 635.682C9.68526 626.395 5.68893 618.71 -12.3447 613.039Z" fill="#9FD240"/>
</mask>
<g mask="url(#mask0_72_7223)">
<path d="M0.478516 618.949C3.27023 620.002 9.33084 622.232 13.5958 633.004C18.9347 646.488 21.7927 650.95 23.7306 651.875L25.0096 651.998C24.623 652.115 24.2043 652.101 23.7306 651.875L10.0184 650.55L0.478516 618.949Z" fill="#86B431"/>
<path d="M54.2058 654.369C50.1447 643.884 45.5582 641.314 42.9189 640.64V652.6L54.2058 668.604L60.6073 682.334L68.1038 671.131C67.1773 672.114 64.6504 674.399 61.955 675.68C58.5858 677.28 58.8385 666.33 54.2058 654.369Z" fill="#86B431"/>
<path d="M95.0572 672.395C94.3833 663.904 89.9472 660.378 87.8134 659.676L81.4961 674.837C86.9711 684.524 98.3422 703.947 100.027 704.149C101.711 704.352 110.949 700.977 115.357 699.264L112.156 694.21C111.145 696.344 107.759 700.258 102.301 698.843C95.4783 697.074 95.8995 683.008 95.0572 672.395Z" fill="#86B431"/>
<path d="M135.988 680.06C132.888 674.332 128.341 674.95 127.836 675.512L131.53 680.06L134.057 692.526L147.028 698.759L152.756 688.399C151.52 689.465 148.581 691.815 145.603 691.815C141.864 691.815 139.862 687.219 135.988 680.06Z" fill="#86B431"/>
</g>
<path fill-rule="evenodd" clip-rule="evenodd" d="M173.93 673.975V659.806C175.856 659.551 177.776 659.012 179.668 658.226L359.93 583.365L358.566 615.012C358.267 615.872 357.921 616.937 357.526 618.149C354.587 627.18 350.436 643.568 342.346 644.774C338.019 645.419 333.495 641.366 330.308 638.509C329.691 637.957 329.125 637.449 328.619 637.028C324.813 633.865 321.565 634.224 318.651 638.509C314.986 643.9 313.557 649.725 312.525 656.624C311.198 665.495 308.372 672.981 301.682 677.069C295.441 680.882 292.514 672.626 288.458 664.707C287.399 662.639 286.639 660.048 285.892 657.502C284.049 651.216 282.519 643.794 275.034 647.504C269.992 649.534 264.814 662.884 261.666 671.251C260.524 674.287 259.504 676.997 258.606 678.841C247.494 697.613 235.449 686.838 226.512 672.296C211.664 651.745 204.504 688.319 193.087 690.317C187.784 691.245 183.949 685.874 181.075 681.883C179.151 679.212 176.582 675.661 173.93 673.975Z" fill="#C08D58"/>
<path fill-rule="evenodd" clip-rule="evenodd" d="M173.655 673.833V657.234C175.582 656.979 177.501 656.44 179.393 655.654L359.655 580.793V613.122C359.357 613.982 359.01 615.047 358.616 616.259C355.676 625.29 350.082 642.478 341.992 643.684C337.665 644.329 333.141 640.275 329.954 637.419C329.337 636.866 328.771 636.358 328.265 635.938C324.459 632.774 320.363 631.867 317.449 636.152C313.784 641.543 312.355 647.367 311.323 654.266C309.996 663.138 308.72 671.665 302.029 675.753C295.788 679.566 292.018 672.774 287.963 664.855C286.904 662.787 286.144 660.196 285.397 657.65C283.554 651.365 280.637 643.211 273.153 646.921C268.11 648.951 264.029 659.796 260.881 668.163C259.739 671.199 258.719 673.909 257.821 675.753C248.937 693.99 236.736 689.944 227.798 675.402C217.114 658.017 207.362 671.06 199.369 682.436C196.712 686.217 194.199 689.793 191.218 689.793C185.904 689.068 183.028 685.074 180.154 681.084C178.23 678.412 176.307 675.519 173.655 673.833Z" fill="#92CC3A"/>
<g filter="url(#filter0_f_72_7223)">
<path d="M23.0108 724.546C-40.6611 705.194 -12.5539 693.276 -6.93582 691.403V688.807C-89.8209 697.761 8.64082 755.54 20.552 759.113C26.0638 760.767 33.7912 762.434 40.1743 765.534C42.5776 766.701 41.6653 769.782 39.1144 770.577C21.9007 775.942 69.8531 794.688 90.5569 794.688C125.874 794.688 129.356 819.624 152.238 825.593C175.119 831.563 194.519 828.578 210.436 816.536C226.354 804.494 270.625 794.688 291.517 790.276C312.409 785.865 330.813 770.379 321.86 760.928C312.906 751.477 374.059 739.755 389.293 719.155C404.527 698.555 378.891 684.174 366.406 684.798C353.922 685.422 357.043 698.531 366.406 699.155C375.77 699.78 362.922 721.948 345.444 728.191C327.965 734.433 263.045 754.409 284.893 755.033C306.741 755.657 262.135 764.7 228.427 774.688C194.718 784.675 202.209 795.912 170.997 796.536C139.785 797.16 150.397 773.439 99.2102 764.7C48.0229 755.961 94.9543 746.411 23.0108 724.546Z" fill="#3FECFF" fill-opacity="0.5"/>
</g>
<g filter="url(#filter1_f_72_7223)">
<path d="M23.0097 719.272C-40.6622 699.92 -12.555 688.002 -6.93693 686.129V683.534C-89.822 692.487 3.25026 746.849 15.1614 750.422C20.1807 751.928 24.0451 751.666 28.0963 753.105C30.6141 753.999 29.6441 757.126 27.2054 758.218C12.4809 764.809 69.9416 789.414 90.5558 789.414C125.873 789.414 129.355 814.35 152.237 820.319C175.118 826.289 194.518 823.304 210.435 811.262C226.353 799.22 270.624 789.414 291.516 785.002C312.407 780.591 330.812 765.105 321.858 755.654C312.905 746.203 374.057 734.481 389.292 713.881C404.526 693.281 378.89 678.9 366.405 679.524C353.921 680.148 357.042 693.257 366.405 693.881C375.769 694.506 362.921 716.675 345.443 722.917C327.964 729.159 263.044 749.135 284.892 749.759C306.74 750.383 262.134 759.426 228.426 769.414C194.717 779.401 202.208 790.638 170.996 791.262C139.784 791.886 150.396 768.165 99.2091 759.426C48.0218 750.687 94.9532 741.137 23.0097 719.272Z" fill="white" fill-opacity="0.5"/>
</g>
<path d="M23.0103 712.564C-40.6616 693.212 -12.5544 681.294 -6.93634 679.421V676.826C-89.8214 685.779 -6.93631 741.64 20.5515 747.131C26.203 748.26 33.8821 750.183 40.2291 753.46C42.6033 754.685 41.6648 757.8 39.1139 758.595C21.9002 763.96 69.8526 782.706 90.5564 782.706C125.874 782.706 129.356 807.642 152.237 813.611C175.119 819.581 194.518 816.596 210.436 804.554C226.354 792.512 270.624 782.706 291.516 778.294C312.408 773.883 330.813 758.397 321.859 748.946C312.905 739.495 374.058 727.773 389.292 707.173C404.527 686.573 378.891 672.192 366.406 672.816C353.921 673.44 357.042 686.549 366.406 687.173C375.77 687.798 362.922 709.967 345.443 716.209C327.965 722.451 263.044 742.427 284.893 743.051C306.741 743.675 262.135 752.718 228.426 762.706C194.717 772.693 202.208 783.93 170.997 784.554C139.785 785.178 150.397 761.457 99.2097 752.718C48.0224 743.979 94.9538 734.429 23.0103 712.564Z" fill="#EAFCFE"/>
<path d="M312.14 748.786C318.396 747.641 325.362 764.774 283.359 772.151C230.855 781.373 300.744 747.34 312.14 748.786Z" fill="#34C1F3"/>
<path d="M52.1969 766.385C38.604 761.619 49.9166 757.926 57.2721 756.676C78.4562 756.676 127.002 778.742 98.3158 776.977C69.6292 775.212 69.188 772.343 52.1969 766.385Z" fill="#34C1F3"/>
</g>
<path fill-rule="evenodd" clip-rule="evenodd" d="M226.168 444.937C228.377 441.223 230.827 436.049 229.242 434.464C230.446 434.921 232.681 437.181 231.983 442.565C234.019 440.654 239.461 437.804 244.945 441.693C242.354 442.824 237.85 445.662 238.081 448.837C252.439 454.537 261.301 462.367 261.301 471.009C261.301 488.441 225.237 502.573 180.75 502.573C136.263 502.573 100.199 488.441 100.199 471.009C100.199 453.577 136.263 439.445 180.75 439.445C197.598 439.445 213.237 441.472 226.168 444.937Z" fill="#A2CC3A" fill-opacity="0.3"/>
<path d="M174.521 364.407C170.763 368.166 179.358 372.447 179.358 372.773L182.103 373.231C185.24 371.292 190.639 366.538 187.136 363.035C183.632 359.532 181.493 365.758 180.861 369.309C180.001 366.423 177.528 361.401 174.521 364.407Z" fill="#95CA5E"/>
<path d="M182.877 476.29C168.35 476.29 160.646 478.142 158.609 479.068L159.288 469.956L202.307 468.067L204.838 480.891C203.056 479.484 197.403 476.29 182.877 476.29Z" fill="#FFBC59"/>
<path d="M146.187 454.897C147.945 436.059 154.305 431.22 159.242 430.324C167.945 428.02 186.677 423.482 199.326 428.416C209.575 432.414 214.474 443.635 214.222 449.906C215.729 450.29 219.243 461.425 211.21 461.809C204.783 462.116 204.85 455.281 205.687 451.826C188.866 452.466 155.426 454.437 156.23 457.201C157.234 460.657 154.723 471.791 147.945 466.8C142.522 462.807 144.514 457.201 146.187 454.897Z" fill="#F6F3EE"/>
<ellipse cx="181.654" cy="450.23" rx="40.486" ry="7.71132" transform="rotate(-0.140618 181.654 450.23)" fill="#E09D56"/>
<path fill-rule="evenodd" clip-rule="evenodd" d="M149.23 418.927C148.53 424.759 154.016 436.422 181.561 436.422C209.105 436.422 213.472 424.106 212.213 417.947C216.411 417.341 223.941 414.224 220.47 406.61C216.132 397.093 194.577 369.521 181.561 369.521C168.544 369.521 128.585 401.922 142.092 415.428C143.659 417.444 147.503 418.601 149.23 418.927ZM167.157 403.391C161.558 403.438 150.613 405.715 151.621 414.448C151.631 414.535 151.641 414.621 151.651 414.707C152.895 425.509 153.927 434.463 179.893 434.463C206.066 434.463 209.145 426.345 209.145 411.929C209.145 408.01 198.368 403.391 167.157 403.391Z" fill="#FFBC59"/>
<path d="M151.621 414.448C150.613 405.715 161.558 403.438 167.157 403.391C198.368 403.391 209.145 408.01 209.145 411.929C209.145 426.345 206.066 434.463 179.893 434.463C153.72 434.463 152.88 425.365 151.621 414.448Z" fill="#FFE2C4"/>
<circle cx="169.877" cy="417.739" r="2.59658" fill="#4B2717" stroke="#4B2717" stroke-width="0.282804"/>
<ellipse cx="164.277" cy="423.309" rx="2.73798" ry="1.35056" fill="#FFBAB1"/>
<ellipse cx="195.841" cy="423.309" rx="2.73798" ry="1.35056" fill="#FFBAB1"/>
<circle cx="190.825" cy="417.739" r="2.59658" fill="#4B2717" stroke="#4B2717" stroke-width="0.282804"/>
<path d="M175.461 421.51C175.732 422.662 176.895 422.853 177.247 422.853C179.771 422.853 179.525 420.988 179.953 420.988C180.381 420.988 179.953 422.853 182.186 422.853C183.916 422.853 184.095 421.868 184.218 421.333" stroke="#4B2717" stroke-width="0.848412" stroke-linecap="round"/>
<mask id="mask1_72_7223" style="mask-type:alpha" maskUnits="userSpaceOnUse" x="146" y="426" width="69" height="32">
<path d="M146.188 454.897C147.946 436.059 154.306 431.22 159.243 430.324C167.946 428.02 186.678 423.482 199.327 428.416C209.576 432.414 214.474 443.635 214.223 449.906L205.688 451.826C188.867 452.466 155.427 454.437 156.231 457.201L146.188 454.897Z" fill="#F6F3EE"/>
</mask>
<g mask="url(#mask1_72_7223)">
<path d="M203.949 443.933L197.641 443.271C198.794 431.984 206.383 427.813 208.087 427.813L211.464 429.665C208.23 430.223 205.297 437.149 203.949 443.933Z" fill="#FFBC59"/>
<path d="M157.844 444.576L164.291 443.894C163.138 432.606 156.711 429.686 155.007 429.686L152.174 430.765C155.551 430.765 156.496 437.792 157.844 444.576Z" fill="#FFBC59"/>
</g>
<path d="M156.241 398.15C157.607 395.418 162.891 388.411 173.102 382.234" stroke="#FC8A65" stroke-width="1.12716" stroke-linecap="round"/>
<path d="M179.405 380.028C179.195 385.228 179.09 396.29 180.35 398.938M186.181 380.028C192.063 384.913 203.955 395.755 204.46 400.041" stroke="#FC8A65" stroke-width="1.12716" stroke-linecap="round" stroke-linejoin="round"/>
<path d="M149.687 410.715C151.186 408.944 154.974 405.221 158.141 404.501" stroke="#FC8A65" stroke-width="1.12716" stroke-linecap="round" stroke-linejoin="round"/>
<path d="M212.502 413.689C211.148 411.805 207.666 407.793 204.567 406.825" stroke="#FC8A65" stroke-width="1.12716" stroke-linecap="round" stroke-linejoin="round"/>
<path fill-rule="evenodd" clip-rule="evenodd" d="M217.315 453.687C210.527 456.18 197.049 457.9 181.528 457.938C167.796 457.971 155.657 456.681 148.332 454.68C150.619 451.499 156.208 447.911 167.717 448.033C173.594 448.095 178.189 448.186 182.024 448.261C190.751 448.433 195.543 448.528 202.548 448.033C209.86 447.516 215.78 450.32 217.315 453.687Z" fill="#FA8339" fill-opacity="0.3"/>
<path fill-rule="evenodd" clip-rule="evenodd" d="M162.644 446.288C162.159 445.383 162.096 444.063 164.436 443.549C167.27 442.926 168.785 443.745 168.681 445.018C171.768 445.596 174.363 447.959 175.08 451.22C176.036 455.573 173.283 459.878 168.93 460.834C164.577 461.791 160.273 459.037 159.316 454.685C158.589 451.374 160.007 448.091 162.644 446.288Z" fill="#FFC44F"/>
<path d="M162.855 436.923C161.336 437.207 164.389 443.901 164.415 444.019L164.792 443.936C164.653 441.504 164.071 436.695 162.855 436.923Z" fill="#774928"/>
<path d="M164.759 443.956C164.765 443.757 163.896 439.351 167.268 438.165C167.909 439.17 168.304 441.734 164.759 443.956Z" fill="#56A75A"/>
<path fill-rule="evenodd" clip-rule="evenodd" d="M172.898 450.195C172.629 449.319 172.864 448.171 175.26 448.2C178.162 448.235 179.453 449.244 179.065 450.318C181.943 451.437 183.94 453.992 183.905 456.941C183.858 460.877 180.207 464.025 175.75 463.971C171.294 463.918 167.719 460.683 167.766 456.747C167.802 453.753 169.923 451.215 172.898 450.195Z" fill="#FA8339"/>
<path d="M175.21 442.184C173.666 442.123 175.134 448.494 175.133 448.601L175.519 448.606C175.931 446.485 176.445 442.233 175.21 442.184Z" fill="#774928"/>
<path d="M175.483 448.615C175.533 448.445 175.677 444.48 179.23 444.139C179.628 445.132 179.437 447.417 175.483 448.615Z" fill="#56A75A"/>
<path fill-rule="evenodd" clip-rule="evenodd" d="M181.749 446.231C181.481 445.355 181.716 444.207 184.111 444.236C187.013 444.271 188.305 445.28 187.917 446.354C190.795 447.473 192.792 450.028 192.756 452.977C192.709 456.913 189.058 460.061 184.602 460.008C180.145 459.954 176.571 456.72 176.618 452.783C176.654 449.789 178.775 447.251 181.749 446.231Z" fill="#FFC44F"/>
<path d="M184.062 438.219C182.517 438.158 183.986 444.53 183.984 444.637L184.371 444.641C184.782 442.521 185.297 438.268 184.062 438.219Z" fill="#774928"/>
<path d="M184.336 444.651C184.387 444.481 184.531 440.517 188.083 440.175C188.482 441.168 188.29 443.453 184.336 444.651Z" fill="#56A75A"/>
<path fill-rule="evenodd" clip-rule="evenodd" d="M193.091 447.586C192.901 446.578 193.237 445.3 195.623 445.513C198.514 445.772 199.712 447.009 199.23 448.191C202 449.671 203.764 452.706 203.467 456.031C203.07 460.47 199.149 463.747 194.71 463.35C190.271 462.953 186.994 459.032 187.392 454.593C187.694 451.217 190.034 448.513 193.091 447.586Z" fill="#FA8339"/>
<path d="M196.109 438.718C194.574 438.532 195.472 445.834 195.461 445.954L195.846 445.989C196.445 443.627 197.336 438.866 196.109 438.718Z" fill="#774928"/>
<path d="M195.811 445.998C195.876 445.81 196.372 441.347 199.945 441.231C200.254 442.381 199.86 444.945 195.811 445.998Z" fill="#56A75A"/>
<path d="M149.182 450.864C143.166 447.967 145.375 443.901 147.232 442.229C152.913 438.317 157.027 441.713 158.373 443.901C159.487 446.407 156.702 454.484 149.182 450.864Z" fill="#FFE2C4"/>
<path d="M213.316 450.573C218.966 447.852 216.891 444.033 215.147 442.463C209.811 438.788 205.947 441.978 204.683 444.033C203.636 446.387 206.252 453.974 213.316 450.573Z" fill="#FFE2C4"/>
<path fill-rule="evenodd" clip-rule="evenodd" d="M222.085 450.541C220.975 454.612 203.31 457.888 181.673 457.941C159.867 457.995 142.08 454.755 141.202 450.645C141.394 459.695 147.826 479.471 182.268 479.471C212.438 479.471 221.447 460.882 222.085 450.541ZM222.115 449.861C222.118 449.754 222.12 449.649 222.121 449.544L222.023 449.545C222.065 449.65 222.096 449.755 222.115 449.861Z" fill="#D39860"/>
<path fill-rule="evenodd" clip-rule="evenodd" d="M208.376 467.685C206.067 469.608 203.344 471.438 200.228 472.88L199.966 472.314C202.572 471.107 204.898 469.625 206.932 468.045C203.743 468.816 200.585 469.418 197.482 469.874C195.255 471.685 192.657 473.397 189.707 474.763L189.445 474.197C191.985 473.021 194.259 471.583 196.257 470.047C193.272 470.451 190.342 470.722 187.488 470.881C186.667 471.393 185.793 471.871 184.869 472.299L184.607 471.732C185.137 471.486 185.65 471.224 186.146 470.948C183.955 471.044 181.81 471.075 179.724 471.05C180.068 471.235 180.422 471.412 180.786 471.58L180.523 472.147C179.787 471.806 179.087 471.429 178.425 471.028C175.233 470.955 172.183 470.754 169.312 470.462C171.325 472.016 173.621 473.473 176.189 474.662L175.927 475.228C172.976 473.862 170.378 472.149 168.15 470.338C164.827 469.967 161.759 469.475 159.006 468.924C161.125 470.611 163.574 472.201 166.338 473.481L166.076 474.048C162.851 472.554 160.048 470.648 157.689 468.651C153.751 467.805 150.529 466.848 148.221 465.976L148.441 465.392C150.504 466.171 153.308 467.02 156.709 467.795C154.314 465.633 152.432 463.421 151.088 461.557C150.024 461.244 149.066 460.932 148.225 460.628L148.437 460.041C149.064 460.267 149.757 460.499 150.511 460.732C149.936 459.879 149.489 459.123 149.175 458.512L149.73 458.226C150.11 458.965 150.692 459.925 151.47 461.018C154.125 461.789 157.437 462.559 161.277 463.2C160.244 461.816 159.49 460.597 159.025 459.693L159.581 459.407C160.088 460.395 160.957 461.778 162.172 463.346C164.98 463.79 168.054 464.163 171.345 464.418C170.896 463.779 170.556 463.215 170.33 462.775L170.885 462.489C171.148 463 171.574 463.691 172.159 464.478C178.751 464.943 186.183 464.928 194.082 464.066C194.882 463.029 195.454 462.115 195.791 461.462L196.346 461.747C196.048 462.327 195.576 463.096 194.935 463.969C197.791 463.636 200.706 463.192 203.662 462.619C204.773 461.159 205.574 459.874 206.053 458.942L206.608 459.228C206.177 460.067 205.497 461.177 204.576 462.438C207.951 461.755 211.378 460.903 214.831 459.856C215.611 458.761 216.194 457.799 216.574 457.059L217.129 457.345C216.816 457.955 216.371 458.708 215.797 459.558C216.116 459.458 216.436 459.356 216.756 459.253L216.948 459.847C216.37 460.034 215.792 460.216 215.215 460.392C213.845 462.291 211.915 464.553 209.453 466.755C210.585 466.448 211.719 466.12 212.856 465.768L213.04 466.365C211.481 466.847 209.925 467.286 208.376 467.685ZM208.084 467.115C204.819 467.95 201.583 468.604 198.403 469.103C200.724 467.099 202.601 465.018 204.014 463.186C207.371 462.528 210.78 461.705 214.217 460.691C212.727 462.656 210.673 464.943 208.084 467.115ZM197.221 469.281C194.268 469.711 191.366 470.007 188.535 470.192C191.067 468.436 193.038 466.399 194.412 464.657C197.247 464.341 200.142 463.916 203.079 463.366C201.585 465.228 199.625 467.31 197.221 469.281ZM187.293 470.266C189.958 468.582 192.052 466.539 193.533 464.752C186.045 465.531 178.986 465.556 172.669 465.139C174.024 466.824 176.019 468.81 178.607 470.407C181.402 470.467 184.305 470.428 187.293 470.266ZM167.278 469.609C163.868 469.198 160.744 468.664 157.973 468.073C155.491 465.956 153.515 463.745 152.071 461.838C154.766 462.584 158.058 463.317 161.831 463.923C163.228 465.7 165.049 467.69 167.278 469.609ZM177.412 470.375C174.249 470.275 171.233 470.05 168.402 469.738C166.104 467.852 164.212 465.865 162.745 464.066C165.54 464.491 168.583 464.843 171.831 465.08C173.081 466.718 174.955 468.699 177.412 470.375Z" fill="#DEA56F"/>
<path d="M159.304 480.207C162.627 476.777 171.331 471.975 179.562 480.207H159.304Z" fill="#C3F075"/>
<path d="M177.651 480.795C181.835 476.477 192.792 470.432 203.155 480.795H177.651Z" fill="#C3F075"/>
<path d="M212.025 466.16C221.943 469.909 212.59 483.399 204.225 480.325C200.79 479.063 202.357 475.208 204.725 471.474C206.71 468.343 208.982 465.009 212.025 466.16Z" fill="#A7825F"/>
<path d="M150.954 464.855C157.626 462.333 165.069 476.7 158.754 479.02C150.388 482.094 141.035 468.604 150.954 464.855Z" fill="#A7825F"/>
</g>
<defs>
<filter id="filter0_f_72_7223" x="-54.8262" y="669.778" width="463.815" height="173.796" filterUnits="userSpaceOnUse" color-interpolation-filters="sRGB">
<feFlood flood-opacity="0" result="BackgroundImageFix"/>
<feBlend mode="normal" in="SourceGraphic" in2="BackgroundImageFix" result="shape"/>
<feGaussianBlur stdDeviation="7.5" result="effect1_foregroundBlur_72_7223"/>
</filter>
<filter id="filter1_f_72_7223" x="-55.9688" y="664.504" width="464.956" height="173.796" filterUnits="userSpaceOnUse" color-interpolation-filters="sRGB">
<feFlood flood-opacity="0" result="BackgroundImageFix"/>
<feBlend mode="normal" in="SourceGraphic" in2="BackgroundImageFix" result="shape"/>
<feGaussianBlur stdDeviation="7.5" result="effect1_foregroundBlur_72_7223"/>
</filter>
<linearGradient id="paint0_linear_72_7223" x1="180" y1="-54.6497" x2="180" y2="800" gradientUnits="userSpaceOnUse">
<stop stop-color="#E0F3FF"/>
<stop offset="1" stop-color="#FFE9C7"/>
</linearGradient>
<linearGradient id="paint1_linear_72_7223" x1="263.004" y1="733.955" x2="282.223" y2="779.888" gradientUnits="userSpaceOnUse">
<stop stop-color="#D29F6A"/>
<stop offset="1" stop-color="#6C5237"/>
</linearGradient>
<linearGradient id="paint2_linear_72_7223" x1="89.5982" y1="733.467" x2="69.8038" y2="775.952" gradientUnits="userSpaceOnUse">
<stop stop-color="#DCA770"/>
<stop offset="1" stop-color="#76593C"/>
</linearGradient>
<linearGradient id="paint3_linear_72_7223" x1="31.463" y1="414.732" x2="311.337" y2="600.584" gradientUnits="userSpaceOnUse">
<stop stop-color="#D0FF88"/>
<stop offset="1" stop-color="#D1FF91"/>
</linearGradient>
<clipPath id="clip0_72_7223">
<rect width="360" height="800" fill="white" transform="translate(0.75 0.5)"/>
</clipPath>
</defs>
</svg>
