<svg width="18" height="18" viewBox="0 0 18 18" fill="none" xmlns="http://www.w3.org/2000/svg">
<g id="Volume up">
<path id="Union" d="M11.5 4.30892C11.5 2.88198 9.82363 2.11487 8.7438 3.04768L5.96931 5.44442C5.66657 5.70595 5.27986 5.84985 4.8798 5.84985L3.58332 5.84986C2.43273 5.84987 1.5 6.78261 1.5 7.9332V10.6773C1.5 11.8279 2.43274 12.7607 3.58333 12.7607H4.87983C5.27989 12.7607 5.66661 12.9046 5.96935 13.1661L8.7438 15.5628C9.82363 16.4956 11.5 15.7285 11.5 14.3016V9.30525V4.30892Z" fill="#3C3C3C" stroke="#3C3C3C" stroke-width="1.25"/>
<path id="Rectangle 2" d="M14 11.8057C14.5233 11.1093 14.8333 10.2437 14.8333 9.30566C14.8333 8.36766 14.5233 7.50205 14 6.80566" stroke="#3C3C3C" stroke-width="1.25" stroke-linecap="round"/>
<path id="Rectangle 3" d="M15.6667 14.3057C16.7133 12.9129 17.3334 11.1817 17.3334 9.30566C17.3334 7.42965 16.7133 5.69843 15.6667 4.30566" stroke="#3C3C3C" stroke-width="1.25" stroke-linecap="round"/>
</g>
</svg>
