<svg width="71" height="73" viewBox="0 0 71 73" fill="none" xmlns="http://www.w3.org/2000/svg">
<path d="M38.9939 39.8826C28.7848 38.9061 17.1333 24.68 12.5838 17.689L6.92432 23.1263C7.36819 31.2935 21.3132 44.4321 28.2302 49.9805V66.9586H58.0805L64.8496 61.9651C64.7608 55.6621 58.8203 43.8033 55.8612 38.6618C54.4926 39.4756 49.2031 40.859 38.9939 39.8826Z" fill="#4B4D4F"/>
<path d="M52.9409 51.3134C54.54 53.5666 57.6072 59.2506 57.084 63.9606" stroke="#424242" stroke-linecap="round"/>
<path d="M64.3501 24.2097C64.3501 34.8191 55.0909 43.4805 43.5913 43.4805C32.0918 43.4805 22.8325 34.8191 22.8325 24.2097C22.8325 13.6003 32.0918 4.93896 43.5913 4.93896C55.0909 4.93896 64.3501 13.6003 64.3501 24.2097Z" fill="#4B4D4F" stroke="#424242"/>
<ellipse cx="43.5914" cy="26.5354" rx="16.2891" ry="14.5637" fill="#FBDFD3"/>
<ellipse cx="37.9589" cy="24.2097" rx="1.28162" ry="1.56641" fill="#524F55"/>
<ellipse cx="49.2235" cy="24.2097" rx="1.28162" ry="1.56641" fill="#524F55"/>
<path d="M48.7185 28.9998H38.4644C38.4644 31.8688 40.0051 33.5424 44.1759 33.5424C47.5125 33.5424 48.5945 30.514 48.7185 28.9998Z" fill="#E9726C"/>
<path d="M11.4281 12.9636C14.7844 12.5441 13.9337 17.3337 13.0888 19.7809C12.3605 21.7913 9.94244 25.3574 6.0967 23.5394C1.28951 21.2669 -1.98823 15.542 1.3768 12.1769C3.95789 9.59584 7.49508 13.5578 9.13035 16.1356C8.5588 15.072 8.40444 13.3415 11.4281 12.9636Z" fill="#FCDCD1"/>
<ellipse cx="43.5909" cy="8.37817" rx="10.3439" ry="8.37817" fill="#F04E4E"/>
<ellipse cx="43.591" cy="8.37817" rx="7.41135" ry="6.00293" fill="#49BAFF"/>
<path d="M44.2583 4.20226C45.6843 4.08482 48.6826 4.79229 49.2676 8.56164" stroke="#EEEEEE" stroke-linecap="round" stroke-linejoin="round"/>
<path d="M41.1975 65.8095C27.3231 60.0495 25.6012 65.225 23.2271 66.5764L23.994 69.7542L69.9062 72.384C70.4906 69.9733 70.4979 64.3192 65.8519 60.9881C60.0444 56.8243 51.6662 70.1557 41.1975 65.8095Z" fill="#42ACED"/>
</svg>
