<svg width="50" height="34" viewBox="0 0 50 34" fill="none" xmlns="http://www.w3.org/2000/svg">
<ellipse cx="30.3006" cy="32.2401" rx="17.7982" ry="1.74066" fill="#926552" fill-opacity="0.1"/>
<path d="M38.4545 32.2401H37.1177C36.7199 32.2401 36.3825 31.9478 36.3258 31.554L35.7014 27.2143L40.4518 25.578L39.2388 31.5981C39.1635 31.9715 38.8354 32.2401 38.4545 32.2401Z" fill="#F3B0B1"/>
<path d="M19.9631 32.2401H18.5045C18.1627 32.2401 17.8586 32.0229 17.7478 31.6995L16.21 27.2143L21.9603 25.578L20.7473 31.5981C20.6721 31.9715 20.344 32.2401 19.9631 32.2401Z" fill="#F3B0B1"/>
<path d="M8.45511 2.65278C10.6475 1.0915 13.3824 3.99537 14.4759 5.64247C16.227 7.67368 10.3236 12.3277 9.70079 10.0439C9.07795 7.76012 6.4205 8.7982 5.42395 7.76012C4.4274 6.72205 5.71461 4.60438 8.45511 2.65278Z" fill="#E68788"/>
<path d="M28.3239 0C8.52789 0 5.13837 13.0008 5.05044 14.5794C5.02611 15.0161 4.80969 16.0908 2.50909 15.9838C0.208488 15.8768 -0.0991214 16.3405 0.0346487 16.5857C0.190697 16.7864 0.409165 17.7628 0.0346487 20.0634C-0.433497 22.9391 3.08628 22.4395 4.04729 23.2735C7.52588 26.2924 8.19373 26.4168 14.1459 27.4868C18.4423 28.2592 19.2547 30.0997 19.8435 32.4064C19.9578 32.854 20.3567 33.1715 20.8187 33.1715H21.5737C22.0987 33.1715 22.5343 32.7655 22.5712 32.2419L22.7544 29.6468C22.8366 28.4826 23.8946 27.6379 25.0581 27.7289C29.1993 28.0527 33.7207 27.6689 36.6717 27.2621C37.7573 27.1125 38.7942 27.8169 39.0067 28.892L39.6008 31.8972C39.6934 32.3657 40.1043 32.7033 40.5818 32.7033H41.3926C41.908 32.7033 42.339 32.3116 42.3881 31.7986L42.9034 26.4168C44.776 25.1907 48.7619 21.6283 49.7249 17.1876C50.9287 11.6368 48.1199 0 28.3239 0Z" fill="#FFCBCC"/>
<ellipse cx="10.2747" cy="12.4902" rx="0.931468" ry="1.08603" fill="#493832"/>
<path d="M0.65475 19.9042C1.04465 18.5953 0.876054 17.4963 0.655571 17.0031C0.481499 16.4959 0.881015 16.5971 1.92537 16.5797C2.96972 16.5623 2.49976 19.1209 2.51716 20.3742C2.53109 21.3767 2.12843 21.5113 1.92537 21.4533C1.33937 21.4823 0.26485 21.2131 0.65475 19.9042Z" fill="#E68788"/>
<path d="M20.8857 5.76422C18.3209 5.00559 15.9637 7.76612 15.1057 9.24121C13.2995 12.4021 19.9825 13.5762 21.8791 13.5762C23.7756 13.5762 24.0917 6.7125 20.8857 5.76422Z" fill="#E68788"/>
</svg>
