<svg width="40" height="57" viewBox="0 0 40 57" fill="none" xmlns="http://www.w3.org/2000/svg">
<path d="M3.901 43.3332C2.74072 40.6268 9.35418 36.6184 12.8059 34.9525C15.4276 35.1828 21.7319 35.3547 25.9752 34.2C31.2794 32.7566 35.7917 30.6689 36.4455 33.8692C37.0993 37.0696 30.4948 40.0218 29.5507 40.8606C28.6065 41.6994 30.6918 45.2136 31.5284 50.075C32.365 54.9365 15.8524 54.445 11.7359 53.1683C8.44279 52.1469 9.39519 46.5451 10.283 43.8719C8.63914 44.82 5.06128 46.0397 3.901 43.3332Z" fill="#A7A7A7"/>
<mask id="mask0_91_5415" style="mask-type:alpha" maskUnits="userSpaceOnUse" x="3" y="32" width="34" height="23">
<path d="M3.901 43.3332C2.74072 40.6268 9.35418 36.6184 12.8059 34.9525C15.4276 35.1828 21.7319 35.3547 25.9752 34.2C31.2794 32.7566 35.7917 30.6689 36.4455 33.8692C37.0993 37.0696 30.4948 40.0218 29.5507 40.8606C28.6065 41.6994 30.6918 45.2136 31.5284 50.075C32.365 54.9365 15.8524 54.445 11.7359 53.1683C8.44279 52.1469 9.39519 46.5451 10.283 43.8719C8.63914 44.82 5.06128 46.0397 3.901 43.3332Z" fill="#A7A7A7"/>
</mask>
<g mask="url(#mask0_91_5415)">
<path d="M29.6118 32.8596L11.0269 34.6428C12.417 36.7931 15.5844 37.9468 20.139 37.6846C24.2584 37.4474 28.1703 34.5728 29.6118 32.8596Z" fill="#696969"/>
</g>
<path d="M18.1892 1.70539C8.97327 2.1012 6.89606 10.2034 7.00944 14.205L30.5342 13.3701C30.2591 9.31694 27.4051 1.30958 18.1892 1.70539Z" fill="#A7A7A7"/>
<path d="M5.30164 21.4609C5.33533 20.1038 6.25747 19.0586 6.71432 18.7056L32.0337 18.0511L32.3735 20.2252C35.3723 19.7566 36.7133 21.6503 36.3346 24.4323C36.1188 26.0177 34.3269 27.3186 32.8751 27.3663C33.2266 29.6154 28.0785 36.92 18.9658 37.1436C11.2469 37.3329 7.4598 32.1576 6.50849 29.1829C5.05278 29.2056 2.03123 28.5463 1.59068 25.7274C1.15012 22.9084 3.88109 21.7085 5.30164 21.4609Z" fill="#A7A7A7"/>
<path d="M2.60717 16.5058C2.59581 13.6813 6.39004 13.3546 8.28858 13.5443L29.8288 12.7891C31.1494 12.5571 33.9269 12.6709 34.4724 14.9819C35.0179 17.2929 33.0317 18.0488 31.9704 18.1378L8.38244 19.0594C6.46208 19.3851 2.61852 19.3304 2.60717 16.5058Z" fill="#C1C1C1"/>
<ellipse cx="14.3266" cy="25.103" rx="1.16838" ry="1.8017" fill="#6D6D6D"/>
<ellipse cx="24.1127" cy="25.103" rx="1.16838" ry="1.8017" fill="#6D6D6D"/>
<path d="M14.8359 29.2753C15.1636 29.951 16.4154 31.5011 19.8118 31.3024C21.845 31.1835 23.3432 30.2124 23.9275 29.2753" stroke="#6D6D6D" stroke-width="1.13293" stroke-linecap="round"/>
<circle cx="9.57456" cy="27.3264" r="0.851907" fill="#6D6D6D"/>
<ellipse cx="0.531658" cy="0.851907" rx="0.531658" ry="0.851907" transform="matrix(-1 0 0 1 28.3945 26.0527)" fill="#6D6D6D"/>
<ellipse cx="0.531658" cy="0.851907" rx="0.531658" ry="0.851907" transform="matrix(-1 0 0 1 27.543 8.4895)" fill="#6D6D6D"/>
<circle cx="11.6716" cy="28.8231" r="0.644739" fill="#6D6D6D"/>
<circle cx="0.43757" cy="0.43757" r="0.43757" transform="matrix(-1 0 0 1 26.9634 27.7629)" fill="#6D6D6D"/>
<circle cx="0.43757" cy="0.43757" r="0.43757" transform="matrix(-1 0 0 1 26.1118 10.1997)" fill="#6D6D6D"/>
<ellipse cx="9.93468" cy="29.9044" rx="0.72472" ry="0.851907" fill="#6D6D6D"/>
<ellipse cx="0.851907" cy="0.647666" rx="0.851907" ry="0.647666" transform="matrix(-1 0 0 1 29.2466 28.2006)" fill="#6D6D6D"/>
<ellipse cx="0.851907" cy="0.647666" rx="0.851907" ry="0.647666" transform="matrix(-1 0 0 1 28.3945 10.6373)" fill="#6D6D6D"/>
<path d="M11.0182 49.7353C7.75806 49.9738 6.59198 52.8409 6.41645 54.2447L22.5956 54.5027C19.6595 51.7146 20.0919 49.7353 20.5268 49.0397C18.6553 49.1766 16.8903 51.5312 16.2418 52.6914C14.8532 52.793 15.2129 50.0354 15.5664 48.6439C13.9363 48.7631 12.3188 51.6128 11.7139 53.0227C10.446 53.1154 10.7218 50.8697 11.0182 49.7353Z" fill="#7CCD5A"/>
<path d="M23.2247 49.9106C19.9646 50.1491 18.7985 53.0162 18.623 54.42L34.8022 54.678C31.8661 51.8899 32.2985 49.9106 32.7334 49.215C30.8618 49.3519 29.0969 51.7065 28.4483 52.8667C27.0598 52.9683 27.4195 50.2107 27.7729 48.8192C26.1428 48.9384 24.5254 51.788 23.9204 53.198C22.6526 53.2907 22.9284 51.045 23.2247 49.9106Z" fill="#7CCD5A"/>
</svg>
