<svg width="174" height="65" viewBox="0 0 174 65" fill="none" xmlns="http://www.w3.org/2000/svg">
<path fill-rule="evenodd" clip-rule="evenodd" d="M2.45326 46.1174C9.52974 38.5386 25.8193 21.5182 34.366 14.0675C36.5102 12.1983 38.2902 10.5277 39.8633 9.05128C46.1284 3.17129 49.112 0.371144 58.7459 0.371144C61.2011 0.371144 63.4859 0.280221 65.6117 0.195624C73.9216 -0.135071 79.803 -0.369123 83.9474 5.30221C87.4385 10.0796 97.0295 21.8355 109.763 28.7919C111.872 29.9445 114.392 29.8299 116.625 28.9397C120.108 27.5513 123.593 26.7056 126.933 26.7056C142.392 26.7056 157.547 36.6505 166.5 49C169.815 53.5722 166.264 59.152 160.617 59.152L130.433 60.9999L87.6832 64.0577C83.5663 64.3522 79.4336 64.3533 75.3165 64.0611L32.1884 61C17.8843 59.1013 -8.0884 55.6724 2.45326 46.1174Z" fill="#80D65B"/>
<mask id="mask0_91_5355" style="mask-type:alpha" maskUnits="userSpaceOnUse" x="0" y="0" width="167" height="64">
<path fill-rule="evenodd" clip-rule="evenodd" d="M2.45327 46.1174C9.52974 38.5386 25.8193 21.5182 34.366 14.0675C36.5102 12.1983 38.2902 10.5277 39.8633 9.05128C46.1284 3.17129 49.112 0.371144 58.7459 0.371144C61.2011 0.371144 63.4859 0.280222 65.6117 0.195624C73.9216 -0.135071 79.803 -0.369123 83.9474 5.30221C87.286 9.87077 96.2028 20.8212 108.111 27.8533C111.216 29.6869 114.995 29.4494 118.406 28.2784C121.292 27.2875 124.163 26.7056 126.933 26.7056C140.487 26.7056 154.687 37.8905 164.015 48.9706C169.471 55.451 164.347 63.7571 155.875 63.7571H130.433L32.1884 63.7573C17.8843 61.8586 -8.0884 55.6724 2.45327 46.1174Z" fill="#74BE71"/>
</mask>
<g mask="url(#mask0_91_5355)">
<path d="M105.313 26.1492C104.93 25.7824 105.092 25.8021 105.579 26.1551L129.097 26.6825C119.556 26.6822 113.778 33.2371 112.706 36.2704C111.112 30.9728 106.986 27.1745 105.579 26.1551L105.313 26.1492Z" fill="#6CA756"/>
</g>
<mask id="mask1_91_5355" style="mask-type:alpha" maskUnits="userSpaceOnUse" x="0" y="0" width="131" height="64">
<path d="M34.366 14.0676C25.8193 21.5183 9.52974 38.5387 2.45327 46.1175C-8.0884 55.6725 17.8843 61.8587 32.1884 63.7574H130.433V34.1737C107.914 35.0568 89.5507 12.886 83.9474 5.3023C77.9621 -2.79845 70.7744 0.95631 58.7459 0.371231C46.7072 -0.214344 45.0494 4.7541 34.366 14.0676Z" fill="#74BE71"/>
</mask>
<g mask="url(#mask1_91_5355)">
<path d="M41.811 15.5132C33.8516 18.0824 30.0517 14.5775 30.3835 12.5532L47.3071 -3.77319L80.8761 0.666468L100.069 12.5532C99.5049 14.6438 94.4154 17.4133 85.2274 15.2973C74.8316 12.9031 76.3753 23.1365 73.8572 24.3002C69.5196 26.3049 68.1317 18.3272 62.2088 18.3272C54.0456 18.3272 52.9803 25.2931 50.2812 24.286C45.5768 22.5305 48.6391 13.3092 41.811 15.5132Z" fill="#61AE41"/>
<path d="M63.4991 10.3529C60.1212 10.3905 57.8192 9.6084 56.2949 8.55775C54.0891 7.03727 55.9343 4.51094 58.6133 4.48112L68.3574 4.37264C71.5079 4.33757 73.217 7.36878 70.4138 8.8071C68.7013 9.68576 66.4327 10.3202 63.4991 10.3529Z" fill="#9CCFFF"/>
<path d="M53.1797 5.73511C53.8314 7.32365 56.7111 10.5007 63.0164 10.5007C69.3216 10.5007 73.1382 7.32365 74.2583 5.73511" stroke="#488643" stroke-width="2" stroke-linecap="round"/>
<path d="M36.1533 24.5841C31.7269 29.2213 22.0521 39.7919 18.7639 44.9772" stroke="#54953D" stroke-linecap="round"/>
<path d="M40.4964 31.4186C37.0771 34.9153 32.1873 42.879 30.6926 46.8986" stroke="#54953D" stroke-linecap="round"/>
<path d="M81.8749 25.5208C85.8189 28.5975 92.3513 35.1729 94.4312 38.9233" stroke="#54953D" stroke-linecap="round"/>
<path d="M80.634 37.8971C83.0475 40.3031 85.0976 44.2392 87.3342 48.1147" stroke="#54953D" stroke-linecap="round"/>
<path d="M50.5702 30.1919C48.3106 32.7429 46.5085 36.7985 44.5165 40.8052" stroke="#54953D" stroke-linecap="round"/>
<path d="M91.2809 22.7965C95.7984 26.4843 104.808 35.5862 106.976 39.2863" stroke="#54953D" stroke-linecap="round"/>
</g>
<path d="M142.041 34.9987C146.723 37.0909 153.842 44.7391 155.922 48.4895" stroke="#54953D" stroke-linecap="round"/>
<path d="M137.156 34.3454C139.095 35.8793 141.514 40.2993 142.041 42.299" stroke="#54953D" stroke-linecap="round"/>
</svg>
