<svg width="45" height="34" viewBox="0 0 45 34" fill="none" xmlns="http://www.w3.org/2000/svg">
<path fill-rule="evenodd" clip-rule="evenodd" d="M16.963 12.5482C17.6875 13.5093 18.7249 14.1111 19.8769 14.1111C22.0673 14.1111 23.843 11.9356 23.843 9.25191C23.843 6.56823 22.0673 4.39268 19.8769 4.39268C19.3584 4.39268 18.8631 4.51461 18.4091 4.73635C17.8204 2.95641 16.3958 1.70096 14.7319 1.70096C13.7687 1.70096 12.8857 2.12161 12.1987 2.82114C11.6326 1.18392 9.9911 0 8.05433 0C5.67893 0 3.74768 1.78091 3.69991 3.99478C1.55066 4.6353 0 6.45905 0 8.60886C0 11.2925 2.41643 13.4681 5.39724 13.4681C6.63596 13.4681 7.77721 13.0924 8.68809 12.4606C9.50827 13.5411 10.9343 14.2966 12.5904 14.3854C14.4292 14.4839 16.0739 13.7348 16.963 12.5482Z" fill="#65A84C"/>
<rect x="0.599609" y="8.22229" width="41.3727" height="24.1615" rx="2.16013" fill="#79777A"/>
<rect x="0.599609" y="29.741" width="44.3994" height="3.86401" rx="1.93201" fill="#79777A" fill-opacity="0.2"/>
<path d="M15.9098 14.0677C15.75 12.1829 18.8249 12.0045 20.3823 12.1509C23.8964 12.1509 24.8546 11.5919 25.0942 13.7882C25.3338 15.9844 16.1095 16.4237 15.9098 14.0677Z" fill="#5D5D5D"/>
<path d="M29.6845 26.9411C29.5247 25.0563 32.5996 24.8779 34.1569 25.0243C37.671 25.0243 38.6293 24.4653 38.8689 26.6616C39.1084 28.8579 29.8842 29.2971 29.6845 26.9411Z" fill="#5D5D5D"/>
<path d="M10.0524 26.1043C9.89262 24.2195 12.9675 24.0411 14.5249 24.1875C18.039 24.1875 18.9972 23.6285 19.2368 25.8248C19.4764 28.0211 10.2521 28.4603 10.0524 26.1043Z" fill="#5D5D5D"/>
<path d="M27.0909 18.2205C27.5701 15.7926 29.4468 16.5433 30.3253 17.2222C32.9607 19.8176 26.1724 23.6514 25.0543 21.7746C23.9362 19.8978 26.4919 21.2554 27.0909 18.2205Z" fill="#6F6C70"/>
<path d="M35.0354 16.3112C32.8853 15.0857 34.1932 13.5446 35.1159 12.9272C38.4139 11.2524 39.8934 18.9068 37.7587 19.371C35.624 19.8352 37.7229 17.8429 35.0354 16.3112Z" fill="#898989"/>
<path d="M6.84859 25.5975C8.6711 27.2717 7.05241 28.4822 6.01525 28.8783C2.42674 29.7752 2.69192 21.9836 4.87641 22.0073C7.0609 22.031 4.57046 23.5048 6.84859 25.5975Z" fill="#898989"/>
<path d="M8.20766 17.0576C10.6776 16.9041 10.4284 18.91 9.99509 19.9321C8.15452 23.1406 2.72165 17.5493 4.25274 15.991C5.78382 14.4327 5.12019 17.2494 8.20766 17.0576Z" fill="#6F6C70"/>
</svg>
