<svg width="52" height="51" viewBox="0 0 52 51" fill="none" xmlns="http://www.w3.org/2000/svg">
<path d="M32.852 29.8046C27.0695 33.7055 26.6182 43.515 27.1154 47.9321L35.3762 48.9648C33.1274 47.7256 34.0567 36.0191 34.8025 30.3208L32.852 29.8046Z" fill="#825A3F"/>
<path d="M28.2836 45.6489C25.8426 45.8275 24.9694 47.9743 24.838 49.0254L36.9525 49.2186C34.754 47.1309 35.0778 45.6489 35.4035 45.1281C34.0021 45.2306 32.6805 46.9937 32.1949 47.8624C31.1552 47.9384 31.4246 45.8736 31.6892 44.8317C30.4687 44.921 29.2575 47.0547 28.8046 48.1104C27.8552 48.1798 28.0617 46.4984 28.2836 45.6489Z" fill="#7CCD5A"/>
<path fill-rule="evenodd" clip-rule="evenodd" d="M27.1206 41.8844C27.4579 41.8363 27.8435 41.8051 28.2281 41.8147C28.9392 41.8324 29.504 41.9861 29.8142 42.2724C30.0666 42.5055 30.4603 42.4897 30.6933 42.2372C30.9264 41.9848 30.9107 41.5911 30.6582 41.3581C30.0056 40.7556 29.0532 40.5905 28.2591 40.5707C27.9223 40.5623 27.588 40.5796 27.2762 40.6118C27.2142 41.0399 27.1627 41.465 27.1206 41.8844ZM27.6826 38.4361C28.0887 38.3558 28.6264 38.2901 29.162 38.3034C29.8731 38.3211 30.4379 38.4748 30.748 38.7611C31.0005 38.9942 31.3941 38.9784 31.6272 38.726C31.8603 38.4735 31.8445 38.0798 31.5921 37.8468C30.9394 37.2443 29.9871 37.0792 29.1929 37.0594C28.7898 37.0494 28.3904 37.076 28.0287 37.1212C27.8999 37.556 27.7849 37.9953 27.6826 38.4361ZM28.6936 35.2328C29.103 35.1498 29.654 35.0804 30.2028 35.0941C30.9139 35.1118 31.4787 35.2655 31.7888 35.5518C32.0413 35.7849 32.435 35.7691 32.668 35.5167C32.9011 35.2642 32.8854 34.8705 32.6329 34.6375C31.9803 34.035 31.0279 33.8699 30.2338 33.8501C29.9238 33.8424 29.6159 33.8564 29.3258 33.8838C29.095 34.3202 28.8848 34.7712 28.6936 35.2328Z" fill="#A9734E"/>
<path d="M39.2093 41.2366C36.6393 40.0772 34.2152 32.5428 34.704 31.1682C32.9802 29.476 28.0832 32.1345 25.8502 33.6753C26.3203 32.0769 21.4233 33.7667 18.916 34.8114C22.1441 28.5746 28.044 26.937 30.5905 26.8978C30.3084 24.3906 26.0591 22.719 23.9698 22.1967C24.1578 21.4759 25.8501 21.3218 26.6728 21.3349C26.6728 20.5202 25.5237 19.8464 24.9492 19.6113C31.6561 16.9473 35.2655 21.4524 36.2319 24.0379C44.7566 19.6816 49.4995 23.7375 50.8054 26.3099C49.7398 24.9308 46.9922 25.5787 45.7517 26.075C47.256 26.2004 47.2926 27.4332 47.1228 28.0339C43.8634 26.3415 39.6794 27.9295 37.9948 28.9351C42.5706 29.1545 44.3152 35.6081 44.6155 38.8075L42.5 38.4549C43.9417 39.2698 43.3097 42.3464 42.8134 43.7829C41.5912 43.1247 40.5543 41.1058 40.1887 40.1787L39.2093 41.2366Z" fill="#278A3C"/>
<path fill-rule="evenodd" clip-rule="evenodd" d="M26.6439 27.7685C26.9026 27.6669 27.1572 27.5756 27.4063 27.4939C27.6675 27.697 27.9027 27.9678 28.0868 28.3232C28.167 28.478 28.1065 28.6685 27.9517 28.7487C27.7968 28.8289 27.6063 28.7684 27.5261 28.6136C27.3037 28.1842 26.9881 27.9218 26.6439 27.7685ZM23.7378 29.3076C23.9641 29.1528 24.1911 29.007 24.4179 28.8697C24.8708 29.0748 25.2956 29.4267 25.5898 29.9946C25.67 30.1495 25.6095 30.34 25.4547 30.4202C25.2999 30.5004 25.1094 30.4399 25.0292 30.2851C24.728 29.7038 24.2561 29.4284 23.7738 29.3157C23.7618 29.3129 23.7498 29.3102 23.7378 29.3076ZM35.391 35.1315C35.2824 34.806 35.1838 34.4862 35.0965 34.1773C35.1194 34.1364 35.1435 34.0959 35.1688 34.0556C35.5112 33.5101 36.0728 33.0221 36.9357 32.8943C37.1082 32.8688 37.2687 32.9879 37.2943 33.1603C37.3198 33.3328 37.2007 33.4934 37.0282 33.5189C36.3807 33.6148 35.9669 33.9717 35.7036 34.3912C35.5515 34.6336 35.4516 34.8947 35.391 35.1315ZM36.3565 37.5538C36.238 37.3019 36.1239 37.0453 36.0148 36.7867C36.032 36.7571 36.0497 36.7276 36.0681 36.6983C36.4105 36.1528 36.9722 35.6648 37.835 35.537C38.0075 35.5115 38.1681 35.6306 38.1936 35.8031C38.2192 35.9755 38.1 36.1361 37.9276 36.1616C37.28 36.2575 36.8663 36.6144 36.6029 37.034C36.4969 37.203 36.4162 37.3811 36.3565 37.5538ZM32.3028 19.6116C32.7031 19.8165 33.0736 20.052 33.4149 20.3086C33.54 20.7414 33.5553 21.2374 33.3748 21.7787C33.3197 21.9441 33.1409 22.0335 32.9755 21.9784C32.8101 21.9233 32.7207 21.7445 32.7758 21.5791C32.9828 20.958 32.8514 20.4277 32.5961 20.0032C32.5093 19.8589 32.4085 19.7278 32.3028 19.6116ZM30.2899 18.9267C30.5527 19.4504 30.6696 20.1031 30.4241 20.8398C30.3689 21.0052 30.1901 21.0946 30.0247 21.0394C29.8593 20.9843 29.7699 20.8055 29.825 20.6401C30.032 20.0191 29.9006 19.4887 29.6453 19.0643C29.5935 18.9783 29.5369 18.897 29.4771 18.8207C29.7568 18.8422 30.0276 18.878 30.2899 18.9267Z" fill="#3FC05A"/>
<path d="M22.1402 18.774C12.982 24.9523 12.2673 40.4881 13.0548 47.4838L26.1378 49.1192C22.5763 47.1568 24.0482 28.6164 25.2293 19.5916L22.1402 18.774Z" fill="#825A3F"/>
<path d="M15.5636 44.3518C12.3035 44.5903 11.1374 47.4574 10.9619 48.8611L27.141 49.1192C24.2049 46.331 24.6374 44.3518 25.0723 43.6562C23.2007 43.7931 21.4357 46.1477 20.7872 47.3079C19.3986 47.4095 19.7584 44.6518 20.1118 43.2603C18.4817 43.3796 16.8642 46.2292 16.2593 47.6391C14.9914 47.7319 15.2672 45.4862 15.5636 44.3518Z" fill="#7CCD5A"/>
<path fill-rule="evenodd" clip-rule="evenodd" d="M13.063 37.9056C13.5971 37.8294 14.2078 37.78 14.8168 37.7952C15.9431 37.8232 16.8376 38.0667 17.3288 38.5201C17.7286 38.8892 18.352 38.8643 18.7212 38.4644C19.0903 38.0645 19.0654 37.4411 18.6655 37.072C17.6319 36.1178 16.1236 35.8563 14.8659 35.825C14.3325 35.8117 13.8032 35.839 13.3093 35.8901C13.2113 36.5681 13.1297 37.2413 13.063 37.9056ZM13.953 32.4443C14.5962 32.3172 15.4477 32.213 16.2959 32.2341C17.4222 32.2622 18.3167 32.5056 18.8078 32.959C19.2077 33.3282 19.8311 33.3032 20.2002 32.9034C20.5694 32.5035 20.5445 31.8801 20.1446 31.5109C19.111 30.5568 17.6027 30.2953 16.345 30.264C15.7066 30.2481 15.0741 30.2903 14.5013 30.3618C14.2972 31.0505 14.115 31.7462 13.953 32.4443ZM15.5543 27.3709C16.2027 27.2396 17.0752 27.1297 17.9443 27.1513C19.0705 27.1794 19.965 27.4228 20.4562 27.8762C20.8561 28.2454 21.4795 28.2204 21.8486 27.8206C22.2177 27.4207 22.1928 26.7973 21.7929 26.4282C20.7593 25.474 19.2511 25.2125 17.9933 25.1812C17.5024 25.169 17.015 25.1911 16.5555 25.2345C16.1899 25.9257 15.857 26.6399 15.5543 27.3709Z" fill="#A9734E"/>
<path d="M32.209 36.8797C28.1389 35.0434 24.2996 23.1108 25.0737 20.9337C22.3437 18.2536 14.588 22.4641 11.0514 24.9043C11.7959 22.3728 4.04025 25.0491 0.0693359 26.7036C5.18189 16.826 14.526 14.2325 18.5589 14.1704C18.1122 10.1995 11.3823 7.55223 8.07326 6.72495C8.37108 5.58331 11.0513 5.33939 12.3542 5.36014C12.3542 4.06974 10.5343 3.00258 9.62438 2.6303C20.2466 -1.5888 25.9631 5.54618 27.4935 9.64105C40.9946 2.74158 48.5063 9.16515 50.5745 13.2394C48.8868 11.0551 44.5354 12.0812 42.5706 12.8673C44.9531 13.0658 45.011 15.0183 44.7422 15.9697C39.58 13.2893 32.9535 15.8044 30.2856 17.397C37.5325 17.7445 40.2956 27.9655 40.7713 33.0325L37.4208 32.4741C39.7041 33.7646 38.7031 38.6373 37.9172 40.9123C35.9813 39.8699 34.3392 36.6725 33.7601 35.2041L32.209 36.8797Z" fill="#2EA747"/>
<path fill-rule="evenodd" clip-rule="evenodd" d="M12.3084 15.5494C12.7182 15.3885 13.1214 15.2439 13.5158 15.1144C13.9295 15.4362 14.302 15.865 14.5936 16.4279C14.7206 16.6731 14.6248 16.9748 14.3796 17.1018C14.1344 17.2288 13.8326 17.133 13.7056 16.8878C13.3534 16.2078 12.8535 15.7921 12.3084 15.5494ZM7.70581 17.9869C8.06428 17.7418 8.42375 17.5109 8.78292 17.2934C9.50027 17.6182 10.173 18.1755 10.639 19.0751C10.766 19.3203 10.6702 19.622 10.425 19.749C10.1798 19.876 9.87805 19.7802 9.75103 19.535C9.27414 18.6144 8.52676 18.1783 7.76282 17.9998C7.74382 17.9953 7.72481 17.9911 7.70581 17.9869ZM26.1618 27.2106C25.9897 26.6951 25.8336 26.1885 25.6952 25.6994C25.7316 25.6347 25.7698 25.5704 25.8098 25.5067C26.352 24.6427 27.2416 23.8699 28.6082 23.6674C28.8813 23.627 29.1356 23.8156 29.1761 24.0888C29.2165 24.3619 29.0279 24.6162 28.7547 24.6567C27.7291 24.8086 27.0738 25.3737 26.6568 26.0382C26.416 26.422 26.2577 26.8355 26.1618 27.2106ZM27.6908 31.047C27.5032 30.648 27.3225 30.2416 27.1497 29.832C27.1769 29.7851 27.205 29.7385 27.2341 29.6921C27.7763 28.8281 28.6659 28.0553 30.0325 27.8529C30.3057 27.8124 30.5599 28.001 30.6004 28.2742C30.6408 28.5474 30.4522 28.8016 30.179 28.8421C29.1534 28.994 28.4982 29.5592 28.0811 30.2237C27.9131 30.4913 27.7853 30.7735 27.6908 31.047ZM21.2708 2.63074C21.9047 2.95525 22.4916 3.32826 23.032 3.73473C23.2301 4.42017 23.2543 5.20566 22.9686 6.06298C22.8813 6.32495 22.5981 6.46655 22.3362 6.37923C22.0742 6.29192 21.9326 6.00877 22.0199 5.74679C22.3477 4.7632 22.1396 3.92327 21.7352 3.25101C21.5977 3.02252 21.4382 2.81491 21.2708 2.63074ZM18.0827 1.54601C18.499 2.37554 18.6841 3.40922 18.2953 4.57592C18.2079 4.83789 17.9248 4.97949 17.6628 4.89217C17.4008 4.80486 17.2593 4.52171 17.3466 4.25973C17.6744 3.27613 17.4662 2.43621 17.0618 1.76395C16.9799 1.62776 16.8901 1.49899 16.7955 1.37817C17.2384 1.41229 17.6674 1.469 18.0827 1.54601Z" fill="#3FC05A"/>
</svg>
