<svg width="112" height="111" viewBox="0 0 112 111" fill="none" xmlns="http://www.w3.org/2000/svg">
<path d="M9.29258 79.4983C8.88881 83.8514 17.4934 83.1069 21.8462 82.1905C33.3088 81.037 44.2659 82.7122 51.6644 79.6696C59.063 76.6269 64.9425 80.7662 73.4281 75.6202C81.9136 70.4742 56.5952 75.0292 66.3133 68.5055C76.0314 61.9817 81.7532 46.096 76.6676 35.0646C71.5819 24.0333 82.394 26.5794 85.3639 18.9631C88.3339 11.3468 85.1418 11.7802 78.9777 16.4923C72.8135 21.2044 73.6824 18.3028 67.9486 15.0343C62.2148 11.7658 65.6316 22.5785 69.2624 27.6595C72.8933 32.7405 63.1744 37.9583 55.3417 43.0322C47.5091 48.106 45.3225 32.1429 40.3896 33.3006C35.4566 34.4584 38.0758 45.9236 32.927 50.0559C27.7783 54.1882 20.744 59.6254 16.6858 67.3135C12.6276 75.0017 9.79729 74.0568 9.29258 79.4983Z" fill="#D4E6FF"/>
<mask id="mask0_91_5613" style="mask-type:alpha" maskUnits="userSpaceOnUse" x="9" y="13" width="78" height="70">
<path d="M9.29258 79.4983C8.88881 83.8514 17.4934 83.1069 21.8462 82.1905C33.3088 81.037 44.2659 82.7122 51.6644 79.6696C59.063 76.627 64.9425 80.7662 73.4281 75.6202C81.9136 70.4742 56.5952 75.0292 66.3133 68.5055C76.0315 61.9817 81.7533 46.096 76.6676 35.0646C71.5819 24.0332 82.394 26.5794 85.3639 18.9631C88.3339 11.3468 85.1418 11.7802 78.9777 16.4923C72.8135 21.2044 73.6824 18.3028 67.9486 15.0343C62.2148 11.7658 65.6316 22.5784 69.2624 27.6595C72.8933 32.7405 63.1744 37.9583 55.3417 43.0322C47.5091 48.106 45.3225 32.1429 40.3896 33.3006C35.4566 34.4584 38.0758 45.9236 32.927 50.0559C27.7783 54.1882 20.744 59.6254 16.6858 67.3135C12.6276 75.0017 9.79729 74.0568 9.29258 79.4983Z" fill="#87B1ED"/>
</mask>
<g mask="url(#mask0_91_5613)">
<path d="M19.0541 75.1703C19.4009 74.9189 19.8863 74.9963 20.1381 75.3432C20.39 75.6901 20.3131 76.1752 19.9663 76.4266L19.0541 75.1703ZM9.06747 80.0114C10.6896 79.6186 15.0334 78.085 19.0541 75.1703L19.9663 76.4266C15.7593 79.4764 11.2236 81.0861 9.43448 81.5193L9.06747 80.0114Z" fill="#547DB6"/>
<path d="M40.222 77.9991C31.1113 78.7708 20.4925 82.0504 16.322 83.5938L22.1562 89.4279C38.8954 88.8823 72.4961 87.7782 72.9851 87.7259C73.474 87.6736 84.9255 67.5977 90.5901 57.5662L77.3105 34.2736C82.121 49.2937 68.8883 62.0447 65.3627 66.4601C61.8372 70.8755 51.6103 77.0345 40.222 77.9991Z" fill="#9DC5FF"/>
</g>
<circle cx="18.9428" cy="71.0739" r="0.775911" transform="rotate(-19.4421 18.9428 71.0739)" fill="#547DB6" stroke="#547DB6" stroke-width="1.44818"/>
<path d="M28.4848 79.6301C32.4456 80.5058 32.7137 83.7478 32.3527 85.2593L54.6307 82.2882C57.424 64.1217 39.6926 57.9702 37.8548 60.9947C37.7969 61.0901 37.8507 61.2061 37.9522 61.2527C42.7207 63.4426 44.0298 85.6513 37.7669 79.6301C31.4236 73.5317 23.5339 78.5354 28.4848 79.6301Z" fill="#42ACED"/>
<path d="M46.0205 63.7947C49.5707 65.2219 53.0205 70.0847 53.0205 77.7947" stroke="#A0DAFE" stroke-linecap="round"/>
</svg>
