<svg width="76" height="80" viewBox="0 0 76 80" fill="none" xmlns="http://www.w3.org/2000/svg">
<g clip-path="url(#clip0_27_1836)">
<path d="M14.2955 69.3714C16.8416 69.3714 18.9055 67.3074 18.9055 64.7614C18.9055 62.2153 16.8416 60.1514 14.2955 60.1514C11.7495 60.1514 9.68555 62.2153 9.68555 64.7614C9.68555 67.3074 11.7495 69.3714 14.2955 69.3714Z" fill="#AEE1FF"/>
<path d="M22.5655 63.0314C23.2117 63.0314 23.7355 62.5076 23.7355 61.8614C23.7355 61.2152 23.2117 60.6914 22.5655 60.6914C21.9193 60.6914 21.3955 61.2152 21.3955 61.8614C21.3955 62.5076 21.9193 63.0314 22.5655 63.0314Z" fill="#AEE1FF"/>
<path d="M19.4859 57.611C21.1096 57.611 22.4259 56.2947 22.4259 54.671C22.4259 53.0472 21.1096 51.731 19.4859 51.731C17.8622 51.731 16.5459 53.0472 16.5459 54.671C16.5459 56.2947 17.8622 57.611 19.4859 57.611Z" fill="#AEE1FF"/>
<path d="M71.5101 65.9893C71.5101 65.9893 82.9401 71.5393 67.8101 76.0793C52.6801 80.6193 32.0801 79.4593 32.0801 79.4593C32.0801 79.4593 85.2601 77.2393 71.5101 65.9893Z" fill="#77CCFF" fill-opacity="0.5"/>
<path d="M16.7105 77.0493C16.7105 77.0493 -12.9995 71.3993 6.81047 64.5493C6.81047 64.5493 -5.68953 68.6193 16.7105 77.0493Z" fill="#77CCFF" fill-opacity="0.5"/>
<path d="M3.5302 21.4692C3.8602 22.2392 4.1202 22.4492 5.3402 22.9092C5.5402 22.9892 5.7602 23.0692 6.0102 23.1592C6.2402 23.2392 6.4702 23.3192 6.7102 23.3992C11.0402 24.8292 17.3802 25.6292 18.7802 26.9792C20.8802 29.0092 33.1402 32.0192 33.1402 32.0192C33.1402 32.0192 50.5102 35.4492 54.7802 46.3092C57.5302 53.2892 52.3302 57.5692 47.8102 59.4592C45.3002 60.4992 43.0002 60.8092 42.3902 60.4192C30.3902 52.8292 26.4502 59.5592 26.4502 59.5592C26.4502 59.5592 29.7602 60.5092 30.7902 62.2892C31.8302 64.0792 34.2302 65.9492 34.2302 65.9492C34.2302 65.9492 32.5988 67.9506 32.4088 68.6306C31.3488 72.3606 27.4002 73.4092 27.9602 73.6892C28.5202 73.9692 42.5302 78.1792 43.9302 70.6092C45.3302 63.0492 49.9502 63.4692 49.9502 63.4692C91.6463 53.5152 68.3002 19.8992 68.3002 19.8992C68.4802 18.7492 73.5502 18.9592 73.6202 18.0492C73.9102 14.2692 62.7002 13.1792 62.7002 13.1792C58.6402 7.1592 39.5802 -3.2108 26.0002 0.9892C12.4102 5.1892 13.2502 15.9792 13.2502 15.9792H10.8002C4.0802 16.6092 2.3202 18.5992 3.5302 21.4692Z" fill="#E5ECF5"/>
<path d="M6.01074 23.1594C10.3207 24.7394 17.3007 25.5494 18.7807 26.9794C20.8807 29.0094 33.1407 32.0194 33.1407 32.0194C33.1407 32.0194 50.5107 35.4494 54.7807 46.3094C57.5307 53.2894 52.3307 57.5694 47.8107 59.4594C47.7107 59.8694 47.7807 60.2994 48.1107 60.7594C50.0007 63.3594 65.9807 55.9394 61.1407 42.6894C59.5907 38.4394 57.7607 35.5994 55.5407 33.5194C48.5207 26.9694 39.8407 25.3794 34.9507 24.6194C25.9207 23.2194 23.0107 25.2594 17.2307 23.3594C16.2507 23.0394 13.0607 21.8994 9.06074 22.4394C7.75074 22.6194 6.70074 22.9294 6.02074 23.1594H6.01074Z" fill="#FAFCFF"/>
<path d="M36.8907 1.43896C37.1307 1.63896 37.9707 2.33896 37.8007 2.90896C37.6807 3.31896 37.0907 3.48896 36.8907 3.53896C34.7907 4.09896 29.5407 4.79896 24.8407 8.01896C21.5507 10.279 18.7807 9.57896 17.4107 8.95896C16.8807 8.71896 16.7207 8.03896 17.0607 7.56896C18.9207 5.00896 21.9107 3.68896 23.7607 2.84896C28.9807 0.458959 35.1507 -0.0210412 36.8907 1.43896Z" fill="#EAF3FF"/>
<path d="M21.1706 14.579C21.1706 14.579 21.8306 14.139 22.1906 15.369C22.5506 16.599 21.5406 18.039 20.5306 16.839C19.9606 16.169 20.7706 14.629 21.1806 14.579H21.1706Z" fill="#2D3027"/>
<path d="M21.3982 15.4515C21.4089 15.2862 21.297 15.1443 21.1482 15.1346C20.9994 15.1249 20.8701 15.2511 20.8593 15.4165C20.8486 15.5818 20.9605 15.7237 21.1093 15.7333C21.2581 15.743 21.3874 15.6168 21.3982 15.4515Z" fill="white"/>
<path d="M5.34082 22.9094C5.54082 22.9894 5.76082 23.0694 6.01082 23.1594C6.24082 23.2394 6.47082 23.3194 6.71082 23.3994C8.64082 22.7794 11.8008 22.6394 14.6408 23.1594C16.4108 23.4794 17.6808 23.3094 18.4108 22.6594C19.0508 22.0994 19.0208 21.3994 19.0208 21.3194C19.0008 21.0494 18.7808 20.8294 18.4908 20.8494C18.2208 20.8694 18.0108 21.0994 18.0208 21.3694C18.0208 21.3994 18.0108 21.6894 17.7308 21.9294C17.4508 22.1594 16.6908 22.5094 14.8208 22.1694C11.1808 21.5194 7.29082 21.8394 5.34082 22.9094Z" fill="#2D3027"/>
<path d="M50.6404 28.3593C50.6404 28.3593 43.1804 32.8493 42.9404 41.2493C42.9204 41.9893 42.0704 42.4093 41.5004 41.9393C39.3504 40.1593 35.9804 35.1793 39.6204 22.2993" fill="#E5ECF5"/>
<path d="M35.9904 77.3989C35.6404 77.4189 35.5204 76.9389 35.8504 76.8089C41.7204 74.4289 59.2304 66.3189 48.8004 57.8989C47.5304 56.8689 46.0104 56.7889 44.8604 56.9389C44.5204 56.9789 44.3704 56.5289 44.6604 56.3689C48.9704 53.9089 60.8204 49.3289 66.9204 68.7389C67.9504 72.0089 73.8304 70.1689 70.8404 65.9989C70.8404 65.9989 85.2804 74.6789 35.9904 77.4089V77.3989Z" fill="#77CCFF"/>
<path d="M52.8145 56.4785C56.0814 56.0593 61.7913 57.7361 64.7399 68.6638" stroke="#ADE0FF" stroke-linecap="round"/>
</g>
<defs>
<clipPath id="clip0_27_1836">
<rect width="75.65" height="79.57" fill="white" transform="translate(0 0.019043)"/>
</clipPath>
</defs>
</svg>
