<svg width="39" height="41" viewBox="0 0 39 41" fill="none" xmlns="http://www.w3.org/2000/svg">
<path fill-rule="evenodd" clip-rule="evenodd" d="M21.8204 13.2681C21.4089 11.9262 21.7692 10.1663 25.4408 10.2103C29.8889 10.2638 31.8681 11.811 31.2739 13.4565C35.6848 15.1714 38.7458 19.0877 38.6915 23.6077C38.619 29.6414 33.023 34.4661 26.1923 34.3841C19.3617 34.3021 13.8831 29.3443 13.9556 23.3107C14.0107 18.7213 17.2614 14.8314 21.8204 13.2681Z" fill="#FFC44F"/>
<path d="M25.3645 0.988061C22.9977 0.894271 25.2484 10.6607 25.2464 10.8241L25.8383 10.8312C26.4693 7.58139 27.258 1.06309 25.3645 0.988061Z" fill="#774928"/>
<path d="M25.785 10.8462C25.8621 10.5857 26.0831 4.50945 31.5282 3.98655C32.139 5.50816 31.8453 9.01037 25.785 10.8462Z" fill="#56A75A"/>
<path fill-rule="evenodd" clip-rule="evenodd" d="M8.25401 19.3442C7.84249 18.0023 8.20275 16.2423 11.8744 16.2864C16.3225 16.3398 18.3017 17.8871 17.7074 19.5326C22.1184 21.2475 25.1794 25.1637 25.1251 29.6837C25.0526 35.7174 19.4566 40.5422 12.6259 40.4602C5.79529 40.3781 0.316701 35.4204 0.389153 29.3867C0.444262 24.7974 3.69501 20.9075 8.25401 19.3442Z" fill="#FA8339"/>
<path d="M11.7984 7.06472C9.43152 6.97093 11.6822 16.7373 11.6803 16.9007L12.2722 16.9078C12.9032 13.658 13.6918 7.13975 11.7984 7.06472Z" fill="#774928"/>
<path d="M12.2171 16.9229C12.2942 16.6624 12.5152 10.5861 17.9604 10.0632C18.5711 11.5848 18.2775 15.087 12.2171 16.9229Z" fill="#56A75A"/>
<ellipse cx="4.47656" cy="26.4467" rx="0.673096" ry="1.34613" fill="#E1722C"/>
<ellipse cx="0.673096" cy="1.34613" rx="0.673096" ry="1.34613" transform="matrix(-1 0 0 1 35.3379 18.587)" fill="#F3B436"/>
<ellipse cx="2.84497" cy="29.7256" rx="0.673096" ry="1.34613" fill="#E1722C"/>
<ellipse cx="0.673096" cy="1.34613" rx="0.673096" ry="1.34613" transform="matrix(-1 0 0 1 36.9695 21.866)" fill="#F3B436"/>
<ellipse cx="4.68066" cy="32.4179" rx="0.673096" ry="1.34613" fill="#E1722C"/>
<ellipse cx="0.673096" cy="1.34613" rx="0.673096" ry="1.34613" transform="matrix(-1 0 0 1 35.1338 24.5582)" fill="#F3B436"/>
</svg>
