<svg width="60" height="50" viewBox="0 0 60 50" fill="none" xmlns="http://www.w3.org/2000/svg">
<path d="M34.4472 46.482C34.3067 43.8886 34.0719 38.154 34.5275 34.9779C37.4815 35.8977 43.0393 37.7374 41.6384 37.7374C40.3709 37.7374 38.3997 43.2395 37.3282 46.7767C37.1417 47.3927 36.5775 47.8199 35.9339 47.8199H35.8708C35.1143 47.8199 34.4882 47.2374 34.4472 46.482Z" fill="#845A48"/>
<path d="M0.000244141 11.1965C0.000269637 8.87476 5.35839 6.01477 8.46743 5.243C9.36746 5.00735 11.4478 4.42157 12.5687 3.96363C13.9699 3.39121 13.6654 -0.199454 15.3826 0.00869991C16.7565 0.175223 17.4048 2.54899 17.5572 3.71506C20.4575 4.22687 24.2392 15.3019 25.7675 20.7754C32.0941 20.4911 45.1097 20.2849 46.5599 21.7351C48.3725 23.5477 43.9393 45.2784 43.2375 46.6002C42.4016 48.175 41.7767 48.0388 40.802 47.7521C39.5484 47.3834 40.2688 40.075 39.949 37.6225C39.7021 35.7301 26.7366 36.3311 19.5984 36.9183C19.1595 36.9544 18.8173 37.3116 18.7872 37.751C18.1569 46.9521 16.7155 47.7521 14.8916 47.7521C13.1652 47.7521 12.0645 26.5773 12.568 15.9746C11.988 16.2092 10.7654 16.6986 8.46743 17.6131C1.98477 20.1929 0.000203089 14.935 0.000244141 11.1965Z" fill="#926552"/>
<path fill-rule="evenodd" clip-rule="evenodd" d="M17.6597 45.2738C16.9344 47.4665 15.9812 47.7521 14.8913 47.7521C14.5311 47.7521 14.198 46.8298 13.9011 45.2738H17.6597ZM43.6438 45.2738C43.4647 45.9719 43.3231 46.4386 43.2373 46.6002C42.4014 48.175 41.7765 48.0388 40.8018 47.7521C40.3579 47.6216 40.1615 46.6209 40.0788 45.2738H43.6438Z" fill="#5C4236"/>
<path fill-rule="evenodd" clip-rule="evenodd" d="M34.387 45.2738C34.4074 45.7245 34.4281 46.1319 34.4471 46.482C34.4881 47.2374 35.1142 47.8199 35.8707 47.8199H35.9338C36.5774 47.8199 37.1415 47.3927 37.3281 46.7767C37.4711 46.3048 37.63 45.7979 37.8012 45.2738H34.387Z" fill="#5C4236"/>
<path d="M26.0471 26.9982C25.6822 24.8642 26.4079 22.6613 27.0997 21.2819C27.3716 20.7398 27.9425 20.4385 28.5489 20.4395C34.3017 20.4489 43.9014 20.5428 42.7974 20.8648C41.8454 21.1425 41.475 24.2123 41.3703 26.5476C41.3347 27.342 40.6918 27.9868 39.8965 27.9868H27.3228C26.7109 27.9868 26.1503 27.6014 26.0471 26.9982Z" fill="#E68C40"/>
<path d="M27.6833 25.4912C27.4784 23.9332 27.9674 22.3528 28.4719 21.2881C28.7316 20.7401 29.3048 20.4385 29.9113 20.4397C34.5369 20.449 42.001 20.5257 41.1291 20.78C40.405 20.9912 40.101 23.2195 40.0004 25.0452C39.9567 25.8393 39.3143 26.484 38.5191 26.484H28.9388C28.3269 26.484 27.7631 26.0978 27.6833 25.4912Z" fill="#E69E40"/>
<path fill-rule="evenodd" clip-rule="evenodd" d="M1.98411 8.39771C0.810578 9.30905 9.91714e-06 10.2935 6.36871e-10 11.1965C-3.59437e-05 14.4699 1.52142 18.9081 6.25156 18.23L1.98411 8.39771Z" fill="#5C4236"/>
<path d="M10.1448 29.6905C11.312 29.2743 13.9265 27.8485 15.0428 26.9275C15.1266 29.7324 14.7331 35.3589 12.4892 35.4259C9.68428 35.5096 8.65948 36.9754 6.62821 39.1937C4.79982 41.1904 2.70951 41.8158 2.10688 40.324C1.08124 37.785 6.62842 34.2132 7.21424 32.2861C7.86141 30.1572 9.21702 30.0213 10.1448 29.6905Z" fill="#906451"/>
<path fill-rule="evenodd" clip-rule="evenodd" d="M6.31332 39.5214C4.56628 41.2548 2.67494 41.7309 2.10663 40.324C1.68854 39.289 2.36267 38.0824 3.34772 36.8855L6.31332 39.5214Z" fill="#5C4236"/>
<circle cx="10.8792" cy="8.16401" r="0.931468" fill="#5C4236"/>
<ellipse cx="11.811" cy="12.2611" rx="1.6528" ry="0.705599" fill="#EA7F7B"/>
<path d="M44.999 23.3424C43.8649 22.1867 44.4173 21.5342 44.8352 21.3524C46.1218 20.5999 48.3053 21.8999 51.154 22.3494C53.4329 22.7089 54.7937 27.8781 55.1893 30.4177C55.9345 31.5261 57.4282 33.9241 57.4414 34.6481C57.4579 35.5531 57.3299 36.7007 56.2504 36.4773C55.1709 36.2539 55.2121 39.0207 53.9717 38.1349C52.7313 37.2491 52.4916 38.4322 51.2786 38.7186C50.3082 38.9477 49.2423 38.8397 48.8307 38.757C48.141 38.7544 47.8137 36.7918 48.7891 32.9644C49.7645 29.1371 48.9741 29.4371 48.7012 26.793C48.4283 24.1488 46.4166 24.7869 44.999 23.3424Z" fill="#5C4236"/>
<ellipse cx="29.8016" cy="48.2578" rx="17.7982" ry="1.74066" fill="#926552" fill-opacity="0.1"/>
</svg>
