<svg width="78" height="89" viewBox="0 0 78 89" fill="none" xmlns="http://www.w3.org/2000/svg">
<path d="M40.6592 3.70608C58.2586 2.51513 61.4457 8.28238 60.8393 11.3149C60.8393 18.9237 63.1549 23.3897 66.6285 26.5325C70.1021 29.6753 69.4404 60.2759 69.9367 67.3884C70.4329 74.501 19.3217 70.6966 14.8556 71.1928C10.3896 71.689 13.0361 61.7645 12.3745 53.8249C11.7128 45.8853 16.1789 44.7274 15.8481 34.8029C15.5173 24.8784 19.8178 22.7281 23.9531 18.5929C28.0883 14.4577 18.66 5.19478 40.6592 3.70608Z" fill="#A7A7A7"/>
<path d="M42.9087 1.0839C40.2713 0.813264 39.2425 1.08393 37.4749 1.0839C25.5542 2.01782 27.161 33.1365 26.639 38.5647C26.1171 43.9928 25.4908 63.3046 24.8644 66.645C24.2381 69.9854 21.6284 71.5512 21.6284 72.1775C21.6284 72.8039 41.3183 73.639 43.2367 71.5512C45.1551 69.4634 42.9087 52.7712 41.3183 42.8313C39.7279 32.8915 42.9087 25.8673 47.5473 23.4817C52.1858 21.0962 51.6878 11.9531 51.9208 6.9153C52.0521 4.07746 53.7989 4.9541 53.0395 3.79858C52.4704 2.93257 47.1542 1.51955 42.9087 1.0839Z" fill="#5DCFFF"/>
<path d="M47.3197 7.41467C47.8759 9.93929 48.6547 15.4507 47.3197 17.2992C45.6508 19.61 40.1309 21.2788 38.8472 29.7513C37.5634 38.2239 38.8472 43.7438 38.8472 49.1355C38.8472 54.5271 41.1575 56.9661 40.0023 60.9456" stroke="#7DD8FF" stroke-width="0.828256" stroke-linecap="round"/>
<path d="M32.5303 18.9552C31.6574 20.7007 29.9864 25.7128 30.2857 31.7972C30.6599 39.4027 30.2857 46.0108 30.2857 52.1201C30.2857 58.2294 27.7927 59.1022 29.0392 63.3413" stroke="#7DD8FF" stroke-width="0.828256" stroke-linecap="round"/>
<path d="M36.8938 6.73657C37.351 8.399 37.9911 12.3971 36.8938 15.0902C35.5223 18.4565 34.7742 18.4565 34.7742 22.4463" stroke="#7DD8FF" stroke-width="0.828256" stroke-linecap="round"/>
<path d="M3.25593 72.0731C0.249536 68.2316 10.1455 66.9233 15.4693 66.7493C33.1804 66.0534 69.8344 65.9768 74.7616 71.238C80.9204 77.8144 74.7616 79.7978 55.5542 85.2259C36.3469 90.6541 3.25593 88.4619 0.750622 83.7645C-1.75469 79.067 6.0744 79.3802 8.37093 78.3363C10.6675 77.2925 7.01393 76.8749 3.25593 72.0731Z" fill="#5DCFFF"/>
<path d="M13.7393 69.1257C10.8861 69.2997 6.18163 70.2948 10.1901 72.8837" stroke="#7DD8FF" stroke-width="0.828256" stroke-linecap="round"/>
<path d="M33.6653 85.416C40.9397 84.7509 56.8852 82.7971 62.4718 80.3031C69.4551 77.1855 75.815 74.1927 71.4504 72.8209" stroke="#7DD8FF" stroke-width="0.828256" stroke-linecap="round"/>
<path d="M58.4304 25.4164C59.0673 26.8496 60.5321 31.412 61.2966 38.1958C62.061 44.9796 61.6151 58.6189 61.2966 64.5906" stroke="#7E7E7E" stroke-width="0.828256" stroke-linecap="round"/>
<path d="M55.4443 16.8172C55.4443 20.0419 51.6225 29.3577 48.9946 30.9103C45.8004 32.7975 45.8895 34.3739 46.7255 40.1067" stroke="#7E7E7E" stroke-width="0.828256" stroke-linecap="round"/>
<path d="M20.4329 34.1542C20.4329 37.3789 21.4853 45.1137 18.8574 46.6664C15.6632 48.5536 16.1492 56.7833 16.9852 62.5161" stroke="#7E7E7E" stroke-width="0.828256" stroke-linecap="round"/>
<path d="M24.5708 66.0178C24.4564 66.9659 25.0724 68.2216 26.0053 68.5325C25.8628 68.8176 25.755 69.4008 25.9275 69.6646C26.2854 70.212 27.2234 69.7639 27.6991 69.6041C27.8252 69.5617 28.8674 69.033 28.9435 69.1547C29.1183 69.4345 29.4748 69.5805 29.786 69.6171C30.2214 69.6683 30.6441 69.6764 31.078 69.6041C31.3744 69.5547 31.7192 69.3967 32.0199 69.3967C32.045 69.3967 32.1835 69.7956 32.2964 69.8504C33.6215 70.4929 34.9075 69.8189 35.8222 68.9041C35.9443 68.7821 36.2473 68.2779 36.3839 68.4721C36.7077 68.9322 37.1261 69.2403 37.6543 69.4486C38.3885 69.738 39.1145 69.3655 39.8233 69.2498C40.1988 69.1885 40.6294 69.2973 41.0072 69.306C41.5909 69.3194 42.1897 69.3294 42.7701 69.2584C43.8002 69.1326 44.2309 68.4772 44.2781 67.5085C44.2917 67.2305 44.274 67.1846 44.5158 67.3054C45.1937 67.6444 46.7594 67.0749 46.9181 66.2814C47.1418 65.1629 45.2992 64.2174 44.4423 64.0691C43.6824 63.9376 42.977 64.3166 42.2646 64.5228C41.9756 64.6065 41.7799 64.7078 41.5603 64.4882C40.8725 63.8005 39.3537 63.9202 38.6049 64.4278C38.3063 64.6301 38.0055 64.8649 37.7666 65.1364C37.7166 65.1932 37.6129 65.387 37.516 65.387C37.3167 65.387 36.8309 64.8256 36.695 64.7216C35.9863 64.1787 35.3267 63.5807 34.4266 63.408C33.5114 63.2325 32.1735 63.3058 31.3156 63.7062C31.171 63.7737 29.7918 64.7716 29.7385 64.6784C29.6384 64.5033 29.2573 64.3808 29.0904 64.2981C28.2569 63.8855 27.4586 63.642 26.5238 63.6327C26.0429 63.628 25.658 63.5998 25.301 63.9568C24.7018 64.5559 24.669 65.2042 24.5708 66.0178Z" fill="#7DD8FF"/>
</svg>
