<svg width="83" height="89" viewBox="0 0 83 89" fill="none" xmlns="http://www.w3.org/2000/svg">
<path d="M11.3141 64.5035C14.5183 60.8414 17.9897 61.4518 19.3249 62.2148C33.6298 59.5827 62.6059 56.7675 64.0707 66.5635C65.9018 78.8085 19.3249 77.7786 8.79663 74.1165C-1.7316 70.4544 7.30892 69.0811 11.3141 64.5035Z" fill="#00ADEF"/>
<path d="M31.0883 13.4218L26.7281 31.9328L24.8457 55.7623L22.9632 60.7319L14.0275 61.567L10.1299 61.9295C10.1299 61.9295 16.9725 42.8174 18.5984 23.6226C18.6442 23.1041 18.7908 15.9961 25.8487 13.9449C27.2868 13.5273 29.0135 13.3208 31.0883 13.4218Z" fill="#A7A7A7"/>
<path d="M33.2597 12.3202C33.2597 12.3202 27.356 14.0364 27.1865 21.5758C27.0171 29.1151 25.5606 42.2298 23.2522 52.9445C20.9439 63.6593 22.5698 63.7418 22.5698 63.7418L53.1922 63.3151L53.7051 45.1436L54.644 13.004C54.644 13.004 47.032 12.5772 42.1542 11.8889C37.2764 11.2006 35.2245 11.8017 33.2597 12.3156V12.3202Z" fill="#00ADEF"/>
<mask id="mask0_22_2001" style="mask-type:luminance" maskUnits="userSpaceOnUse" x="22" y="11" width="33" height="53">
<path d="M33.2597 12.3202C33.2597 12.3202 27.356 14.0364 27.1865 21.5758C27.0171 29.1151 25.5606 42.2298 23.2522 52.9445C20.9439 63.6593 22.5698 63.7418 22.5698 63.7418L53.1922 63.3151L53.7051 45.1436L54.644 13.004C54.644 13.004 47.032 12.5772 42.1542 11.8889C37.2764 11.2006 35.2245 11.8017 33.2597 12.3156V12.3202Z" fill="white"/>
</mask>
<g mask="url(#mask0_22_2001)">
<path d="M29.7514 12.3339C29.7514 12.3339 25.1163 14.8211 25.1026 19.965C25.0889 25.109 27.4797 17.8267 29.0231 19.4511C29.4308 19.8779 29.7743 27.1327 29.9437 27.486C31.7208 31.1708 30.4338 18.6802 33.5574 17.868C34.3681 17.611 30.9926 23.48 33.8551 29.9961C36.7177 36.5121 33.6856 18.5104 37.3176 18.0424C40.9496 17.5743 34.5375 28.7112 38.7741 33.4285C43.0107 38.1457 38.2199 18.6894 42.4519 18.0882C46.6839 17.4871 39.9283 29.785 43.4366 30.5605C46.945 31.336 43.8626 18.7766 46.6885 18.6481C49.5144 18.5196 46.4824 31.5058 49.5373 31.2901C52.5922 31.0744 49.4961 18.437 51.1815 19.0335C55.757 20.6625 56.1417 12.5634 56.1417 12.5634L34.8444 10.1084L29.7559 12.3339H29.7514Z" fill="#00A5ED"/>
</g>
<path d="M82.7473 51.2403C82.0695 74.1244 64.1981 62.859 55.2303 61.0786C52.2349 60.482 50.2426 59.8947 50.2426 59.8947C50.2426 59.8947 49.2167 28.0992 49.6426 19.7889C50.0685 11.4741 57.8547 13.617 57.8547 13.617C57.9188 13.617 57.9783 13.617 58.0379 13.617C69.9781 13.9382 67.8804 11.988 71.027 12.8415C79.61 15.1634 83.2832 33.2294 82.7473 51.2357V51.2403Z" fill="#A7A7A7"/>
<path d="M53.7509 21.6404C53.7509 31.9238 54.6028 33.3784 55.2898 42.2944C55.8074 49.0399 55.441 57.217 55.2303 60.7871C52.2349 60.1905 50.2426 59.6032 50.2426 59.6032C50.2426 59.6032 49.2167 27.8077 49.6426 19.4974C50.0685 11.1826 57.8547 13.3256 57.8547 13.3256C57.9188 13.3256 57.9783 13.3256 58.0379 13.3256C55.8303 14.4498 53.7509 16.7947 53.7509 21.6358V21.6404Z" fill="#B2B2B2"/>
<path d="M25.8487 13.9448C24.2182 15.3352 22.2991 17.6755 22.0106 21.1216C21.5114 27.1283 23.6869 35.6175 14.0275 61.5669L10.1299 61.9295C10.1299 61.9295 16.9725 42.8173 18.5984 23.6225C18.6442 23.104 18.7908 15.996 25.8487 13.9448Z" fill="#B6B6B6"/>
<path d="M11.9067 64.1689C11.9067 64.1689 3.01217 63.1594 7.28538 53.7295C11.5586 44.2996 10.3632 42.5008 14.3845 42.7577C18.4058 43.0147 20.9706 41.817 24.3095 52.183C27.6484 62.5491 19.8623 64.9169 11.9067 64.1643V64.1689Z" fill="#8B8B8B"/>
<path d="M4.62004 65.6558C4.62004 65.6558 -0.596665 66.3395 1.36819 61.5855C3.33304 56.8316 7.69784 54.9869 9.49323 56.3589C11.2886 57.731 15.9511 62.6593 12.0169 65.229C8.08257 67.7987 8.50852 65.7429 4.61546 65.6558H4.62004Z" fill="#818286"/>
<path d="M15.6173 60.2729C15.6173 60.2729 15.4021 57.6573 18.8234 57.3177C22.2447 56.9782 20.2798 60.2316 21.947 59.2037C23.6141 58.1758 23.2706 57.1021 26.2248 58.3915C29.1789 59.681 28.3224 55.2207 28.8354 56.2073C29.3484 57.1938 31.4873 60.8373 31.6155 58.9054C31.7438 56.9736 31.959 54.3626 32.6002 55.8218C33.2414 57.281 37.1757 58.0519 37.5605 56.7625C37.9452 55.4731 38.8429 53.0777 40.0841 54.1469C41.3253 55.2161 38.7604 55.7759 40.3406 57.6619C41.9207 59.5479 45.516 59.2496 44.916 58.4328C44.3161 57.616 42.9054 54.1882 44.4443 55.262C45.9832 56.3357 48.8091 59.5892 52.1434 57.4462C55.4777 55.3033 58.386 61.6036 58.386 61.6036C58.386 61.6036 52.0152 68.0325 49.5328 67.5598C47.0504 67.0872 46.7939 66.3668 47.1374 67.5828C47.4809 68.7988 47.2656 70.772 46.7114 69.2715C46.1572 67.7709 45.6443 65.3297 43.9725 66.3576C42.3008 67.3855 40.9772 65.5867 39.6535 66.6146C38.3299 67.6424 36.4475 65.3297 34.2216 66.3163C31.9957 67.3029 30.7132 71.1574 28.5744 69.6156C26.4355 68.0738 28.1484 66.9174 24.8966 66.3163C21.6447 65.7152 23.5271 66.9587 20.3211 66.9174C17.115 66.8761 18.6539 66.3622 16.3868 66.4907C14.1196 66.6192 17.115 65.6785 15.2326 64.8204C13.3502 63.9623 11.3853 63.5814 14.4219 61.9294C17.4585 60.2775 15.6173 60.2775 15.6173 60.2775V60.2729Z" fill="#E0F5FF"/>
<path d="M58.0333 69.2667C58.0333 69.2667 45.1999 69.8908 52.6242 63.0122C60.0485 56.1337 71.3521 53.7705 74.4757 57.8682C77.5993 61.9706 82.871 60.1626 81.9687 67.3211C81.0665 74.4795 74.3383 72.9515 67.1247 71.6299C59.9111 70.3083 61.647 69.2667 58.0379 69.2667H58.0333Z" fill="#8B8B8B"/>
<path d="M53.1459 72.3826C53.1459 72.3826 50.4528 69.8129 49.5552 71.4419C48.6575 73.0709 38.7782 74.4429 38.8195 69.9001C38.8607 65.3572 42.282 65.4857 44.3797 64.1136C46.4773 62.7416 49.2987 66.9862 49.8116 65.784C50.3246 64.5817 51.3963 59.5708 57.3413 59.6121C63.2862 59.6534 67.0098 63.384 66.7487 67.624C66.4877 71.8641 61.2298 75.168 53.1459 72.3826Z" fill="#818286"/>
<path d="M49.5369 57.1251C50.2401 57.1251 50.8102 56.5539 50.8102 55.8494C50.8102 55.1449 50.2401 54.5737 49.5369 54.5737C48.8337 54.5737 48.2637 55.1449 48.2637 55.8494C48.2637 56.5539 48.8337 57.1251 49.5369 57.1251Z" fill="#E0F5FF"/>
<path d="M58.7058 59.791C59.3609 59.791 59.892 59.2589 59.892 58.6026C59.892 57.9462 59.3609 57.4141 58.7058 57.4141C58.0506 57.4141 57.5195 57.9462 57.5195 58.6026C57.5195 59.2589 58.0506 59.791 58.7058 59.791Z" fill="#E0F5FF"/>
<path d="M56.7416 62.0119C57.1463 62.0119 57.4744 61.6831 57.4744 61.2777C57.4744 60.8722 57.1463 60.5435 56.7416 60.5435C56.3369 60.5435 56.0088 60.8722 56.0088 61.2777C56.0088 61.6831 56.3369 62.0119 56.7416 62.0119Z" fill="#E0F5FF"/>
<path d="M35.9612 56.6247C36.538 56.6247 37.0055 56.1563 37.0055 55.5785C37.0055 55.0006 36.538 54.5322 35.9612 54.5322C35.3845 54.5322 34.917 55.0006 34.917 55.5785C34.917 56.1563 35.3845 56.6247 35.9612 56.6247Z" fill="#E0F5FF"/>
<path d="M23.9295 56.6433C24.3064 56.6433 24.6119 56.3372 24.6119 55.9596C24.6119 55.582 24.3064 55.2759 23.9295 55.2759C23.5526 55.2759 23.2471 55.582 23.2471 55.9596C23.2471 56.3372 23.5526 56.6433 23.9295 56.6433Z" fill="#E0F5FF"/>
<path d="M27.9557 44.6479C27.9557 44.6479 27.6122 49.6956 26.8428 53.8805" stroke="#5FCAFF" stroke-linecap="round" stroke-linejoin="round"/>
<path d="M31.212 39.0225C31.212 39.0225 31.1341 44.7768 30.4746 49.572" stroke="#5FCAFF" stroke-linecap="round" stroke-linejoin="round"/>
<path d="M33.4659 42.7393C33.4659 42.7393 33.388 48.4936 32.7285 53.2888" stroke="#5FCAFF" stroke-linecap="round" stroke-linejoin="round"/>
<path d="M36.7032 33.7451C36.7032 33.7451 36.6254 39.4994 35.9658 44.2947" stroke="#5FCAFF" stroke-linecap="round" stroke-linejoin="round"/>
<path d="M43.2765 42.7393C43.2765 42.7393 43.1986 48.4936 42.5391 53.2888" stroke="#5FCAFF" stroke-linecap="round" stroke-linejoin="round"/>
<path d="M46.3585 36.3516C46.3585 36.3516 46.2806 42.1059 45.6211 46.9011" stroke="#5FCAFF" stroke-linecap="round" stroke-linejoin="round"/>
</svg>
