<svg width="39" height="24" viewBox="0 0 39 24" fill="none" xmlns="http://www.w3.org/2000/svg">
<path d="M37.998 3.29438C32.1415 3.14573 31.0736 6.65126 31.2718 8.4226L33.8359 10.0577C38.7709 10.0577 38.6669 5.54881 37.998 3.29438Z" fill="#69A658"/>
<path fill-rule="evenodd" clip-rule="evenodd" d="M33.1219 9.18574C33.1491 9.0303 33.1631 8.87151 33.1631 8.71011C33.1631 6.82234 31.2393 5.29199 28.866 5.29199C26.6157 5.29199 24.7694 6.66798 24.5842 8.41995C24.3413 8.38603 24.0913 8.36834 23.8362 8.36834C21.4629 8.36834 19.5391 9.89868 19.5391 11.7865C19.5391 13.082 20.4452 14.2092 21.7808 14.7889C21.3811 15.308 21.1507 15.9185 21.1507 16.5718C21.1507 18.4596 23.0745 19.9899 25.4477 19.9899C26.8859 19.9899 28.1591 19.4279 28.9391 18.5649C29.7191 19.4279 30.9922 19.9899 32.4304 19.9899C34.8036 19.9899 36.7275 18.4596 36.7275 16.5718C36.7275 16.1065 36.6106 15.6629 36.3989 15.2586C37.4017 14.6329 38.0459 13.6601 38.0459 12.5677C38.0459 10.68 36.122 9.14962 33.7488 9.14962C33.5359 9.14962 33.3265 9.16194 33.1219 9.18574ZM29.493 12.0921C29.2884 12.1159 29.079 12.1282 28.866 12.1282C28.6109 12.1282 28.3609 12.1105 28.118 12.0766C28.0605 12.6204 27.843 13.1279 27.5031 13.5693C28.072 13.8162 28.5629 14.1624 28.9391 14.5786C29.1768 14.3157 29.4603 14.0806 29.7803 13.8809C29.5686 13.4766 29.4517 13.033 29.4517 12.5677C29.4517 12.4063 29.4658 12.2476 29.493 12.0921Z" fill="#ED5E44"/>
<path d="M27.2761 12.5192C27.5924 12.3415 27.8461 12.0762 28.0776 11.8007C28.2347 11.5846 28.5587 11.0262 28.5986 10.5212C28.6803 10.848 28.9196 11.1026 29.088 11.3914C29.248 11.6656 29.4361 11.9354 29.6534 12.1671C29.8087 12.3329 30.0261 12.4435 30.2301 12.5364C30.6691 12.7361 31.1327 12.8833 31.5984 13.0058C31.7006 13.0327 31.8781 13.073 31.9877 13.096C32.038 13.1065 31.3867 13.2219 31.2892 13.2462C30.8771 13.3493 30.4986 13.4653 30.16 13.73C29.8426 13.9782 29.6288 14.3899 29.4544 14.7461C29.25 15.1638 29.1207 15.6643 29.1138 16.1287C29.1119 16.2603 29.1215 16.6551 29.1138 16.5237C29.1092 16.4457 29.0706 16.363 29.048 16.289C28.9394 15.9337 28.8113 15.5933 28.6701 15.2499C28.5896 15.054 28.5375 14.8727 28.4182 14.6946C28.269 14.4718 28.0868 14.281 27.8944 14.095C27.5243 13.7369 27.0453 13.4769 26.5419 13.3693C26.076 13.2698 25.612 13.2796 25.1394 13.3021C25.0428 13.3067 25.9028 13.1923 26.1612 13.0974C26.5532 12.9534 26.9135 12.723 27.2761 12.5192Z" fill="#FBDD6B"/>
<path d="M25.0449 13.4521C27.27 13.0506 29.0434 14.8303 29.094 17.1222" stroke="#E05941" stroke-width="0.41853" stroke-linecap="round"/>
<path d="M29.1506 17.1221C28.7491 14.897 30.5288 13.1235 32.8207 13.0729" stroke="#E05941" stroke-width="0.41853" stroke-linecap="round"/>
<path d="M26.3419 0.00638629C18.1778 -0.200824 16.6892 4.68591 16.9655 7.15518L20.5398 9.43451C27.4193 9.43451 27.2743 3.14909 26.3419 0.00638629Z" fill="#69A658"/>
<path fill-rule="evenodd" clip-rule="evenodd" d="M19.5444 8.21895C19.5823 8.00226 19.6019 7.7809 19.6019 7.55591C19.6019 4.92433 16.9201 2.79102 13.6118 2.79102C10.4748 2.79102 7.90098 4.70914 7.64287 7.15138C7.30428 7.10411 6.9559 7.07946 6.60029 7.07946C3.292 7.07946 0.610107 9.21278 0.610107 11.8444C0.610107 13.6503 1.87311 15.2215 3.73482 16.0297C3.1776 16.7533 2.85639 17.6044 2.85639 18.5151C2.85639 21.1467 5.53829 23.28 8.84657 23.28C10.8515 23.28 12.6263 22.4965 13.7136 21.2935C14.8009 22.4965 16.5758 23.28 18.5807 23.28C21.8889 23.28 24.5708 21.1467 24.5708 18.5151C24.5708 17.8665 24.4079 17.2482 24.1129 16.6846C25.5108 15.8123 26.4089 14.4563 26.4089 12.9335C26.4089 10.3019 23.727 8.16856 20.4187 8.16856C20.1217 8.16856 19.8298 8.18575 19.5444 8.21895ZM14.4861 12.2704C14.2007 12.3036 13.9087 12.3208 13.6118 12.3208C13.2562 12.3208 12.9078 12.2962 12.5692 12.2489C12.4891 13.0069 12.1859 13.7144 11.712 14.3297C12.5049 14.6739 13.1892 15.1566 13.7136 15.7368C14.045 15.3701 14.4403 15.0424 14.8865 14.764C14.5914 14.2004 14.4285 13.582 14.4285 12.9335C14.4285 12.7085 14.4481 12.4871 14.4861 12.2704Z" fill="#FF6B4F"/>
<path d="M11.3952 12.8657C11.836 12.618 12.1897 12.2481 12.5124 11.8642C12.7314 11.563 13.1831 10.7845 13.2387 10.0806C13.3525 10.536 13.6861 10.891 13.921 11.2936C14.1439 11.6758 14.4062 12.0519 14.7091 12.3749C14.9257 12.606 15.2287 12.7603 15.5131 12.8897C16.1249 13.168 16.7712 13.3732 17.4204 13.5441C17.563 13.5816 17.8103 13.6377 17.9631 13.6698C18.0332 13.6845 17.1253 13.8453 16.9895 13.8793C16.415 14.0229 15.8873 14.1846 15.4153 14.5536C14.9728 14.8995 14.6748 15.4735 14.4317 15.9701C14.1468 16.5524 13.9665 17.25 13.9569 17.8974C13.9542 18.0809 13.9677 18.6313 13.9569 18.448C13.9505 18.3394 13.8967 18.2241 13.8651 18.1209C13.7138 17.6256 13.5352 17.151 13.3384 16.6724C13.2261 16.3993 13.1535 16.1465 12.9873 15.8983C12.7792 15.5876 12.5253 15.3218 12.2571 15.0624C11.7411 14.5633 11.0734 14.2008 10.3717 14.0508C9.72218 13.912 9.07529 13.9257 8.41649 13.9571C8.2819 13.9635 9.48073 13.8041 9.841 13.6718C10.3874 13.471 10.8897 13.1499 11.3952 12.8657Z" fill="#FBDD6B"/>
<path d="M8.28491 14.1663C11.3867 13.6066 13.8589 16.0876 13.9294 19.2826" stroke="#E05941" stroke-width="0.583435" stroke-linecap="round"/>
<path d="M14.0084 19.2825C13.4487 16.1807 15.9296 13.7085 19.1247 13.638" stroke="#E05941" stroke-width="0.583435" stroke-linecap="round"/>
</svg>
